<svg width="149" height="406" viewBox="0 0 149 406" fill="none" xmlns="http://www.w3.org/2000/svg">
<mask id="mask0_214_1736" style="mask-type:alpha" maskUnits="userSpaceOnUse" x="0" y="0" width="149" height="406">
<rect x="0.5" y="0.5" width="148" height="405" rx="6.5" fill="#00D254" stroke="#00D254"/>
</mask>
<g mask="url(#mask0_214_1736)">
<path d="M-768.927 943.435L-1228 749.781L-296.293 384.453L-553.618 -482.376L-94.6036 -288.746L162.751 578.161L-768.927 943.435Z" fill="#00D254" fill-opacity="0.15"/>
<g clip-path="url(#clip0_214_1736)">
<path d="M118.008 129.689C115.764 129.895 114.211 127.573 113.191 125.564C110.468 130.251 103.088 131.258 99.2057 127.477C96.4829 133.46 86.9467 134.619 82.8693 129.465C79.5614 134.617 71.1768 135.373 67.0005 130.894C65.2397 133.315 61.9665 134.528 59.0541 133.839C56.1416 133.15 53.7582 130.603 53.2666 127.648C50.7015 128.861 48.0402 130.101 45.2026 130.16C42.365 130.218 39.2896 128.77 38.3704 126.085C35.8294 127.349 33.0238 128.377 30.2102 128.017C27.3967 127.653 24.6445 125.51 24.4441 122.681C21.8443 123.213 19.0815 123.482 16.5832 122.587C14.0849 121.692 11.942 119.354 12.0195 116.701C12.0943 114.048 15.0709 111.678 17.4944 112.765C17.6012 109.265 20.7007 106.115 24.1983 105.954C20.2358 101.562 23.2498 93.1744 29.1014 92.3087C27.3593 89.3268 27.4768 85.3535 29.3953 82.4812C31.3138 79.6088 34.9343 77.9736 38.3597 78.4385C35.7305 77.3671 35.6664 73.2923 37.6436 71.2536C39.6209 69.2149 42.683 68.7446 45.5179 68.5897C44.5079 64.042 49.5739 59.3767 54.0228 60.7528C54.6587 56.5257 60.04 53.8164 63.8128 55.823C64.5931 56.2372 65.3465 56.8223 66.2283 56.825C66.9604 56.8277 67.6231 56.4242 68.2617 56.0715C71.0351 54.5485 75.2622 54.1744 76.6917 56.9987C77.186 57.9766 77.2982 59.2698 78.2468 59.8203C79.2915 60.4268 80.566 59.7027 81.739 59.4168C84.4885 58.7435 87.5479 61.1135 87.5826 63.9431C92.2799 63.6866 96.3841 68.9236 95.0107 73.4232C99.6465 73.1026 103.304 79.1386 100.878 83.1011C106 83.9962 109.201 90.5318 106.77 95.1249C109.3 96.509 111.914 97.9652 113.632 100.284C115.347 102.604 115.903 106.051 114.126 108.324C116.181 109.692 118.316 111.149 119.47 113.329C120.627 115.509 120.402 118.633 118.326 119.966C119.547 121.545 120.792 123.247 121.014 125.23C121.236 127.215 119.999 129.502 118.011 129.687L118.008 129.689Z" fill="#D08B4B"/>
<path d="M96.9318 142.844L79.393 135.191L78.554 106.147L60.374 107.224L57.1864 134.876L52.0054 137.863L35.8507 189.034L70.4233 196.988L96.9318 142.844Z" fill="#FFC3A6"/>
<path d="M78.2895 107.141C75.1665 104.232 70.8864 101.886 65.6154 100.197C64.3768 99.8001 63.0129 99.3885 61.5897 98.9912C61.5963 99.1899 61.6095 99.3885 61.6161 99.6014C61.7808 103.944 61.8731 108.286 61.906 112.642C61.9258 114.785 59.3383 114.751 59.3186 116.893C60.1202 118.497 66.2611 120.036 68.3695 120.092C71.9537 120.192 76.2214 118.418 78.8239 117.027C79.0084 113.621 78.5622 111.081 78.9509 107.733L78.2895 107.141Z" fill="#F0AE91"/>
<path d="M88.8263 78.5508C85.0855 115.023 68.9647 117.161 61.4387 117.161C53.9127 117.161 40.8646 101.93 47.2773 70.2677C49.9493 62.6526 59.9421 58.2439 67.4681 58.2439C74.9941 58.2439 88.1583 63.9886 88.8263 78.5508Z" fill="#FFC3A6"/>
<path d="M113.196 149.727C121.581 156.54 129.067 236.124 129.067 236.124C129.067 236.124 110.551 233.367 103.459 219.184C96.368 205.001 94.0033 167.573 94.0033 167.573L113.196 149.729V149.727Z" fill="#FFC3A6"/>
<path d="M-2.52133 192.785C-2.52133 192.785 19.5411 227.457 29.3899 225.092C39.2388 222.727 46.3302 185.298 46.3302 185.298L39.2388 152.992L27.418 161.659C27.418 161.659 21.1149 196.331 21.1149 195.147C21.1149 193.963 -0.159313 179.388 -0.159313 179.388L-2.524 192.782L-2.52133 192.785Z" fill="#FFC3A6"/>
<path d="M57.5177 134.544L31.3378 142.4C31.3378 142.4 31.0225 165.381 27.41 177.552C25.8442 182.827 26.7741 188.681 30.3091 192.897C32.0085 194.925 34.3224 196.836 37.47 198.209L39.1052 241.789L89.934 236.384C89.934 236.384 100.707 169.822 113.196 149.726L79.5026 134.413L57.5177 134.544Z" fill="white"/>
<path d="M90.9253 235.462C90.9253 235.462 107.882 261.693 108.242 270.673L70.5221 306.595L19.5117 262.051C19.5117 262.051 21.187 248.298 39.653 236.728L90.9253 235.459V235.462Z" fill="#00D254"/>
<path d="M84.9882 136.255C84.9882 136.255 60.2297 175.038 59.8156 173.707C59.4014 172.377 52.2326 136.116 52.2326 136.116L58.9713 133.965L79.3396 133.5L84.9882 136.252V136.255Z" fill="#FFC3A6"/>
<g style="mix-blend-mode:multiply">
<path d="M61.36 193.213C61.36 193.213 76.5902 204.52 88.6861 194.33C88.6861 194.33 77.7338 210.401 61.36 193.213Z" fill="#CFEAF4"/>
</g>
<path d="M20.5271 258.206C-2.29686 299.626 16.3 514.332 16.3 514.332L48.4223 517.712C48.4223 517.712 57.9105 309.945 64.0613 310.191C69.3438 310.402 89.8431 517.712 89.8431 517.712H120.274C120.274 517.712 121.808 296.062 106.361 264.135C96.4242 243.598 20.5297 258.203 20.5297 258.203L20.5271 258.206Z" fill="#00D254"/>
<path d="M54.6614 91.2053C54.6106 89.1719 53.9079 87.5367 53.0956 87.5581C52.2806 87.5768 51.6634 89.2414 51.7142 91.2774C51.765 93.3108 52.4677 94.946 53.28 94.9247C54.0949 94.906 54.7121 93.2413 54.6614 91.2053Z" fill="black"/>
<path d="M72.9883 90.5908C72.9376 88.5574 72.2348 86.9222 71.4226 86.9436C70.6076 86.9623 69.9904 88.6269 70.0412 90.6629C70.0919 92.6963 70.7946 94.3315 71.6069 94.3102C72.4219 94.2915 73.0391 92.6268 72.9883 90.5908Z" fill="black"/>
<path d="M62.6425 101.645C62.7414 101.653 62.8402 101.626 62.907 101.565C63.2704 101.239 63.3666 100.763 63.1555 100.354C63.1154 100.271 63.0166 100.212 62.9017 100.199C62.1936 100.106 61.4615 100.012 60.8389 99.7502C60.3313 99.5392 59.7755 99.133 59.7381 98.6253C59.7114 98.2406 59.9785 97.8825 60.2644 97.5005L60.3874 97.3321C62.1028 94.9861 61.9959 92.0416 61.9104 89.6769C61.905 89.5487 61.7447 89.4285 61.5871 89.4391C61.4134 89.4391 61.2745 89.5407 61.2798 89.6689C61.368 92.1004 61.4668 94.8579 59.8316 97.097L59.7087 97.26C59.4094 97.6581 59.0701 98.1123 59.1075 98.6307C59.1503 99.2212 59.7033 99.8064 60.5477 100.156C61.2023 100.429 61.9398 100.544 62.6158 100.632C62.6719 100.851 62.5971 101.092 62.4127 101.257C62.3032 101.353 62.3272 101.503 62.4635 101.589C62.5169 101.621 62.5784 101.639 62.6425 101.645Z" fill="#F0AE91"/>
<path d="M90.8237 82.8286C89.9019 86.0296 88.1063 88.91 86.9975 92.0522C84.4644 91.3254 82.5861 88.763 82.6529 86.1285C81.1699 85.3883 79.7511 84.4157 78.8293 83.037C77.9101 81.6583 77.5654 79.8146 78.2655 78.313C74.8881 76.3758 73.2262 71.8923 74.5221 68.221C72.0639 69.6478 68.6651 69.1829 66.6798 67.1495C66.76 68.8809 65.8596 70.6257 64.4033 71.5663C62.9471 72.5068 60.9859 72.6057 59.4415 71.8174C60.2244 73.3324 59.4121 75.307 58.004 76.2743C56.5985 77.2415 54.7843 77.3912 53.0822 77.2549C53.5071 80.2208 50.7523 83.2134 47.7623 83.037C48.0776 84.6348 47.2467 86.2995 45.9962 87.3415C44.7457 88.3836 43.1345 88.8913 41.5367 89.2012C41.5714 86.1445 41.6061 83.0798 42.0069 80.0524C42.6856 74.949 44.4518 69.9177 47.6047 65.8456C50.7576 61.7735 55.3668 58.7248 60.4595 57.9767C63.4174 57.5411 66.426 57.8725 69.3972 58.2091C72.6971 58.5859 76.0344 58.9813 79.1365 60.1703C83.4945 61.8403 87.2353 65.1081 89.3996 69.2417C91.5638 73.3752 92.1143 78.345 90.821 82.8286H90.8237Z" fill="#D08B4B"/>
<path d="M83.6548 93.6448C83.6548 93.6448 85.0362 87.9429 89.9313 91.6596C91.8738 93.1345 90.2091 99.5632 83.8953 98.6975C83.8953 98.6975 81.9234 97.5406 83.6548 93.6448Z" fill="#FFC3A6"/>
<path d="M56.1496 105.602L69.448 105.695C69.448 105.695 61.2852 114.895 56.1496 105.602Z" fill="white"/>
<path d="M76.0932 83.9322C74.1373 82.289 69.0338 82.3584 67.8662 84.9235C67.7139 85.2575 68.0105 85.5461 68.3071 85.6049C69.5068 85.8427 70.0278 85.319 71.3023 85.1399C72.7799 84.9315 74.1346 85.4098 75.5882 85.351C76.3684 85.319 76.7104 84.4532 76.0932 83.9322Z" fill="black"/>
<path d="M48.759 84.7659C50.5064 82.9035 55.5832 82.3718 57.0447 84.7792C57.2344 85.0919 56.9726 85.4152 56.6867 85.5087C55.5244 85.8881 54.9446 85.4259 53.6567 85.3991C52.1657 85.3671 50.8752 86.0003 49.4243 86.1152C48.6441 86.1767 48.2032 85.3564 48.7563 84.7659H48.759Z" fill="black"/>
<path d="M92.1944 237.287L91.5585 226.588L38.3063 227.459L38.528 237.541L92.1944 237.287Z" fill="#5E3931"/>
<path d="M65.2103 240.357L53.3254 240.632C51.9253 240.664 50.763 239.558 50.7309 238.155L50.4557 226.27C50.4236 224.87 51.5298 223.708 52.9326 223.676L64.8175 223.401C66.2176 223.369 67.3799 224.475 67.412 225.877L67.6872 237.762C67.7192 239.162 66.6131 240.325 65.2103 240.357ZM55.7435 235.502L62.557 235.344L62.3994 228.531L55.5859 228.688L55.7435 235.502Z" fill="#F2CD8B"/>
<path d="M13.3849 189.044L-1.75713 173.945C-1.75713 173.945 -14.8471 167.925 -16.1403 169.245C-17.4309 170.562 -23.6459 182.159 -23.6459 182.159C-23.6459 182.159 -14.994 189.186 -2.09113 189.6C-1.02501 189.635 5.61748 196.526 5.61748 196.526L13.3849 189.044Z" fill="#FFC3A6"/>
<path d="M2.64357 178.215C2.64357 178.215 -0.0738201 173.098 -5.8132 167.038C-8.00153 164.73 -16.0308 161.371 -16.3541 161.847C-17.5404 163.581 -15.2078 165.315 -9.18254 169.299C-9.08902 169.36 -8.94206 175.714 -8.37827 177.259C-6.43843 182.565 -6.91671 178.953 -3.65425 182.14L-2.39575 183.369L2.64624 178.215H2.64357Z" fill="#FFC3A6"/>
<path d="M138.288 231.029C138.719 221.851 137.701 212.603 135.328 203.628L156.61 184.141L143.982 161.09L117.682 169.43C117.247 168.909 116.873 168.35 116.424 167.837C110.187 160.708 103.056 154.942 95.3981 150.437L97.9418 122.601L73.5174 114.716L59.9144 139.258C50.4316 138.526 40.874 139.474 31.6424 142.082L14.8651 121.791L-7.57936 134.51L-0.514687 159.824C-1.00633 160.265 -1.53004 160.639 -2.01366 161.093C-8.86457 167.522 -14.3688 174.912 -18.6359 182.864L-45.556 182.53L-51.4156 208.328L-28.9257 219.264C-29.5536 229.348 -28.4688 239.531 -25.7086 249.372L-46.1518 269.075L-33.2115 291.939L-7.75571 283.122C-7.55264 283.359 -7.38698 283.613 -7.18124 283.848C-1.05175 290.857 5.94345 296.562 13.4517 301.034L13.2165 331.69L38.1433 337.656L49.4483 312.441C59.0728 313.171 68.7693 312.155 78.1239 309.446L97.2551 330.413L119.224 316.831L110.695 291.065C110.877 290.9 111.072 290.761 111.254 290.592C118.342 283.939 123.975 276.249 128.301 267.98L155.01 270.115L162.194 244.677L138.291 231.029H138.288ZM94.332 270.537C70.816 292.607 34.0365 290.387 12.3455 265.586C-9.34552 240.782 -7.86259 202.647 15.6534 180.577C39.1693 158.507 75.9489 160.73 97.6399 185.534C119.331 210.337 117.848 248.466 94.332 270.537Z" fill="#40474F"/>
<path d="M132.992 217.223L141.176 213.883C142.153 213.485 143.269 213.956 143.666 214.93L143.758 215.156C144.157 216.133 143.686 217.248 142.711 217.646L134.528 220.986C133.55 221.385 132.435 220.914 132.037 219.939L131.945 219.714C131.546 218.737 132.017 217.621 132.992 217.223Z" fill="#FFC3A6"/>
<path d="M133.125 221.56L142.382 217.782C143.359 217.383 144.475 217.854 144.873 218.829L144.965 219.054C145.364 220.031 144.893 221.147 143.918 221.544L134.66 225.322C133.683 225.721 132.568 225.25 132.17 224.275L132.078 224.05C131.679 223.073 132.15 221.957 133.125 221.56Z" fill="#FFC3A6"/>
<path d="M133.423 225.831L143.836 221.581C144.813 221.183 145.929 221.654 146.326 222.628L146.418 222.854C146.817 223.831 146.346 224.946 145.371 225.344L134.959 229.594C133.981 229.992 132.866 229.521 132.468 228.547L132.376 228.321C131.977 227.344 132.448 226.229 133.423 225.831Z" fill="#FFC3A6"/>
<path d="M143.449 225.756L137.244 228.288C136.267 228.686 135.799 229.801 136.197 230.778L136.29 231.006C136.689 231.983 137.804 232.452 138.781 232.053L144.985 229.521C145.962 229.122 146.431 228.007 146.032 227.03L145.94 226.803C145.541 225.826 144.426 225.357 143.449 225.756Z" fill="#FFC3A6"/>
</g>
</g>
<defs>
<clipPath id="clip0_214_1736">
<rect width="306.29" height="538.096" fill="white" transform="translate(-79.4899 54.9041)"/>
</clipPath>
</defs>
</svg>
