<svg width="149" height="406" viewBox="0 0 149 406" fill="none" xmlns="http://www.w3.org/2000/svg">
<mask id="mask0_214_1635" style="mask-type:alpha" maskUnits="userSpaceOnUse" x="0" y="0" width="149" height="406">
<rect x="0.5" y="0.5" width="148" height="405" rx="6.5" fill="#00D254" stroke="#00D254"/>
</mask>
<g mask="url(#mask0_214_1635)">
<path d="M-768.927 943.435L-1228 749.781L-296.293 384.453L-553.618 -482.376L-94.6036 -288.746L162.751 578.161L-768.927 943.435Z" fill="#00D254" fill-opacity="0.15"/>
<g clip-path="url(#clip0_214_1635)">
<path d="M119.165 472.294L119.447 288.531L97.0649 256.627L76.031 260.086L54.9971 256.627L32.6154 288.531L32.748 472.098H62.9652L76.031 330.822L87.6662 471.711L119.165 472.294Z" fill="#00D254"/>
<path d="M92.3053 141.77L90.1414 120.396L75.7996 123.817V123.532L75.0922 123.674L74.3847 123.532V123.817L59.5323 120.739L57.879 141.77L51.7115 143.855V161.015H101.119V144.749L92.3053 141.77Z" fill="#F0AE91"/>
<path d="M115.924 190.524H135.832L132.146 162.535C132.146 161.82 132.107 161.113 132.032 160.414C130.955 150.405 121.401 143.477 111.376 144.392L103.447 145.115V145.097L97.4277 143.162L94.5715 142.244L93.0888 141.775V138.544L74.9806 146.377L56.9501 138.544V141.775L55.468 142.244L46.574 145.115L37.4959 144.286C32.0365 143.787 26.4105 145.084 22.1691 148.558C18.3782 151.663 15.7732 156.174 15.7732 162.947L13.718 185.862L15.3018 191.08L34.1151 190.523C38.8711 214.733 32.6026 257.727 28.9296 289.95C28.8017 291.072 29.6763 292.034 30.8044 292.043L65.9657 291.348C68.299 291.348 70.3461 289.792 70.9694 287.544L74.2293 278.193L78.2907 287.817C79.0035 289.928 80.9828 291.348 83.211 291.348L121.181 292.042C122.332 292.063 123.245 291.087 123.109 289.945C119.327 258.119 111.528 215.629 115.924 190.523L115.924 190.524Z" fill="white"/>
<path d="M74.9806 146.377L65.6595 150.402L66.2823 153.639L71.7967 161.075L66.8683 237.185L73.5359 246.135L80.8846 237.016L78.1529 160.507L84.0961 153.418L80.0107 147.533L74.9806 146.377Z" fill="#445E8E"/>
<path d="M91.5845 134.651L74.9806 146.377L84.8497 160.507L98.321 143.451L91.5845 134.651Z" fill="#E7E9E8"/>
<path d="M58.4463 134.559L74.9806 146.377L65.1115 160.507L51.6402 143.451L58.4463 134.559Z" fill="#E7E9E8"/>
<path d="M85.4537 66.8259C70.4874 63.9276 55.9073 76.1844 51.9183 96.7842C47.9293 117.385 57.3678 137.699 74.6336 141.578C87.6071 144.493 98.2883 127.643 102.609 107.215C107.815 82.6031 100.42 69.7242 85.4537 66.8259Z" fill="#FFC3A6"/>
<path d="M86.5016 115.33C86.6079 115.282 86.7129 115.22 86.8061 115.148C86.9562 115.032 90.4902 112.27 89.9093 110.332C89.642 109.499 88.7666 109.315 87.9942 109.153C87.1365 108.972 86.3255 108.802 85.9577 107.757C85.6954 107.146 85.7313 105.974 86.0606 104.147C86.1258 103.786 85.7699 103.566 85.267 103.655C84.7645 103.744 84.3044 104.107 84.2393 104.468C83.8704 106.521 83.8491 107.772 84.1725 108.523C84.6851 109.986 85.9928 110.26 86.946 110.462C87.6485 110.609 87.9913 110.697 88.1053 111.052C88.4666 112.257 85.733 114.414 85.7058 114.436C85.3004 114.75 85.2156 115.165 85.519 115.362C85.7529 115.514 86.1443 115.493 86.4982 115.333L86.5016 115.33Z" fill="#F0AE91"/>
<path d="M97.5034 102.295C97.7827 100.853 97.1476 99.517 96.0848 99.3112C95.0221 99.1054 93.9341 100.108 93.6548 101.55C93.3755 102.992 94.0106 104.328 95.0734 104.534C96.1361 104.74 97.2241 103.738 97.5034 102.295Z" fill="black"/>
<path d="M78.0488 100.612C78.3281 99.1698 77.6929 97.8338 76.6302 97.628C75.5674 97.4222 74.4795 98.4245 74.2002 99.8668C73.9209 101.309 74.556 102.645 75.6188 102.851C76.6815 103.057 77.7695 102.054 78.0488 100.612Z" fill="black"/>
<path d="M102.736 87.0857C104.564 97.0331 102.288 107.555 100.72 111.502C101.163 111.459 101.525 111.062 101.813 110.694C104.991 106.645 106.754 101.781 107.52 97.0021C108.286 92.2233 108.113 87.4871 107.796 82.8169C107.714 81.614 107.494 79.0523 106.814 78.1275C106.133 77.2032 105.094 78.0527 103.991 77.6309C103.7 77.5199 103.377 77.4089 103.054 77.5269C102.811 77.6157 102.618 77.8196 102.45 78.0217C100.198 80.7295 102.236 84.3657 102.736 87.0852V87.0857Z" fill="black"/>
<path d="M67.4863 71.8366C67.4863 71.8366 69.2904 77.8376 62.7688 86.8561C61.0694 89.1801 59.7859 92.9611 58.7103 96.7421C58.6063 99.1356 58.5023 101.494 58.3978 103.853C58.2938 105.622 56.9063 107.01 55.1373 107.114C52.3973 107.218 48.7548 107.426 48.1653 107.287C47.2984 107.079 46.6738 106.316 46.7083 105.449C46.9163 102.535 46.3957 97.4011 46.4308 91.5736C46.4653 88.8336 46.6388 85.9541 47.0553 83.1095C48.2693 74.7845 51.7033 66.598 60.6184 62.505C74.0423 56.3305 67.4863 71.836 67.4863 71.836V71.8366Z" fill="black"/>
<path d="M113.718 70.7144C113.867 69.3765 113.339 67.8915 112.137 67.1507C109.93 65.7912 107.067 67.4907 104.481 67.1297C104.974 64.8571 101.993 63.0051 99.5776 63.3644C99.4304 63.3861 99.2756 63.4194 99.1243 63.448C99.1371 62.8422 99.1021 62.2357 98.9584 61.6434C98.8672 61.2665 98.7416 60.8862 98.4945 60.5871C97.915 59.8849 96.8803 59.8276 95.9701 59.8083C92.0524 59.7254 88.1423 59.3088 84.2953 58.5646C80.0077 57.735 75.6513 56.4935 71.3456 57.2197C68.3545 57.7245 66.2537 59.9036 66.5031 62.9543C64.5682 63.2201 63.0528 64.1823 62.6742 66.8317C62.3143 69.3485 62.8284 72.4472 64.6588 74.4183C66.7941 76.7177 70.4658 77.8096 73.3577 78.8706C78.4532 80.74 83.7321 82.2642 89.1711 82.6889C97.7344 83.3573 107.001 80.8481 112.02 74.3406C112.851 73.2633 113.569 72.0522 113.717 70.7144H113.718Z" fill="black"/>
<path d="M43.6809 102.795C44.042 108.02 46.7755 114.17 49.6077 113.959C52.44 113.747 54.2995 107.256 53.9385 102.03C53.5775 96.8046 51.1325 94.8241 48.2997 95.0356C45.4674 95.2471 43.3199 97.5699 43.6809 102.795Z" fill="#FFC3A6"/>
<path d="M47.5909 101.831C47.5225 101.825 47.455 101.808 47.3888 101.777C47.0922 101.638 46.9642 101.285 47.1032 100.989C47.1634 100.858 47.7208 99.7024 48.5409 99.2181C48.8225 99.0517 49.1864 99.1456 49.3528 99.4271C49.5192 99.7087 49.4253 100.073 49.1438 100.239C48.7132 100.493 48.292 101.246 48.1782 101.49C48.0705 101.721 47.8324 101.85 47.5923 101.83L47.5909 101.831Z" fill="#F0AE91"/>
<path d="M100.185 97.3813C100.178 97.3796 100.171 97.3778 100.164 97.3761L92.9889 95.284C92.5075 95.1432 92.2306 94.6402 92.3714 94.1588C92.5122 93.6774 93.0514 93.4484 93.4965 93.5413L100.672 95.6334C101.153 95.7742 101.43 96.2772 101.289 96.7586C101.15 97.2329 100.659 97.5075 100.185 97.3813Z" fill="black"/>
<path d="M70.734 93.9349C70.3758 93.8396 70.0989 93.5294 70.0639 93.1386C70.0183 92.6408 70.3869 92.1998 70.8864 92.1548L78.331 91.4853C78.8276 91.438 79.2699 91.8083 79.3148 92.3078C79.3604 92.8056 78.9918 93.2467 78.4923 93.2917L71.0477 93.9612C70.9408 93.9711 70.8333 93.9612 70.734 93.9343V93.9349Z" fill="black"/>
<path d="M148.525 226.064L131.385 157.294C131.334 157.087 131.059 157.042 130.944 157.222L111.362 187.889L124.295 225.554L89.5789 241.755L97.8443 262.915L143.675 240.393C148.249 237.19 150.213 231.387 148.524 226.064H148.525Z" fill="white"/>
<path d="M23.8289 225.553L36.7621 187.888L18.3268 159.017C17.7788 158.159 16.4702 158.373 16.2236 159.361L-0.400672 226.064C-2.09021 231.387 -0.126677 237.19 4.44828 240.393L47.5496 261.655L58.545 241.754L23.8289 225.553Z" fill="white"/>
<path d="M115.628 229.569L115.322 225.576L89.5794 241.755L115.628 229.569Z" fill="#999999"/>
<path opacity="0.3" d="M118.226 252.902L91.5879 261.572L118.551 255.421L118.226 252.902Z" fill="#999999"/>
<path d="M104.077 203.998H28.8034C27.6138 203.998 26.6494 204.963 26.6494 206.152V224.166C26.6494 225.356 27.6138 226.32 28.8034 226.32H104.077C105.266 226.32 106.231 225.356 106.231 224.166V206.152C106.231 204.963 105.266 203.998 104.077 203.998Z" fill="#00D254"/>
<path d="M100.216 215.16C100.216 211.973 97.6333 209.39 94.4471 209.39C91.2608 209.39 88.6774 211.973 88.6774 215.16C88.6774 218.346 91.2608 220.929 94.4471 220.929C97.6333 220.929 100.216 218.346 100.216 215.16Z" fill="#E7E9E8"/>
<path d="M98.1925 215.159C98.1925 213.09 96.5158 211.413 94.4471 211.413C92.3784 211.413 90.7011 213.09 90.7011 215.159C90.7011 217.228 92.3784 218.905 94.4471 218.905C96.5158 218.905 98.1925 217.228 98.1925 215.159Z" fill="#333335"/>
<path d="M82.6151 222.103V208.216H36.3316V222.103H82.6151Z" fill="#E7E9E8"/>
<path d="M77.2859 213.566V212.277H41.6607V213.566H77.2859Z" fill="#B7B7B7"/>
<path d="M77.2859 218.041V216.752H41.6607V218.041H77.2859Z" fill="#B7B7B7"/>
<path d="M112.279 226.3H37.0057C35.8161 226.3 34.8517 227.264 34.8517 228.454V246.467C34.8517 247.657 35.8161 248.621 37.0057 248.621H112.279C113.469 248.621 114.433 247.657 114.433 246.467V228.454C114.433 227.264 113.469 226.3 112.279 226.3Z" fill="#00AE46"/>
<path d="M108.418 237.461C108.418 234.275 105.836 231.691 102.649 231.691C99.4631 231.691 96.8797 234.275 96.8797 237.461C96.8797 240.647 99.4631 243.23 102.649 243.23C105.836 243.23 108.418 240.647 108.418 237.461Z" fill="#E7E9E8"/>
<path d="M106.395 237.461C106.395 235.392 104.718 233.715 102.649 233.715C100.581 233.715 98.9034 235.392 98.9034 237.461C98.9034 239.529 100.581 241.206 102.649 241.206C104.718 241.206 106.395 239.529 106.395 237.461Z" fill="#333335"/>
<path d="M90.8173 244.404V230.517H44.5339V244.404H90.8173Z" fill="#E7E9E8"/>
<path d="M85.4882 235.868V234.579H49.8631V235.868H85.4882Z" fill="#B7B7B7"/>
<path d="M85.4882 240.343V239.053H49.8631V240.343H85.4882Z" fill="#B7B7B7"/>
<path d="M118.138 181.694H42.8648C41.6752 181.694 40.7108 182.658 40.7108 183.848V201.861C40.7108 203.051 41.6752 204.015 42.8648 204.015H118.138C119.328 204.015 120.292 203.051 120.292 201.861V183.848C120.292 182.658 119.328 181.694 118.138 181.694Z" fill="#00AE46"/>
<path d="M114.278 192.855C114.278 189.668 111.695 187.085 108.508 187.085C105.322 187.085 102.739 189.668 102.739 192.855C102.739 196.041 105.322 198.624 108.508 198.624C111.695 198.624 114.278 196.041 114.278 192.855Z" fill="#E7E9E8"/>
<path d="M112.254 192.855C112.254 190.786 110.577 189.109 108.508 189.109C106.44 189.109 104.762 190.786 104.762 192.855C104.762 194.923 106.44 196.6 108.508 196.6C110.577 196.6 112.254 194.923 112.254 192.855Z" fill="#333335"/>
<path d="M96.6764 199.798V185.911H50.3929V199.798H96.6764Z" fill="#E7E9E8"/>
<path d="M91.3472 191.262V189.973H55.722V191.262H91.3472Z" fill="#B7B7B7"/>
<path d="M91.3478 195.736V194.447H55.7226V195.736H91.3478Z" fill="#B7B7B7"/>
<path d="M112.279 159.522H37.0057C35.8161 159.522 34.8517 160.487 34.8517 161.676V179.69C34.8517 180.88 35.8161 181.844 37.0057 181.844H112.279C113.469 181.844 114.433 180.88 114.433 179.69V161.676C114.433 160.487 113.469 159.522 112.279 159.522Z" fill="#00D254"/>
<path d="M108.418 170.684C108.418 167.498 105.836 164.914 102.649 164.914C99.4631 164.914 96.8797 167.498 96.8797 170.684C96.8797 173.87 99.4631 176.453 102.649 176.453C105.836 176.453 108.418 173.87 108.418 170.684Z" fill="#E7E9E8"/>
<path d="M106.395 170.684C106.395 168.615 104.718 166.938 102.649 166.938C100.581 166.938 98.9034 168.615 98.9034 170.684C98.9034 172.753 100.581 174.429 102.649 174.429C104.718 174.429 106.395 172.753 106.395 170.684Z" fill="#333335"/>
<path d="M90.8173 177.627V163.74H44.5338V177.627H90.8173Z" fill="#E7E9E8"/>
<path d="M85.4882 169.091V167.802H49.8631V169.091H85.4882Z" fill="#B7B7B7"/>
<path d="M85.4882 173.566V172.276H49.8631V173.566H85.4882Z" fill="#B7B7B7"/>
<path d="M67.6704 245.972C68.4357 245.618 69.2314 245.212 70.0715 245.28C70.5943 245.323 71.0827 245.547 71.553 245.779C74.5056 247.233 77.2543 249.1 79.694 251.309C79.0502 251.853 78.407 252.399 77.7632 252.943C74.2094 255.951 70.4857 259.047 65.9715 260.184C60.4004 261.586 54.577 259.782 49.1345 257.943C48.94 257.878 48.7297 257.799 48.6257 257.623C48.4931 257.398 48.5859 257.113 48.6835 256.871C49.4529 254.965 50.3923 253.128 51.4854 251.387C52.3845 249.955 53.2807 247.811 55.0707 247.837C59.5533 247.902 63.4763 247.907 67.6698 245.972H67.6704Z" fill="#F0AE91"/>
<path d="M72.4557 257.129C70.4647 258.493 68.327 259.599 65.9674 260.188C60.4005 261.589 54.5759 259.783 49.1199 257.94C48.9359 257.866 48.7145 257.793 48.6409 257.608C48.4937 257.387 48.6041 257.129 48.6777 256.871C49.4518 254.954 50.4105 253.11 51.4796 251.378C52.4015 249.94 53.286 247.802 55.0555 247.839C55.8296 247.839 56.5669 247.876 57.2674 247.876C59.6264 249.461 66.8151 254.438 69.0643 255.58C70.023 256.059 71.1657 256.576 72.4562 257.129H72.4557Z" fill="#FFC3A6"/>
<path d="M90.6363 248.602L87.28 248.297C83.3097 244.869 80.7006 240.495 80.7356 235.25C80.7479 233.372 81.0424 231.43 80.4167 229.66C79.791 227.889 77.7743 226.41 76.0655 227.189C74.5792 227.866 74.1703 229.748 73.9506 231.366C73.6422 233.64 73.3612 236.067 74.3572 238.133C71.5571 235.593 69.1286 232.644 67.1709 229.409C66.3559 228.063 65.4533 226.534 63.9227 226.168C62.7461 225.887 61.417 226.482 60.8421 227.547C60.4542 228.265 60.4618 229.145 60.7609 229.901C59.8495 229.09 58.2506 228.973 57.362 229.877C56.7077 230.543 56.6264 231.542 56.9121 232.424C56.6498 232.353 56.3758 232.333 56.11 232.391C55.0929 232.614 54.3889 233.671 54.3901 234.713C54.3913 235.47 54.7143 236.19 55.2004 236.778C54.6039 236.519 53.7603 236.656 53.3373 237.209C52.7198 238.016 52.8431 239.172 53.1989 240.124C53.9519 242.14 56.6095 245.464 58.3861 246.678C60.1627 247.892 68.1979 253.455 70.5955 254.674C73.8198 256.313 79.472 258.364 83.6059 260.463C85.6091 261.48 88.1183 261.738 90.4522 261.289C92.1687 260.958 90.6357 248.604 90.6357 248.604L90.6363 248.602Z" fill="#FFC3A6"/>
<path d="M60.7609 229.901C60.7609 229.901 64.1207 236.57 69.579 240.246C69.579 240.246 63.8502 237.633 60.7609 229.901Z" fill="#F0AE91"/>
<path d="M56.9314 232.492C56.9314 232.492 60.2912 239.162 65.7495 242.837C65.7495 242.837 60.0207 240.224 56.9314 232.492Z" fill="#F0AE91"/>
<path d="M55.2851 236.74C55.2851 236.74 58.5906 242.561 63.6411 245.609C63.6411 245.609 58.396 243.525 55.2851 236.74Z" fill="#F0AE91"/>
<path d="M126.302 137.597H51.0285C49.8389 137.597 48.8746 138.561 48.8746 139.751V157.764C48.8746 158.954 49.8389 159.918 51.0285 159.918H126.302C127.491 159.918 128.456 158.954 128.456 157.764V139.751C128.456 138.561 127.491 137.597 126.302 137.597Z" fill="#00AE46"/>
<path d="M122.441 148.757C122.441 145.571 119.858 142.988 116.672 142.988C113.486 142.988 110.902 145.571 110.902 148.757C110.902 151.944 113.486 154.527 116.672 154.527C119.858 154.527 122.441 151.944 122.441 148.757Z" fill="#E7E9E8"/>
<path d="M120.418 148.757C120.418 146.689 118.741 145.011 116.672 145.011C114.603 145.011 112.926 146.689 112.926 148.757C112.926 150.826 114.603 152.503 116.672 152.503C118.741 152.503 120.418 150.826 120.418 148.757Z" fill="#333335"/>
<path d="M104.84 155.701V141.814H58.5566V155.701H104.84Z" fill="#E7E9E8"/>
<path d="M99.511 147.165V145.876H63.8859V147.165H99.511Z" fill="#B7B7B7"/>
<path d="M99.511 151.639V150.35H63.8859V151.639H99.511Z" fill="#B7B7B7"/>
<path opacity="0.3" d="M32.9975 254.413L32.8351 256.44L48.4025 259.521L32.9975 254.413Z" fill="#B7B7B7"/>
<path fill-rule="evenodd" clip-rule="evenodd" d="M81.8557 120.387C86.3441 120.703 90.7976 121.534 90.7976 121.534C90.7976 121.534 88.5853 128.32 81.6546 128.18C75.0798 127.893 73 120.46 73 120.46C73 120.46 77.3654 120.071 81.8557 120.387Z" fill="white"/>
</g>
</g>
<defs>
<clipPath id="clip0_214_1635">
<rect width="150" height="444" fill="white" transform="translate(-1 57)"/>
</clipPath>
</defs>
</svg>
