<svg width="149" height="406" viewBox="0 0 149 406" fill="none" xmlns="http://www.w3.org/2000/svg">
<mask id="mask0_214_1837" style="mask-type:alpha" maskUnits="userSpaceOnUse" x="0" y="0" width="149" height="406">
<rect x="0.5" y="0.5" width="148" height="405" rx="6.5" fill="#00D254" stroke="#00D254"/>
</mask>
<g mask="url(#mask0_214_1837)">
<path d="M-768.927 943.435L-1228 749.781L-296.293 384.453L-553.618 -482.376L-94.6036 -288.746L162.751 578.161L-768.927 943.435Z" fill="#00D254" fill-opacity="0.15"/>
<g clip-path="url(#clip0_214_1837)">
<path d="M140.158 433.898C139.626 433.355 137.677 431.257 135.035 428.978C132.724 426.986 130.04 424.462 127.154 422.427C126.003 421.618 124.235 420.319 123.234 419.285C122.276 418.284 121.36 417.251 120.508 416.154C117.856 412.767 115.683 409.029 113.819 405.152C112.935 403.31 111.348 399.262 111.657 391.69C112.136 380.23 112.999 376.076 112.925 368.631L87.2672 372.572C88.0873 376.683 89.0352 385.885 89.5038 390.571C90.2174 397.697 91.2718 398.357 88.6198 405.514C87.8423 407.623 86.6494 409.657 86.5855 411.905C86.4684 415.558 89.376 418.668 92.5925 420.404C95.2551 421.842 98.3119 422.427 100.9 423.961C103.627 425.58 105.757 428.04 107.716 430.49C109.57 432.79 111.071 435.528 113.638 437.136C116.492 438.915 119.187 439.436 122.467 440.054C126.238 440.757 131.063 440.768 134.279 440.47C139.871 439.937 144.003 437.828 140.169 433.909L140.158 433.898Z" fill="#FFC3A6"/>
<path d="M26.5586 380.422C25.6959 394.363 27.1231 404.194 27.0379 413.13C26.8675 417.294 26.516 420.798 25.5255 425.175C24.2368 430.852 22.096 438.744 21.1907 442.419C19.9233 447.563 18.9754 450.79 20.6369 456.616C20.7647 457.074 20.967 457.511 21.1907 457.937C23.5871 462.761 29.8496 466.489 31.8946 465.946C32.4377 466.894 33.8649 467.49 35.4412 467.267C35.6649 467.235 35.8885 467.181 36.1229 467.118C36.3465 467.054 36.5808 466.968 36.8045 466.862C38.1678 466.223 39.4778 464.881 40.266 462.538C40.3938 462.144 40.5109 461.728 40.6174 461.281C42.2363 454.124 41.2565 449.459 41.1713 446.647C41.0754 443.399 41.3417 439.277 41.7357 434.047C42.1192 428.818 43.6955 412.405 45.6658 404.588C47.125 399.124 48.9462 392.286 50.8633 384.98L26.5586 380.432V380.422Z" fill="#FFC3A6"/>
<path d="M50.6183 184.003C43.312 196.517 33.4602 213.899 32.5549 242.23C31.3407 279.986 30.5526 307.039 30.2756 311.586C30.0094 316.134 26.91 324.421 23.9705 346.787C21.0309 369.153 24.2367 411.926 24.2367 411.926C24.2367 411.926 26.7503 417.006 35.3027 418.008C43.1949 418.934 46.9013 415.228 46.9013 415.228C46.9013 415.228 59.3944 355.371 62.76 341.941C66.1256 328.51 77.607 269.783 77.607 269.783L81.8034 305.942C81.8034 305.942 79.0555 318.254 80.9407 337.979C82.8258 357.714 89 397 89 397C89 397 92.635 399.561 101.028 399.23C108.707 398.932 112.5 397 112.5 397C112.5 397 119.943 319.553 120.54 297.261C121.147 274.97 120.518 219.309 114.405 186.111L50.597 183.981L50.6183 184.003Z" fill="#00D254"/>
<path d="M84.498 234.114L77.6177 269.793L81.814 305.952L81.9631 271.625L88.7902 237.629C94.2007 236.489 108.11 227.074 109.303 218.01C101.784 229.768 84.498 234.103 84.498 234.103V234.114ZM44.2919 368.195C42.0446 379.782 39.9571 391.392 38.0187 403.033C40.8624 391.573 43.5676 380.091 46.1131 368.578C48.6906 357.065 51.1296 345.562 53.5473 333.974C55.8265 322.354 58.7767 296.058 60.0654 284.332C61.3861 272.595 62.3873 260.847 63.2606 249.067C61.482 260.74 59.8631 272.424 58.2335 284.097C56.5614 295.76 53.5153 321.992 51.2148 333.516C48.8503 345.019 46.4966 356.628 44.2919 368.205V368.195ZM110.272 284.555C110.368 289.678 110.528 294.822 110.315 299.881C110.07 304.962 109.623 310.095 109.229 315.197L108.036 330.555C107.237 340.801 106.545 351.047 105.98 361.314C107.461 351.143 108.771 340.94 109.878 330.726C110.997 320.501 112.062 310.308 112.69 299.977C112.935 289.582 112.339 279.347 111.689 269.08C111.018 258.813 110.059 248.577 108.749 238.374L109.846 269.176C109.996 274.309 110.187 279.432 110.272 284.566V284.555Z" fill="#00AB44"/>
<path d="M55.0171 57.899C47.9663 61.6694 44.9096 66.9521 44.5581 81.2026C44.4197 86.7303 44.5688 91.6402 39.8506 95.3466C37.3264 97.3276 34.3548 98.7761 32.1928 101.162C28.6142 105.113 28.2307 111.951 32.1395 115.572C29.1467 116.595 27.0698 119.587 26.6651 122.719C26.2604 125.85 27.3361 129.056 29.1467 131.655C31.0958 134.434 34.0779 136.746 37.4116 137.534C39.989 138.151 42.4174 137.14 45.0374 137.15C49.777 137.15 54.5271 137.257 59.2667 137.31C65.6038 137.385 71.9409 137.459 78.2674 137.534C83.9442 137.598 89.4825 138.62 94.2966 134.924C96.2669 133.412 97.758 131.037 97.577 128.545C101.56 127.948 105.746 126.649 108.185 123.443C111.54 119.023 110.272 112.43 106.981 107.957C105.426 105.837 103.488 104.027 101.954 101.886C98.6633 97.2637 99.9307 91.8106 100.218 86.4853C100.293 85.0475 99.6858 79.7328 100.644 78.5612C100.644 78.5612 105.874 72.2241 105.65 65.3971C105.426 58.57 101.646 48.2922 89.1097 45.0118C78.6614 42.2746 58.372 44.5645 54.9958 57.899H55.0171Z" fill="black"/>
<path d="M159.574 124.423C161.012 121.121 161.726 117.649 161.875 116.659C162.951 109.831 164.846 108.063 169.075 102.781C169.799 101.875 170.534 100.981 171.269 100.086C171.631 99.6495 172.004 99.2341 172.302 98.7548C172.579 98.3075 172.834 97.9347 173.484 98.1158C173.942 98.2436 174.283 98.6164 174.538 99.0211C175.369 100.363 175.327 102.078 174.879 103.58C174.432 105.081 173.601 106.445 172.898 107.85C172.355 108.926 173.708 108.692 174.336 108.479C177.393 107.456 180.673 103.548 182.718 101.141C184.06 99.5643 185.114 97.743 186.691 96.3584C187.66 95.517 188.842 94.8567 190.12 94.7289C190.994 94.6437 191.814 94.8567 191.824 95.9431C191.824 96.6247 191.462 97.2424 191.164 97.8495C190.536 99.1063 190.003 100.235 190.472 101.641C190.77 102.525 191.239 103.377 191.302 104.314C191.377 105.507 190.759 106.636 190.706 107.819C191.313 108.074 191.601 109.118 191.143 110.343C189.556 114.518 187.99 117.159 186.393 119.087C183.964 122.016 182.324 123.518 178.532 125.967C176.786 127.096 174.283 128.907 172.398 132.752C170.406 136.81 168.744 141.453 164.708 150.932C159.01 164.32 157.37 169.976 152.044 173.288C148.093 175.748 143.865 173.586 133.246 168.548C115.917 160.315 101.869 150.655 101.869 150.655L99.5367 114.688C105.639 116.041 111.657 121.792 120.241 129.631C136.185 144.19 142.139 148.887 142.139 148.887C142.139 148.887 158.147 127.703 159.585 124.412L159.574 124.423Z" fill="#FFC3A6"/>
<path d="M97.3 112.92C105.938 113.964 111.338 119.843 116.801 124.828C124.417 131.772 141.628 146.949 141.628 146.949L151.544 134.988C151.544 134.988 152.598 139.419 156.922 143.232C161.246 147.045 166.55 148.195 166.55 148.195C166.55 148.195 161.076 161.988 157.529 168.474C153.983 174.96 150.298 178.613 140.211 174.864C134.3 172.66 99.5686 151.646 99.5686 151.646L97.3107 112.92H97.3Z" fill="#FAFAFA"/>
<path opacity="0.15" d="M141.617 146.949C139.711 149.665 138.678 155.768 138.965 159.314C137.73 155.693 137.57 149.612 140.201 145.703L141.617 146.96V146.949Z" fill="black"/>
<path d="M42.5451 199.871C43.3333 194.13 47.3379 193.278 45.3888 179.57C44.4196 172.786 41.0221 155.223 41.0221 155.223C41.0221 155.223 52.6952 146.213 48.9461 119.959L61.5032 114.91L68.3516 112.493L87.4908 113.292L97.3213 115.986C100.698 118.883 106.864 123.452 111.827 130.46C118.995 140.578 120.273 151.708 112.956 160.037C112.882 161.656 113.169 186.685 115.055 192.777C115.8 195.195 116.823 198.486 115.246 201.745C108.196 213.301 66.4132 225.081 42.5451 199.881V199.871Z" fill="#00AB44"/>
<path d="M42.5451 198.04C43.3333 192.299 47.3379 191.447 45.3888 177.74C44.4196 170.955 41.0221 153.393 41.0221 153.393C41.0221 153.393 52.6952 144.382 48.9461 118.128L61.5032 113.08L68.3516 110.662L87.4908 111.461L97.3213 114.156C100.698 117.053 106.864 121.622 111.827 128.63C118.995 138.748 120.273 149.878 112.956 158.207C112.882 159.826 113.169 184.854 115.055 190.947C115.8 193.364 116.823 196.655 115.246 199.914C108.196 211.47 66.4132 223.25 42.5451 198.051V198.04Z" fill="#AC4FA7"/>
<path d="M87.4908 111.451L97.2894 112.92C106.705 120.035 117.909 132.869 118.537 142.753C119.166 152.637 114.149 159.314 114.149 159.314C114.149 159.314 114.011 179.402 116.311 190.01C118.612 200.618 121.147 229.012 121.147 229.012C121.147 229.012 121.349 230.791 113.478 232.995C111.061 219.384 105.096 169.454 105.426 157.472C105.757 145.49 105.98 126.564 87.4908 111.461V111.451Z" fill="#FAFAFA"/>
<path opacity="0.2" d="M106.907 163.053C107.684 159.868 108.536 156.705 109.399 153.552C110.272 150.4 111.093 147.237 111.881 144.073C112.253 142.497 112.616 140.889 112.775 139.323C113.01 137.821 111.945 136.575 110.89 135.393C108.696 133.082 106.044 131.112 103.36 129.322L103.115 129.152L103.168 128.854C103.477 127.181 103.413 125.371 103.147 123.656C102.86 121.931 102.263 120.248 101.347 118.767C100.378 117.319 99.0893 116.062 97.6621 114.997C96.2349 113.921 94.6693 113.037 93.0397 112.292C94.7332 112.899 96.3521 113.708 97.8645 114.71C99.3875 115.689 100.761 116.936 101.837 118.437C102.87 119.971 103.552 121.718 103.925 123.518C104.287 125.328 104.34 127.171 104.031 129.045L103.839 128.587C106.598 130.398 109.303 132.304 111.614 134.743C112.179 135.361 112.722 136.021 113.148 136.788C113.276 136.959 113.34 137.193 113.436 137.395C113.521 137.608 113.617 137.811 113.649 138.056C113.766 138.546 113.723 138.972 113.691 139.408C113.5 141.091 113.106 142.689 112.711 144.286C111.913 147.471 110.912 150.592 109.942 153.723C108.962 156.843 107.919 159.953 106.907 163.063V163.053Z" fill="black"/>
<path d="M61.5139 113.069C61.5139 113.069 65.6357 118.374 71.0889 130.845C76.5526 143.317 81.814 154.66 81.7182 166.216C81.6223 177.772 77.852 237.511 77.852 237.511C77.852 237.511 61.2903 240.004 46.2835 233.965L47.5084 210.821L41.8316 232.878C41.8316 232.878 34.6531 230.301 32.0011 227.905C35.9098 203.845 44.6647 192.427 45.1013 183.545C45.3995 177.442 40.2233 160.539 39.2328 145.298C38.3701 132.017 41.0541 118.597 41.0541 118.597L61.5246 113.059L61.5139 113.069Z" fill="#FAFAFA"/>
<path opacity="0.2" d="M79.5348 169.656C78.6082 166.685 76.8402 164.118 74.987 161.668C73.1337 159.208 71.0888 156.886 69.0013 154.618C67.9682 153.467 66.9244 152.338 65.8594 151.209L64.2618 149.516C63.9955 149.218 63.7399 148.962 63.463 148.621C63.3884 148.525 63.3352 148.494 63.2606 148.355C63.1861 148.217 63.1222 148.068 63.0689 147.918C62.9837 147.631 63.005 147.397 62.9837 147.141C63.1861 145.341 63.921 143.967 64.6026 142.529C65.3375 141.134 66.1256 139.792 66.9777 138.461L67.0522 139.227L62.3234 134.445L59.9696 132.038L59.3838 131.431L59.0962 131.122C59.0004 131.005 58.9258 130.995 58.6915 130.632C58.5104 130.164 58.5743 129.898 58.5637 129.578C58.585 129.28 58.6169 128.982 58.6595 128.694C59.0323 126.415 59.6181 124.242 60.2784 122.069C60.9388 119.907 61.6204 117.756 62.3979 115.636C61.8654 117.83 61.3009 120.014 60.811 122.208C60.3423 124.402 59.7885 126.606 59.5542 128.801C59.5009 129.301 59.4796 129.983 59.5755 130.217C59.5009 130.1 59.6288 130.281 59.7353 130.356L60.0441 130.643L60.6619 131.229L63.1009 133.593L67.9575 138.354L68.2984 138.695L68.0321 139.121C67.2333 140.41 66.4665 141.752 65.7742 143.104C65.1138 144.436 64.3896 145.884 64.2405 147.183C64.2511 147.311 64.2405 147.471 64.2724 147.556C64.2937 147.588 64.3044 147.61 64.3044 147.652C64.3044 147.695 64.4002 147.78 64.4428 147.844C64.6559 148.11 64.9328 148.408 65.1777 148.685L66.7434 150.4C67.7871 151.55 68.8309 152.701 69.8534 153.872C71.8663 156.247 73.8047 158.676 75.5727 161.242C76.4567 162.52 77.2555 163.873 77.9691 165.258C78.6827 166.642 79.2685 168.112 79.5561 169.635L79.5348 169.656Z" fill="black"/>
<path d="M30.3076 233.528C28.7313 231.877 26.7183 230.439 26.026 228.171C25.6746 226.999 25.7598 225.646 26.5053 224.677C26.6651 224.475 26.8461 224.283 26.91 224.038C26.9633 223.836 26.91 223.612 26.8674 223.41C26.6864 222.547 26.6225 221.62 26.9846 220.811C27.2935 220.129 27.9005 219.586 28.6141 219.373C28.1775 218.116 28.1562 216.721 28.5609 215.454C29.0402 213.952 30.5526 212.738 31.5963 214.378C32.1075 215.177 32.4803 216.071 32.8105 216.955C33.6412 219.171 34.1525 221.525 34.44 223.868C34.7382 226.328 35.4731 233.283 31.6709 233.698C31.3727 233.73 30.5312 233.762 30.3076 233.528Z" fill="#F0AE91"/>
<path d="M44.622 120.013C29.9987 123.102 28.6141 127.735 20.1256 139.962C11.7435 152.029 1.0077 168.879 -1.59105 174.79C-4.81819 182.117 -5.47853 184.918 2.45619 192.48C6.54603 196.378 12.2335 201.011 18.0274 206.252C22.5965 210.384 28.0922 214.761 32.5229 219.043C33.6945 220.183 34.3122 221.312 33.9607 223.026C33.7584 224.017 33.343 224.975 33.2471 225.987C33.13 227.287 33.556 228.575 33.6412 229.885C33.7264 231.185 33.343 232.697 32.1714 233.272C31.6069 233.549 30.9466 233.56 30.3182 233.528C31.4472 234.295 32.6294 235.019 33.9501 235.402C35.2601 235.786 36.7299 235.807 37.9441 235.189C39.1263 234.582 39.9996 233.432 41.2671 233.027C41.9487 232.804 42.6836 232.825 43.3759 232.633C44.0788 232.431 44.7179 231.994 45.1652 231.408C45.8681 230.482 46.1451 229.161 47.1569 228.575C47.6361 228.298 48.2219 228.245 48.7332 228.021C49.7769 227.574 50.4373 226.477 50.6503 225.359C50.8633 224.24 50.6929 223.09 50.5012 221.961C49.9793 218.947 49.2976 215.954 48.4562 213.004C48.1687 211.982 47.5616 211.119 46.9438 210.267C46.2303 209.287 45.5593 208.286 44.7924 207.349C39.6056 201.022 23.161 179.923 23.161 179.923L41.3203 156.119C41.3203 156.119 54.5803 140.75 44.6327 120.013H44.622Z" fill="#FFC3A6"/>
<path d="M23.1503 179.923C18.7729 184.397 11.8607 184.887 9.30453 184.791C18.3895 188.273 24.6414 181.83 24.6414 181.83L23.161 179.923H23.1503Z" fill="#F28F8F"/>
<path d="M13.895 202.673L18.0168 206.252C18.0168 206.252 23.6297 205.804 28.1029 200.447C32.6827 194.962 32.3206 190.957 32.3206 190.957L27.5384 185.547L13.895 202.673Z" fill="#00D254"/>
<path d="M44.7818 117.628C34.2803 119.928 32.3312 121.323 24.8225 131.836C17.3138 142.348 4.63958 162.403 1.33788 167.59C-1.96381 172.766 -6.8844 181.734 -4.03003 186.218C-1.18631 190.712 14.4275 203.876 14.4275 203.876C14.4275 203.876 19.7102 203.621 24.8651 198.317C30.2224 192.8 29.7964 187.166 29.7964 187.166L24.0024 179.902C24.0024 179.902 40.202 159.027 43.1309 155.161C46.0599 151.294 52.5461 138.279 44.7711 117.617L44.7818 117.628Z" fill="#FAFAFA"/>
<path opacity="0.15" d="M24.0024 179.902C21.8936 177.538 16.7706 173.682 13.011 173.032C16.941 172.351 22.8202 175.162 25.5893 177.751L24.0131 179.902H24.0024Z" fill="black"/>
<path d="M52.9402 81.011C54.7827 78.8595 58.5744 77.9329 60.4595 80.8193C61.6311 82.6192 61.9613 85.6333 63.708 85.1647C64.7624 84.8771 65.1351 83.6097 64.7091 81.2985C66.9564 80.7234 68.5646 77.5176 68.0747 73.875C66.8712 65.0989 72.0154 59.1346 79.5348 61.925C82.5702 57.6009 88.5239 56.2163 94.4137 59.273C98.2266 61.2541 101.912 65.9936 102.242 82.4807C102.519 96.4224 100.506 100.118 97.5982 102.547C95.106 104.623 90.7499 105.465 86.1808 105.465L86.234 113.389C86.234 113.389 90.6221 118.235 87.4269 125.499C87.4269 125.499 80.1419 124.647 74.4225 121.877C65.1777 117.383 63.3884 112.782 63.3884 112.782L63.3245 91.8426C63.3245 91.8426 60.7577 96.4544 55.8798 92.7586C51.8538 89.7019 50.1923 84.1955 52.9402 81.0003V81.011Z" fill="#FFC3A6"/>
<path d="M95.2612 92L82.007 93.0866C82.007 93.0866 90.8342 101.651 95.2612 92Z" fill="white"/>
<path d="M90.3856 87.4997C90.4776 87.4453 90.5673 87.3795 90.6459 87.3063C90.7725 87.1882 93.7497 84.3868 93.0994 82.8029C92.804 82.1243 92.0081 82.0763 91.3058 82.0339C90.5261 81.9865 89.7887 81.942 89.3891 81.0949C89.1133 80.6057 89.0666 79.5994 89.2384 77.9972C89.2724 77.6808 88.9391 77.5371 88.4949 77.6753C88.0512 77.8144 87.6638 78.1822 87.6298 78.4986C87.4379 80.2997 87.503 81.3714 87.8429 81.9727C88.4002 83.1589 89.589 83.2301 90.4557 83.2833C91.0945 83.3213 91.4071 83.3538 91.5331 83.643C91.9376 84.6283 89.636 86.8126 89.6132 86.835C89.2715 87.1542 89.2235 87.5195 89.5083 87.6499C89.7279 87.7502 90.0768 87.6837 90.3828 87.5026L90.3856 87.4997Z" fill="#F0AE91"/>
<path d="M92.9404 66.4967C93.0519 65.9925 93.5084 65.648 94.035 65.7318C95.8274 66.0244 97.5834 66.5733 99.2193 67.3621C99.6646 67.5744 99.9153 68.1607 99.6787 68.6149C99.4476 69.0621 98.9043 69.3021 98.4259 69.0742C98.0338 68.8879 97.6368 68.7147 97.2349 68.5546C97.0439 68.4799 96.8599 68.4107 96.6634 68.3429C96.552 68.304 96.4468 68.2645 96.336 68.2319C96.3097 68.222 96.1533 68.1752 96.1138 68.1604C96.0619 68.1468 95.9249 68.1043 95.9055 68.1001C95.7947 68.0674 95.684 68.0348 95.5738 68.0084C95.3786 67.9531 95.184 67.9039 94.9839 67.8617C94.5628 67.7605 94.1375 67.6787 93.7072 67.61C93.2188 67.5285 92.8365 67.0127 92.9424 66.5154L92.9404 66.4967Z" fill="black"/>
<path d="M73.6567 69.5295C75.1534 68.1417 76.9215 67.0538 78.8205 66.3122C79.2815 66.1314 79.8756 66.3787 80.0334 66.8611C80.1919 67.3497 79.9762 67.8838 79.4846 68.0741C79.0354 68.2473 78.5951 68.4449 78.1623 68.6543C78.0663 68.7023 77.9765 68.7495 77.8805 68.7975C77.8742 68.7981 77.6773 68.9071 77.6598 68.9216C77.451 69.0381 77.2435 69.1672 77.0422 69.2956C76.2246 69.8105 75.4592 70.402 74.751 71.057C74.3881 71.3917 73.6894 71.2311 73.4339 70.841C73.1255 70.3681 73.2646 69.8863 73.6498 69.524L73.6567 69.5295Z" fill="black"/>
<path d="M76.2488 75.5983C76.2515 75.5033 76.2542 75.4083 76.2631 75.3127C76.314 74.9537 76.5125 74.6172 76.7989 74.3978C76.9065 74.2792 77.0292 74.1843 77.1933 74.123C77.4728 74.018 77.791 74.0415 78.0516 74.1785C78.3839 74.2763 78.6684 74.4613 78.8927 74.7346C79.1102 75.0024 79.201 75.3275 79.2738 75.6609C79.3203 75.8644 79.3425 76.0768 79.3515 76.2843C79.3694 76.636 79.3448 77.0048 79.1825 77.3249C79.0034 77.6657 78.7005 77.9689 78.3279 78.0899C77.8692 78.2326 77.3739 78.1455 77.0118 77.8234C76.5677 77.4404 76.3202 76.8854 76.2351 76.3133C76.1978 76.0772 76.2105 75.836 76.255 75.5977L76.2488 75.5983Z" fill="black"/>
<path d="M95.6378 73.4517C95.6615 73.3166 95.7034 73.1733 95.7666 73.0531C95.867 72.8658 96.0061 72.687 96.1844 72.58C96.3745 72.4654 96.556 72.3896 96.7815 72.3723C97.0133 72.3544 97.1947 72.3986 97.4113 72.477C97.5421 72.5201 97.6581 72.6027 97.7678 72.686C97.823 72.7307 97.867 72.7893 97.916 72.8347C97.9725 72.8919 98.029 72.9491 98.0674 73.0146C98.1883 73.204 98.2798 73.4155 98.3589 73.6282C98.4393 73.8535 98.5154 74.0981 98.5339 74.3361C98.5503 74.4923 98.5416 74.651 98.5136 74.8055C98.4621 75.0382 98.3841 75.1979 98.2531 75.3948C98.1824 75.5032 98.0778 75.5899 97.9794 75.676C97.9041 75.7407 97.8143 75.7879 97.7183 75.8359C97.5469 75.9485 97.3529 76.0256 97.1537 76.0528C96.7233 76.1041 96.3011 75.8704 96.0508 75.5303C95.9697 75.4188 95.9054 75.2866 95.8479 75.16C95.8076 75.0758 95.7797 74.9903 95.7518 74.9048C95.677 74.6727 95.6196 74.4261 95.6067 74.1812C95.5881 73.9432 95.5932 73.69 95.6322 73.4586L95.6378 73.4517Z" fill="black"/>
<path d="M86.1701 105.465C77.4153 105.518 69.8747 103.303 67.2653 99.3728C67.2653 99.3728 67.5741 101.609 71.2805 104.347C75.3171 107.318 86.1914 108.213 86.1914 108.213L86.1701 105.454V105.465Z" fill="#F0AE91"/>
<path d="M61.056 77.6133L53.6857 77.9328C53.6857 77.9328 52.1201 70.4028 51.3959 66.0893C51.2574 65.2586 51.1509 64.5343 51.1083 63.9805C51.0976 63.7355 51.0763 63.4906 51.055 63.2456C50.8527 60.1676 51.2361 55.8541 54.3567 53.021C56.6147 50.9654 58.7661 49.8684 61.45 49.0164C60.385 49.7193 59.5862 50.582 58.7661 51.4447C57.946 52.3074 56.3164 54.2778 56.0715 55.9819C56.0182 56.4292 56.0289 57.0256 56.1034 57.7499C56.1886 58.538 56.3484 59.4753 56.5614 60.4977C57.8075 66.5153 61.0453 77.6239 61.0453 77.6239L61.056 77.6133Z" fill="#455A64"/>
<path d="M65.1351 90.1598C66.5304 85.3776 64.8582 78.5612 61.4181 74.9613C60.4063 73.9069 59.3305 73.204 58.2229 72.8845C57.4134 72.6501 56.6253 72.6288 55.901 72.8099C55.475 72.9164 53.7709 73.3211 53.3449 73.4383C51.6088 73.875 50.1817 75.4512 49.4681 77.8902C48.0728 82.6724 49.745 89.4888 53.1851 93.0887C54.1969 94.1431 55.2727 94.846 56.3803 95.1762C57.2004 95.4105 57.9886 95.4318 58.7128 95.2401C59.1282 95.1336 60.811 94.7289 61.237 94.6224C62.9837 94.1964 64.4109 92.6201 65.1245 90.1704L65.1351 90.1598Z" fill="#37474F"/>
<path d="M56.3803 95.1657C55.2726 94.8461 54.1969 94.1432 53.1851 93.0781C49.745 89.4782 48.0728 82.6618 49.4681 77.8797C50.4799 74.4182 52.9189 72.6928 55.6774 73.5023C56.785 73.8218 57.8607 74.5248 58.8726 75.5792C62.3127 79.1791 63.9849 85.9955 62.5896 90.7776C61.5778 94.2391 59.1388 95.9645 56.3803 95.155V95.1657Z" fill="#263238"/>
<path d="M62.0571 90.6283C63.3991 86.006 61.8015 79.4452 58.4785 75.9731C56.817 74.237 55.0384 73.598 53.5047 73.9708C53.2917 74.024 52.4503 74.2264 52.2373 74.2796C50.7036 74.6524 49.4149 76.037 48.7439 78.3482C47.4019 82.9705 48.9995 89.5313 52.3225 93.0034C53.984 94.7395 55.7626 95.3785 57.2963 95.0057C57.5093 94.9525 58.3614 94.7501 58.5744 94.6969C60.1081 94.3241 61.3862 92.9395 62.0571 90.6283Z" fill="#F0F0F0"/>
<path d="M57.2004 76.282C60.5234 79.7541 62.1316 86.3149 60.779 90.9372C59.437 95.5596 55.6454 96.4862 52.3224 93.0034C48.9994 89.5313 47.3912 82.9706 48.7438 78.3482C50.0858 73.7258 53.8774 72.7992 57.2004 76.282Z" fill="#E0E0E0"/>
<path d="M60.779 90.9373C62.121 86.3149 60.5234 79.7541 57.2004 76.282C55.5389 74.546 53.7602 73.907 52.2372 74.2797C51.8112 74.3862 51.023 74.6312 50.597 74.7377C49.0633 75.1105 47.7852 76.4951 47.1142 78.8062C45.7723 83.4286 47.3699 89.9894 50.6928 93.4615C52.3543 95.1975 54.133 95.8366 55.656 95.4638C56.0821 95.3573 56.8702 95.1123 57.2962 95.0058C58.8299 94.6331 60.108 93.2485 60.779 90.9373Z" fill="#00D254"/>
<path opacity="0.3" d="M55.5709 76.7399C58.8939 80.212 60.5021 86.7727 59.1495 91.3951C57.8075 96.0175 54.0159 96.9441 50.6929 93.4613C47.3699 89.9892 45.7616 83.4284 47.1143 78.8061C48.4562 74.1837 52.2479 73.2571 55.5709 76.7399Z" fill="white"/>
<path d="M53.494 81.0855C55.2407 82.9068 56.0821 86.3576 55.3791 88.7859C54.6762 91.2143 52.6845 91.6936 50.9378 89.8723C49.1911 88.0511 48.3497 84.6003 49.0527 82.1719C49.7556 79.7436 51.7473 79.2643 53.494 81.0855Z" fill="#263238"/>
<path d="M54.9212 83.9398L52.0135 85.5267L50.6822 80.0842C51.481 79.8819 52.4183 80.2227 53.2916 81.128C53.9839 81.8629 54.5484 82.8534 54.9105 83.9291L54.9212 83.9398Z" fill="#455A64"/>
<path d="M55.1768 88.8391C54.8253 90.0533 54.1437 90.7775 53.3449 90.9692L52.0135 85.5268L54.9212 83.9398C55.475 85.5587 55.6028 87.38 55.1768 88.8391Z" fill="#37474F"/>
<path d="M53.3449 90.9693C52.5354 91.1717 51.6088 90.8308 50.7355 89.9255C50.0325 89.1906 49.4787 88.2001 49.1166 87.1244L52.0135 85.5375L53.3449 90.9799V90.9693Z" fill="#455A64"/>
<path d="M52.0136 85.5267L49.1166 87.1136C48.5627 85.4947 48.4349 83.6735 48.861 82.225C49.2124 81.0108 49.8941 80.2866 50.6929 80.0842L52.0242 85.5267H52.0136Z" fill="#37474F"/>
<path d="M102.263 85.1221C103.03 85.4948 105.235 86.6132 107.056 88.1149C109.314 89.9681 109.069 92.716 107.865 94.3562L105.98 93.7384C105.98 93.7384 107.248 91.5977 106.236 90.2557C105.224 88.903 102.221 87.5824 102.221 87.5824C102.221 87.5824 102.253 85.8144 102.253 85.1327L102.263 85.1221Z" fill="black"/>
<path d="M107.216 93.0035C105.746 92.0556 104.883 92.9396 103.456 95.4532C102.029 97.9667 102.7 98.7868 103.978 99.4791C105.256 100.171 106.396 99.4152 107.482 97.317C108.707 94.9632 108.803 94.026 107.216 93.0035Z" fill="#00D254"/>
</g>
</g>
<defs>
<clipPath id="clip0_214_1837">
<rect width="196.717" height="432" fill="white" transform="translate(-4.8927 44)"/>
</clipPath>
</defs>
</svg>
