<svg width="149" height="406" viewBox="0 0 149 406" fill="none" xmlns="http://www.w3.org/2000/svg">
<g style="mix-blend-mode:luminosity">
<mask id="mask0_214_1232" style="mask-type:alpha" maskUnits="userSpaceOnUse" x="0" y="0" width="149" height="406">
<rect x="0.5" y="0.5" width="148" height="405" rx="6.5" fill="#00D254" stroke="#00D254"/>
</mask>
<g mask="url(#mask0_214_1232)">
<g opacity="0.7">
<g clip-path="url(#clip0_214_1232)">
<path d="M106.961 341.826C106.961 341.826 109.737 368.976 110.068 379.201C110.4 389.426 69.9812 470.659 70.4847 473.543C70.9882 476.421 74.3126 495.641 80.4808 500.59C86.6489 505.539 98.5217 515.467 97.2057 520.079C95.8839 524.69 89.0463 525.285 84.6691 524.381C63.8874 520.079 40.468 495.812 37.4983 492.013C34.5287 488.214 48.284 470.899 53.3306 464.966C58.3773 459.027 58.6062 417.469 65.8672 400.315C73.1225 383.161 77.4139 378.875 77.4139 378.875C77.4139 378.875 64.5512 332.826 63.8874 327.482C63.2294 322.137 106.961 341.826 106.961 341.826Z" fill="#FFC3A6"/>
<path d="M0.552429 343.245C0.552429 343.245 8.7976 378.538 17.0428 401.299C25.2879 424.06 47.1568 481.782 49.0908 488.053C51.019 494.319 45.0168 508.812 43.0371 510.466C41.0573 512.114 31.7479 518.436 30.758 520.416C29.7681 522.396 30.3346 526.945 31.3245 526.87C32.3143 526.796 79.1533 527.763 80.475 524.473C81.7968 521.183 69.4891 489.707 69.163 487.395C68.8311 485.084 60.9178 438.937 57.2902 424.244C53.6625 409.55 45.4174 390.193 45.4174 384.866C45.4174 379.539 42.1216 341.271 42.7796 324.117C43.4376 306.963 0.55815 343.251 0.55815 343.251L0.552429 343.245Z" fill="#FFC3A6"/>
<path d="M12.1964 208.221C12.1964 208.221 -0.237186 246.495 -1.53604 284.734C-2.77768 321.308 0.558149 358.065 0.558149 358.065L57.4961 350.569L107.179 343.6C107.179 343.6 99.071 275.401 95.3461 257.063C88.4398 223.081 78.2435 204.754 78.2435 204.754L12.2021 208.216L12.1964 208.221Z" fill="#00D254"/>
<path d="M93.7211 284.699C91.2092 269.502 88.0622 254.408 84.2915 239.474C82.163 231.028 79.8285 222.634 77.3052 214.298C76.9847 213.245 75.3311 213.691 75.6516 214.755C80.1146 229.495 83.9711 244.423 87.1982 259.483C90.4253 274.56 93.0345 289.769 94.9914 305.063C96.0842 313.612 96.9768 322.189 97.6749 330.777C97.7607 331.87 99.483 331.881 99.3914 330.777C98.1441 315.345 96.2502 299.971 93.7268 284.699H93.7211Z" fill="#00AB44"/>
<path d="M51.2536 130.467C51.6713 129.838 54.6696 126.164 54.9042 119.727C55.133 113.284 55.5336 111.825 59.9337 111.293C64.3338 110.761 91.2493 112.707 93.086 119.092C94.9284 125.478 90.7858 131.857 91.707 134.65C92.6282 137.442 106.017 148.354 110.543 153.469C115.069 158.584 130.644 179.538 133.259 182.072C135.874 184.601 140.245 190.895 138.637 195.112C137.03 199.324 135.559 211.483 135.937 219.339C136.972 240.715 119.63 243.33 109.811 243.639C105.937 243.759 101.995 242.987 101.228 239.989C99.4258 232.945 98.5275 228.86 97.8694 224.511C96.788 217.33 99.6661 208.736 99.9179 206.579C100.044 205.503 93.2061 184.996 89.4297 187.525C85.6247 190.071 91.2722 218.412 82.3861 214.424C77.3624 212.169 66.6053 222.554 43.0428 225.776C19.486 228.997 9.40985 218.515 8.34558 218.646C6.94946 218.818 6.3315 218.429 5.90236 216.735C5.30157 214.366 9.53001 206.075 9.53001 206.075C9.53001 206.075 -3.85909 216.729 -12.9511 212.661C-20.1835 209.428 -23.9942 202.539 -23.9942 190.81C-23.9942 179.08 -10.422 172.58 -7.20064 167.316C-3.97925 162.052 -2.14254 152.433 4.07137 147.009C10.2796 141.585 15.8011 131.692 23.394 132.149C30.9869 132.607 50.1436 132.155 51.2594 130.473L51.2536 130.467Z" fill="white"/>
<path d="M64.5741 120.111C64.5741 120.111 58.2572 116.649 58.1885 114.143C58.1141 111.637 69.8095 113.033 76.7902 114.063C83.7708 115.093 90.1221 117.307 91.152 118.863C92.1819 120.414 85.8021 122.165 79.1934 122.085C72.5789 122.004 64.5741 120.116 64.5741 120.116V120.111Z" fill="black"/>
<path d="M88.3769 117.095C85.6648 115.922 81.3677 114.738 76.7902 114.057C75.7145 113.897 74.5301 113.731 73.2942 113.571C73.2999 113.651 73.3113 113.731 73.3171 113.817C73.4601 115.567 73.5402 117.318 73.5688 119.075C73.586 119.939 73.586 120.809 73.5688 121.673C75.4112 121.896 77.3509 122.056 79.1819 122.079C82.2946 122.119 85.3558 121.747 87.6159 121.186C87.7761 119.813 88.0336 118.446 88.3712 117.095H88.3769Z" fill="#D57044"/>
<path d="M59.9222 103.832C59.9222 103.832 55.0587 98.0358 55.2303 94.2766C55.402 90.5173 48.9077 88.2858 50.4926 80.3382C52.0833 72.3906 59.5675 69.1291 66.3764 61.3875C73.071 53.766 85.7849 60.9812 87.902 63.8822C87.902 63.8822 89.5556 62.1942 94.3734 63.6075C99.1912 65.0208 101.314 70.5939 101.314 70.5939C101.314 70.5939 104.387 75.8465 102.95 85.4421C101.509 95.049 92.5195 106.424 92.5195 106.424L59.9279 103.832H59.9222Z" fill="black"/>
<path d="M97.2229 96.0734C94.5107 89.9568 89.6414 98.7512 89.6414 98.7512C89.6414 98.7512 87.8734 99.7411 86.2713 87.9026C85.8193 84.5668 81.2189 79.3428 77.9803 77.5518C76.8531 78.9708 73.4086 83.9374 71.9896 85.1104C69.4491 87.1988 66.6168 88.9154 63.5899 90.2085C62.3197 90.7521 61.0208 91.2213 59.7162 91.6733C59.6762 91.9594 59.6533 92.2398 59.6418 92.5144C59.5102 95.6843 53.1304 116.14 69.1401 122.829C77.6542 126.382 91.564 118.829 92.9029 107.809C92.9029 107.809 100.908 104.404 97.2229 96.0848V96.0734Z" fill="#FFC3A6"/>
<path d="M78.8901 65.8791C78.4209 68.7114 77.9574 71.5494 77.4825 74.3817C77.0534 76.9279 76.4984 79.3941 75.1881 81.6427C72.8707 85.6366 69.0257 88.5032 64.9918 90.6031C64.0133 91.1124 64.8945 92.5886 65.8729 92.0736C69.1859 90.3514 72.3329 88.1256 74.7361 85.2418C75.9205 83.8228 76.9275 82.255 77.6427 80.5499C78.4839 78.5472 78.8729 76.4359 79.222 74.3016C79.6626 71.641 80.1031 68.9803 80.5437 66.3197C80.7211 65.2382 79.0618 64.7919 78.8844 65.8791H78.8901Z" fill="black"/>
<path d="M65.9531 94.185C65.8043 93.7387 65.358 93.4698 64.8888 93.5957C63.2924 94.0305 61.7532 94.6943 60.3457 95.564C59.9623 95.7986 59.7906 96.3536 60.0481 96.7427C60.2999 97.1261 60.8149 97.292 61.2268 97.0402C61.5644 96.8342 61.9077 96.6397 62.2568 96.4566C62.4227 96.3708 62.5829 96.2907 62.7546 96.2106C62.8518 96.1648 62.9434 96.119 63.0406 96.079C63.0635 96.0675 63.2009 96.0103 63.2352 95.9931C63.281 95.976 63.4011 95.9245 63.4183 95.9187C63.5156 95.8787 63.6128 95.8386 63.7101 95.8043C63.8818 95.7356 64.0534 95.6727 64.2308 95.6155C64.6027 95.4839 64.9803 95.3695 65.3637 95.2665C65.7986 95.1463 66.0961 94.6428 65.9531 94.2022V94.185Z" fill="black"/>
<path d="M83.7136 95.1063C82.2259 93.9906 80.5208 93.1723 78.7299 92.6803C78.295 92.5601 77.7801 92.8405 77.6828 93.2925C77.5855 93.7503 77.8316 94.2137 78.295 94.3396C78.7184 94.454 79.1361 94.5914 79.5481 94.7401C79.6397 94.7745 79.7255 94.8088 79.817 94.8431C79.8228 94.8431 80.0116 94.9232 80.0287 94.9347C80.229 95.0205 80.4293 95.1178 80.6238 95.215C81.4134 95.6041 82.163 96.0676 82.8668 96.594C83.2273 96.8629 83.8452 96.6512 84.0398 96.2736C84.2744 95.8158 84.1027 95.3924 83.7193 95.1006L83.7136 95.1063Z" fill="black"/>
<path d="M81.9398 100.851C81.9284 100.765 81.917 100.679 81.8998 100.593C81.8197 100.273 81.608 99.987 81.3276 99.8153C81.2189 99.718 81.0987 99.6436 80.9443 99.6036C80.681 99.5349 80.395 99.5864 80.1718 99.7352C79.88 99.8554 79.6397 100.05 79.4623 100.319C79.2906 100.582 79.2391 100.885 79.2048 101.194C79.1819 101.383 79.1819 101.578 79.1934 101.766C79.2105 102.087 79.2677 102.419 79.4451 102.693C79.6397 102.985 79.9429 103.231 80.292 103.306C80.7211 103.391 81.1617 103.266 81.4592 102.939C81.8254 102.55 81.9971 102.024 82.02 101.498C82.0314 101.28 81.9971 101.063 81.9341 100.851H81.9398Z" fill="black"/>
<path d="M64.1678 100.742C64.1335 100.622 64.082 100.496 64.0133 100.393C63.9046 100.233 63.7616 100.084 63.5899 100.004C63.4068 99.9185 63.2352 99.867 63.0292 99.8727C62.8175 99.8784 62.6573 99.9356 62.4684 100.027C62.354 100.079 62.2567 100.164 62.1652 100.25C62.1194 100.296 62.0851 100.353 62.045 100.399C61.9993 100.456 61.9535 100.514 61.9249 100.576C61.8333 100.76 61.7704 100.96 61.7189 101.16C61.6674 101.372 61.6216 101.601 61.6273 101.818C61.6273 101.961 61.6502 102.104 61.6903 102.242C61.7589 102.448 61.8448 102.585 61.9821 102.751C62.0565 102.842 62.1595 102.911 62.2567 102.98C62.3311 103.031 62.4169 103.065 62.5085 103.1C62.6744 103.186 62.8575 103.237 63.0406 103.243C63.4354 103.249 63.7959 102.997 63.9905 102.665C64.0534 102.556 64.0992 102.43 64.1392 102.31C64.1678 102.23 64.185 102.15 64.2022 102.07C64.2479 101.852 64.2765 101.624 64.2651 101.4C64.2594 101.183 64.2308 100.954 64.1736 100.748L64.1678 100.742Z" fill="black"/>
<path d="M72.2356 109.994C72.1154 109.811 71.9381 109.657 71.7206 109.605C71.3029 109.508 70.8795 109.411 70.4618 109.313C70.2387 109.262 69.9984 109.291 69.8038 109.405C69.6264 109.514 69.4605 109.72 69.4147 109.92C69.369 110.137 69.3804 110.389 69.5063 110.578C69.6264 110.761 69.8038 110.916 70.0213 110.967C70.439 111.064 70.8624 111.162 71.2801 111.259C71.5032 111.31 71.7435 111.282 71.9381 111.167C72.1154 111.059 72.2814 110.853 72.3272 110.652C72.3729 110.435 72.3615 110.183 72.2356 109.994Z" fill="#F0AE91"/>
<path d="M67.9614 113.805C68.2246 113.536 78.3465 113.256 78.3465 113.256C78.3465 113.256 77.8716 116.729 76.1093 118.085C74.347 119.441 71.2228 118.76 70.3245 118.056C69.4262 117.353 67.9671 113.811 67.9671 113.811L67.9614 113.805Z" fill="white"/>
<path d="M29.7567 169.69C29.5793 168.603 27.9257 169.066 28.1031 170.148C29.2417 177.18 28.7553 184.636 26.4266 191.387C25.4481 194.237 23.9833 197.018 21.6259 198.963C20.3042 200.05 18.7192 200.777 17.1972 201.532C15.7153 202.27 14.2734 203.077 12.883 203.975C9.7188 206.018 6.82355 208.473 4.28305 211.248C3.53921 212.06 4.74652 213.279 5.49608 212.461C7.83059 209.909 10.4512 207.637 13.3407 205.726C14.7826 204.771 16.2875 203.907 17.8324 203.129C19.4345 202.322 21.0595 201.561 22.4842 200.456C25.0133 198.494 26.6497 195.662 27.7712 192.709C29.0414 189.368 29.7567 185.803 30.1343 182.261C30.5806 178.073 30.4318 173.85 29.7624 169.696L29.7567 169.69Z" fill="#CFEAF4"/>
<path d="M27.5252 173.552C27.5252 173.552 26.6039 185.746 21.317 191.033C16.03 196.32 11.6585 185.974 9.81608 179.761C7.97365 173.552 9.46133 161.302 13.5467 159.831C17.6378 158.367 27.0674 163.654 27.5252 173.547V173.552Z" fill="#67848E"/>
<path d="M25.0247 183.011C25.2994 182.318 33.905 162.544 35.8504 161.68C37.7959 160.816 42.7338 159.746 45.4231 158.264C48.1123 156.787 52.7756 158.91 54.8584 158.264C56.9411 157.617 55.8998 154.419 55.0701 153.589C55.0701 153.589 58.3373 152.118 56.1973 148.777C56.1973 148.777 57.7536 148.382 57.8681 146.368C57.9882 144.354 54.7211 141.527 54.7211 141.527C54.7211 141.527 58.0855 141.087 61.4671 140.961C64.8487 140.829 69.4319 141.23 70.1242 139.919C70.8166 138.609 70.5419 137.654 67.2805 136.464C64.019 135.273 46.8078 134.169 44.8681 134.861C42.9226 135.554 28.4922 143.347 26.2721 145.905C24.052 148.462 14.0617 158.247 12.3966 161.68C10.7316 165.113 11.1378 177.792 14.4794 183.011C18.9195 189.951 25.0247 183.011 25.0247 183.011Z" fill="#FFC3A6"/>
<path d="M45.5604 137.007C45.1313 137.882 44.6792 138.746 44.2673 139.628C43.9182 140.377 43.6779 141.178 43.9068 142.002C44.0155 142.414 44.2616 142.757 44.3932 143.152C44.5419 143.599 44.2902 143.965 44.0899 144.36C43.6665 145.166 43.2946 145.99 43.1172 146.894C42.9513 147.741 43.0256 148.651 43.4204 149.429C43.5864 149.761 43.8267 150.041 44.0212 150.35C44.3188 150.819 44.2444 151.077 44.067 151.586C43.5063 153.171 43.8267 154.768 45.1484 155.872C45.9953 156.581 47.0195 155.202 46.1726 154.493C45.6462 154.052 45.3716 153.343 45.5146 152.662C45.6691 151.93 46.0697 151.334 45.9438 150.556C45.8293 149.83 45.3258 149.355 44.9882 148.737C44.582 147.993 44.7594 147.123 45.0397 146.368C45.3144 145.636 45.7778 144.983 46.0239 144.245C46.2699 143.507 46.144 142.843 45.8179 142.157C45.652 141.802 45.4803 141.522 45.5432 141.115C45.5947 140.755 45.8007 140.394 45.9609 140.074C46.3557 139.267 46.7563 138.46 47.1568 137.654C47.6489 136.658 46.0525 136.029 45.5661 137.013L45.5604 137.007Z" fill="#F0AE91"/>
<path d="M55.9627 141.808C54.2233 140.583 53.302 139.885 51.3852 138.964C50.979 138.769 50.4182 139.078 50.2924 139.49C50.1436 139.977 50.3839 140.377 50.8188 140.583C50.9332 140.64 52.9358 141.693 53.3707 141.951C54.2404 142.466 54.8412 142.5 55.6652 143.084C56.0314 143.341 56.8668 143.753 57.1071 143.364C57.3531 142.958 56.3518 142.088 55.9627 141.808Z" fill="#F0AE91"/>
<path d="M12.9345 156.564C7.81346 156.118 4.70078 160.804 0.56389 162.87C-1.62185 163.963 -4.05363 164.432 -6.23365 165.559C-8.27635 166.618 -10.1417 168.014 -11.7609 169.65C-12.5391 170.434 -11.3261 171.653 -10.5479 170.863C-8.96869 169.267 -7.16059 167.939 -5.15223 166.932C-3.10953 165.908 -0.860847 165.439 1.19901 164.461C5.11275 162.607 8.17966 157.863 12.9345 158.281C14.0331 158.378 14.0274 156.662 12.9345 156.564Z" fill="white"/>
<path d="M86.7061 128.413C86.1912 128.413 85.9051 128.808 85.8479 129.271C85.3958 132.87 85.0411 136.481 84.7951 140.097C84.7207 141.201 86.4372 141.195 86.5116 140.097C86.7576 136.481 87.1067 132.87 87.5644 129.271C87.6216 128.808 87.1296 128.413 86.7061 128.413Z" fill="#CFEAF4"/>
<path d="M78.4095 128.424C77.986 128.31 77.4482 128.567 77.3509 129.025C76.7558 131.869 76.3553 134.753 76.1493 137.648C76.115 138.111 76.567 138.506 77.0076 138.506C77.4997 138.506 77.8316 138.111 77.8659 137.648C78.0661 134.901 78.4438 132.178 79.0045 129.483C79.1018 129.031 78.8729 128.556 78.4037 128.424H78.4095Z" fill="#CFEAF4"/>
<path d="M58.5032 124.831C58.4345 127.48 57.6449 130.049 56.2374 132.292C55.648 133.231 57.1357 134.095 57.7193 133.156C59.2814 130.662 60.1397 127.772 60.2198 124.831C60.2484 123.727 58.5318 123.727 58.5032 124.831Z" fill="#CFEAF4"/>
<path d="M107.848 243.897C104.221 243.817 102.481 239.869 101.8 236.859C101.343 234.856 101.102 232.796 100.484 230.834C99.8949 228.963 98.9737 227.212 98.3844 225.341C97.0855 221.227 98.3729 216.815 99.1168 212.713C99.8778 208.507 100.61 204.29 101.405 200.085C102.144 196.194 103.082 192.108 105.708 189.013C106.418 188.178 105.211 186.953 104.495 187.8C101.972 190.77 100.799 194.494 100.021 198.254C99.0996 202.711 98.3729 207.214 97.5604 211.689C97.1427 214.006 96.6621 216.318 96.3417 218.646C96.0499 220.786 95.9698 222.949 96.5133 225.061C97.0512 227.126 98.0754 229.02 98.7448 231.04C99.4315 233.123 99.6718 235.308 100.17 237.437C101.051 241.225 103.448 245.51 107.843 245.608C108.947 245.631 108.947 243.914 107.843 243.891L107.848 243.897Z" fill="white"/>
<path d="M95.6494 193.493C91.9874 188.012 88.3311 182.53 84.6692 177.049C84.0569 176.133 82.5693 176.991 83.1872 177.913C86.8492 183.394 90.5054 188.876 94.1674 194.357C94.7797 195.273 96.2673 194.414 95.6494 193.493Z" fill="#CFEAF4"/>
<path d="M132.778 205.332C130.141 208.027 127.182 210.401 123.944 212.329C120.877 214.155 117.232 215.648 113.622 214.761C112.552 214.498 112.094 216.152 113.164 216.415C117.072 217.376 120.997 215.997 124.379 214.063C127.909 212.043 131.148 209.451 133.991 206.545C134.764 205.755 133.551 204.542 132.778 205.332Z" fill="#CFEAF4"/>
<path d="M13.7985 198.574C7.56166 194.597 3.49344 187.531 2.91553 180.178C2.7496 178.09 2.85831 175.996 3.26456 173.942C3.48199 172.86 1.82266 172.402 1.61095 173.484C0.0488904 181.334 2.46923 189.671 7.75621 195.645C9.26105 197.35 11.0119 198.832 12.9345 200.056C13.8671 200.651 14.7311 199.169 13.7985 198.574Z" fill="#CFEAF4"/>
<path d="M97.2286 133.402C97.2286 133.402 98.8822 141.688 101.154 147.438C102.413 150.619 102.716 166.927 103.957 172.082C105.199 177.237 118.182 178.382 123.91 178.004C129.637 177.627 138.861 167.499 140.646 162.727C142.431 157.955 142.128 152.073 142.128 152.073C142.128 152.073 145.67 150.911 145.818 145.189C145.967 139.468 144.577 128.144 146.442 126.485C148.307 124.825 148.811 111.099 148.044 108.615C147.283 106.132 142.471 105.709 141.71 111.127C140.543 119.464 138.042 136.944 138.042 136.944L136.721 146.86L110.183 130.473L97.2286 133.402Z" fill="#FFC3A6"/>
<path d="M125.42 157.291C123.148 158.733 120.768 160.301 119.246 162.544C117.495 158.636 114.961 155.123 111.751 152.25C110.932 151.518 109.714 152.725 110.538 153.463C113.982 156.547 116.666 160.404 118.302 164.73C118.531 165.33 119.544 165.679 119.87 164.936C121.117 162.098 123.761 160.375 126.284 158.773C127.217 158.184 126.353 156.696 125.42 157.291Z" fill="#F0AE91"/>
<path d="M130.65 81.9404C130.65 81.9404 130.615 81.9404 130.593 81.9404L124.304 81.0593C124.087 81.0307 123.938 80.8304 123.967 80.613C123.995 80.3955 124.196 80.2468 124.413 80.2754L130.701 81.1565C130.919 81.1851 131.068 81.3854 131.039 81.6028C131.01 81.8031 130.839 81.9461 130.644 81.9461L130.65 81.9404Z" fill="black"/>
<path d="M142.97 82.6504L112.173 78.3277C110.69 78.1195 109.319 79.1532 109.11 80.6366L99.3811 149.952C99.1729 151.436 100.207 152.807 101.69 153.015L132.486 157.338C133.97 157.546 135.341 156.512 135.549 155.029L145.278 85.7132C145.487 84.2299 144.453 82.8586 142.97 82.6504Z" fill="black"/>
<path d="M141.414 84.4287L113.286 80.4807C111.803 80.2725 110.431 81.3062 110.223 82.7895L100.935 148.96C100.727 150.444 101.761 151.815 103.244 152.023L131.372 155.971C132.855 156.18 134.226 155.146 134.434 153.662L143.722 87.4916C143.931 86.0082 142.897 84.6369 141.414 84.4287Z" fill="white"/>
<path d="M108.18 97.3607L141.744 101.618L143.289 90.609L109.725 86.3519L108.18 97.3607Z" fill="#AC4FA7"/>
<path d="M118.863 110.796L110.715 109.651C110.509 109.623 110.372 109.434 110.4 109.234L111.545 101.086C111.573 100.88 111.762 100.742 111.962 100.771L120.11 101.915C120.316 101.944 120.454 102.133 120.425 102.333L119.281 110.481C119.252 110.687 119.063 110.824 118.863 110.796ZM111.184 108.965L118.594 110.006L119.635 102.596L112.226 101.555L111.184 108.965Z" fill="black"/>
<path d="M117.447 104.288L113.86 103.784L113.37 107.28L116.956 107.784L117.447 104.288Z" fill="black"/>
<path d="M135.182 113.084L127.034 111.94C126.828 111.911 126.69 111.723 126.719 111.522L127.863 103.374C127.892 103.169 128.081 103.031 128.281 103.06L136.429 104.204C136.635 104.233 136.772 104.422 136.744 104.622L135.599 112.77C135.571 112.976 135.382 113.113 135.182 113.084ZM127.503 111.253L134.913 112.295L135.954 104.885L128.544 103.844L127.503 111.253Z" fill="black"/>
<path d="M133.764 106.579L130.177 106.076L129.687 109.572L133.273 110.076L133.764 106.579Z" fill="black"/>
<path d="M116.511 127.16L108.363 126.016C108.157 125.987 108.02 125.798 108.049 125.598L109.193 117.45C109.222 117.244 109.41 117.107 109.611 117.136L117.759 118.28C117.965 118.309 118.102 118.497 118.073 118.698L116.929 126.845C116.9 127.051 116.711 127.189 116.511 127.16ZM108.832 125.329L116.242 126.371L117.284 118.961L109.874 117.919L108.832 125.329Z" fill="black"/>
<path d="M115.098 120.654L111.511 120.15L111.02 123.646L114.607 124.15L115.098 120.654Z" fill="black"/>
<path d="M132.567 128.814L127.543 128.11C127.114 128.047 127.016 128.717 127.451 128.779L132.475 129.483C132.904 129.546 133.002 128.877 132.567 128.814Z" fill="black"/>
<path d="M133.825 120.878L132.807 128.133C132.744 128.562 133.413 128.659 133.476 128.224L134.495 120.969C134.558 120.54 133.888 120.443 133.825 120.878Z" fill="black"/>
<path d="M134.598 114.807L134.071 118.554C134.009 118.984 134.678 119.081 134.741 118.646L135.267 114.898C135.33 114.469 134.661 114.372 134.598 114.807Z" fill="black"/>
<path d="M126.501 103.083L121.237 102.345C120.808 102.282 120.711 102.951 121.146 103.014L126.41 103.752C126.839 103.815 126.936 103.146 126.501 103.083Z" fill="black"/>
<path d="M110.48 110.527L109.742 115.791C109.679 116.22 110.349 116.317 110.412 115.882L111.15 110.618C111.213 110.189 110.543 110.092 110.48 110.527Z" fill="black"/>
<path d="M124.03 105.217L121.928 104.922L121.633 107.024L123.735 107.32L124.03 105.217Z" fill="black"/>
<path d="M132.277 116.15L130.175 115.855L129.88 117.957L131.982 118.252L132.277 116.15Z" fill="black"/>
<path d="M129.92 117.922L127.817 117.627L127.522 119.73L129.624 120.025L129.92 117.922Z" fill="black"/>
<path d="M131.788 120.899L129.686 120.604L129.391 122.706L131.493 123.001L131.788 120.899Z" fill="black"/>
<path d="M129.92 112.408L127.817 112.113L127.522 114.216L129.624 114.511L129.92 112.408Z" fill="black"/>
<path d="M126.215 107.909L124.113 107.614L123.818 109.717L125.92 110.012L126.215 107.909Z" fill="black"/>
<path d="M121.623 109.901L119.52 109.606L119.225 111.708L121.328 112.003L121.623 109.901Z" fill="black"/>
<path d="M129.92 122.609L127.818 122.314L127.523 124.416L129.625 124.711L129.92 122.609Z" fill="black"/>
<path d="M131.783 122.877L129.68 122.582L129.385 124.684L131.488 124.979L131.783 122.877Z" fill="black"/>
<path d="M134.084 118.547L131.982 118.252L131.687 120.354L133.789 120.649L134.084 118.547Z" fill="black"/>
<path d="M124.755 111.68L122.653 111.385L122.358 113.487L124.46 113.782L124.755 111.68Z" fill="black"/>
<path d="M120.359 114.883L118.256 114.588L117.961 116.691L120.063 116.986L120.359 114.883Z" fill="black"/>
<path d="M117.469 111.052L115.367 110.756L115.072 112.859L117.174 113.154L117.469 111.052Z" fill="black"/>
<path d="M119.576 111.353L117.474 111.058L117.179 113.16L119.281 113.455L119.576 111.353Z" fill="black"/>
<path d="M121.624 118.911L119.522 118.616L119.227 120.718L121.329 121.013L121.624 118.911Z" fill="black"/>
<path d="M115.076 112.791L112.974 112.496L112.679 114.598L114.781 114.893L115.076 112.791Z" fill="black"/>
<path d="M112.705 114.578L110.603 114.283L110.308 116.386L112.41 116.681L112.705 114.578Z" fill="black"/>
<path d="M120.25 125.471L118.148 125.176L117.853 127.278L119.955 127.573L120.25 125.471Z" fill="black"/>
<path d="M125.946 115.67L123.844 115.375L123.548 117.477L125.651 117.772L125.946 115.67Z" fill="black"/>
<path d="M129.405 124.663L127.303 124.368L127.008 126.47L129.11 126.765L129.405 124.663Z" fill="black"/>
<path d="M133.463 125.239L131.361 124.944L131.066 127.046L133.168 127.341L133.463 125.239Z" fill="black"/>
<path d="M133.762 123.15L131.66 122.854L131.365 124.957L133.467 125.252L133.762 123.15Z" fill="black"/>
<path d="M125.12 121.546L123.018 121.25L122.723 123.353L124.825 123.648L125.12 121.546Z" fill="black"/>
<path d="M122.717 123.358L120.615 123.062L120.32 125.165L122.422 125.46L122.717 123.358Z" fill="black"/>
<path d="M111.974 137.911C112.025 138.026 114.034 144.406 114.652 144.623C115.27 144.841 117.896 145.464 118.314 145.264C118.731 145.064 126.759 133.002 126.193 132.407C125.632 131.812 122.674 130.748 122.405 130.839C122.136 130.931 116.957 140.16 116.814 140.269C116.671 140.378 115.487 135.737 114.972 135.874C113.364 136.298 111.482 136.807 111.974 137.911Z" fill="#00D254"/>
<path d="M126.542 134.787C125.809 139.393 125.226 143.376 124.367 147.965C119.612 146.918 114.606 146.271 109.736 145.945C110.314 141.333 110.898 136.716 111.476 132.104C113.353 132.27 115.224 132.43 117.101 132.596C117.593 132.636 117.701 131.881 117.209 131.835C115.207 131.658 113.204 131.486 111.196 131.309C110.99 131.291 110.789 131.423 110.761 131.635C110.148 136.504 109.536 141.373 108.924 146.243C108.901 146.437 109.038 146.666 109.25 146.677C114.371 146.969 119.624 147.719 124.619 148.806C124.831 148.852 125.02 148.669 125.054 148.48C125.941 143.759 126.547 139.645 127.303 134.896C127.383 134.41 126.622 134.301 126.542 134.787Z" fill="#484E56"/>
<path d="M130.575 82.3351L124.287 81.454C124.07 81.4254 123.921 81.2251 123.95 81.0077C123.978 80.7902 124.178 80.6415 124.396 80.6701L130.684 81.5512C130.902 81.5799 131.05 81.7801 131.022 81.9976C130.993 82.215 130.793 82.3637 130.575 82.3351Z" fill="black"/>
<path d="M137.127 156.164C137.127 156.164 133.568 151.077 132.252 147.221C131.439 144.852 131.439 140.715 134.689 141.258C137.939 141.802 140.921 147.221 142.008 151.014C143.095 154.808 137.133 156.164 137.133 156.164H137.127Z" fill="#FFC3A6"/>
<path d="M138.752 140.28C138.752 140.28 134.89 130.627 133.671 127.578C132.452 124.528 134.203 122.331 135.193 121.684C136.961 120.523 138.712 123.212 138.712 123.212C138.712 123.212 137.63 118.84 138.14 115.791C138.649 112.741 141.596 113.147 142.814 114.675C144.033 116.197 147.592 130.53 147.998 133.883C148.405 137.236 145.967 139.473 145.967 139.473C145.967 139.473 146.78 144.045 145.355 146.586C143.93 149.126 140.921 145.716 138.752 140.286V140.28Z" fill="#FFC3A6"/>
<path d="M101.165 136.635C101.165 136.635 106.893 137.734 107.162 131.234C107.431 124.728 103.637 125.272 99.8435 126.359C96.0499 127.44 95.7409 137.185 101.165 136.641V136.635Z" fill="#FFC3A6"/>
<path d="M146.694 123.321C145.979 120.059 144.92 117.593 143.364 114.612C143.083 114.074 141.939 113.21 141.435 113.502C140.892 113.823 141.99 114.395 142.271 114.933C143.736 117.731 143.867 120.849 144.537 123.916C144.668 124.505 145.355 124.854 145.916 124.7C146.528 124.534 146.831 123.916 146.7 123.321H146.694Z" fill="#F0AE91"/>
<path d="M143.123 145.584C141.584 141.848 136.829 133.78 136.217 133.946C135.656 134.101 139.416 142.443 140.955 146.179C141.184 146.74 141.699 147.135 142.334 146.963C142.866 146.82 143.352 146.145 143.118 145.584H143.123Z" fill="#F0AE91"/>
<path d="M139.679 159.563C139.873 159.809 135.965 153.892 135.696 153.978C135.176 154.144 135.662 155.781 135.902 156.358C136.641 158.149 136.91 159.614 138.088 161.148C138.254 161.359 138.632 161.474 138.884 161.474C139.158 161.474 139.49 161.354 139.679 161.148C139.873 160.936 140.022 160.656 140.005 160.352C139.994 160.032 139.868 159.809 139.679 159.557V159.563Z" fill="#F0AE91"/>
<path d="M107.173 189.425C107.173 189.425 102.401 200.468 107.631 205.069C112.866 209.669 125.283 205.069 129.883 201.389C134.483 197.71 136.658 189.396 131.788 185.122C126.919 180.848 111.133 184.367 107.167 189.425H107.173Z" fill="#67848E"/>
<path d="M103.832 171.504C103.832 171.504 107.202 187.085 107.173 192.698C107.145 198.311 108.512 200.474 112.763 202.505C117.015 204.536 128.092 198.923 130.673 194.672C133.253 190.421 131.142 179.303 134.85 170.903C138.563 162.504 103.832 171.51 103.832 171.51V171.504Z" fill="#FFC3A6"/>
<path d="M135.107 170.28C132.218 173.255 129.488 176.379 126.931 179.635C126.645 180.001 126.576 180.493 126.931 180.848C127.228 181.146 127.858 181.214 128.144 180.848C130.707 177.587 132.944 174.296 135.834 171.321C136.606 170.526 135.88 169.484 135.107 170.28Z" fill="#F0AE91"/>
</g>
</g>
</g>
</g>
<defs>
<clipPath id="clip0_214_1232">
<rect width="172" height="348" fill="white" transform="translate(-24 58.0001)"/>
</clipPath>
</defs>
</svg>
