<svg width="26" height="26" viewBox="0 0 26 26" fill="none" xmlns="http://www.w3.org/2000/svg">
<g clip-path="url(#clip0_340_907)">
<path d="M12.9352 0.00351833C12.9352 0.00351833 20.5551 -0.338428 24.5951 7.32075H12.2868C12.2868 7.32075 9.96404 7.24588 7.97985 10.0638C7.40987 11.2465 6.7972 12.4649 7.48473 14.866C6.49431 13.188 2.22656 5.7569 2.22656 5.7569C2.22656 5.7569 5.2369 0.306312 12.9352 0.00351833Z" fill="#EF3F36"/>
<path d="M24.2008 19.4473C24.2008 19.4473 20.6847 26.2195 12.0352 25.8846C13.1039 24.0357 18.191 15.2258 18.191 15.2258C18.191 15.2258 19.4201 13.2523 17.9701 10.1245C17.2326 9.03793 16.481 7.90152 14.0586 7.29583C16.0073 7.27813 24.5749 7.29583 24.5749 7.29583C24.5749 7.29583 27.7846 12.6289 24.2008 19.4473Z" fill="#FCD900"/>
<path d="M1.72646 19.5007C1.72646 19.5007 -2.38103 13.0705 2.23584 5.74622C3.30103 7.59515 8.38813 16.405 8.38813 16.405C8.38813 16.405 9.48539 18.457 12.916 18.7632C14.2235 18.6671 15.5843 18.5852 17.3228 16.7933C16.3644 18.489 12.0644 25.8988 12.0644 25.8988C12.0644 25.8988 5.8375 26.0129 1.72646 19.5007Z" fill="#61BC5B"/>
<path d="M12.0312 25.9487L13.7625 18.7241C13.7625 18.7241 15.6649 18.5744 17.2609 16.8253C16.2705 18.5674 12.0312 25.9487 12.0312 25.9487Z" fill="#5AB055"/>
<path d="M7.13672 13.0562C7.13672 9.8715 9.71952 7.2887 12.9043 7.2887C16.089 7.2887 18.6718 9.8715 18.6718 13.0562C18.6718 16.2411 16.089 18.8238 12.9043 18.8238C9.71952 18.8203 7.13672 16.2411 7.13672 13.0562Z" fill="white"/>
<path d="M8.10156 13.0563C8.10156 10.4059 10.2497 8.25415 12.9038 8.25415C15.5542 8.25415 17.7059 10.4023 17.7059 13.0563C17.7059 15.7067 15.5578 17.8585 12.9038 17.8585C10.2533 17.8585 8.10156 15.7067 8.10156 13.0563Z" fill="url(#paint0_linear_340_907)"/>
<path d="M24.5709 7.29944L17.4425 9.39057C17.4425 9.39057 16.3667 7.81236 14.0547 7.29944C16.0603 7.28872 24.5709 7.29944 24.5709 7.29944Z" fill="#EACA05"/>
<path d="M7.34583 14.6024C6.34468 12.8675 2.22656 5.75696 2.22656 5.75696L7.50608 10.9794C7.50608 10.9794 6.96453 12.0945 7.16768 13.6904L7.34583 14.6024Z" fill="#DF3A32"/>
</g>
<defs>
<linearGradient id="paint0_linear_340_907" x1="12.9035" y1="8.32196" x2="12.9035" y2="17.5694" gradientUnits="userSpaceOnUse">
<stop stop-color="#86BBE5"/>
<stop offset="1" stop-color="#1072BA"/>
</linearGradient>
<clipPath id="clip0_340_907">
<rect width="25.8988" height="26" fill="white" transform="translate(0.0078125)"/>
</clipPath>
</defs>
</svg>
