<svg width="68" height="68" viewBox="0 0 68 68" fill="none" xmlns="http://www.w3.org/2000/svg">
<circle opacity="0.1" cx="34" cy="34" r="34" fill="#00D254"/>
<path d="M33.4987 44C30.832 43.8611 28.582 42.8333 26.7487 40.9167C24.9154 39 23.9987 36.6944 23.9987 34C23.9987 31.2222 24.9709 28.8611 26.9154 26.9167C28.8598 24.9722 31.2209 24 33.9987 24C36.6931 24 38.9987 24.9167 40.9154 26.75C42.832 28.5833 43.8598 30.8333 43.9987 33.5L40.4987 32.4583C40.1376 30.9583 39.3598 29.7294 38.1654 28.7717C36.9709 27.8128 35.582 27.3333 33.9987 27.3333C32.1654 27.3333 30.5959 27.9861 29.2904 29.2917C27.9848 30.5972 27.332 32.1667 27.332 34C27.332 35.5833 27.8115 36.9722 28.7704 38.1667C29.7281 39.3611 30.957 40.1389 32.457 40.5L33.4987 44ZM35.4987 50.5833C35.2487 50.6389 34.9987 50.6667 34.7487 50.6667H33.9987C31.6931 50.6667 29.5265 50.2289 27.4987 49.3533C25.4709 48.4789 23.707 47.2917 22.207 45.7917C20.707 44.2917 19.5198 42.5278 18.6454 40.5C17.7698 38.4722 17.332 36.3056 17.332 34C17.332 31.6944 17.7698 29.5278 18.6454 27.5C19.5198 25.4722 20.707 23.7083 22.207 22.2083C23.707 20.7083 25.4709 19.5206 27.4987 18.645C29.5265 17.7706 31.6931 17.3333 33.9987 17.3333C36.3043 17.3333 38.4709 17.7706 40.4987 18.645C42.5265 19.5206 44.2904 20.7083 45.7904 22.2083C47.2904 23.7083 48.4776 25.4722 49.352 27.5C50.2276 29.5278 50.6654 31.6944 50.6654 34V34.75C50.6654 35 50.6376 35.25 50.582 35.5L47.332 34.5V34C47.332 30.2778 46.0404 27.125 43.457 24.5417C40.8737 21.9583 37.7209 20.6667 33.9987 20.6667C30.2765 20.6667 27.1237 21.9583 24.5404 24.5417C21.957 27.125 20.6654 30.2778 20.6654 34C20.6654 37.7222 21.957 40.875 24.5404 43.4583C27.1237 46.0417 30.2765 47.3333 33.9987 47.3333H34.4987L35.4987 50.5833ZM48.207 51.5L41.082 44.375L38.9987 50.6667L33.9987 34L50.6654 39L44.3737 41.0833L51.4987 48.2083L48.207 51.5Z" fill="#00D254"/>
</svg>
