<svg width="68" height="68" viewBox="0 0 68 68" fill="none" xmlns="http://www.w3.org/2000/svg">
<circle opacity="0.1" cx="34" cy="34" r="34" fill="#00D254"/>
<g clip-path="url(#clip0_282_373)">
<path fill-rule="evenodd" clip-rule="evenodd" d="M39.7954 49.63C42.9858 48.4455 45.7374 46.313 47.6805 43.519C49.6236 40.725 50.6652 37.4033 50.6654 34C50.6654 24.795 43.2037 17.3333 33.9987 17.3333C24.7937 17.3333 17.332 24.795 17.332 34C17.332 43.205 24.7937 50.6667 33.9987 50.6667C35.8003 50.6687 37.5902 50.3782 39.2987 49.8067C39.4726 49.7744 39.6402 49.7148 39.7954 49.63ZM33.9987 20.6667C31.3191 20.6625 28.7009 21.4695 26.4887 22.9817C26.4954 23.0417 26.4987 23.1033 26.4987 23.1667V29.0333C26.4984 29.3903 26.6127 29.738 26.8248 30.0252C27.037 30.3123 27.3357 30.5237 27.677 30.6283L29.8287 31.285L29.537 29.5383C29.3274 28.281 29.6059 26.9911 30.3156 25.9322C31.0254 24.8734 32.1127 24.1256 33.3554 23.8417L34.0237 23.69C34.3373 23.6183 34.6234 23.4574 34.8476 23.2268C35.0717 22.9961 35.2244 22.7055 35.287 22.39L35.6137 20.7633C35.0778 20.6988 34.5385 20.6665 33.9987 20.6667ZM23.1654 29.0333V26.225C21.5875 28.422 20.7152 31.0469 20.6641 33.7513C20.6131 36.4556 21.3858 39.1116 22.8796 41.3665C24.3734 43.6215 26.5177 45.3688 29.0279 46.3764C31.5381 47.3841 34.2953 47.6045 36.9337 47.0083L35.967 43.6217C35.8888 43.3495 35.7426 43.1017 35.542 42.9017L33.4787 40.8367C33.23 40.5881 33.0365 40.2899 32.9109 39.9615C32.7853 39.6331 32.7304 39.2819 32.7498 38.9309C32.7691 38.5798 32.8623 38.2367 33.0232 37.9241C33.1841 37.6115 33.4092 37.3364 33.6837 37.1167L36.292 35.0317C36.7893 34.6339 37.3901 34.3868 38.0234 34.3198C38.6566 34.2527 39.2958 34.3685 39.8654 34.6533L42.3154 35.8783C43.0515 36.2465 43.6854 36.7906 44.1607 37.4625C44.6361 38.1344 44.9383 38.9133 45.0404 39.73L45.2237 41.1983C46.2887 39.5368 46.9718 37.6596 47.2236 35.7022C47.4754 33.7447 47.2897 31.7558 46.6799 29.8788C46.0701 28.0018 45.0513 26.2835 43.6971 24.8478C42.3429 23.4122 40.6869 22.2949 38.8487 21.5767L38.5554 23.045C38.3663 23.99 37.9081 24.8603 37.236 25.551C36.5639 26.2417 35.7065 26.7235 34.767 26.9383L34.0987 27.0917C33.6841 27.1862 33.3214 27.4356 33.0847 27.7888C32.848 28.142 32.7552 28.5723 32.8254 28.9917L33.117 30.7383C33.21 31.2982 33.1584 31.8725 32.9672 32.4069C32.7761 32.9413 32.4516 33.418 32.0247 33.7919C31.5977 34.1657 31.0823 34.4244 30.5274 34.5434C29.9725 34.6624 29.3964 34.6377 28.8537 34.4717L26.7037 33.815C25.6796 33.502 24.7831 32.8684 24.1461 32.0076C23.5091 31.1468 23.1653 30.1042 23.1654 29.0333ZM42.272 44.4567C41.5885 44.9987 40.8533 45.4721 40.077 45.87L39.172 42.7067C38.9389 41.8892 38.5013 41.1446 37.9004 40.5433L36.4937 39.1383L38.3737 37.635L40.8237 38.86C41.0693 38.9825 41.2809 39.1637 41.4396 39.3875C41.5984 39.6114 41.6994 39.871 41.7337 40.1433L42.272 44.4567Z" fill="#00D254"/>
</g>
<defs>
<clipPath id="clip0_282_373">
<rect width="40" height="40" fill="white" transform="translate(14 14)"/>
</clipPath>
</defs>
</svg>
