<svg width="31" height="30" viewBox="0 0 31 30" fill="none" xmlns="http://www.w3.org/2000/svg">
<g clip-path="url(#clip0_340_898)">
<path d="M26.6745 4.16663H3.34115C2.45709 4.16663 1.60924 4.51782 0.984123 5.14294C0.359002 5.76806 0.0078125 6.6159 0.0078125 7.49996L0.0078125 15H30.0078V7.49996C30.0078 6.6159 29.6566 5.76806 29.0315 5.14294C28.4064 4.51782 27.5585 4.16663 26.6745 4.16663Z" fill="#005BBB"/>
<path d="M30.0078 22.5C30.0078 23.3841 29.6566 24.2319 29.0315 24.857C28.4064 25.4821 27.5585 25.8333 26.6745 25.8333H3.34115C2.45709 25.8333 1.60924 25.4821 0.984123 24.857C0.359002 24.2319 0.0078125 23.3841 0.0078125 22.5V15H30.0078V22.5Z" fill="#FFD500"/>
</g>
<defs>
<clipPath id="clip0_340_898">
<rect width="30.0221" height="30" fill="white" transform="translate(0.0429688)"/>
</clipPath>
</defs>
</svg>
