<svg width="30" height="30" viewBox="0 0 30 30" fill="none" xmlns="http://www.w3.org/2000/svg">
<path d="M25.4509 21.3418C25.1057 21.5245 24.7503 21.687 24.3848 21.819C23.2172 22.2556 21.9887 22.4789 20.7398 22.4789C15.9374 22.4789 11.7543 19.1792 11.7543 14.9351C11.7645 13.7777 12.4041 12.7116 13.4194 12.1633C9.07388 12.3461 7.95703 16.8744 7.95703 19.5244C7.95703 27.0275 14.8713 27.789 16.3638 27.789C17.1659 27.789 18.3742 27.5555 19.1052 27.322L19.2372 27.2814C22.0394 26.3168 24.4153 24.4283 25.9992 21.9205C26.121 21.7276 26.0601 21.4839 25.8773 21.3621C25.7453 21.2809 25.5829 21.2707 25.4509 21.3418Z" fill="url(#paint0_linear_341_1496)"/>
<path opacity="0.35" d="M25.4509 21.3418C25.1057 21.5245 24.7503 21.687 24.3848 21.819C23.2172 22.2556 21.9887 22.4789 20.7398 22.4789C15.9374 22.4789 11.7543 19.1792 11.7543 14.9351C11.7645 13.7777 12.4041 12.7116 13.4194 12.1633C9.07388 12.3461 7.95703 16.8744 7.95703 19.5244C7.95703 27.0275 14.8713 27.789 16.3638 27.789C17.1659 27.789 18.3742 27.5555 19.1052 27.322L19.2372 27.2814C22.0394 26.3168 24.4153 24.4283 25.9992 21.9205C26.121 21.7276 26.0601 21.4839 25.8773 21.3621C25.7453 21.2809 25.5829 21.2707 25.4509 21.3418Z" fill="url(#paint1_radial_341_1496)"/>
<path d="M12.7341 26.5097C11.8305 25.9513 11.0487 25.2101 10.4294 24.3471C7.75909 20.6919 8.56119 15.5646 12.2163 12.8943C12.6021 12.6202 12.9981 12.3663 13.4245 12.1633C13.7393 12.011 14.2774 11.747 14.9983 11.7572C16.0238 11.7673 16.9883 12.2547 17.6076 13.0771C18.0138 13.6253 18.2473 14.2853 18.2574 14.9757C18.2574 14.9554 20.745 6.8938 10.1349 6.8938C5.6777 6.8938 2.01241 11.1277 2.01241 14.8336C1.99211 16.7931 2.41854 18.7425 3.24094 20.5193C6.04321 26.4894 12.8661 29.4135 19.1205 27.3321C16.9782 28.0022 14.6429 27.7077 12.7341 26.5097Z" fill="url(#paint2_linear_341_1496)"/>
<path opacity="0.41" d="M12.7341 26.5097C11.8305 25.9513 11.0487 25.2101 10.4294 24.3471C7.75909 20.6919 8.56119 15.5646 12.2163 12.8943C12.6021 12.6202 12.9981 12.3663 13.4245 12.1633C13.7393 12.011 14.2774 11.747 14.9983 11.7572C16.0238 11.7673 16.9883 12.2547 17.6076 13.0771C18.0138 13.6253 18.2473 14.2853 18.2574 14.9757C18.2574 14.9554 20.745 6.8938 10.1349 6.8938C5.6777 6.8938 2.01241 11.1277 2.01241 14.8336C1.99211 16.7931 2.41854 18.7425 3.24094 20.5193C6.04321 26.4894 12.8661 29.4135 19.1205 27.3321C16.9782 28.0022 14.6429 27.7077 12.7341 26.5097Z" fill="url(#paint3_radial_341_1496)"/>
<path d="M17.4632 17.118C17.382 17.2196 17.1282 17.3719 17.1282 17.6968C17.1282 17.9607 17.3008 18.2146 17.6054 18.4278C19.0674 19.4431 21.8189 19.3111 21.8291 19.3111C22.9155 19.3111 23.9714 19.0167 24.9055 18.4684C26.8143 17.3516 27.9921 15.3108 27.9921 13.0974C28.0225 10.8231 27.1798 9.31027 26.8447 8.64016C24.6923 4.4266 20.0421 2 14.996 2C7.88882 2 2.10153 7.70607 2 14.8133C2.05077 11.1074 5.73636 8.11219 10.1225 8.11219C10.4779 8.11219 12.5085 8.14265 14.3868 9.13766C16.0418 10.0108 16.915 11.0566 17.514 12.1024C18.1435 13.1888 18.2552 14.5493 18.2552 15.0976C18.2552 15.6357 17.9811 16.4479 17.4632 17.118Z" fill="url(#paint4_radial_341_1496)"/>
<path d="M17.4632 17.118C17.382 17.2196 17.1282 17.3719 17.1282 17.6968C17.1282 17.9607 17.3008 18.2146 17.6054 18.4278C19.0674 19.4431 21.8189 19.3111 21.8291 19.3111C22.9155 19.3111 23.9714 19.0167 24.9055 18.4684C26.8143 17.3516 27.9921 15.3108 27.9921 13.0974C28.0225 10.8231 27.1798 9.31027 26.8447 8.64016C24.6923 4.4266 20.0421 2 14.996 2C7.88882 2 2.10153 7.70607 2 14.8133C2.05077 11.1074 5.73636 8.11219 10.1225 8.11219C10.4779 8.11219 12.5085 8.14265 14.3868 9.13766C16.0418 10.0108 16.915 11.0566 17.514 12.1024C18.1435 13.1888 18.2552 14.5493 18.2552 15.0976C18.2552 15.6357 17.9811 16.4479 17.4632 17.118Z" fill="url(#paint5_radial_341_1496)"/>
<defs>
<linearGradient id="paint0_linear_341_1496" x1="7.95744" y1="19.9731" x2="26.0588" y2="19.9731" gradientUnits="userSpaceOnUse">
<stop stop-color="#0C59A4"/>
<stop offset="1" stop-color="#114A8B"/>
</linearGradient>
<radialGradient id="paint1_radial_341_1496" cx="0" cy="0" r="1" gradientUnits="userSpaceOnUse" gradientTransform="translate(17.957 20.1169) scale(9.6831 9.19793)">
<stop offset="0.72" stop-opacity="0"/>
<stop offset="0.95" stop-opacity="0.53"/>
<stop offset="1"/>
</radialGradient>
<linearGradient id="paint2_linear_341_1496" x1="17.5133" y1="12.1273" x2="6.20546" y2="24.4443" gradientUnits="userSpaceOnUse">
<stop stop-color="#1B9DE2"/>
<stop offset="0.16" stop-color="#1595DF"/>
<stop offset="0.67" stop-color="#0680D7"/>
<stop offset="1" stop-color="#0078D4"/>
</linearGradient>
<radialGradient id="paint3_radial_341_1496" cx="0" cy="0" r="1" gradientUnits="userSpaceOnUse" gradientTransform="translate(9.17125 22.2057) rotate(-81.3826) scale(14.5594 11.7648)">
<stop offset="0.76" stop-opacity="0"/>
<stop offset="0.95" stop-opacity="0.5"/>
<stop offset="1"/>
</radialGradient>
<radialGradient id="paint4_radial_341_1496" cx="0" cy="0" r="1" gradientUnits="userSpaceOnUse" gradientTransform="translate(4.62475 6.81186) rotate(92.2911) scale(20.5653 43.8066)">
<stop stop-color="#35C1F1"/>
<stop offset="0.11" stop-color="#34C1ED"/>
<stop offset="0.23" stop-color="#2FC2DF"/>
<stop offset="0.31" stop-color="#2BC3D2"/>
<stop offset="0.67" stop-color="#36C752"/>
</radialGradient>
<radialGradient id="paint5_radial_341_1496" cx="0" cy="0" r="1" gradientUnits="userSpaceOnUse" gradientTransform="translate(26.3737 9.85912) rotate(73.7366) scale(9.88118 8.03692)">
<stop stop-color="#66EB6E"/>
<stop offset="1" stop-color="#66EB6E" stop-opacity="0"/>
</radialGradient>
</defs>
</svg>
