<svg width="29" height="30" viewBox="0 0 29 30" fill="none" xmlns="http://www.w3.org/2000/svg">
<g clip-path="url(#clip0_341_1472)">
<path d="M22.899 2.60614C22.221 3.40069 21.9032 5.18049 22.5918 6.99206C23.2804 8.80364 24.3398 8.41166 24.9967 10.255C25.8654 12.6916 25.4628 15.9652 25.4628 15.9652C25.4628 15.9652 26.5116 18.9951 27.2426 15.7745C28.8635 9.72532 22.899 4.0999 22.899 2.60614Z" fill="url(#paint0_radial_341_1472)"/>
<path d="M14.594 27.7245C21.5755 27.7245 27.2221 22.0461 27.2221 15.0329C27.2221 8.01967 21.5649 2.35187 14.594 2.35187C7.62319 2.35187 1.97658 8.03026 1.97658 15.0329C1.96598 22.0461 7.62319 27.7245 14.594 27.7245Z" fill="url(#paint1_radial_341_1472)"/>
<path d="M24.0503 22.8619C23.7749 23.0525 23.4888 23.222 23.1922 23.381C23.5842 22.7983 23.9549 22.205 24.2834 21.5906C24.5482 21.2939 24.8025 21.0079 25.0038 20.6901C25.0991 20.5312 25.2156 20.3511 25.3322 20.1286C26.042 18.8467 26.8259 16.7809 26.8471 14.6621V14.5032C26.8471 13.9735 26.7941 13.4332 26.6882 12.9141C26.6988 12.9564 26.6988 12.9988 26.7094 13.0412C26.6988 13.0094 26.6988 12.9776 26.6882 12.9459C26.6988 12.9988 26.7094 13.0624 26.72 13.1154C26.8683 14.3443 26.7624 15.5414 26.2433 16.4313C26.2327 16.4419 26.2221 16.4525 26.2221 16.4737C26.4869 15.1282 26.5823 13.6451 26.2856 12.1619C26.2856 12.1619 26.1691 11.4415 25.2792 9.24854C24.7707 7.98786 23.8596 6.94964 23.0651 6.19747C22.3658 5.32876 21.7196 4.74609 21.37 4.3753C20.639 3.60193 20.3318 3.01926 20.2047 2.64847C20.0987 2.5955 18.6897 1.22887 18.5838 1.1759C17.9693 2.12936 16.0518 5.09569 16.9629 7.86073C17.3761 9.12141 18.4249 10.4245 19.5267 11.1555C19.5796 11.2084 20.1835 11.8653 20.4695 13.3484C20.7661 14.8846 20.6072 16.0711 20.0034 17.8403C19.283 19.387 17.4396 20.9231 15.7128 21.0821C12.0261 21.4211 10.6701 19.2281 10.6701 19.2281C11.9837 19.7578 13.4457 19.6413 14.3356 19.101C15.2255 18.5501 15.7658 18.1369 16.2107 18.2958C16.6451 18.4547 16.9841 17.9886 16.6769 17.5013C16.1895 16.7491 15.2996 16.3677 14.4203 16.516C13.5304 16.6644 12.7041 17.3742 11.5388 16.6855C11.4646 16.6432 11.3904 16.5902 11.3163 16.5372C11.2421 16.4843 11.5705 16.6114 11.4858 16.5584C11.2633 16.4313 10.8502 16.1664 10.7548 16.0711C10.7336 16.0499 10.9349 16.1347 10.9137 16.1135C9.82253 15.213 9.96025 14.5985 9.99204 14.2171C10.0238 13.9099 10.2145 13.5179 10.5535 13.359C10.7124 13.4438 10.8184 13.5179 10.8184 13.5179C10.8184 13.5179 10.7442 13.3802 10.7124 13.3061C10.723 13.2955 10.7336 13.3061 10.7548 13.2955C10.8925 13.359 11.1786 13.5285 11.3375 13.6239C11.5388 13.7616 11.6023 13.8887 11.6023 13.8887C11.6023 13.8887 11.6553 13.8569 11.6129 13.7404C11.6023 13.6874 11.5388 13.5285 11.3375 13.3696H11.3481C11.4646 13.4332 11.5811 13.5179 11.6871 13.6027C11.74 13.4014 11.846 13.1895 11.8248 12.8081C11.8142 12.5433 11.8142 12.4691 11.7718 12.3632C11.7295 12.2784 11.793 12.2361 11.8672 12.3314C11.8566 12.2572 11.8354 12.1831 11.8036 12.1195V12.1089C11.899 11.7911 13.7423 10.9542 13.88 10.8588C14.1025 10.6999 14.2826 10.4986 14.4203 10.2656C14.5263 10.1067 14.6004 9.87359 14.6216 9.52399C14.6322 9.26973 14.5157 9.10023 12.6405 8.90953C12.132 8.85656 11.8248 8.48577 11.6553 8.14677C11.6235 8.07261 11.5917 8.00904 11.56 7.93489C11.5282 7.86073 11.507 7.77597 11.4858 7.69122C11.793 6.81192 12.3015 6.07034 13.0643 5.50886C13.1067 5.46648 12.8948 5.51945 12.9372 5.47707C12.9901 5.4347 13.2974 5.30757 13.3609 5.27579C13.4351 5.244 13.0537 5.0745 12.7147 5.11688C12.3757 5.15925 12.3015 5.20163 12.1108 5.27579C12.185 5.20163 12.4287 5.09569 12.3757 5.10628C12.0049 5.15925 11.5494 5.38173 11.1574 5.62539C11.1574 5.58301 11.168 5.54064 11.1786 5.49826C10.9985 5.57242 10.5429 5.89024 10.4158 6.15509C10.4264 6.10212 10.4264 6.04915 10.4264 5.99618C10.2887 6.11271 10.1615 6.23984 10.0556 6.38816L9.99204 6.40935C8.93263 5.98559 7.98977 5.9538 7.20581 6.1445C7.03631 5.97499 6.95155 6.10212 6.54898 5.23341C6.5172 5.18044 6.57017 5.28638 6.54898 5.23341C6.48542 5.06391 6.59136 5.45589 6.54898 5.23341C5.89215 5.76311 5.02344 6.35638 4.59968 6.76954C4.59968 6.79073 5.08701 6.63182 4.59968 6.76954C4.43018 6.82251 4.44077 6.91786 4.41958 7.83954C4.40899 7.9137 4.41958 7.98785 4.40899 8.05142C4.06998 8.47518 3.84751 8.83538 3.76276 9.02607C3.3284 9.76765 2.85167 10.933 2.39613 12.7658C2.59741 12.2678 2.84108 11.7911 3.12711 11.3356C2.74573 12.3102 2.37494 13.8463 2.30078 16.1982C2.39613 15.7109 2.51266 15.2342 2.66098 14.7574C2.56563 16.7173 2.90464 18.6666 3.64622 20.4782C3.91107 21.1244 4.34543 22.1097 5.0976 23.1903C7.44947 25.6587 10.7548 27.1948 14.4203 27.1948C18.2448 27.1948 21.6878 25.5209 24.0503 22.8619Z" fill="url(#paint2_linear_341_1472)"/>
<path d="M21.2124 24.6523C25.842 24.112 27.8972 19.3447 25.2593 19.2493C22.8862 19.1752 19.0194 24.9065 21.2124 24.6523Z" fill="url(#paint3_radial_341_1472)"/>
<path d="M25.6002 18.2747C28.789 16.4207 27.952 12.4162 27.952 12.4162C27.952 12.4162 26.7231 13.8464 25.8862 16.1241C25.0705 18.3806 23.6826 19.3977 25.6002 18.2747Z" fill="url(#paint4_radial_341_1472)"/>
<path d="M15.4843 27.0253C19.9338 28.4449 23.7477 24.9383 21.3958 23.773C19.2558 22.7242 13.3761 26.3579 15.4843 27.0253Z" fill="url(#paint5_radial_341_1472)"/>
<path d="M25.9383 19.9804C26.0443 19.832 26.1926 19.3447 26.3197 19.1222C27.1037 17.851 27.1142 16.8445 27.1142 16.8233C27.591 14.4609 27.5486 13.4862 27.252 11.7064C27.0189 10.2656 25.9913 8.19981 25.1014 7.21457C24.1903 6.18695 24.8259 6.52595 23.9466 5.77378C23.1733 4.91566 22.4105 4.05755 22.0079 3.71854C19.0416 1.23954 19.1052 0.70984 19.1687 0.625088L19.1264 0.667464C19.0946 0.529742 19.0628 0.413208 19.0628 0.413208C19.0628 0.413208 17.4313 2.0235 17.0923 4.72497C16.8698 6.48358 17.5267 8.32694 18.4907 9.50287C18.9886 10.1173 19.5501 10.6682 20.1646 11.1555C20.885 12.1938 21.2875 13.4756 21.2875 14.8529C21.2875 18.3065 18.4907 21.0927 15.0371 21.0927C14.5709 21.0927 14.0942 21.0398 13.6387 20.9338C12.0072 20.6266 11.0749 19.8003 10.5982 19.2388C10.3333 18.921 10.2168 18.6879 10.2168 18.6879C11.6788 19.207 13.2891 19.1011 14.2743 18.5608C15.2595 18.0099 15.8634 17.6073 16.3507 17.7662C16.8275 17.9251 17.2088 17.459 16.8698 16.9822C16.5308 16.5055 15.6621 15.8169 14.3696 16.0076C13.3844 16.1559 12.4733 16.8551 11.1808 16.1771C11.0961 16.1347 11.0113 16.0818 10.9372 16.0394C10.8524 15.9864 11.2126 16.1135 11.1279 16.0606C10.8736 15.9334 10.4287 15.6686 10.3121 15.5732C10.291 15.5521 10.5028 15.6368 10.4922 15.6156C9.28452 14.7257 9.43284 14.1219 9.46462 13.7405C9.4964 13.4333 9.71887 13.0519 10.0897 12.893C10.2698 12.9777 10.3757 13.0519 10.3757 13.0519C10.3757 13.0519 10.3015 12.9141 10.2592 12.84C10.2698 12.8294 10.291 12.84 10.3015 12.8294C10.4499 12.893 10.7783 13.0519 10.9478 13.1578C11.1703 13.2955 11.2444 13.4227 11.2444 13.4227C11.2444 13.4227 11.308 13.3909 11.255 13.2743C11.2338 13.2214 11.1703 13.0625 10.9478 12.9036H10.9584C11.0855 12.9671 11.2126 13.0519 11.3292 13.1366C11.3927 12.9353 11.4987 12.7235 11.4775 12.3421C11.4669 12.0772 11.4669 12.0031 11.4139 11.9077C11.3715 11.823 11.4351 11.7806 11.5199 11.8759C11.5093 11.8018 11.4775 11.7382 11.4457 11.6641V11.6535C11.5516 11.3356 13.5963 10.5093 13.7446 10.414C13.9883 10.2656 14.1895 10.0644 14.3485 9.83129C14.465 9.67238 14.5497 9.43931 14.5709 9.08971C14.5815 8.9308 14.5286 8.81426 13.9883 8.68713C13.6598 8.61298 13.1619 8.54941 12.378 8.47525C11.8165 8.42228 11.4775 8.06209 11.2868 7.72308C11.255 7.64892 11.2126 7.58536 11.1808 7.52179C11.1491 7.44763 11.1173 7.36288 11.0961 7.28872C11.4351 6.39883 12.0496 5.64665 12.8441 5.12754C12.8865 5.08517 12.664 5.13814 12.7064 5.09576C12.7594 5.05339 13.109 4.92626 13.1725 4.89448C13.2573 4.86269 12.8335 4.70378 12.4521 4.73557C12.0707 4.77794 11.9966 4.80972 11.7847 4.89448C11.8695 4.82032 12.1343 4.72497 12.0707 4.72497C11.6894 4.76735 11.1808 4.97923 10.7465 5.22289C10.7465 5.18051 10.7571 5.13814 10.7677 5.09576C10.5664 5.16992 10.0685 5.48774 9.92016 5.75259C9.93076 5.69962 9.93076 5.64665 9.93076 5.60428C9.78244 5.72081 9.63412 5.84794 9.51759 5.99625L9.507 6.00685C8.33106 5.58309 7.29285 5.55131 6.42414 5.742C6.23344 5.57249 5.92622 5.30764 5.49186 4.44953C5.46008 4.39656 5.44949 4.55547 5.4283 4.5025C5.25879 4.11052 5.15285 3.46428 5.17404 3.01934C5.17404 3.01934 4.82444 3.17825 4.5384 3.84567C4.48543 3.9622 4.45365 4.03636 4.41127 4.09993C4.39008 4.12111 4.44306 3.87745 4.44306 3.89864C4.39008 3.98339 4.26296 4.09993 4.20999 4.25884C4.16761 4.37537 4.11464 4.43893 4.08286 4.57666L4.07226 4.58725C4.07226 4.54487 4.08286 4.41775 4.07226 4.43893C3.93454 4.71438 3.81801 5.00042 3.72266 5.28645C3.56375 5.79497 3.38365 6.49417 3.35187 7.40526C3.34128 7.46882 3.35187 7.55357 3.34128 7.61714C2.97049 8.0409 2.71623 8.40109 2.62088 8.58119C2.14415 9.32277 1.61445 10.4669 1.10594 12.2891C1.32841 11.7912 1.60386 11.3144 1.92168 10.8695C1.49792 11.8336 1.08475 13.3591 1 15.6898C1.10594 15.2025 1.23307 14.7257 1.39198 14.2596C1.31782 15.8169 1.49792 17.7556 2.48316 19.938C3.06583 21.2199 4.41127 23.826 7.70601 25.86C7.70601 25.86 8.82898 26.697 10.7465 27.322C10.8842 27.375 11.0325 27.4279 11.1808 27.4703C11.1385 27.4491 11.0855 27.4279 11.0431 27.4174C12.325 27.7987 13.6493 28 14.9947 28C19.9739 28 21.4464 25.9978 21.4464 25.9978L21.4359 26.0083C21.51 25.9448 21.5736 25.8706 21.6371 25.8071C20.8532 26.5486 19.0522 26.6016 18.3848 26.5486C19.5289 26.2096 20.2811 25.9236 21.7431 25.3727C21.9126 25.3091 22.0927 25.235 22.2728 25.1502L22.3258 25.1185C22.3575 25.0973 22.3999 25.0867 22.4317 25.0655C23.1415 24.7265 23.8195 24.3133 24.434 23.8154C25.9065 22.6395 26.2243 21.4953 26.3939 20.7431C26.3727 20.8173 26.2985 20.9868 26.2455 21.0927C25.8642 21.8979 25.0272 22.4064 24.1161 22.8301C24.5505 22.2581 24.9531 21.6648 25.3239 21.0503C25.6205 20.7537 25.7052 20.2876 25.9383 19.9804Z" fill="url(#paint6_radial_341_1472)"/>
<path d="M24.1475 22.7877C24.7514 22.1309 25.2811 21.3681 25.6943 20.51C26.7431 18.3065 28.3639 14.6303 27.0927 10.8059C26.0862 7.77601 24.6984 6.12334 22.9398 4.50246C20.0794 1.87514 19.2849 0.699205 19.2849 0C19.2849 0 15.9795 3.67612 17.4097 7.52175C18.8399 11.3674 21.7745 11.2191 23.7132 15.2236C26.0015 19.9379 21.8698 25.0866 18.4479 26.5274C18.6598 26.485 26.0439 24.8112 26.4358 20.5842C26.4146 20.6583 26.2451 21.8343 24.1475 22.7877Z" fill="url(#paint7_radial_341_1472)"/>
<path d="M14.572 9.08965C14.5826 8.8354 14.4555 8.67649 12.3897 8.4752C11.5421 8.40104 11.2137 7.61708 11.1184 7.27808C10.8217 8.06203 10.6946 8.88837 10.7582 9.8842C10.8006 10.541 11.2455 11.2402 11.4468 11.6428C11.4468 11.6428 11.4892 11.5792 11.5104 11.5581C11.9023 11.1449 13.555 10.5198 13.7139 10.4351C13.894 10.3292 14.5508 9.85242 14.572 9.08965Z" fill="url(#paint8_linear_341_1472)"/>
<path d="M5.49185 4.44954C5.46007 4.39657 5.44948 4.55548 5.42829 4.50251C5.25879 4.11053 5.15285 3.47489 5.18463 3.01935C5.18463 3.01935 4.83502 3.17826 4.54899 3.84568C4.49602 3.96222 4.46423 4.03637 4.42186 4.09994C4.40067 4.12113 4.45364 3.87746 4.45364 3.89865C4.40067 3.9834 4.27354 4.09994 4.22057 4.24825C4.1782 4.36479 4.12523 4.43895 4.09344 4.58726C4.08285 4.62964 4.10404 4.40716 4.09344 4.43895C3.41543 5.74201 3.2883 7.7125 3.36246 7.62775C4.80324 6.09161 6.44532 5.73142 6.44532 5.73142C6.24403 5.60429 5.86264 5.2229 5.49185 4.44954Z" fill="url(#paint9_linear_341_1472)"/>
<path d="M10.9364 20.4888C8.95534 19.6413 6.69881 18.4442 6.78357 15.7321C6.9001 12.1619 10.1207 12.8611 10.1207 12.8611C10.0041 12.8929 9.67573 13.126 9.5592 13.3696C9.44266 13.6769 9.22019 14.3761 9.88761 15.107C10.947 16.2512 7.71584 17.8191 12.695 20.7854C12.8222 20.849 11.5297 20.7431 10.9364 20.4888Z" fill="url(#paint10_linear_341_1472)"/>
<path d="M10.2351 18.709C11.6441 19.1964 13.2756 19.1116 14.2608 18.5713C14.9177 18.2005 15.7652 17.6178 16.2737 17.7662C15.8287 17.5861 15.4897 17.5013 15.0766 17.4907C15.0024 17.4907 14.9282 17.4907 14.8541 17.4801C14.7058 17.4801 14.5575 17.4907 14.4091 17.5013C14.1549 17.5225 13.8794 17.6814 13.6252 17.6602C13.6146 17.6602 13.8688 17.5543 13.8477 17.5543C13.7099 17.5861 13.5616 17.5861 13.4133 17.6072C13.318 17.6178 13.2332 17.6284 13.1273 17.639C10.1927 17.8827 7.72432 16.0499 7.72432 16.0499C7.51244 16.7491 8.66719 18.1581 10.2351 18.709Z" fill="url(#paint11_linear_341_1472)"/>
<path d="M24.1398 22.8089C27.1061 19.8956 28.5998 16.3678 27.9642 12.395C27.9642 12.395 28.2185 14.4291 27.2544 16.5055C27.7205 14.4715 27.7735 11.9501 26.5446 9.33336C24.9131 5.84793 22.2222 4.00457 21.1946 3.2418C19.6373 2.07646 18.9911 0.900523 18.9805 0.65686C18.5143 1.61032 17.1053 4.87328 18.8322 7.68069C20.4424 10.3186 22.985 11.092 24.7542 13.5074C28.0384 17.9675 24.1398 22.8089 24.1398 22.8089Z" fill="url(#paint12_linear_341_1472)"/>
<path d="M23.7161 15.2342C22.6778 13.0942 21.3854 12.1619 20.1671 11.1555C20.3048 11.3568 20.3472 11.4204 20.4213 11.5581C21.5019 12.7022 23.0804 15.4991 21.9363 19.0163C19.7645 25.6269 11.0986 22.5123 10.1875 21.6436C10.5583 25.468 16.9571 27.3008 21.1311 24.8218C23.4936 22.5547 25.4111 18.7408 23.7161 15.2342Z" fill="url(#paint13_linear_341_1472)"/>
</g>
<defs>
<radialGradient id="paint0_radial_341_1472" cx="0" cy="0" r="1" gradientUnits="userSpaceOnUse" gradientTransform="translate(27.6072 8.64825) rotate(2.2603) scale(9.75597 14.3797)">
<stop offset="0.1" stop-color="#FFEA00"/>
<stop offset="0.17" stop-color="#FFDE00"/>
<stop offset="0.28" stop-color="#FFBF00"/>
<stop offset="0.43" stop-color="#FF8E00"/>
<stop offset="0.77" stop-color="#FF272D"/>
<stop offset="0.87" stop-color="#E0255A"/>
<stop offset="0.95" stop-color="#CC2477"/>
<stop offset="1" stop-color="#C42482"/>
</radialGradient>
<radialGradient id="paint1_radial_341_1472" cx="0" cy="0" r="1" gradientUnits="userSpaceOnUse" gradientTransform="translate(18.7478 4.33039) scale(27.6862 27.6862)">
<stop stop-color="#00CCDA"/>
<stop offset="0.22" stop-color="#0083FF"/>
<stop offset="0.26" stop-color="#007AF9"/>
<stop offset="0.33" stop-color="#005FE7"/>
<stop offset="0.44" stop-color="#2639AD"/>
<stop offset="0.52" stop-color="#401E84"/>
<stop offset="0.57" stop-color="#4A1475"/>
</radialGradient>
<linearGradient id="paint2_linear_341_1472" x1="16.3742" y1="20.7416" x2="10.9282" y2="2.92699" gradientUnits="userSpaceOnUse">
<stop stop-color="#000F43" stop-opacity="0.4"/>
<stop offset="0.48" stop-color="#001962" stop-opacity="0.17"/>
<stop offset="1" stop-color="#002079" stop-opacity="0"/>
</linearGradient>
<radialGradient id="paint3_radial_341_1472" cx="0" cy="0" r="1" gradientUnits="userSpaceOnUse" gradientTransform="translate(28.4593 18.6261) rotate(5.61742) scale(9.30714 9.30714)">
<stop stop-color="#FFEA00"/>
<stop offset="0.5" stop-color="#FF272D"/>
<stop offset="1" stop-color="#C42482"/>
</radialGradient>
<radialGradient id="paint4_radial_341_1472" cx="0" cy="0" r="1" gradientUnits="userSpaceOnUse" gradientTransform="translate(28.4966 9.6623) rotate(5.61742) scale(15.542)">
<stop stop-color="#FFE900"/>
<stop offset="0.16" stop-color="#FFAF0E"/>
<stop offset="0.32" stop-color="#FF7A1B"/>
<stop offset="0.47" stop-color="#FF4E26"/>
<stop offset="0.62" stop-color="#FF2C2E"/>
<stop offset="0.76" stop-color="#FF1434"/>
<stop offset="0.89" stop-color="#FF0538"/>
<stop offset="1" stop-color="#FF0039"/>
</radialGradient>
<radialGradient id="paint5_radial_341_1472" cx="0" cy="0" r="1" gradientUnits="userSpaceOnUse" gradientTransform="translate(29.2757 24.2155) rotate(5.61742) scale(14.2614 14.2614)">
<stop stop-color="#FF272D"/>
<stop offset="0.5" stop-color="#C42482"/>
<stop offset="0.99" stop-color="#620700"/>
</radialGradient>
<radialGradient id="paint6_radial_341_1472" cx="0" cy="0" r="1" gradientUnits="userSpaceOnUse" gradientTransform="translate(21.335 11.2091) scale(22.2513)">
<stop offset="0.16" stop-color="#FFEA00"/>
<stop offset="0.23" stop-color="#FFDE00"/>
<stop offset="0.37" stop-color="#FFBF00"/>
<stop offset="0.54" stop-color="#FF8E00"/>
<stop offset="0.76" stop-color="#FF272D"/>
<stop offset="0.8" stop-color="#F92433"/>
<stop offset="0.84" stop-color="#E91C45"/>
<stop offset="0.89" stop-color="#CF0E62"/>
<stop offset="0.94" stop-color="#B5007F"/>
</radialGradient>
<radialGradient id="paint7_radial_341_1472" cx="0" cy="0" r="1" gradientUnits="userSpaceOnUse" gradientTransform="translate(20.0587 0.889674) scale(25.3598)">
<stop offset="0.28" stop-color="#FFEA00"/>
<stop offset="0.4" stop-color="#FFDD00"/>
<stop offset="0.63" stop-color="#FFBA00"/>
<stop offset="0.86" stop-color="#FF9100"/>
<stop offset="0.93" stop-color="#FF6711"/>
<stop offset="0.99" stop-color="#FF4A1D"/>
</radialGradient>
<linearGradient id="paint8_linear_341_1472" x1="5.21705" y1="10.3868" x2="16.14" y2="8.71875" gradientUnits="userSpaceOnUse">
<stop stop-color="#C42482" stop-opacity="0.5"/>
<stop offset="0.47" stop-color="#FF272D" stop-opacity="0.5"/>
<stop offset="0.49" stop-color="#FF2C2C" stop-opacity="0.51"/>
<stop offset="0.68" stop-color="#FF7A1A" stop-opacity="0.72"/>
<stop offset="0.83" stop-color="#FFB20D" stop-opacity="0.87"/>
<stop offset="0.94" stop-color="#FFD605" stop-opacity="0.96"/>
<stop offset="1" stop-color="#FFE302"/>
</linearGradient>
<linearGradient id="paint9_linear_341_1472" x1="5.13369" y1="7.52244" x2="3.99471" y2="3.42862" gradientUnits="userSpaceOnUse">
<stop stop-color="#891551" stop-opacity="0.6"/>
<stop offset="1" stop-color="#C42482" stop-opacity="0"/>
</linearGradient>
<linearGradient id="paint10_linear_341_1472" x1="7.21221" y1="13.2751" x2="9.5585" y2="16.5528" gradientUnits="userSpaceOnUse">
<stop offset="0.01" stop-color="#891551" stop-opacity="0.5"/>
<stop offset="0.48" stop-color="#FF272D" stop-opacity="0.5"/>
<stop offset="1" stop-color="#FF272D" stop-opacity="0"/>
</linearGradient>
<linearGradient id="paint11_linear_341_1472" x1="11.7824" y1="18.9815" x2="11.9971" y2="16.8756" gradientUnits="userSpaceOnUse">
<stop stop-color="#C42482"/>
<stop offset="0.08" stop-color="#C42482" stop-opacity="0.81"/>
<stop offset="0.21" stop-color="#C42482" stop-opacity="0.57"/>
<stop offset="0.33" stop-color="#C42482" stop-opacity="0.36"/>
<stop offset="0.45" stop-color="#C42482" stop-opacity="0.2"/>
<stop offset="0.56" stop-color="#C42482" stop-opacity="0.09"/>
<stop offset="0.67" stop-color="#C42482" stop-opacity="0.02"/>
<stop offset="0.77" stop-color="#C42482" stop-opacity="0"/>
</linearGradient>
<linearGradient id="paint12_linear_341_1472" x1="18.6405" y1="1.02913" x2="27.3357" y2="20.4725" gradientUnits="userSpaceOnUse">
<stop stop-color="#FFF14F"/>
<stop offset="0.27" stop-color="#FFEE4C"/>
<stop offset="0.45" stop-color="#FFE643"/>
<stop offset="0.61" stop-color="#FFD834"/>
<stop offset="0.76" stop-color="#FFC41E"/>
<stop offset="0.89" stop-color="#FFAB02"/>
<stop offset="0.9" stop-color="#FFA900"/>
<stop offset="0.95" stop-color="#FFA000"/>
<stop offset="1" stop-color="#FF9100"/>
</linearGradient>
<linearGradient id="paint13_linear_341_1472" x1="20.3671" y1="12.2122" x2="16.2484" y2="23.271" gradientUnits="userSpaceOnUse">
<stop stop-color="#FF8E00"/>
<stop offset="0.04" stop-color="#FF8E00" stop-opacity="0.86"/>
<stop offset="0.08" stop-color="#FF8E00" stop-opacity="0.73"/>
<stop offset="0.13" stop-color="#FF8E00" stop-opacity="0.63"/>
<stop offset="0.18" stop-color="#FF8E00" stop-opacity="0.56"/>
<stop offset="0.23" stop-color="#FF8E00" stop-opacity="0.51"/>
<stop offset="0.28" stop-color="#FF8E00" stop-opacity="0.5"/>
<stop offset="0.39" stop-color="#FF8E00" stop-opacity="0.48"/>
<stop offset="0.52" stop-color="#FF8E00" stop-opacity="0.42"/>
<stop offset="0.68" stop-color="#FF8E00" stop-opacity="0.31"/>
<stop offset="0.84" stop-color="#FF8E00" stop-opacity="0.17"/>
<stop offset="1" stop-color="#FF8E00" stop-opacity="0"/>
</linearGradient>
<clipPath id="clip0_341_1472">
<rect width="28.9811" height="30" fill="white"/>
</clipPath>
</defs>
</svg>
