<svg width="31" height="30" viewBox="0 0 31 30" fill="none" xmlns="http://www.w3.org/2000/svg">
<path d="M20.668 17.6C20.772 16.742 20.85 15.884 20.85 15C20.85 14.116 20.772 13.258 20.668 12.4H25.062C25.27 13.232 25.4 14.103 25.4 15C25.4 15.897 25.27 16.768 25.062 17.6M18.367 24.828C19.147 23.385 19.745 21.825 20.161 20.2H23.996C22.7365 22.3688 20.7383 24.0116 18.367 24.828ZM18.042 17.6H11.958C11.828 16.742 11.75 15.884 11.75 15C11.75 14.116 11.828 13.245 11.958 12.4H18.042C18.159 13.245 18.25 14.116 18.25 15C18.25 15.884 18.159 16.742 18.042 17.6ZM15 25.348C13.921 23.788 13.05 22.059 12.517 20.2H17.483C16.95 22.059 16.079 23.788 15 25.348ZM9.8 9.8H6.004C7.25051 7.62538 9.24723 5.97993 11.62 5.172C10.84 6.615 10.255 8.175 9.8 9.8ZM6.004 20.2H9.8C10.255 21.825 10.84 23.385 11.62 24.828C9.25221 24.0112 7.2583 22.368 6.004 20.2ZM4.938 17.6C4.73 16.768 4.6 15.897 4.6 15C4.6 14.103 4.73 13.232 4.938 12.4H9.332C9.228 13.258 9.15 14.116 9.15 15C9.15 15.884 9.228 16.742 9.332 17.6M15 4.639C16.079 6.199 16.95 7.941 17.483 9.8H12.517C13.05 7.941 13.921 6.199 15 4.639ZM23.996 9.8H20.161C19.7541 8.18989 19.1516 6.63566 18.367 5.172C20.759 5.991 22.748 7.642 23.996 9.8ZM15 2C7.811 2 2 7.85 2 15C2 18.4478 3.36964 21.7544 5.80761 24.1924C7.01477 25.3995 8.44788 26.3571 10.0251 27.0104C11.6023 27.6637 13.2928 28 15 28C18.4478 28 21.7544 26.6304 24.1924 24.1924C26.6304 21.7544 28 18.4478 28 15C28 13.2928 27.6637 11.6023 27.0104 10.0251C26.3571 8.44788 25.3995 7.01477 24.1924 5.80761C22.9852 4.60045 21.5521 3.64288 19.9749 2.98957C18.3977 2.33625 16.7072 2 15 2Z" fill="#00D254"/>
</svg>
