<svg width="30" height="30" viewBox="0 0 30 30" fill="none" xmlns="http://www.w3.org/2000/svg">
<path d="M10.7242 22.3227C9.28203 20.6266 8.35781 18.118 8.29687 15.3047V14.6953C8.35781 11.882 9.29219 9.37344 10.7242 7.67734C12.593 5.26016 15.3352 4.17344 18.4328 4.17344C20.3422 4.17344 22.1398 4.30547 23.6633 5.32109C21.3781 3.25938 18.3617 2.01016 15.0508 2H15C7.81953 2 2 7.81953 2 15C2 21.9672 7.48437 27.6648 14.3805 27.9898C14.5836 28 14.7969 28 15 28C18.3312 28 21.368 26.7508 23.6633 24.6891C22.1398 25.7047 20.4437 25.7453 18.5344 25.7453C15.4469 25.7555 12.5828 24.75 10.7242 22.3227Z" fill="url(#paint0_linear_341_1508)"/>
<path d="M10.7227 7.67737C11.9109 6.26565 13.4547 5.42268 15.1406 5.42268C18.9289 5.42268 21.9961 9.70862 21.9961 15.0102C21.9961 20.3117 18.9289 24.5977 15.1406 24.5977C13.4547 24.5977 11.9211 23.7446 10.7227 22.343C12.5914 24.7602 15.3641 26.3039 18.4516 26.3039C20.3508 26.3039 22.1383 25.725 23.6617 24.7094C26.3227 22.3125 27.9984 18.8492 27.9984 15C27.9984 11.1508 26.3227 7.68752 23.6617 5.31096C22.1383 4.29534 20.3609 3.71643 18.4516 3.71643C15.3539 3.71643 12.5812 5.25002 10.7227 7.67737Z" fill="url(#paint1_linear_341_1508)"/>
<defs>
<linearGradient id="paint0_linear_341_1508" x1="12.8323" y1="2.4238" x2="12.8323" y2="27.6217" gradientUnits="userSpaceOnUse">
<stop offset="0.3" stop-color="#FF1B2D"/>
<stop offset="0.4381" stop-color="#FA1A2C"/>
<stop offset="0.5939" stop-color="#ED1528"/>
<stop offset="0.7581" stop-color="#D60E21"/>
<stop offset="0.9272" stop-color="#B70519"/>
<stop offset="1" stop-color="#A70014"/>
</linearGradient>
<linearGradient id="paint1_linear_341_1508" x1="19.3588" y1="3.9091" x2="19.3588" y2="26.1953" gradientUnits="userSpaceOnUse">
<stop stop-color="#9C0000"/>
<stop offset="0.7" stop-color="#FF4B4B"/>
</linearGradient>
</defs>
</svg>
