<svg width="30" height="30" viewBox="0 0 30 30" fill="none" xmlns="http://www.w3.org/2000/svg">
<path d="M28 15C28 22.1813 22.1792 28 15 28C7.8208 28 2 22.1813 2 15C2 7.8229 7.8208 2 15 2C22.1792 2 28 7.8229 28 15ZM15.3489 6.29839C12.4922 6.29839 10.6702 7.50178 9.23943 9.64054C9.05407 9.91763 9.11608 10.2913 9.38175 10.4928L11.2006 11.8719C11.4735 12.0788 11.8622 12.0296 12.0742 11.7607C13.0106 10.573 13.6527 9.88424 15.078 9.88424C16.1489 9.88424 17.4735 10.5734 17.4735 11.6119C17.4735 12.3969 16.8254 12.8001 15.768 13.3929C14.5349 14.0841 12.9032 14.9445 12.9032 17.0968V17.3065C12.9032 17.6538 13.1849 17.9355 13.5323 17.9355H16.4677C16.8151 17.9355 17.0968 17.6538 17.0968 17.3065V17.2366C17.0968 15.7446 21.4573 15.6825 21.4573 11.6452C21.4573 8.60473 18.3035 6.29839 15.3489 6.29839ZM15 19.2984C13.6704 19.2984 12.5887 20.3801 12.5887 21.7097C12.5887 23.0392 13.6704 24.121 15 24.121C16.3296 24.121 17.4113 23.0392 17.4113 21.7097C17.4113 20.3801 16.3296 19.2984 15 19.2984Z" fill="#5B5C60"/>
</svg>
