<svg width="68" height="68" viewBox="0 0 68 68" fill="none" xmlns="http://www.w3.org/2000/svg">
<circle opacity="0.1" cx="34" cy="34" r="34" fill="#00D254"/>
<path d="M41.2654 37.3333C41.3987 36.2333 41.4987 35.1333 41.4987 34C41.4987 32.8667 41.3987 31.7667 41.2654 30.6667H46.8987C47.1654 31.7333 47.332 32.85 47.332 34C47.332 35.15 47.1654 36.2667 46.8987 37.3333M38.3154 46.6C39.3154 44.75 40.082 42.75 40.6154 40.6667H45.532C43.9173 43.4471 41.3556 45.5533 38.3154 46.6ZM37.8987 37.3333H30.0987C29.932 36.2333 29.832 35.1333 29.832 34C29.832 32.8667 29.932 31.75 30.0987 30.6667H37.8987C38.0487 31.75 38.1654 32.8667 38.1654 34C38.1654 35.1333 38.0487 36.2333 37.8987 37.3333ZM33.9987 47.2667C32.6154 45.2667 31.4987 43.05 30.8154 40.6667H37.182C36.4987 43.05 35.382 45.2667 33.9987 47.2667ZM27.332 27.3333H22.4654C24.0635 24.5454 26.6234 22.4358 29.6654 21.4C28.6654 23.25 27.9154 25.25 27.332 27.3333ZM22.4654 40.6667H27.332C27.9154 42.75 28.6654 44.75 29.6654 46.6C26.6297 45.5528 24.0734 43.4462 22.4654 40.6667ZM21.0987 37.3333C20.832 36.2667 20.6654 35.15 20.6654 34C20.6654 32.85 20.832 31.7333 21.0987 30.6667H26.732C26.5987 31.7667 26.4987 32.8667 26.4987 34C26.4987 35.1333 26.5987 36.2333 26.732 37.3333M33.9987 20.7167C35.382 22.7167 36.4987 24.95 37.182 27.3333H30.8154C31.4987 24.95 32.6154 22.7167 33.9987 20.7167ZM45.532 27.3333H40.6154C40.0937 25.2691 39.3213 23.2765 38.3154 21.4C41.382 22.45 43.932 24.5667 45.532 27.3333ZM33.9987 17.3333C24.782 17.3333 17.332 24.8333 17.332 34C17.332 38.4203 19.088 42.6595 22.2136 45.7851C23.7612 47.3328 25.5985 48.5604 27.6206 49.398C29.6427 50.2356 31.81 50.6667 33.9987 50.6667C38.419 50.6667 42.6582 48.9107 45.7838 45.7851C48.9094 42.6595 50.6654 38.4203 50.6654 34C50.6654 31.8113 50.2343 29.644 49.3967 27.6219C48.5591 25.5999 47.3315 23.7625 45.7838 22.2149C44.2362 20.6672 42.3988 19.4396 40.3768 18.602C38.3547 17.7644 36.1874 17.3333 33.9987 17.3333Z" fill="#00D254"/>
</svg>
