<svg width="30" height="30" viewBox="0 0 30 30" fill="none" xmlns="http://www.w3.org/2000/svg">
<path d="M15 29C22.732 29 29 22.732 29 15C29 7.26801 22.732 1 15 1C7.26801 1 1 7.26801 1 15C1 22.732 7.26801 29 15 29Z" fill="url(#paint0_linear_341_1651)"/>
<path d="M15.0008 27.9499C22.1529 27.9499 27.9508 22.152 27.9508 14.9999C27.9508 7.84784 22.1529 2.04993 15.0008 2.04993C7.84869 2.04993 2.05078 7.84784 2.05078 14.9999C2.05078 22.152 7.84869 27.9499 15.0008 27.9499Z" fill="url(#paint1_radial_341_1651)"/>
<path d="M15.0234 5.19969C14.9359 5.19969 14.8594 5.13409 14.8594 5.04659V2.76064C14.8594 2.67314 14.9359 2.60754 15.0234 2.60754C15.1109 2.60754 15.1875 2.67314 15.1875 2.76064V5.04659C15.1765 5.13409 15.1109 5.19969 15.0234 5.19969Z" fill="#F3F3F3"/>
<path d="M15.0227 5.21073C14.9242 5.21073 14.8477 5.13418 14.8477 5.04668V2.76073C14.8477 2.67323 14.9242 2.59668 15.0227 2.59668C15.1211 2.59668 15.1977 2.67323 15.1977 2.76073V5.04668C15.1977 5.13418 15.1102 5.21073 15.0227 5.21073ZM15.0227 2.61847C14.9461 2.61847 14.8696 2.68418 14.8696 2.76073V5.04668C14.8696 5.12323 14.9352 5.18894 15.0227 5.18894C15.0992 5.18894 15.1758 5.12323 15.1758 5.04668V2.76073C15.1649 2.68418 15.0992 2.61847 15.0227 2.61847Z" fill="white"/>
<path d="M16.114 3.97479C16.0265 3.96384 15.9609 3.89824 15.9609 3.81074L16.0375 2.79349C16.0483 2.7061 16.125 2.64039 16.2125 2.65134C16.3 2.66229 16.3656 2.728 16.3656 2.8155L16.289 3.83265C16.2781 3.92015 16.2015 3.98563 16.114 3.97479Z" fill="#F3F3F3"/>
<path d="M16.1133 3.98566C16.0148 3.97471 15.9492 3.89816 15.9492 3.81066L16.0258 2.79341C16.0367 2.70602 16.1133 2.62947 16.2117 2.64031C16.3101 2.65126 16.3758 2.72792 16.3758 2.81531L16.2992 3.83257C16.2883 3.93102 16.2117 3.99662 16.1133 3.98566ZM16.2117 2.66221C16.1352 2.66221 16.0585 2.71697 16.0585 2.79352L15.982 3.81078C15.982 3.88721 16.0367 3.95292 16.1242 3.96376C16.2008 3.96376 16.2773 3.90912 16.2773 3.83257L16.3539 2.81531C16.3539 2.73876 16.2884 2.67316 16.2117 2.66221Z" fill="white"/>
<path d="M16.9335 5.39679C16.8459 5.37488 16.7912 5.29834 16.8022 5.21084L17.2506 2.96858C17.2725 2.88119 17.3491 2.82643 17.4366 2.84834C17.5241 2.87024 17.5787 2.94679 17.5678 3.03429L17.1193 5.27655C17.1084 5.35298 17.0209 5.40774 16.9334 5.39679H16.9335Z" fill="#F3F3F3"/>
<path d="M16.9327 5.40773C16.8341 5.38583 16.7795 5.29833 16.7904 5.21083L17.2389 2.96857C17.2608 2.88118 17.3483 2.81547 17.4466 2.83738C17.5451 2.85928 17.5999 2.94678 17.5889 3.03428L17.1404 5.27654C17.1185 5.36392 17.031 5.41868 16.9327 5.40773ZM17.4466 2.85928C17.3701 2.84833 17.2935 2.89202 17.2716 2.96868L16.8233 5.21094C16.8123 5.28738 16.856 5.36392 16.9435 5.38594C17.0201 5.39678 17.0966 5.35297 17.1185 5.27642L17.567 3.03428C17.5779 2.94678 17.5233 2.88118 17.4466 2.85928Z" fill="white"/>
<path d="M18.2498 4.41227C18.229 4.40725 18.2094 4.39817 18.192 4.38555C18.1747 4.37294 18.1601 4.35703 18.1489 4.33874C18.1377 4.32045 18.1303 4.30015 18.127 4.27898C18.1236 4.2578 18.1245 4.23619 18.1296 4.21536L18.403 3.23107C18.4248 3.14357 18.5123 3.09977 18.5998 3.12167C18.6873 3.14357 18.7421 3.23107 18.7202 3.31857L18.4467 4.30298C18.4248 4.39036 18.3373 4.43417 18.2498 4.41227Z" fill="#F3F3F3"/>
<path d="M18.246 4.42329C18.1585 4.40138 18.093 4.30293 18.1258 4.21555L18.3993 3.23103C18.421 3.14364 18.5195 3.08888 18.607 3.11079C18.6945 3.13269 18.7601 3.23114 18.7274 3.31853L18.4539 4.30305C18.432 4.39043 18.3445 4.44519 18.2462 4.42329H18.246ZM18.607 3.14364C18.5305 3.12174 18.443 3.16555 18.421 3.24209L18.1477 4.22638C18.1258 4.30293 18.1695 4.37959 18.257 4.40138C18.3335 4.42329 18.421 4.37959 18.443 4.30305L18.7164 3.31853C18.7274 3.24209 18.6837 3.16555 18.607 3.14353V3.14364Z" fill="white"/>
<path d="M18.7835 5.95451C18.696 5.92165 18.6633 5.8232 18.696 5.74665L19.571 3.6357C19.6038 3.55915 19.7024 3.51535 19.7788 3.55915C19.8664 3.59189 19.8993 3.69046 19.8664 3.76689L18.9914 5.87785C18.9587 5.95451 18.8601 5.9982 18.7837 5.95451H18.7835Z" fill="#F3F3F3"/>
<path d="M18.7852 5.96552C18.7432 5.94951 18.7092 5.91748 18.6907 5.87647C18.6723 5.83545 18.6708 5.78879 18.6867 5.74672L19.5617 3.63577C19.5946 3.54827 19.693 3.51541 19.7915 3.54827C19.8335 3.56428 19.8675 3.59631 19.8859 3.63732C19.9044 3.67834 19.9058 3.725 19.8899 3.76707L19.0149 5.87802C18.9711 5.96552 18.8727 6.00922 18.7852 5.96552ZM19.7805 3.57017C19.704 3.53743 19.6165 3.57017 19.5836 3.64672L18.7086 5.75767C18.6759 5.83422 18.7196 5.91077 18.7961 5.94362C18.8727 5.97636 18.9602 5.94362 18.993 5.86707L19.868 3.75612C19.8899 3.69041 19.8571 3.60291 19.7805 3.57017Z" fill="white"/>
<path d="M20.2612 5.25464C20.1846 5.21083 20.1517 5.12333 20.1846 5.04678L20.644 4.13904C20.6877 4.06238 20.7752 4.02953 20.8628 4.07333C20.9393 4.11714 20.9721 4.20464 20.9393 4.28107L20.4798 5.18893C20.4361 5.26548 20.3486 5.29844 20.2611 5.25464H20.2612Z" fill="#F3F3F3"/>
<path d="M20.26 5.26541C20.1724 5.22161 20.1396 5.12315 20.1833 5.03566L20.6427 4.12791C20.6864 4.0403 20.785 4.00756 20.8724 4.05125C20.9599 4.09506 20.9927 4.19351 20.9489 4.28101L20.4896 5.18875C20.4458 5.27625 20.3474 5.30911 20.2599 5.2653L20.26 5.26541ZM20.8615 4.07316C20.7849 4.04041 20.6974 4.0622 20.6646 4.13875L20.2052 5.04661C20.1725 5.1122 20.2052 5.1997 20.2708 5.24351C20.3474 5.27625 20.4349 5.25446 20.4677 5.17791L20.9271 4.27006C20.9599 4.20446 20.9271 4.11696 20.8615 4.07316Z" fill="white"/>
<path d="M20.4765 6.87327C20.3999 6.81862 20.378 6.72017 20.4327 6.65457L21.7015 4.76232C21.7452 4.68577 21.8437 4.67482 21.9202 4.71862C21.9968 4.77327 22.0186 4.87172 21.964 4.93732L20.6952 6.82957C20.6515 6.90612 20.553 6.92802 20.4765 6.87327Z" fill="#F3F3F3"/>
<path d="M20.4754 6.88422C20.3989 6.82957 20.377 6.72017 20.4208 6.64362L21.6895 4.75136C21.7441 4.67482 21.8426 4.65291 21.9301 4.70767C22.0066 4.76231 22.0285 4.87172 21.9848 4.94827L20.716 6.84052C20.6614 6.91707 20.552 6.93886 20.4754 6.88422ZM21.9191 4.72957C21.8536 4.68577 21.7551 4.69672 21.7114 4.76232L20.4426 6.65457C20.3989 6.72006 20.4207 6.80767 20.4864 6.85136C20.552 6.89517 20.6504 6.88422 20.6941 6.81862L21.9629 4.93732C22.0066 4.87172 21.9848 4.77327 21.9191 4.72957Z" fill="white"/>
<path d="M22.0754 6.46837C22.0099 6.41361 21.988 6.31516 22.0427 6.24956L22.6771 5.45111C22.7317 5.38563 22.8302 5.37456 22.8958 5.42932C22.9615 5.48397 22.9833 5.58242 22.9285 5.64801L22.2942 6.44647C22.2396 6.51206 22.141 6.52301 22.0754 6.46837Z" fill="#F3F3F3"/>
<path d="M22.0631 6.47934C21.9865 6.42458 21.9756 6.31518 22.0303 6.23863L22.6646 5.44029C22.7193 5.36363 22.8287 5.35268 22.9052 5.41839C22.9818 5.47304 22.9927 5.58244 22.938 5.65899L22.3037 6.45744C22.249 6.53399 22.1396 6.54494 22.0631 6.47934ZM22.8833 5.44018C22.8178 5.38554 22.7302 5.39649 22.6756 5.46208L22.0412 6.26054C21.9975 6.32613 22.0084 6.41363 22.0739 6.46828C22.1396 6.52304 22.2271 6.51208 22.2818 6.44649L22.9162 5.64804C22.96 5.58244 22.9489 5.48399 22.8834 5.44029L22.8833 5.44018Z" fill="white"/>
<path d="M21.9672 8.1092C21.9016 8.0436 21.9016 7.94515 21.9672 7.89039L23.5859 6.28265C23.6516 6.21705 23.7499 6.22789 23.8047 6.28265C23.8593 6.3373 23.8703 6.4467 23.8047 6.50134L22.1969 8.1092C22.1312 8.1748 22.0328 8.1748 21.9672 8.1092Z" fill="#F3F3F3"/>
<path d="M21.9555 8.12014C21.9239 8.08805 21.9062 8.04485 21.9062 7.99984C21.9062 7.95484 21.9239 7.91164 21.9555 7.87955L23.5742 6.27169C23.6063 6.24011 23.6495 6.22241 23.6945 6.22241C23.7396 6.22241 23.7828 6.24011 23.8149 6.27169C23.8464 6.30379 23.8641 6.34699 23.8641 6.39199C23.8641 6.43699 23.8464 6.48019 23.8149 6.51229L22.1961 8.12003C22.164 8.15158 22.1208 8.16925 22.0758 8.16925C22.0308 8.16925 21.9876 8.15169 21.9555 8.12014ZM23.8039 6.28264C23.7493 6.22788 23.6508 6.22788 23.5962 6.28264L21.9774 7.89038C21.9226 7.94514 21.9226 8.04359 21.9774 8.09824C22.032 8.153 22.1305 8.153 22.1851 8.09824L23.8039 6.4905C23.8586 6.43574 23.8586 6.34824 23.8039 6.28264Z" fill="white"/>
<path d="M23.6061 8.02171C23.5515 7.95611 23.5515 7.85766 23.6171 7.8029L24.3936 7.14671C24.4592 7.09206 24.5577 7.1029 24.6124 7.16861C24.6671 7.23421 24.6671 7.33266 24.6015 7.3873L23.8249 8.04361C23.7592 8.09826 23.6608 8.0873 23.6061 8.02171Z" fill="#F3F3F3"/>
<path d="M23.5948 8.03262C23.5292 7.95607 23.5402 7.84667 23.6058 7.79202L24.3823 7.13571C24.4479 7.07012 24.5573 7.08107 24.6229 7.15762C24.6887 7.23417 24.6777 7.34357 24.6121 7.39821L23.8354 8.05452C23.77 8.12 23.6604 8.10917 23.595 8.03262H23.5948ZM24.6012 7.16857C24.5464 7.10297 24.4589 7.10297 24.3934 7.14667L23.6167 7.80297C23.5621 7.85762 23.5512 7.94512 23.6058 8.01071C23.6604 8.07631 23.7481 8.07631 23.8135 8.03262L24.5902 7.37631C24.6558 7.32167 24.6558 7.23417 24.6012 7.16857Z" fill="white"/>
<path d="M23.171 9.59672C23.1163 9.52017 23.1382 9.42172 23.2148 9.37791L25.1179 8.10922C25.1944 8.06541 25.2929 8.08731 25.3366 8.15302C25.3913 8.22957 25.3694 8.32802 25.2929 8.37172L23.3898 9.64041C23.3241 9.68422 23.2256 9.66231 23.171 9.59672Z" fill="#F3F3F3"/>
<path d="M23.1592 9.59667C23.1046 9.52013 23.1265 9.41072 23.2031 9.35608L25.1061 8.08727C25.1827 8.03262 25.2921 8.05453 25.3467 8.14203C25.4015 8.21858 25.3795 8.32798 25.3031 8.38251L23.4 9.65143C23.3233 9.70619 23.214 9.68417 23.1592 9.59667ZM25.3248 8.16393C25.2811 8.09822 25.1936 8.07632 25.1281 8.12013L23.2248 9.38882C23.1594 9.43263 23.1373 9.52013 23.1921 9.59667C23.2358 9.66227 23.3233 9.68417 23.389 9.64048L25.2921 8.37167C25.3577 8.31703 25.3686 8.22942 25.3248 8.16393Z" fill="white"/>
<path d="M24.7997 9.82649C24.7559 9.74983 24.7778 9.65149 24.8543 9.60769L25.7403 9.10459C25.8168 9.06078 25.9153 9.09364 25.959 9.17007C26.0028 9.24673 25.9809 9.34507 25.9043 9.38888L25.0184 9.89209C24.9418 9.93578 24.8434 9.90304 24.7996 9.82638L24.7997 9.82649Z" fill="#F3F3F3"/>
<path d="M24.788 9.83733C24.7442 9.74983 24.7661 9.65138 24.8426 9.60769L25.7286 9.10459C25.8051 9.06078 25.9145 9.09364 25.9582 9.17007C26.002 9.25768 25.9801 9.35614 25.9036 9.39983L25.0176 9.90304C24.9411 9.94673 24.8317 9.91388 24.788 9.83733ZM25.9472 9.18114C25.9036 9.10459 25.8161 9.08268 25.7505 9.12638L24.8645 9.62959C24.7989 9.67328 24.777 9.76078 24.8097 9.82638C24.8536 9.90293 24.9411 9.92483 25.0066 9.88114L25.8926 9.37793C25.9582 9.34518 25.9801 9.25768 25.9472 9.18114Z" fill="white"/>
<path d="M24.0671 11.2812C24.0344 11.1937 24.0671 11.1062 24.1546 11.0734L26.2656 10.1984C26.3421 10.1656 26.4406 10.2093 26.4733 10.2858C26.5062 10.3733 26.4733 10.4608 26.3858 10.4936L24.275 11.3686C24.1983 11.4014 24.1 11.3686 24.0671 11.2812Z" fill="#F3F3F3"/>
<path d="M24.0554 11.292C24.0227 11.2046 24.0554 11.1061 24.1429 11.0623L26.2539 10.1873C26.2959 10.1715 26.3426 10.1729 26.3836 10.1914C26.4245 10.2098 26.4565 10.2438 26.4726 10.2858C26.5054 10.3733 26.4726 10.4717 26.3851 10.5154L24.2742 11.3904C24.2322 11.4063 24.1855 11.4049 24.1445 11.3864C24.1035 11.368 24.0715 11.334 24.0554 11.292ZM26.4508 10.2967C26.4179 10.2202 26.3304 10.1873 26.2648 10.2092L24.1539 11.0842C24.0773 11.117 24.0445 11.2046 24.0773 11.2811C24.1101 11.3577 24.1976 11.3905 24.2633 11.3686L26.3741 10.4936C26.4508 10.4609 26.4836 10.3733 26.4508 10.2967Z" fill="white"/>
<path d="M25.6085 11.8279C25.5758 11.7403 25.6195 11.6529 25.707 11.62L26.6695 11.3028C26.746 11.27 26.8445 11.3247 26.8664 11.4012C26.8991 11.4887 26.8554 11.5762 26.7679 11.6091L25.8054 11.9263C25.7289 11.9591 25.6414 11.9154 25.6085 11.8278V11.8279Z" fill="#F3F3F3"/>
<path d="M25.5967 11.8389C25.5639 11.7514 25.6076 11.6529 25.7062 11.6202L26.6686 11.3029C26.7561 11.2702 26.8545 11.3248 26.8874 11.4124C26.9201 11.4998 26.8764 11.5983 26.7779 11.6311L25.8155 11.9484C25.728 11.9702 25.6295 11.9264 25.5967 11.8389ZM26.8655 11.4234C26.8436 11.3467 26.7561 11.3029 26.6795 11.3248L25.717 11.6421C25.6405 11.6639 25.6076 11.7514 25.6295 11.828C25.6514 11.9046 25.7389 11.9483 25.8155 11.9264L26.778 11.6092C26.8545 11.5765 26.8874 11.4999 26.8655 11.4234Z" fill="white"/>
<path d="M24.622 13.1295C24.6001 13.042 24.6548 12.9545 24.7423 12.9436L26.9845 12.5061C27.0719 12.4842 27.1486 12.5498 27.1704 12.6373C27.1923 12.7248 27.1376 12.8123 27.0501 12.8232L24.8079 13.2607C24.7204 13.2717 24.6329 13.217 24.6219 13.1295H24.622Z" fill="#F3F3F3"/>
<path d="M24.6019 13.1297C24.58 13.0312 24.6456 12.9437 24.7331 12.9218L26.9754 12.4843C27.0629 12.4624 27.1504 12.5281 27.1721 12.6266C27.1941 12.7249 27.1285 12.8124 27.041 12.8343L24.7987 13.2718C24.7113 13.2937 24.6237 13.2281 24.6019 13.1296V13.1297ZM27.1504 12.6374C27.1394 12.5609 27.0629 12.5062 26.9863 12.5172L24.7441 12.9547C24.6675 12.9656 24.6129 13.053 24.6346 13.1297C24.6456 13.2062 24.7221 13.2609 24.7988 13.2499L27.041 12.8124C27.1175 12.7905 27.1721 12.714 27.1504 12.6374Z" fill="white"/>
<path d="M26.0248 13.9717C26.0139 13.8842 26.0685 13.8077 26.156 13.7967L27.1622 13.6763C27.2497 13.6655 27.3264 13.7311 27.3372 13.8186C27.3482 13.9061 27.2935 13.9827 27.206 13.9936L26.1997 14.1138C26.1232 14.1248 26.0358 14.0592 26.0248 13.9717Z" fill="#F3F3F3"/>
<path d="M26.0129 13.9715C26.002 13.8731 26.0676 13.7856 26.1551 13.7746L27.1613 13.6544C27.2488 13.6434 27.3363 13.709 27.3472 13.8075C27.3582 13.9059 27.2926 13.9934 27.2051 14.0044L26.1988 14.1246C26.1114 14.1356 26.0238 14.07 26.0129 13.9715ZM27.3363 13.8184C27.3254 13.7419 27.2489 13.6762 27.1722 13.6871L26.166 13.8075C26.0895 13.8184 26.0347 13.895 26.0457 13.9715C26.0566 14.0481 26.1332 14.1138 26.2097 14.1028L27.216 13.9825C27.2926 13.9715 27.3471 13.895 27.3363 13.8184Z" fill="white"/>
<path d="M24.8008 15.0326C24.8008 14.9451 24.8663 14.8685 24.9539 14.8685H27.2398C27.3273 14.8685 27.3929 14.9451 27.3929 15.0326C27.3929 15.1201 27.3273 15.1966 27.2398 15.1966H24.9539C24.8664 15.1966 24.8008 15.1201 24.8008 15.0326Z" fill="#F3F3F3"/>
<path d="M24.7852 15.0325C24.7852 14.9341 24.8617 14.8575 24.9492 14.8575H27.2352C27.3227 14.8575 27.3992 14.9341 27.3992 15.0325C27.3992 15.131 27.3227 15.2075 27.2352 15.2075H24.9492C24.8617 15.2075 24.7852 15.131 24.7852 15.0325ZM27.3773 15.0435C27.3773 14.9669 27.3117 14.8904 27.235 14.8904H24.9493C24.8728 14.8904 24.8071 14.9559 24.8071 15.0435C24.8071 15.12 24.8728 15.1966 24.9493 15.1966H27.2353C27.3118 15.1856 27.3773 15.12 27.3773 15.0435Z" fill="white"/>
<path d="M26.0118 16.1374C26.0227 16.0499 26.0884 15.9843 26.1759 15.9843L27.1931 16.0608C27.2805 16.0718 27.3461 16.1483 27.3352 16.2358C27.3243 16.3233 27.2586 16.3889 27.1711 16.3889L26.154 16.3123C26.0774 16.3014 26.0118 16.2249 26.0118 16.1374Z" fill="#F3F3F3"/>
<path d="M26 16.1373C26.011 16.0389 26.0875 15.9733 26.175 15.9733L27.1923 16.0498C27.2796 16.0608 27.3562 16.1373 27.3452 16.2358C27.3344 16.3342 27.2577 16.3998 27.1702 16.3998L26.1531 16.3233C26.0656 16.3123 26 16.2248 26 16.1373ZM27.3344 16.2358C27.3452 16.1592 27.2796 16.0827 27.2031 16.0827L26.1858 16.0061C26.1094 16.0061 26.0437 16.0608 26.0327 16.1484C26.0219 16.2248 26.0875 16.3014 26.164 16.3014L27.1813 16.3779C27.2577 16.3779 27.3235 16.3124 27.3344 16.2358Z" fill="white"/>
<path d="M24.603 16.9356C24.6249 16.8481 24.7014 16.7933 24.7889 16.8044L27.0311 17.2528C27.1186 17.2746 27.1733 17.3512 27.1514 17.4387C27.1295 17.5262 27.053 17.5809 26.9655 17.57L24.7232 17.1215C24.6467 17.1106 24.592 17.0231 24.603 16.9356Z" fill="#F3F3F3"/>
<path d="M24.5912 16.9359C24.6131 16.8374 24.7006 16.7828 24.7881 16.7936L27.0303 17.2422C27.1178 17.264 27.1834 17.3514 27.1615 17.4499C27.1397 17.5484 27.0522 17.6031 26.9647 17.5922L24.7224 17.1437C24.6349 17.1218 24.5803 17.0343 24.5912 16.936V16.9359ZM27.1397 17.4499C27.1506 17.3734 27.1069 17.2968 27.0303 17.2749L24.788 16.8264C24.7116 16.8156 24.6349 16.8593 24.613 16.9468C24.6022 17.0234 24.6459 17.0999 24.7225 17.1218L26.9647 17.5703C27.0522 17.5812 27.1178 17.5264 27.1397 17.4499Z" fill="white"/>
<path d="M25.5838 18.2483C25.5888 18.2275 25.5979 18.2079 25.6105 18.1906C25.6231 18.1733 25.639 18.1586 25.6573 18.1474C25.6755 18.1363 25.6958 18.1288 25.717 18.1255C25.7381 18.1222 25.7598 18.1231 25.7806 18.1281L26.765 18.4014C26.8525 18.4233 26.8962 18.511 26.8744 18.5983C26.8694 18.6192 26.8603 18.6388 26.8477 18.6562C26.8351 18.6735 26.8192 18.6882 26.8009 18.6994C26.7826 18.7105 26.7623 18.718 26.7411 18.7213C26.7199 18.7246 26.6983 18.7237 26.6775 18.7187L25.6931 18.4452C25.6056 18.4233 25.562 18.3358 25.5838 18.2483Z" fill="#F3F3F3"/>
<path d="M25.579 18.2481C25.6009 18.1606 25.6993 18.095 25.7868 18.1279L26.7712 18.4012C26.8587 18.4231 26.9135 18.5216 26.8916 18.6091C26.8697 18.6966 26.7712 18.7622 26.6837 18.7294L25.6993 18.456C25.6118 18.4341 25.5571 18.3466 25.5791 18.2482L25.579 18.2481ZM26.8587 18.6091C26.8806 18.5325 26.8368 18.445 26.7603 18.4231L25.7759 18.1497C25.6993 18.1278 25.6228 18.1716 25.6009 18.2591C25.5791 18.3356 25.6228 18.4231 25.6993 18.445L26.6837 18.7185C26.7603 18.7294 26.8368 18.6857 26.8587 18.6091Z" fill="white"/>
<path d="M24.0477 18.7733C24.0804 18.6858 24.179 18.653 24.2554 18.6858L26.3665 19.5608C26.443 19.5936 26.4867 19.6921 26.454 19.7686C26.4211 19.8562 26.3227 19.8889 26.2461 19.8562L24.1352 18.9812C24.0477 18.9485 24.0148 18.8498 24.0477 18.7733Z" fill="#F3F3F3"/>
<path d="M24.032 18.7622C24.048 18.7202 24.08 18.6862 24.121 18.6678C24.1621 18.6493 24.2087 18.6479 24.2508 18.6638L26.3617 19.5388C26.4492 19.5716 26.482 19.6701 26.4492 19.7685C26.4332 19.8106 26.4012 19.8445 26.3602 19.863C26.3192 19.8814 26.2725 19.8829 26.2304 19.867L24.1195 18.992C24.032 18.9482 23.9992 18.8497 24.032 18.7622ZM26.4273 19.7576C26.4601 19.681 26.4273 19.5935 26.3508 19.5607L24.2398 18.6857C24.1633 18.6529 24.0867 18.6966 24.0539 18.7732C24.0211 18.8497 24.0539 18.9372 24.1304 18.9701L26.2414 19.8451C26.3179 19.867 26.4054 19.8341 26.4273 19.7576Z" fill="white"/>
<path d="M24.754 20.2498C24.7978 20.1732 24.8852 20.1404 24.9617 20.1732L25.8696 20.6326C25.9461 20.6654 25.979 20.7638 25.9353 20.8513C25.8915 20.9279 25.804 20.9608 25.7274 20.9279L24.8197 20.4686C24.743 20.4248 24.7102 20.3263 24.754 20.2498Z" fill="#F3F3F3"/>
<path d="M24.7419 20.239C24.7857 20.1515 24.8842 20.1188 24.9717 20.1625L25.8794 20.6219C25.9669 20.6657 25.9998 20.7641 25.956 20.8515C25.9123 20.939 25.8137 20.9719 25.7263 20.9281L24.8186 20.4688C24.731 20.436 24.6982 20.3265 24.7419 20.239ZM25.9232 20.8406C25.956 20.764 25.9341 20.6765 25.8575 20.6438L24.9498 20.1844C24.8841 20.1516 24.7967 20.1844 24.7529 20.25C24.7201 20.3265 24.7419 20.414 24.8185 20.4469L25.7262 20.9063C25.8029 20.939 25.8904 20.9172 25.9232 20.8406Z" fill="white"/>
<path d="M23.1475 20.4576C23.2023 20.381 23.2898 20.3591 23.3663 20.4138L25.2694 21.6826C25.346 21.7263 25.3569 21.8248 25.3132 21.9013C25.2585 21.9779 25.171 21.9997 25.0944 21.9451L23.1913 20.6763C23.1148 20.6216 23.0929 20.5232 23.1475 20.4576Z" fill="#F3F3F3"/>
<path d="M23.1389 20.4466C23.1936 20.3701 23.303 20.3482 23.3796 20.392L25.2827 21.6607C25.3592 21.7153 25.3811 21.8138 25.3264 21.9013C25.2717 21.9779 25.1623 21.9997 25.0859 21.956L23.1827 20.6872C23.0952 20.6326 23.0842 20.5232 23.1389 20.4466ZM25.2936 21.8903C25.3373 21.8248 25.3264 21.7263 25.2609 21.6826L23.3577 20.4137C23.2921 20.3701 23.2046 20.392 23.1608 20.4576C23.1171 20.5232 23.128 20.6216 23.1935 20.6653L25.0967 21.9341C25.1623 21.9779 25.2498 21.956 25.2936 21.8904V21.8903Z" fill="white"/>
<path d="M23.5507 22.0434C23.6053 21.9777 23.7038 21.9559 23.7694 22.0107L24.5678 22.634C24.6334 22.6887 24.6444 22.7871 24.5897 22.8528C24.5351 22.9183 24.4366 22.9403 24.3709 22.8856L23.5724 22.2621C23.507 22.2075 23.4959 22.109 23.5507 22.0434Z" fill="#F3F3F3"/>
<path d="M23.5381 22.0327C23.5927 21.9561 23.7021 21.9452 23.7787 21.9999L24.5771 22.6233C24.6537 22.6779 24.6646 22.7873 24.6099 22.8639C24.5552 22.9405 24.4458 22.9514 24.3694 22.8967L23.5708 22.2733C23.4943 22.2186 23.4834 22.1092 23.5381 22.0327ZM24.5881 22.853C24.6427 22.7873 24.6318 22.6998 24.5662 22.6452L23.7677 22.0217C23.7021 21.978 23.6146 21.989 23.56 22.0545C23.5052 22.1202 23.5162 22.2077 23.5818 22.2623L24.3802 22.8858C24.4458 22.9296 24.5333 22.9185 24.588 22.853H24.5881Z" fill="white"/>
<path d="M21.9199 21.9343C21.9856 21.8687 22.0841 21.8687 22.1387 21.9343L23.7574 23.5421C23.8231 23.6078 23.8121 23.7062 23.7574 23.7609C23.6919 23.8265 23.5933 23.8265 23.5387 23.7609L21.9199 22.1531C21.8652 22.0984 21.8652 21.989 21.9199 21.9343Z" fill="#F3F3F3"/>
<path d="M21.9207 21.9233C21.9528 21.8917 21.996 21.874 22.041 21.874C22.0861 21.874 22.1293 21.8917 22.1614 21.9233L23.7801 23.531C23.8117 23.5631 23.8294 23.6064 23.8294 23.6514C23.8294 23.6964 23.8117 23.7397 23.7801 23.7718C23.748 23.8033 23.7048 23.821 23.6598 23.821C23.6148 23.821 23.5716 23.8033 23.5395 23.7718L21.9207 22.164C21.8441 22.0983 21.8441 21.989 21.9207 21.9233ZM23.7582 23.7499C23.8129 23.6952 23.8129 23.5968 23.7582 23.5421L22.1395 21.9343C22.0849 21.8796 21.9864 21.8796 21.9318 21.9343C21.877 21.9889 21.877 22.0873 21.9318 22.142L23.5505 23.7499C23.6051 23.8156 23.6927 23.8156 23.7582 23.7499Z" fill="white"/>
<path d="M22.0217 23.5638C22.0874 23.5091 22.1858 23.5091 22.2405 23.5747L22.9078 24.3403C22.9623 24.406 22.9515 24.5045 22.8858 24.5591C22.8203 24.6138 22.7217 24.6138 22.6671 24.5482L21.9998 23.7826C21.9452 23.7279 21.9561 23.6295 22.0217 23.5638Z" fill="#F3F3F3"/>
<path d="M22.0059 23.5638C22.0825 23.4983 22.1809 23.5091 22.2464 23.5747L22.9137 24.3403C22.9793 24.406 22.9683 24.5153 22.8918 24.5811C22.8152 24.6466 22.7168 24.6357 22.6512 24.5701L21.9839 23.8045C21.9293 23.728 21.9293 23.6186 22.0058 23.5638H22.0059ZM22.8809 24.5591C22.9464 24.5045 22.9464 24.4169 22.9027 24.3514L22.2355 23.5857C22.1808 23.5311 22.0933 23.5201 22.0277 23.5747C21.9621 23.6295 21.9621 23.717 22.0058 23.7825L22.6731 24.5482C22.7277 24.6138 22.8153 24.6138 22.8808 24.5591H22.8809Z" fill="white"/>
<path d="M20.4455 23.1481C20.5221 23.0935 20.6205 23.1154 20.6643 23.1919L21.9329 25.0841C21.9767 25.1606 21.9548 25.2591 21.8892 25.3029C21.8127 25.3575 21.7142 25.3356 21.6704 25.2591L20.4017 23.3668C20.3579 23.2904 20.3798 23.1918 20.4454 23.1481H20.4455Z" fill="#F3F3F3"/>
<path d="M20.4438 23.1374C20.5203 23.0827 20.6298 23.1047 20.6844 23.1812L21.9532 25.0735C22.0078 25.1499 21.9859 25.2593 21.8986 25.3139C21.8219 25.3687 21.7126 25.3468 21.6578 25.2702L20.3892 23.378C20.3345 23.2906 20.3564 23.192 20.4438 23.1374ZM21.8876 25.2922C21.9532 25.2483 21.9751 25.1608 21.9313 25.0952L20.6626 23.203C20.6188 23.1375 20.5313 23.1264 20.4549 23.1702C20.3892 23.2139 20.3673 23.3014 20.4111 23.3672L21.6798 25.2593C21.7236 25.3139 21.822 25.3358 21.8875 25.292L21.8876 25.2922Z" fill="white"/>
<path d="M20.2171 24.7669C20.2937 24.7232 20.3921 24.7451 20.4358 24.8216L20.939 25.7076C20.9827 25.7841 20.9498 25.8826 20.8733 25.9263C20.7968 25.9701 20.6983 25.9482 20.6546 25.8716L20.1515 24.9857C20.1187 24.9091 20.1406 24.8107 20.217 24.767L20.2171 24.7669Z" fill="#F3F3F3"/>
<path d="M20.2164 24.7561C20.3039 24.7123 20.4024 24.7342 20.4461 24.8107L20.9492 25.6967C20.993 25.7732 20.9711 25.8826 20.8837 25.9263C20.7961 25.9701 20.6976 25.9482 20.6539 25.8717L20.1508 24.9857C20.107 24.9092 20.1289 24.8107 20.2163 24.7561H20.2164ZM20.8726 25.9155C20.9383 25.8717 20.9711 25.7842 20.9274 25.7186L20.4243 24.8326C20.3805 24.767 20.293 24.7451 20.2274 24.7779C20.1617 24.8217 20.1289 24.9092 20.1726 24.9748L20.6758 25.8607C20.7086 25.9263 20.807 25.9593 20.8726 25.9155Z" fill="white"/>
<path d="M18.7586 24.0454C18.8461 24.0126 18.9336 24.0454 18.9665 24.1219L19.8524 26.2329C19.8851 26.3094 19.8415 26.4079 19.7649 26.4406C19.6884 26.4735 19.5899 26.4406 19.5572 26.364L18.6712 24.2532C18.6384 24.1765 18.682 24.0782 18.7586 24.0454Z" fill="#F3F3F3"/>
<path d="M18.7577 24.0342C18.8452 24.0014 18.9436 24.0342 18.9874 24.1217L19.8734 26.2326C19.8892 26.2747 19.8878 26.3213 19.8693 26.3623C19.8509 26.4033 19.8169 26.4353 19.7749 26.4513C19.6874 26.4842 19.589 26.4513 19.5453 26.3638L18.6593 24.253C18.6265 24.1763 18.6703 24.078 18.7577 24.0342ZM19.753 26.4295C19.8296 26.3967 19.8624 26.3092 19.8296 26.2436L18.9436 24.1326C18.9109 24.0561 18.8234 24.0232 18.7468 24.0561C18.6703 24.0888 18.6373 24.1763 18.6703 24.242L19.5561 26.353C19.5999 26.4295 19.6765 26.4623 19.753 26.4295Z" fill="white"/>
<path d="M18.2225 25.5981C18.3101 25.5654 18.3975 25.6091 18.4303 25.6966L18.7476 26.6591C18.7803 26.7356 18.7257 26.8341 18.6491 26.856C18.5616 26.8887 18.4741 26.845 18.4414 26.7575L18.1241 25.795C18.0914 25.7185 18.1351 25.631 18.2226 25.5981H18.2225Z" fill="#F3F3F3"/>
<path d="M18.2165 25.5872C18.2586 25.5714 18.3052 25.5728 18.3462 25.5913C18.3872 25.6097 18.4192 25.6437 18.4352 25.6857L18.7525 26.6482C18.7852 26.7357 18.7306 26.8341 18.643 26.867C18.6009 26.8828 18.5543 26.8814 18.5133 26.8629C18.4723 26.8445 18.4403 26.8105 18.4243 26.7685L18.1071 25.806C18.0852 25.7185 18.129 25.6201 18.2165 25.5872ZM18.6431 26.845C18.7196 26.8232 18.7633 26.7357 18.7415 26.6591L18.4243 25.6966C18.4025 25.6201 18.315 25.5872 18.2385 25.6091C18.1618 25.631 18.1181 25.7185 18.14 25.7951L18.4571 26.7576C18.4627 26.7761 18.4721 26.7933 18.4848 26.808C18.4975 26.8227 18.5131 26.8345 18.5306 26.8428C18.5481 26.8511 18.5672 26.8555 18.5866 26.8559C18.606 26.8563 18.6252 26.8526 18.6431 26.8451V26.845Z" fill="white"/>
<path d="M16.9336 24.6029C17.021 24.581 17.1086 24.6356 17.1194 24.7231L17.5788 26.9654C17.6007 27.0527 17.535 27.1294 17.4475 27.1512C17.3601 27.1731 17.2725 27.1185 17.2617 27.031L16.8021 24.7887C16.7913 24.7121 16.846 24.6247 16.9335 24.6027L16.9336 24.6029Z" fill="#F3F3F3"/>
<path d="M16.933 24.5919C17.0314 24.5701 17.1189 24.6357 17.1408 24.7232L17.6002 26.9654C17.6221 27.0528 17.5564 27.1513 17.4689 27.1622C17.3704 27.1841 17.2829 27.1185 17.2611 27.031L16.8016 24.7888C16.7798 24.7013 16.8346 24.6138 16.9329 24.592L16.933 24.5919ZM17.447 27.1403C17.5236 27.1295 17.5783 27.0528 17.5673 26.9653L17.1079 24.7232C17.0971 24.6466 17.0096 24.592 16.9329 24.6138C16.8564 24.6247 16.8017 24.7013 16.8127 24.7888L17.2721 27.031C17.2939 27.1076 17.3704 27.1513 17.4471 27.1404L17.447 27.1403Z" fill="white"/>
<path d="M16.1043 26.0248C16.1918 26.0139 16.2683 26.0686 16.2902 26.1561L16.4214 27.1623C16.4324 27.2498 16.3668 27.3264 16.2792 27.3373C16.1918 27.3483 16.1152 27.2936 16.0933 27.2061L15.9621 26.1998C15.9512 26.1123 16.0168 26.0358 16.1043 26.0248Z" fill="#F3F3F3"/>
<path d="M16.1035 26.0137C16.202 26.0029 16.2895 26.0685 16.3004 26.156L16.4316 27.1622C16.4426 27.2497 16.377 27.3372 16.2785 27.3481C16.1801 27.3591 16.0926 27.2935 16.0816 27.2059L15.9504 26.1997C15.9395 26.1122 16.0051 26.0247 16.1035 26.0137ZM16.2676 27.3262C16.3441 27.3154 16.4098 27.2387 16.3989 27.1622L16.2676 26.156C16.2566 26.0795 16.1801 26.0247 16.1035 26.0356C16.027 26.0466 15.9612 26.1231 15.9722 26.1997L16.1035 27.206C16.1145 27.2826 16.191 27.3372 16.2676 27.3262Z" fill="white"/>
<path d="M14.9765 24.7998C15.064 24.7998 15.1406 24.8655 15.1406 24.953V27.2389C15.1406 27.3264 15.064 27.3921 14.9765 27.3921C14.889 27.3921 14.8125 27.3264 14.8125 27.2389V24.953C14.8235 24.8655 14.889 24.7998 14.9765 24.7998Z" fill="#F3F3F3"/>
<path d="M14.9758 24.7888C15.0742 24.7888 15.1508 24.8654 15.1508 24.9529V27.2388C15.1508 27.3263 15.0742 27.4029 14.9758 27.4029C14.8773 27.4029 14.8008 27.3263 14.8008 27.2388V24.953C14.8008 24.8655 14.8883 24.7888 14.9758 24.7888ZM14.9758 27.3811C15.0523 27.3811 15.1289 27.3155 15.1289 27.2388V24.953C15.1289 24.8763 15.0633 24.8107 14.9758 24.8107C14.8992 24.8107 14.8227 24.8763 14.8227 24.953V27.2388C14.8335 27.3155 14.8992 27.3811 14.9758 27.3811Z" fill="white"/>
<path d="M13.8805 26.0246C13.968 26.0356 14.0336 26.1012 14.0336 26.1887L13.957 27.2059C13.9462 27.2934 13.8695 27.359 13.782 27.3482C13.6945 27.3371 13.6289 27.2715 13.6289 27.184L13.7055 26.1668C13.7164 26.0794 13.793 26.0137 13.8805 26.0246Z" fill="#F3F3F3"/>
<path d="M13.8797 26.0137C13.9781 26.0247 14.0437 26.1012 14.0437 26.1887L13.9672 27.206C13.9562 27.2935 13.8797 27.37 13.7812 27.3591C13.6829 27.3481 13.6172 27.2716 13.6172 27.1841L13.6937 26.1668C13.7047 26.0685 13.7812 26.0029 13.8797 26.0137ZM13.7812 27.3372C13.8578 27.3372 13.9344 27.2825 13.9344 27.206L14.011 26.1887C14.011 26.1122 13.9562 26.0466 13.8687 26.0356C13.7922 26.0356 13.7156 26.0903 13.7156 26.167L13.6391 27.1841C13.6391 27.2606 13.7046 27.3264 13.7812 27.3372Z" fill="white"/>
<path d="M13.0616 24.603C13.1491 24.6248 13.2037 24.7013 13.1928 24.7888L12.7443 27.0311C12.7224 27.1186 12.6459 27.1733 12.5584 27.1513C12.4709 27.1295 12.4162 27.053 12.4272 26.9653L12.8756 24.7232C12.8866 24.6467 12.9741 24.592 13.0616 24.603Z" fill="#F3F3F3"/>
<path d="M13.06 24.5919C13.1584 24.6138 13.2131 24.7014 13.2022 24.7888L12.7537 27.031C12.7318 27.1185 12.6443 27.1841 12.546 27.1622C12.4475 27.1403 12.3928 27.0528 12.4037 26.9653L12.8522 24.7232C12.8741 24.6357 12.9616 24.5809 13.0599 24.592L13.06 24.5919ZM12.546 27.1403C12.6225 27.1513 12.6991 27.1076 12.721 27.031L13.1693 24.7888C13.1803 24.7122 13.1366 24.6357 13.0491 24.6138C12.9725 24.6029 12.896 24.6466 12.8741 24.7233L12.4256 26.9653C12.4147 27.0528 12.4693 27.1185 12.546 27.1403Z" fill="white"/>
<path d="M11.7483 25.5873C11.8359 25.6092 11.8905 25.6967 11.8686 25.7842L11.5952 26.7686C11.5734 26.8561 11.4859 26.8998 11.3984 26.878C11.3775 26.873 11.3579 26.864 11.3406 26.8514C11.3232 26.8387 11.3085 26.8228 11.2974 26.8045C11.2862 26.7863 11.2787 26.7659 11.2754 26.7448C11.2721 26.7236 11.273 26.702 11.278 26.6811L11.5515 25.6967C11.5734 25.6092 11.6608 25.5655 11.7483 25.5873Z" fill="#F3F3F3"/>
<path d="M11.7476 25.5764C11.8352 25.5981 11.9008 25.6966 11.8679 25.7841L11.5945 26.7685C11.5727 26.856 11.4742 26.9108 11.3867 26.8887C11.2992 26.867 11.2336 26.7685 11.2664 26.681L11.5398 25.6966C11.5617 25.6091 11.6492 25.5543 11.7476 25.5762V25.5764ZM11.3867 26.856C11.4633 26.8779 11.5508 26.8341 11.5727 26.7575L11.846 25.7731C11.8679 25.6966 11.8242 25.62 11.7367 25.5981C11.6602 25.5762 11.5727 25.62 11.5508 25.6966L11.2773 26.681C11.2664 26.7575 11.3101 26.8341 11.3867 26.856Z" fill="white"/>
<path d="M11.2111 24.0451C11.2986 24.0779 11.3313 24.1763 11.2986 24.2529L10.4236 26.3638C10.3908 26.4405 10.2923 26.4842 10.2158 26.4405C10.1392 26.3967 10.0954 26.3092 10.1282 26.2326L11.0032 24.1217C11.036 24.0451 11.1346 24.0013 11.2111 24.0451Z" fill="#F3F3F3"/>
<path d="M11.2172 24.0341C11.2593 24.0501 11.2932 24.0821 11.3117 24.1232C11.3301 24.1642 11.3316 24.2108 11.3157 24.2529L10.4407 26.3638C10.4078 26.4513 10.3094 26.4841 10.2109 26.4513C10.1689 26.4352 10.135 26.4032 10.1165 26.3622C10.0981 26.3212 10.0966 26.2746 10.1125 26.2326L10.9875 24.1216C11.0313 24.0341 11.1297 23.9904 11.2172 24.0341ZM10.2219 26.4295C10.2984 26.4622 10.3859 26.4295 10.4188 26.3529L11.2938 24.242C11.3265 24.1654 11.2828 24.0888 11.2063 24.056C11.1297 24.0233 11.0422 24.056 11.0094 24.1326L10.1344 26.2435C10.1125 26.3091 10.1453 26.3966 10.2219 26.4295Z" fill="white"/>
<path d="M9.73773 24.7452C9.81427 24.7889 9.84701 24.8764 9.81427 24.9529L9.35487 25.8608C9.31106 25.9374 9.22356 25.9702 9.13606 25.9264C9.05952 25.8827 9.02677 25.7952 9.05951 25.7187L9.51903 24.8109C9.56272 24.7343 9.65022 24.7014 9.73773 24.7452Z" fill="#F3F3F3"/>
<path d="M9.73962 24.7342C9.82712 24.7779 9.85986 24.8765 9.81617 24.9639L9.35677 25.8717C9.31296 25.9592 9.21451 25.9921 9.12712 25.9483C9.03962 25.9046 9.00677 25.806 9.05057 25.7186L9.50986 24.8109C9.55367 24.7233 9.65212 24.6905 9.73962 24.7342ZM9.13807 25.9265C9.21462 25.9592 9.30212 25.9373 9.33486 25.8608L9.79427 24.953C9.82701 24.8873 9.79427 24.7998 9.72867 24.7561C9.65212 24.7234 9.56462 24.7452 9.53177 24.8217L9.07236 25.7295C9.03962 25.7952 9.07236 25.8828 9.13807 25.9265Z" fill="white"/>
<path d="M9.51784 23.1264C9.59439 23.181 9.61629 23.2795 9.56164 23.3451L8.29284 25.2374C8.24914 25.3138 8.15058 25.3247 8.07414 25.281C7.9976 25.2263 7.97569 25.128 8.03034 25.0622L9.29914 23.17C9.34284 23.0935 9.44129 23.0718 9.51784 23.1264Z" fill="#F3F3F3"/>
<path d="M9.51993 23.1153C9.59648 23.1701 9.61839 23.2795 9.57458 23.356L8.30589 25.2483C8.25124 25.3247 8.15279 25.3466 8.06529 25.292C7.98874 25.2372 7.96684 25.1279 8.01053 25.0513L9.27934 23.1591C9.33398 23.0826 9.44339 23.0607 9.51993 23.1153ZM8.07624 25.2701C8.14173 25.3137 8.24029 25.3028 8.28398 25.2373L9.55279 23.3451C9.59648 23.2795 9.57469 23.192 9.50898 23.1482C9.44339 23.1045 9.34493 23.1154 9.30124 23.1809L8.03243 25.0622C7.98874 25.1279 8.01053 25.2264 8.07624 25.2701Z" fill="white"/>
<path d="M7.91918 23.5311C7.98489 23.5858 8.00668 23.6842 7.95204 23.7498L7.31763 24.5483C7.26299 24.6139 7.16454 24.6248 7.09894 24.5702C7.03334 24.5155 7.01144 24.4171 7.0662 24.3514L7.70049 23.5529C7.75513 23.4874 7.85359 23.4764 7.91918 23.5311Z" fill="#F3F3F3"/>
<path d="M7.93646 23.52C8.01301 23.5747 8.02396 23.6841 7.9692 23.7606L7.33491 24.5591C7.28027 24.6356 7.17087 24.6466 7.09432 24.581C7.01777 24.5262 7.00682 24.4169 7.06158 24.3403L7.69587 23.5419C7.75051 23.4653 7.85991 23.4544 7.93646 23.52ZM7.11622 24.5591C7.1817 24.6137 7.26932 24.6029 7.32396 24.5372L7.95837 23.7387C8.00217 23.6732 7.99111 23.5856 7.92562 23.531C7.85991 23.4762 7.77241 23.4872 7.71777 23.5529L7.08337 24.3512C7.03967 24.4169 7.05074 24.5153 7.11622 24.5591Z" fill="white"/>
<path d="M8.03112 21.8903C8.09672 21.9558 8.09672 22.0544 8.03112 22.109L6.41243 23.7168C6.34672 23.7825 6.24838 23.7715 6.19362 23.7168C6.13898 23.6621 6.12802 23.5527 6.19362 23.4981L7.80136 21.8903C7.86707 21.8246 7.96552 21.8246 8.03112 21.8903Z" fill="#F3F3F3"/>
<path d="M8.04138 21.8795C8.07289 21.9116 8.09055 21.9548 8.09055 21.9998C8.09055 22.0448 8.07289 22.0879 8.04138 22.12L6.42257 23.728C6.39049 23.7595 6.34731 23.7772 6.30233 23.7772C6.25736 23.7772 6.21418 23.7595 6.18209 23.728C6.15051 23.6959 6.13281 23.6527 6.13281 23.6076C6.13281 23.5626 6.15051 23.5194 6.18209 23.4873L7.80078 21.8795C7.83288 21.848 7.87608 21.8303 7.92108 21.8303C7.96609 21.8303 8.00929 21.848 8.04138 21.8795ZM6.19293 23.7169C6.24757 23.7716 6.34603 23.7716 6.40067 23.7169L8.01948 22.1091C8.07424 22.0544 8.07424 21.956 8.01948 21.9013C7.96483 21.8466 7.86638 21.8466 7.81174 21.9013L6.19293 23.5091C6.13828 23.5637 6.13828 23.6513 6.19293 23.7168V23.7169Z" fill="white"/>
<path d="M6.38976 21.9781C6.44441 22.0436 6.44441 22.1422 6.37881 22.1968L5.60227 22.8531C5.53667 22.9078 5.43822 22.8968 5.38346 22.8312C5.32881 22.7655 5.32881 22.6672 5.39441 22.6124L6.17096 21.9562C6.23667 21.9014 6.33501 21.9124 6.38976 21.9781Z" fill="#F3F3F3"/>
<path d="M6.40038 21.967C6.46598 22.0436 6.45502 22.1529 6.38943 22.2077L5.61288 22.8639C5.54728 22.9296 5.43788 22.9186 5.37228 22.8421C5.30657 22.7654 5.31753 22.6561 5.38312 22.6014L6.15978 21.9452C6.22527 21.8796 6.33478 21.8905 6.40027 21.9671L6.40038 21.967ZM5.39407 22.8311C5.44883 22.8967 5.53633 22.8967 5.60182 22.853L6.37848 22.1967C6.43312 22.1421 6.44407 22.0545 6.38943 21.989C6.33467 21.9233 6.24717 21.9233 6.18169 21.9671L5.40503 22.6233C5.33943 22.6779 5.33943 22.7656 5.39407 22.8311Z" fill="white"/>
<path d="M6.82883 20.4029C6.88348 20.4795 6.86157 20.5779 6.78503 20.6217L4.88193 21.8905C4.80538 21.9342 4.70693 21.9123 4.66324 21.8467C4.60848 21.7701 4.63038 21.6717 4.70693 21.6279L6.61014 20.3592C6.67585 20.3155 6.77419 20.3373 6.82895 20.4029H6.82883Z" fill="#F3F3F3"/>
<path d="M6.83899 20.4029C6.89363 20.4796 6.87173 20.5889 6.79518 20.6436L4.89208 21.9123C4.81554 21.9671 4.70613 21.9451 4.65149 21.8577C4.59673 21.7811 4.61875 21.6717 4.69518 21.6171L6.59839 20.3483C6.67494 20.2936 6.78434 20.3155 6.83899 20.4029ZM4.67339 21.8358C4.71708 21.9014 4.80458 21.9233 4.87018 21.8796L6.77328 20.6108C6.83899 20.5671 6.86078 20.4796 6.80613 20.403C6.76244 20.3373 6.67494 20.3155 6.60923 20.3592L4.70613 21.628C4.64054 21.6827 4.62958 21.7702 4.67339 21.8358Z" fill="white"/>
<path d="M5.20115 20.1732C5.24496 20.2498 5.22306 20.3482 5.14651 20.392L4.26056 20.8951C4.18401 20.9388 4.08556 20.9061 4.04186 20.8295C3.99806 20.753 4.01996 20.6545 4.09651 20.6107L4.98246 20.1076C5.05901 20.0638 5.15746 20.0967 5.20127 20.1732H5.20115Z" fill="#F3F3F3"/>
<path d="M5.21222 20.1622C5.25591 20.2497 5.23401 20.3482 5.15746 20.392L4.27151 20.8951C4.19496 20.9388 4.08556 20.9061 4.04186 20.8295C3.99806 20.742 4.01996 20.6436 4.09651 20.5997L4.98246 20.0967C5.05901 20.0528 5.16841 20.0857 5.2121 20.1622H5.21222ZM4.0527 20.8186C4.09651 20.8951 4.18401 20.917 4.2496 20.8732L5.13556 20.3701C5.20115 20.3263 5.22306 20.2388 5.19031 20.1732C5.14651 20.0966 5.05901 20.0747 4.99341 20.1186L4.10746 20.6217C4.04186 20.6544 4.01985 20.742 4.0527 20.8186Z" fill="white"/>
<path d="M5.93041 18.7186C5.96315 18.8061 5.93041 18.8936 5.84291 18.9263L3.73196 19.8013C3.65541 19.8342 3.55696 19.7905 3.52422 19.7138C3.49136 19.6263 3.52422 19.5388 3.61172 19.5061L5.72267 18.6311C5.79922 18.5984 5.89767 18.6311 5.93041 18.7186Z" fill="#F3F3F3"/>
<path d="M5.94136 18.7076C5.9741 18.7951 5.94136 18.8936 5.85386 18.9373L3.74291 19.8123C3.70085 19.8281 3.65422 19.8267 3.61323 19.8082C3.57224 19.7898 3.54024 19.7558 3.52422 19.7138C3.49136 19.6263 3.52422 19.5279 3.61172 19.4842L5.72267 18.6092C5.76473 18.5933 5.81136 18.5948 5.85235 18.6132C5.89334 18.6317 5.92535 18.6656 5.94136 18.7076ZM3.54601 19.7029C3.57886 19.7795 3.66636 19.8124 3.73196 19.7904L5.84291 18.9154C5.91946 18.8826 5.95231 18.7951 5.91946 18.7186C5.88672 18.642 5.79922 18.6092 5.73351 18.6311L3.62256 19.5061C3.54601 19.5388 3.51327 19.6263 3.54601 19.703V19.7029Z" fill="white"/>
<path d="M4.38591 18.1717C4.41865 18.2592 4.37495 18.3467 4.28745 18.3794L3.32495 18.6967C3.24841 18.7294 3.14995 18.6748 3.12805 18.5982C3.09531 18.5107 3.139 18.4232 3.2265 18.3905L4.189 18.0732C4.26555 18.0405 4.35305 18.0842 4.38591 18.1717Z" fill="#F3F3F3"/>
<path d="M4.4029 18.1606C4.43576 18.2481 4.39206 18.3466 4.29361 18.3794L3.33111 18.6965C3.24361 18.7293 3.14516 18.6746 3.1123 18.5871C3.07956 18.4996 3.12326 18.4012 3.22182 18.3685L4.18421 18.0512C4.27171 18.0294 4.37016 18.0731 4.40301 18.1607L4.4029 18.1606ZM3.13432 18.5763C3.15622 18.6529 3.24372 18.6967 3.32027 18.6748L4.28277 18.3575C4.35932 18.3357 4.39217 18.2482 4.37027 18.1717C4.34837 18.0951 4.26087 18.0513 4.18432 18.0732L3.22182 18.3905C3.14527 18.4232 3.11242 18.4998 3.13432 18.5763Z" fill="white"/>
<path d="M5.37751 16.8701C5.3993 16.9576 5.34465 17.0451 5.25715 17.056L3.01489 17.4935C2.92739 17.5155 2.85085 17.4497 2.82906 17.3622C2.80715 17.2747 2.8618 17.1872 2.9493 17.1763L5.19156 16.7388C5.27906 16.728 5.36667 16.7826 5.37751 16.8701Z" fill="#F3F3F3"/>
<path d="M5.39871 16.8701C5.42061 16.9686 5.35502 17.0561 5.26752 17.0779L3.02526 17.5154C2.93776 17.5373 2.85026 17.4717 2.82847 17.3732C2.80657 17.2748 2.87216 17.1873 2.95966 17.1655L5.20192 16.728C5.28931 16.7061 5.37692 16.7717 5.39871 16.8701ZM2.85026 17.3624C2.86121 17.4388 2.93776 17.4936 3.01431 17.4826L5.25657 17.0451C5.33311 17.0342 5.38776 16.9467 5.36597 16.8701C5.35502 16.7936 5.27847 16.7388 5.20181 16.7498L2.95966 17.1873C2.88311 17.2092 2.82847 17.2857 2.85026 17.3623V17.3624Z" fill="white"/>
<path d="M3.97405 16.028C3.98489 16.1154 3.93024 16.192 3.84274 16.203L2.83655 16.3232C2.74893 16.3342 2.67239 16.2686 2.66155 16.181C2.6506 16.0936 2.70524 16.017 2.79274 16.006L3.79905 15.8857C3.8756 15.8748 3.9631 15.9404 3.97405 16.028Z" fill="#F3F3F3"/>
<path d="M3.98404 16.0278C3.99488 16.1262 3.92928 16.2137 3.84178 16.2246L2.83558 16.345C2.74797 16.3559 2.66059 16.2903 2.64963 16.1919C2.63868 16.0934 2.70428 16.0059 2.79178 15.995L3.79808 15.8746C3.88547 15.8637 3.97309 15.9294 3.98392 16.0277L3.98404 16.0278ZM2.66047 16.1809C2.67142 16.2575 2.74809 16.3232 2.82463 16.3121L3.83083 16.1919C3.90738 16.1809 3.96213 16.1044 3.95118 16.0278C3.94023 15.9512 3.86368 15.8856 3.78713 15.8965L2.78083 16.0169C2.70428 16.0278 2.64963 16.1044 2.66047 16.1809Z" fill="white"/>
<path d="M5.20141 14.9669C5.20141 15.0545 5.13592 15.1311 5.04831 15.1311H2.76247C2.67497 15.1311 2.60938 15.0545 2.60938 14.967C2.60938 14.8795 2.67497 14.8029 2.76247 14.8029H5.04842C5.13592 14.8029 5.20163 14.8795 5.20163 14.967L5.20141 14.9669Z" fill="#F3F3F3"/>
<path d="M5.2117 14.9669C5.2117 15.0654 5.13504 15.1419 5.04754 15.1419H2.7617C2.6742 15.1419 2.59766 15.0653 2.59766 14.9669C2.59766 14.8685 2.6742 14.7919 2.7617 14.7919H5.04766C5.13516 14.7919 5.2117 14.8685 5.2117 14.9669ZM2.61945 14.956C2.61945 15.0326 2.68504 15.1091 2.7617 15.1091H5.04754C5.12409 15.1091 5.1898 15.0435 5.1898 14.956C5.1898 14.8795 5.12409 14.8028 5.04754 14.8028H2.7617C2.68516 14.8138 2.61945 14.8795 2.61945 14.956Z" fill="white"/>
<path d="M3.98489 13.8623C3.97383 13.9498 3.90823 14.0154 3.82073 14.0154L2.80347 13.9388C2.71609 13.9279 2.65049 13.8513 2.66133 13.7638C2.67228 13.6763 2.73799 13.6107 2.82549 13.6107L3.84264 13.6873C3.91918 13.6982 3.98489 13.7748 3.98489 13.8623Z" fill="#E2E2E2"/>
<path d="M3.99473 13.8624C3.98378 13.9608 3.90723 14.0264 3.81973 14.0264L2.80247 13.9499C2.71508 13.9389 2.63853 13.8624 2.64949 13.7639C2.66032 13.6656 2.73699 13.5999 2.82449 13.5999L3.84163 13.6764C3.92913 13.6874 3.99473 13.7749 3.99473 13.8624ZM2.66032 13.7639C2.64949 13.8405 2.71508 13.9171 2.79163 13.9171L3.80889 13.9937C3.88532 13.9937 3.95103 13.9389 3.96199 13.8514C3.97294 13.7749 3.90723 13.6983 3.83068 13.6983L2.81342 13.6218C2.73699 13.6218 2.67128 13.6872 2.66032 13.7639Z" fill="white"/>
<path d="M5.39703 13.0639C5.37513 13.1514 5.29858 13.2062 5.21108 13.1952L2.96894 12.7358C2.88144 12.7139 2.82668 12.6373 2.84858 12.5498C2.87048 12.4623 2.94703 12.4076 3.03453 12.4187L5.27679 12.8671C5.35334 12.8889 5.40798 12.9764 5.39703 13.0639Z" fill="#F3F3F3"/>
<path d="M5.40652 13.0637C5.38462 13.1622 5.29712 13.2169 5.20962 13.206L2.96748 12.7575C2.87998 12.7356 2.81438 12.6481 2.83628 12.5498C2.85807 12.4512 2.94557 12.3966 3.03307 12.4075L5.27533 12.856C5.36283 12.8779 5.41748 12.9654 5.40652 13.0637ZM2.85807 12.5497C2.84712 12.6262 2.89081 12.7028 2.96748 12.7247L5.20973 13.1731C5.28628 13.1841 5.36283 13.1404 5.38473 13.0528C5.39557 12.9762 5.35188 12.8997 5.27522 12.8778L3.03319 12.4294C2.94569 12.4185 2.87998 12.4731 2.85807 12.5497Z" fill="white"/>
<path d="M4.40953 11.7513C4.40451 11.7721 4.39543 11.7918 4.38282 11.8091C4.3702 11.8264 4.3543 11.8411 4.33601 11.8522C4.31772 11.8634 4.29741 11.8709 4.27624 11.8742C4.25507 11.8775 4.23345 11.8766 4.21263 11.8716L3.22823 11.5981C3.14073 11.5762 3.09703 11.4887 3.11882 11.4012C3.12384 11.3804 3.13292 11.3607 3.14554 11.3434C3.15815 11.3261 3.17406 11.3114 3.19235 11.3003C3.21064 11.2891 3.23095 11.2816 3.25212 11.2783C3.27329 11.275 3.2949 11.2759 3.31573 11.281L4.30013 11.5544C4.38763 11.5762 4.43132 11.6638 4.40953 11.7513Z" fill="#F3F3F3"/>
<path d="M4.4228 11.7515C4.40101 11.8389 4.30256 11.9046 4.21506 11.8718L3.23065 11.5983C3.14315 11.5764 3.0884 11.478 3.1103 11.3906C3.1322 11.303 3.23065 11.2374 3.31815 11.2702L4.30256 11.5437C4.39006 11.5656 4.44482 11.6532 4.4228 11.7515ZM3.14315 11.3903C3.12125 11.467 3.16506 11.5545 3.24161 11.5763L4.22601 11.8497C4.30256 11.8716 4.37911 11.8278 4.40101 11.7403C4.4228 11.6638 4.37911 11.5763 4.30256 11.5545L3.31815 11.2811C3.24161 11.2701 3.16506 11.3137 3.14315 11.3903Z" fill="white"/>
<path d="M5.95245 11.2265C5.91971 11.3138 5.82115 11.3467 5.74471 11.3138L3.63365 10.4388C3.5571 10.4061 3.51341 10.3077 3.54615 10.2311C3.579 10.1436 3.67745 10.1107 3.754 10.1436L5.86495 11.0186C5.95246 11.0513 5.98531 11.1499 5.95245 11.2265Z" fill="#F3F3F3"/>
<path d="M5.96487 11.2374C5.94885 11.2795 5.91682 11.3134 5.87581 11.3319C5.83479 11.3503 5.78813 11.3518 5.74606 11.3359L3.63511 10.4609C3.54761 10.4281 3.51487 10.3297 3.54761 10.2312C3.56362 10.1892 3.59565 10.1552 3.63666 10.1368C3.67768 10.1183 3.72434 10.1169 3.76641 10.1328L5.87737 11.0078C5.96487 11.0515 5.99761 11.15 5.96487 11.2374ZM3.56951 10.2422C3.53677 10.3187 3.56951 10.4062 3.64606 10.439L5.75701 11.314C5.83356 11.3468 5.91011 11.303 5.94296 11.2265C5.9757 11.1499 5.94296 11.0624 5.86641 11.0297L3.75546 10.1547C3.67891 10.1328 3.59141 10.1656 3.56951 10.2422Z" fill="white"/>
<path d="M5.23988 9.74987C5.19619 9.82642 5.10869 9.85927 5.03214 9.82642L4.12428 9.36712C4.04774 9.33427 4.01488 9.23582 4.05869 9.14832C4.10238 9.07177 4.18988 9.03892 4.26643 9.07177L5.17417 9.53117C5.25083 9.57487 5.28369 9.67343 5.23988 9.74987Z" fill="#F3F3F3"/>
<path d="M5.2529 9.76086C5.2091 9.84836 5.11064 9.88122 5.02314 9.83741L4.1154 9.37801C4.0279 9.33431 3.99505 9.23586 4.03885 9.14836C4.08255 9.06086 4.18111 9.02801 4.2685 9.07181L5.17624 9.53122C5.26385 9.56396 5.2966 9.67347 5.2529 9.76086ZM4.0716 9.15931C4.03885 9.23586 4.06076 9.32336 4.1373 9.35622L5.04505 9.81562C5.11076 9.84836 5.19826 9.81562 5.24195 9.74991C5.27469 9.67336 5.2529 9.58586 5.17635 9.55301L4.25743 9.09383C4.19184 9.06109 4.10434 9.08288 4.07148 9.15943L4.0716 9.15931Z" fill="white"/>
<path d="M6.85207 9.5418C6.79742 9.61846 6.70992 9.64036 6.63337 9.58561L4.74112 8.32786C4.66468 8.28406 4.65373 8.18561 4.69742 8.10906C4.74123 8.03251 4.83968 8.01061 4.91623 8.06525L6.81933 9.33406C6.88492 9.37786 6.90683 9.47631 6.85207 9.5418Z" fill="#F3F3F3"/>
<path d="M6.85923 9.55298C6.80459 9.62964 6.69518 9.65143 6.61875 9.60774L4.72649 8.33893C4.64994 8.28429 4.62804 8.18583 4.68268 8.09845C4.73744 8.02179 4.84684 7.99988 4.92339 8.04369L6.81554 9.31238C6.90304 9.36714 6.91399 9.47643 6.85923 9.55298ZM4.70459 8.10929C4.66089 8.17488 4.67184 8.27333 4.73733 8.31703L6.64054 9.58595C6.70613 9.62975 6.79363 9.60785 6.83744 9.54225C6.88113 9.47654 6.87018 9.37809 6.8047 9.3344L4.90138 8.06559C4.83578 8.02179 4.74839 8.04369 4.70459 8.10929Z" fill="white"/>
<path d="M6.44512 7.95619C6.39047 8.02179 6.29202 8.04369 6.22643 7.98894L5.42797 7.3656C5.36238 7.31084 5.35143 7.21239 5.40607 7.14679C5.46072 7.08119 5.55917 7.05929 5.62488 7.11405L6.42322 7.73739C6.48893 7.79215 6.49988 7.89049 6.44512 7.95619Z" fill="#F3F3F3"/>
<path d="M6.45758 7.96689C6.40294 8.04356 6.29354 8.05451 6.21699 7.99975L5.41854 7.37641C5.34199 7.32176 5.33104 7.21236 5.38579 7.13593C5.44044 7.05927 5.54984 7.04831 5.62628 7.10307L6.42473 7.72641C6.50139 7.78117 6.51234 7.89046 6.45758 7.96712V7.96689ZM5.40758 7.14665C5.35294 7.21225 5.36389 7.29975 5.42949 7.35439L6.22794 7.97796C6.29354 8.02165 6.38104 8.0107 6.43568 7.9451C6.49044 7.87951 6.47949 7.79201 6.41389 7.73736L5.61544 7.1138C5.54984 7.0701 5.46212 7.08106 5.40758 7.14665Z" fill="white"/>
<path d="M8.07314 8.06536C8.00765 8.13107 7.90909 8.13107 7.85444 8.06536L6.22491 6.45762C6.15931 6.39202 6.17015 6.29357 6.22491 6.23881C6.29051 6.17333 6.38896 6.17333 6.44361 6.23881L8.06241 7.84667C8.12801 7.90131 8.12801 8.01071 8.07336 8.06547L8.07314 8.06536Z" fill="#F3F3F3"/>
<path d="M8.07665 8.07649C8.04456 8.108 8.00138 8.12566 7.95641 8.12566C7.91143 8.12566 7.86826 8.108 7.83617 8.07649L6.21725 6.46852C6.18567 6.43642 6.16797 6.3932 6.16797 6.34817C6.16797 6.30314 6.18567 6.25991 6.21725 6.22781C6.24934 6.19627 6.29254 6.17859 6.33755 6.17859C6.38255 6.17859 6.42575 6.19627 6.45784 6.22781L8.07665 7.83567C8.1532 7.90126 8.1532 8.01067 8.07665 8.07626V8.07649ZM6.23938 6.24972C6.18462 6.30447 6.18462 6.40292 6.23938 6.45746L7.85807 8.06531C7.91283 8.12007 8.01117 8.12007 8.06581 8.06531C8.12057 8.01067 8.12057 7.91222 8.06581 7.85757L6.44712 6.23888C6.39247 6.18423 6.30486 6.18412 6.23938 6.24972Z" fill="white"/>
<path d="M7.97567 6.4358C7.91008 6.49056 7.81162 6.49056 7.75687 6.42485L7.08961 5.65926C7.03508 5.59366 7.04591 5.49521 7.11162 5.44056C7.17711 5.3858 7.27567 5.3858 7.33032 5.4514L7.99758 6.21711C8.05222 6.27176 8.04127 6.37021 7.97567 6.4358Z" fill="#F3F3F3"/>
<path d="M7.98607 6.43568C7.90953 6.50128 7.81107 6.49044 7.74536 6.42473L7.07822 5.65913C7.01262 5.59354 7.02357 5.48413 7.10012 5.41854C7.17667 5.35283 7.27512 5.36378 7.34072 5.42949L8.00798 6.19497C8.06262 6.27163 8.06262 6.38104 7.98607 6.43568ZM7.11107 5.44044C7.04536 5.49509 7.04536 5.58259 7.08917 5.64818L7.75643 6.41378C7.81107 6.46854 7.89857 6.47949 7.96417 6.42473C8.02977 6.37009 8.02977 6.28247 7.98607 6.21699L7.31882 5.45128C7.26417 5.38579 7.17656 5.38579 7.11107 5.44044Z" fill="white"/>
<path d="M9.5525 6.8516C9.47595 6.90625 9.3775 6.88434 9.33369 6.80779L8.05405 4.91554C8.01024 4.83899 8.03214 4.74054 8.09774 4.69684C8.17429 4.6422 8.27274 4.6641 8.31655 4.74065L9.58524 6.63279C9.64 6.70934 9.61809 6.80791 9.5525 6.8516Z" fill="#F3F3F3"/>
<path d="M9.5509 6.86225C9.47435 6.91701 9.36495 6.895 9.31019 6.81856L8.0415 4.9263C7.98685 4.84975 8.00876 4.74046 8.09614 4.68582C8.17269 4.63106 8.2821 4.65296 8.33685 4.72951L9.60555 6.62166C9.66019 6.70916 9.63829 6.80761 9.5509 6.86225ZM8.10698 4.70761C8.04139 4.7513 8.01948 4.8388 8.06329 4.90451L9.33198 6.79666C9.37579 6.86225 9.46329 6.87321 9.53973 6.8294C9.60544 6.78571 9.62734 6.69821 9.58353 6.63261L8.31495 4.7513C8.27114 4.68582 8.17269 4.6638 8.10721 4.70761H8.10698Z" fill="white"/>
<path d="M9.77663 5.23246C9.70008 5.27615 9.60163 5.25436 9.55794 5.17782L9.05473 4.29186C9.01103 4.21532 9.04378 4.11686 9.12044 4.07306C9.19699 4.02936 9.29544 4.05115 9.33913 4.12782L9.84223 5.01365C9.87508 5.0902 9.85307 5.18865 9.77663 5.23246Z" fill="#F3F3F3"/>
<path d="M9.78203 5.24341C9.69453 5.28711 9.59607 5.26532 9.55238 5.18865L9.04917 4.30282C9.00548 4.22615 9.02738 4.11686 9.11488 4.07306C9.20238 4.02936 9.30083 4.05115 9.34453 4.12782L9.84762 5.01365C9.89143 5.0902 9.86941 5.18865 9.78203 5.24341ZM9.12583 4.08401C9.06012 4.1277 9.02738 4.2152 9.07107 4.28091L9.57428 5.16686C9.61798 5.23235 9.70548 5.25436 9.77107 5.22151C9.83678 5.17782 9.86953 5.0902 9.82583 5.02461L9.32262 4.13865C9.28988 4.07317 9.19143 4.0402 9.12583 4.08401Z" fill="white"/>
<path d="M11.2336 5.95437C11.1462 5.98711 11.0586 5.95437 11.0258 5.87782L10.1399 3.76676C10.1072 3.69021 10.1508 3.59176 10.2274 3.5589C10.3149 3.52616 10.4024 3.5589 10.4351 3.63545L11.3211 5.7464C11.3539 5.82295 11.3103 5.9214 11.2336 5.95415V5.95437Z" fill="#F3F3F3"/>
<path d="M11.2359 5.96548C11.1485 5.99822 11.0501 5.96548 11.0063 5.87786L10.1203 3.76702C10.1044 3.72495 10.1059 3.67829 10.1243 3.63728C10.1428 3.59626 10.1768 3.56423 10.2188 3.54822C10.3063 3.51548 10.4047 3.54822 10.4485 3.63572L11.3344 5.74667C11.3672 5.82322 11.3234 5.92167 11.2359 5.96548ZM10.2407 3.57012C10.1641 3.60286 10.1313 3.69048 10.1641 3.75607L11.05 5.86691C11.0827 5.94346 11.1702 5.9762 11.2468 5.94346C11.3233 5.91072 11.3563 5.82311 11.3233 5.75751L10.4375 3.64656C10.3937 3.57001 10.3171 3.53715 10.2406 3.57001L10.2407 3.57012Z" fill="white"/>
<path d="M11.773 4.40151C11.6855 4.43425 11.598 4.39045 11.5652 4.30306L11.248 3.34045C11.2152 3.2639 11.2699 3.16545 11.3464 3.14366C11.423 3.12175 11.5214 3.15461 11.5542 3.24211L11.8714 4.20461C11.9042 4.28116 11.8605 4.36877 11.773 4.40151Z" fill="#F3F3F3"/>
<path d="M11.7838 4.41239C11.7418 4.42824 11.6951 4.42678 11.6541 4.40833C11.6132 4.38988 11.5812 4.35594 11.5651 4.31394L11.2479 3.35144C11.2151 3.26394 11.2698 3.1656 11.3574 3.13274C11.3995 3.11689 11.4461 3.11835 11.4871 3.1368C11.5281 3.15526 11.5601 3.1892 11.5761 3.2312L11.8932 4.1937C11.9151 4.2812 11.8713 4.37965 11.7838 4.41239ZM11.3573 3.15465C11.2807 3.17644 11.2369 3.26394 11.2588 3.34049L11.5761 4.3031C11.5979 4.37965 11.6854 4.41239 11.762 4.39049C11.8386 4.3687 11.8823 4.2812 11.8604 4.20465L11.5432 3.24204C11.5377 3.22347 11.5282 3.20628 11.5156 3.1916C11.5029 3.17691 11.4873 3.16506 11.4698 3.1568C11.4522 3.14855 11.4331 3.14408 11.4138 3.14369C11.3944 3.1433 11.3751 3.147 11.3573 3.15454V3.15465Z" fill="white"/>
<path d="M13.0637 5.39679C12.9762 5.4187 12.8887 5.36405 12.8777 5.27644L12.4183 3.03429C12.3964 2.94679 12.4621 2.87025 12.5495 2.84834C12.6371 2.82644 12.7245 2.88108 12.7355 2.9687L13.195 5.21096C13.2058 5.28739 13.1512 5.37489 13.0637 5.39679Z" fill="#F3F3F3"/>
<path d="M13.066 5.40773C12.9676 5.42963 12.8801 5.36392 12.8582 5.27642L12.3988 3.03428C12.3769 2.94678 12.4426 2.84833 12.5301 2.83738C12.6285 2.81547 12.716 2.88118 12.7378 2.96868L13.1973 5.21094C13.2191 5.29833 13.1645 5.38594 13.066 5.40773ZM12.552 2.85928C12.4753 2.87023 12.4207 2.94678 12.4316 3.03428L12.891 5.27654C12.902 5.35297 12.9894 5.40773 13.066 5.38583C13.1426 5.37488 13.1972 5.29833 13.1863 5.21083L12.7269 2.96857C12.7051 2.89213 12.6286 2.84833 12.552 2.85928Z" fill="white"/>
<path d="M13.8926 3.9749C13.8051 3.98585 13.7285 3.93121 13.7066 3.84371L13.5754 2.8374C13.5645 2.7499 13.6301 2.67335 13.7177 2.6624C13.8051 2.65145 13.8816 2.70621 13.9035 2.79371L14.0347 3.7999C14.0457 3.8874 13.9801 3.96395 13.8926 3.9749Z" fill="#F3F3F3"/>
<path d="M13.8957 3.98572C13.7972 3.99667 13.7097 3.93108 13.6988 3.84346L13.5676 2.83727C13.5566 2.74977 13.6222 2.66227 13.7207 2.65132C13.8191 2.64048 13.9066 2.70608 13.9176 2.79358L14.0488 3.79977C14.0597 3.88727 13.9941 3.97477 13.8957 3.98572ZM13.7316 2.67322C13.6551 2.68417 13.5894 2.76072 13.6003 2.83727L13.7316 3.84358C13.7426 3.92013 13.8191 3.97477 13.8957 3.96382C13.9722 3.95298 14.038 3.87632 14.027 3.79977L13.8957 2.79358C13.8847 2.71703 13.8082 2.66227 13.7316 2.67322Z" fill="white"/>
<path d="M15.075 27.9388C22.2271 27.9388 28.025 22.1409 28.025 14.9888C28.025 7.83673 22.2271 2.03882 15.075 2.03882C7.92291 2.03882 2.125 7.83673 2.125 14.9888C2.125 22.1409 7.92291 27.9388 15.075 27.9388Z" fill="url(#paint2_linear_341_1651)" fill-opacity="0.2"/>
<g filter="url(#filter0_d_341_1651)">
<path d="M24.0444 6.77502L13.5991 13.4688H13.5881V13.4797L13.5772 13.4906L7.05859 24.2423L16.6398 16.5313L16.6507 16.5205V16.5095L24.0445 6.77514L24.0444 6.77502Z" fill="black" fill-opacity="0.05"/>
</g>
<path d="M23.8484 6.15137L13.5234 13.4904L16.5859 16.531L23.8484 6.15137Z" fill="#CD151E"/>
<path d="M13.5352 13.4686L15.0774 14.9889L23.8492 6.15137L13.5352 13.4686Z" fill="#FA5153"/>
<path d="M13.532 13.4689L16.5945 16.5093L6.26953 23.8485L13.532 13.4688V13.4689Z" fill="#ACACAC"/>
<path d="M6.26953 23.8485L15.0742 14.9891L13.5319 13.4688L6.26953 23.8485Z" fill="#EEEEEE"/>
<defs>
<filter id="filter0_d_341_1651" x="3.05859" y="3.77502" width="24.9844" height="25.4673" filterUnits="userSpaceOnUse" color-interpolation-filters="sRGB">
<feFlood flood-opacity="0" result="BackgroundImageFix"/>
<feColorMatrix in="SourceAlpha" type="matrix" values="0 0 0 0 0 0 0 0 0 0 0 0 0 0 0 0 0 0 127 0" result="hardAlpha"/>
<feOffset dy="1"/>
<feGaussianBlur stdDeviation="2"/>
<feColorMatrix type="matrix" values="0 0 0 0 0 0 0 0 0 0 0 0 0 0 0 0 0 0 0.0509804 0"/>
<feBlend mode="normal" in2="BackgroundImageFix" result="effect1_dropShadow_341_1651"/>
<feBlend mode="normal" in="SourceGraphic" in2="effect1_dropShadow_341_1651" result="shape"/>
</filter>
<linearGradient id="paint0_linear_341_1651" x1="15" y1="29" x2="15" y2="1" gradientUnits="userSpaceOnUse">
<stop offset="0.25" stop-color="#DBDBDA"/>
<stop offset="1" stop-color="white"/>
</linearGradient>
<radialGradient id="paint1_radial_341_1651" cx="0" cy="0" r="1" gradientUnits="userSpaceOnUse" gradientTransform="translate(16.8203 12.1553) scale(15.8073)">
<stop stop-color="#2ABCE1"/>
<stop offset="0.11363" stop-color="#2ABBE1"/>
<stop offset="1" stop-color="#3375F8"/>
</radialGradient>
<linearGradient id="paint2_linear_341_1651" x1="14.829" y1="11.2859" x2="8.78467" y2="22.13" gradientUnits="userSpaceOnUse">
<stop stop-opacity="0"/>
<stop offset="1"/>
</linearGradient>
</defs>
</svg>
