<svg width="30" height="30" viewBox="0 0 30 30" fill="none" xmlns="http://www.w3.org/2000/svg">
<path d="M27.5867 24.6094C25.9431 21.7754 23.3914 19.5788 20.3445 18.375C21.8399 17.2534 22.9446 15.6898 23.5019 13.9056C24.0593 12.1213 24.0411 10.2069 23.45 8.4336C22.8589 6.66025 21.7248 5.11785 20.2084 4.02487C18.6919 2.9319 16.8701 2.34375 15.0008 2.34375C13.1315 2.34375 11.3096 2.9319 9.79321 4.02487C8.27678 5.11785 7.14269 6.66025 6.55157 8.4336C5.96046 10.2069 5.94229 12.1213 6.49965 13.9056C7.057 15.6898 8.16162 17.2534 9.65703 18.375C6.61013 19.5788 4.05847 21.7754 2.41485 24.6094C2.22837 24.9326 2.17793 25.3167 2.27463 25.6771C2.37132 26.0375 2.60724 26.3448 2.93047 26.5312C3.2537 26.7177 3.63778 26.7682 3.9982 26.6715C4.35862 26.5748 4.66587 26.3389 4.85235 26.0156C5.88092 24.2343 7.36025 22.7551 9.14167 21.7266C10.9231 20.6982 12.9438 20.1568 15.0008 20.1568C17.0578 20.1568 19.0785 20.6982 20.8599 21.7266C22.6413 22.7551 24.1206 24.2343 25.1492 26.0156C25.2736 26.2287 25.4515 26.4057 25.6652 26.529C25.879 26.6523 26.1212 26.7177 26.368 26.7187C26.615 26.7207 26.8579 26.6559 27.0711 26.5312C27.2312 26.439 27.3716 26.3161 27.4842 26.1695C27.5968 26.023 27.6794 25.8557 27.7273 25.6772C27.7751 25.4987 27.7874 25.3125 27.7633 25.1293C27.7392 24.9461 27.6792 24.7694 27.5867 24.6094ZM8.90703 11.25C8.90703 10.0448 9.26443 8.86661 9.93402 7.86449C10.6036 6.86238 11.5553 6.08133 12.6688 5.62011C13.7823 5.15889 15.0075 5.03821 16.1896 5.27334C17.3717 5.50847 18.4575 6.08884 19.3097 6.94107C20.1619 7.79329 20.7423 8.8791 20.9774 10.0612C21.2126 11.2432 21.0919 12.4685 20.6307 13.582C20.1695 14.6955 19.3884 15.6472 18.3863 16.3168C17.3842 16.9864 16.206 17.3437 15.0008 17.3437C13.3846 17.3437 11.8347 16.7017 10.6919 15.5589C9.54905 14.4161 8.90703 12.8662 8.90703 11.25Z" fill="#5B5C60"/>
</svg>
