<svg width="35" height="30" viewBox="0 0 35 30" fill="none" xmlns="http://www.w3.org/2000/svg">
<path fill-rule="evenodd" clip-rule="evenodd" d="M0 0C4.1521 3.66472 7 9.02654 7 15C7 20.9735 4.1521 26.3353 0 30H20C28.2843 30 35 23.2843 35 15C35 6.71573 28.2843 0 20 0H0Z" fill="#EE001D"/>
<path d="M18.166 23.25C19.2494 23.25 20.3222 23.0366 21.3232 22.622C22.3241 22.2074 23.2336 21.5997 23.9996 20.8336C24.7657 20.0675 25.3734 19.1581 25.788 18.1571C26.2026 17.1562 26.416 16.0834 26.416 15C26.416 13.9166 26.2026 12.8438 25.788 11.8429C25.3734 10.8419 24.7657 9.93245 23.9996 9.16637C23.2336 8.40029 22.3241 7.7926 21.3232 7.37799C20.3222 6.96339 19.2494 6.75 18.166 6.75" stroke="white" stroke-width="1.5" stroke-linecap="round" stroke-linejoin="round"/>
<path d="M13.5833 15L17.25 11.3333M13.5833 15L17.25 18.6666M13.5833 15H22.75" stroke="white" stroke-width="1.5" stroke-linecap="round" stroke-linejoin="round"/>
</svg>
