<svg width="35" height="30" viewBox="0 0 35 30" fill="none" xmlns="http://www.w3.org/2000/svg">
<path fill-rule="evenodd" clip-rule="evenodd" d="M35 0C30.8479 3.66472 28 9.02654 28 15C28 20.9735 30.8479 26.3353 35 30H15C6.71573 30 0 23.2843 0 15C0 6.71573 6.71573 0 15 0H35Z" fill="#00D254"/>
<path d="M12.25 15L15.9167 11.3333M12.25 15L15.9167 18.6667M12.25 15H21.4167M16.8334 23.25C15.7499 23.25 14.6772 23.0366 13.6762 22.622C12.6753 22.2074 11.7658 21.5997 10.9997 20.8336C10.2336 20.0675 9.62595 19.1581 9.21135 18.1571C8.79675 17.1562 8.58336 16.0834 8.58336 15C8.58336 13.9166 8.79675 12.8438 9.21135 11.8429C9.62595 10.8419 10.2336 9.93245 10.9997 9.16637C11.7658 8.40029 12.6753 7.7926 13.6762 7.37799C14.6772 6.96339 15.7499 6.75 16.8334 6.75" stroke="white" stroke-width="1.5" stroke-linecap="round" stroke-linejoin="round"/>
</svg>
