<svg width="18" height="18" viewBox="0 0 18 18" fill="none" xmlns="http://www.w3.org/2000/svg">
<path opacity="0.6" d="M16.8582 8.55831C16.9534 9.09525 17.0008 9.63928 17 10.1843C17 12.6182 16.1125 14.6761 14.568 16.0691H14.57C13.2193 17.292 11.3627 18 9.16118 18C6.9967 18 4.92087 17.1572 3.39035 15.6569C1.85984 14.1567 1 12.1219 1 10.0003C1 7.8786 1.85984 5.84384 3.39035 4.3436C4.92087 2.84335 6.9967 2.00053 9.16118 2.00053C11.1871 1.97727 13.1437 2.72334 14.621 4.08246L12.291 6.36638C11.4487 5.57938 10.3247 5.14842 9.16118 5.16642C7.03213 5.16642 5.22341 6.57438 4.57868 8.47031C4.23683 9.46379 4.23683 10.5397 4.57868 11.5332H4.58174C5.22953 13.4262 7.03519 14.8341 9.16424 14.8341C10.264 14.8341 11.2086 14.5581 11.9411 14.0701H11.938C12.3633 13.7939 12.7271 13.4362 13.0075 13.0183C13.2879 12.6005 13.4789 12.1314 13.5692 11.6392H9.16118V8.55931L16.8582 8.55831Z" fill="#6E6D79"/>
</svg>
