<svg width="18" height="18" viewBox="0 0 18 18" fill="none" xmlns="http://www.w3.org/2000/svg">
<path opacity="0.6" d="M5.65425 16.875C12.447 16.875 16.1629 11.2466 16.1629 6.37425C16.1629 6.21675 16.1629 6.057 16.1561 5.8995C16.8796 5.3758 17.5039 4.72742 18 3.98475C17.3242 4.28271 16.6081 4.47908 15.8749 4.5675C16.6472 4.10584 17.2257 3.37946 17.5028 2.52337C16.7771 2.95326 15.9829 3.25504 15.1549 3.4155C14.5982 2.82265 13.8616 2.42991 13.0591 2.2981C12.2566 2.1663 11.4331 2.30279 10.716 2.68643C9.99895 3.07007 9.42841 3.67946 9.09276 4.42019C8.7571 5.16093 8.67508 5.99167 8.85938 6.78375C7.39096 6.71012 5.95442 6.32865 4.64292 5.66409C3.33143 4.99952 2.17427 4.0667 1.2465 2.92612C0.775508 3.73959 0.63177 4.70183 0.844477 5.61742C1.05718 6.53302 1.61039 7.33335 2.39175 7.85587C1.80623 7.83598 1.23359 7.67875 0.72 7.39687V7.4475C0.72101 8.29967 1.01622 9.12535 1.55573 9.78498C2.09525 10.4446 2.84597 10.8977 3.681 11.0677C3.36405 11.1551 3.03663 11.1986 2.70788 11.1971C2.47611 11.1978 2.2448 11.1764 2.01712 11.133C2.25313 11.8666 2.71268 12.5079 3.3314 12.9673C3.95012 13.4266 4.69703 13.681 5.4675 13.6946C4.15862 14.7226 2.54183 15.2802 0.8775 15.2775C0.584236 15.2787 0.291176 15.2618 0 15.2269C1.6892 16.3038 3.65096 16.8756 5.65425 16.875Z" fill="#6E6D79"/>
</svg>
