<svg width="37" height="29" viewBox="0 0 37 29" fill="none" xmlns="http://www.w3.org/2000/svg">
<path opacity="0.65" d="M4.104 5.84403C4.944 5.84403 5.66 6.15203 6.252 6.76803C6.844 7.37603 7.14 8.12003 7.14 9.00003C7.14 9.88003 6.844 10.628 6.252 11.244C5.66 11.852 4.944 12.156 4.104 12.156C3.112 12.156 2.356 11.76 1.836 10.968V12H0.792V3.60003H1.836V7.03203C2.356 6.24003 3.112 5.84403 4.104 5.84403ZM3.972 11.148C4.572 11.148 5.076 10.944 5.484 10.536C5.892 10.12 6.096 9.60803 6.096 9.00003C6.096 8.39203 5.892 7.88403 5.484 7.47603C5.076 7.06003 4.572 6.85203 3.972 6.85203C3.364 6.85203 2.856 7.06003 2.448 7.47603C2.04 7.88403 1.836 8.39203 1.836 9.00003C1.836 9.60803 2.04 10.12 2.448 10.536C2.856 10.944 3.364 11.148 3.972 11.148ZM12.3394 6.00003H13.4554L11.0074 12.372C10.7514 13.052 10.3914 13.568 9.92738 13.92C9.47138 14.28 8.94338 14.44 8.34338 14.4V13.428C9.07938 13.484 9.61938 13.076 9.96338 12.204L10.0714 11.976L7.45538 6.00003H8.57138L10.6114 10.704L12.3394 6.00003Z" fill="#202020"/>
<path fill-rule="evenodd" clip-rule="evenodd" d="M16.618 24.9925C16.618 24.9925 16.8089 26.0796 17.9522 27.0284L17.9504 27.0301C15.9809 26.4607 14.6503 24.3104 14.5065 21.0824C14.4236 19.2183 15.509 15.8592 17.0459 14.6256C16.3927 16.1629 16.3169 19.1002 16.3169 19.1002C18.6602 13.8104 22.8403 11.2087 28.6136 10.8713C26.7047 4.90051 20.2397 4.37033 17.9588 3.93288C23.7945 2.45084 30.9934 5.49367 34.1693 11.553C34.368 11.9321 34.4784 12.0972 34.7112 12.872C34.8976 13.4516 35.028 14.0477 35.1005 14.6521C35.2621 15.949 35.1001 17.0431 34.3671 18.7455C34.3551 18.5733 34.3454 18.3981 34.3356 18.2224C34.2823 17.2628 33.5754 15.3468 33.1512 14.7895C33.1371 14.8165 32.999 18.7782 30.4233 20.7468C28.5461 22.464 26.8336 23.1444 25.0408 22.826C28.1014 21.4007 30.8279 16.7175 29.8535 14.5582C25.4327 13.1062 17.7609 18.1144 17.8958 22.3656C22.5458 26.8221 29.3316 25.9302 35.1045 20.8564C30.3597 29.4645 19.436 28.4338 16.618 24.9925ZM20.4039 21.99C20.3794 19.4908 24.5185 16.3582 27.5281 16.9899L27.5263 16.9898C27.1042 18.4284 26.4197 19.6237 25.3069 20.4644C25.003 20.6939 24.3029 21.2005 23.0772 21.5819C21.8516 21.9633 20.7828 22.1251 20.4039 21.99Z" fill="#202020"/>
</svg>
