<svg width="37" height="29" viewBox="0 0 37 29" fill="none" xmlns="http://www.w3.org/2000/svg">
<path opacity="0.65" d="M4.104 5.844C4.944 5.844 5.66 6.152 6.252 6.768C6.844 7.376 7.14 8.12 7.14 9C7.14 9.88 6.844 10.628 6.252 11.244C5.66 11.852 4.944 12.156 4.104 12.156C3.112 12.156 2.356 11.76 1.836 10.968V12H0.792V3.6H1.836V7.032C2.356 6.24 3.112 5.844 4.104 5.844ZM3.972 11.148C4.572 11.148 5.076 10.944 5.484 10.536C5.892 10.12 6.096 9.608 6.096 9C6.096 8.392 5.892 7.884 5.484 7.476C5.076 7.06 4.572 6.852 3.972 6.852C3.364 6.852 2.856 7.06 2.448 7.476C2.04 7.884 1.836 8.392 1.836 9C1.836 9.608 2.04 10.12 2.448 10.536C2.856 10.944 3.364 11.148 3.972 11.148ZM12.3394 6H13.4554L11.0074 12.372C10.7514 13.052 10.3914 13.568 9.92738 13.92C9.47138 14.28 8.94338 14.44 8.34338 14.4V13.428C9.07938 13.484 9.61938 13.076 9.96338 12.204L10.0714 11.976L7.45538 6H8.57138L10.6114 10.704L12.3394 6Z" fill="white"/>
<path fill-rule="evenodd" clip-rule="evenodd" d="M16.6177 24.992C16.6177 24.992 16.8086 26.0791 17.952 27.0279L17.9502 27.0296C15.9806 26.4602 14.6501 24.3099 14.5063 21.0819C14.4233 19.2178 15.5087 15.8587 17.0456 14.6251C16.3925 16.1623 16.3166 19.0997 16.3166 19.0997C18.66 13.8099 22.8401 11.2082 28.6133 10.8708C26.7045 4.89999 20.2395 4.36981 17.9585 3.93236C23.7942 2.45032 30.9931 5.49315 34.1691 11.5524C34.3678 11.9316 34.4781 12.0967 34.7109 12.8715C34.8973 13.4511 35.0277 14.0472 35.1003 14.6516C35.2619 15.9485 35.0998 17.0426 34.3668 18.7449C34.3549 18.5728 34.3451 18.3976 34.3354 18.2219C34.2821 17.2623 33.5751 15.3463 33.1509 14.789C33.1369 14.816 32.9988 18.7777 30.4231 20.7463C28.5459 22.4635 26.8333 23.1439 25.0405 22.8255C28.1011 21.4001 30.8277 16.717 29.8533 14.5577C25.4324 13.1057 17.7607 18.1139 17.8955 22.3651C22.5456 26.8216 29.3314 25.9296 35.1042 20.8559C30.3595 29.464 19.4357 28.4333 16.6177 24.992ZM20.4037 21.9895C20.3792 19.4902 24.5182 16.3577 27.5278 16.9894L27.5261 16.9893C27.104 18.4278 26.4194 19.6232 25.3066 20.4638C25.0028 20.6933 24.3027 21.2 23.077 21.5814C21.8513 21.9628 20.7825 22.1245 20.4037 21.9895Z" fill="white"/>
</svg>
