<svg width="24" height="24" viewBox="0 0 24 24" fill="none" xmlns="http://www.w3.org/2000/svg">
<path opacity="0.4" d="M15.3092 12C15.3092 13.8242 13.8242 15.3092 12 15.3092C10.1758 15.3092 8.69083 13.8242 8.69083 12C8.69083 10.1758 10.1758 8.69083 12 8.69083C13.8242 8.69083 15.3092 10.1758 15.3092 12ZM12 1C5.93442 1 1 5.93442 1 12C1 18.0656 5.93442 23 12 23C14.222 23 16.3643 22.3382 18.1967 21.0869L18.2278 21.0649L16.7456 19.3425L16.7208 19.3581C15.3134 20.2649 13.6743 20.7464 12 20.745C7.17833 20.745 3.255 16.8217 3.255 12C3.255 7.17833 7.17833 3.255 12 3.255C16.8217 3.255 20.745 7.17833 20.745 12C20.7437 12.632 20.6746 13.262 20.5388 13.8792C20.2628 15.0149 19.4672 15.3623 18.8704 15.3165C18.2709 15.2679 17.5688 14.8398 17.5633 13.7939V12C17.5618 10.5249 16.9752 9.11061 15.9323 8.06747C14.8893 7.02433 13.4751 6.43753 12 6.43583C10.5247 6.43729 9.11032 7.02398 8.06715 8.06715C7.02398 9.11032 6.43729 10.5247 6.43583 12C6.43729 13.4753 7.02398 14.8897 8.06715 15.9329C9.11032 16.976 10.5247 17.5627 12 17.5642C12.7332 17.5659 13.4594 17.4216 14.1362 17.1396C14.8129 16.8575 15.4267 16.4434 15.9417 15.9215C16.2671 16.4326 16.7172 16.8526 17.2495 17.142C17.7819 17.4314 18.3791 17.5808 18.985 17.5761C19.7862 17.5761 20.58 17.3084 21.2189 16.8235C21.878 16.3221 22.3703 15.5988 22.6425 14.7289C22.6856 14.5878 22.7663 14.2669 22.7663 14.2642L22.7681 14.2522C22.9285 13.5556 23 12.8589 23 12C23 5.93442 18.0656 1 12 1" fill="black"/>
</svg>
