<svg width="18" height="18" viewBox="0 0 18 18" fill="none" xmlns="http://www.w3.org/2000/svg">
<path opacity="0.75" d="M8.99999 2C4.6 2 1 5.38102 1 9.54518C1 13.3102 3.928 16.4352 7.75199 17V11.7289H5.71999V9.54518H7.75199V7.88102C7.75199 5.99096 8.94399 4.95181 10.776 4.95181C11.648 4.95181 12.56 5.09488 12.56 5.09488V6.95482H11.552C10.56 6.95482 10.248 7.53464 10.248 8.12952V9.54518H12.472L12.112 11.7289H10.248V17C12.1331 16.7198 13.8497 15.8144 15.0879 14.4473C16.3261 13.0803 17.0043 11.3416 17 9.54518C17 5.38102 13.4 2 8.99999 2Z" fill="#1877F2"/>
</svg>
