<svg width="285" height="285" viewBox="0 0 285 285" fill="none" xmlns="http://www.w3.org/2000/svg">
<path opacity="0.07" fill-rule="evenodd" clip-rule="evenodd" d="M142.5 277C68.2177 277 8 216.782 8 142.5C8 68.2177 68.2177 8 142.5 8C216.782 8 277 68.2177 277 142.5C277 216.782 216.782 277 142.5 277ZM142.5 285C63.7994 285 0 221.201 0 142.5C0 63.7994 63.7994 0 142.5 0C221.201 0 285 63.7994 285 142.5C285 221.201 221.201 285 142.5 285Z" fill="black"/>
<circle opacity="0.05" cx="143" cy="143" r="75" fill="#202020"/>
<circle cx="143" cy="143" r="57" fill="#202020"/>
<path fill-rule="evenodd" clip-rule="evenodd" d="M147.696 115.704C149.617 115.704 151.519 116.092 153.283 116.845C155.047 117.599 156.637 118.701 157.954 120.085C159.272 121.468 160.289 123.104 160.943 124.891C161.598 126.677 161.876 128.578 161.76 130.475H161.785L161.782 134.274C164.995 134.274 168.086 135.494 170.415 137.684C172.743 139.873 174.132 142.864 174.294 146.038L174.309 146.658C174.307 149.834 173.071 152.888 170.856 155.188C168.642 157.489 165.619 158.86 162.411 159.019L161.785 159.035H161.782L161.785 159.056H146.127V146.908H153.842L142.999 134.293L132.185 146.912H139.868L139.865 159.056H124.213C120.892 159.048 117.709 157.738 115.361 155.414C113.014 153.089 111.694 149.94 111.689 146.655C111.69 143.801 112.687 141.035 114.511 138.825C116.336 136.614 118.876 135.094 121.702 134.522C121.007 132.726 120.893 130.761 121.375 128.898C121.857 127.035 122.911 125.366 124.393 124.121C125.875 122.876 127.711 122.117 129.648 121.948C131.585 121.778 133.527 122.208 135.206 123.176C136.399 120.921 138.194 119.032 140.396 117.715C142.598 116.398 145.122 115.702 147.696 115.704Z" fill="white"/>
</svg>
