<svg width="24" height="24" viewBox="0 0 24 24" fill="none" xmlns="http://www.w3.org/2000/svg">
<g clip-path="url(#clip0_260_1243)">
<path d="M7.952 12.1781C12.2613 12.1781 15.7707 11.0712 16 9.67176V6.014C15.7707 7.41349 12.2667 8.52036 7.952 8.52036C5.84996 8.56881 3.75373 8.24073 1.73333 7.54707V6.27481C3.75428 6.96417 5.8505 7.28796 7.952 7.23537C12.2667 7.24809 15.744 6.14122 16 4.75445C15.8933 2.58524 10.944 2 8 2C5.056 2 0 2.5916 0 4.81807V19.1819C0 21.402 5.02933 22 8 22C10.9707 22 16 21.4084 16 19.1819V15.874C15.7707 17.2672 12.2667 18.3613 7.952 18.3613C5.85131 18.4201 3.7551 18.1028 1.73333 17.4198V16.1476C3.7551 16.8305 5.85131 17.1479 7.952 17.0891C12.2667 17.0891 15.7707 15.9949 16 14.6018V10.944C15.7707 12.3435 12.2667 13.4504 7.952 13.4504C5.8505 13.503 3.75428 13.1792 1.73333 12.4898V11.2176C3.75428 11.9069 5.8505 12.2307 7.952 12.1781Z" fill="#474747"/>
</g>
<defs>
<clipPath id="clip0_260_1243">
<rect width="24" height="24" fill="white"/>
</clipPath>
</defs>
</svg>
