<svg width="20" height="25" viewBox="0 0 20 25" fill="none" xmlns="http://www.w3.org/2000/svg">
<path d="M18.4324 11.0715C17.9016 9.87668 17.1299 8.80432 16.1656 7.92145L15.3699 7.19137C15.3429 7.16726 15.3104 7.15016 15.2752 7.14155C15.24 7.13294 15.2033 7.1331 15.1682 7.14201C15.1331 7.15092 15.1007 7.1683 15.0739 7.19264C15.0471 7.21698 15.0267 7.24753 15.0145 7.28161L14.659 8.30153C14.4375 8.94137 14.0301 9.59489 13.4531 10.2375C13.4148 10.2785 13.3711 10.2894 13.341 10.2922C13.3109 10.2949 13.2645 10.2894 13.2234 10.2511C13.1852 10.2183 13.166 10.1691 13.1687 10.1199C13.2699 8.4738 12.7777 6.61715 11.7004 4.59645C10.809 2.91755 9.57031 1.60778 8.02266 0.694499L6.89336 0.0300457C6.7457 -0.0574543 6.55703 0.0573893 6.56524 0.229655L6.62539 1.54216C6.66641 2.43903 6.5625 3.232 6.31641 3.89098C6.01563 4.69762 5.58359 5.44684 5.03125 6.1195C4.64686 6.58698 4.21119 7.00981 3.73242 7.38005C2.57935 8.26644 1.64176 9.40221 0.989844 10.7023C0.339538 12.0138 0.000793409 13.4576 0 14.9215C0 16.2121 0.254297 17.4617 0.757422 18.6402C1.24323 19.7749 1.9443 20.8047 2.82188 21.6726C3.70781 22.5476 4.73594 23.2367 5.88164 23.7152C7.06836 24.2129 8.32617 24.4644 9.625 24.4644C10.9238 24.4644 12.1816 24.2129 13.3684 23.7179C14.5112 23.2422 15.5505 22.5484 16.4281 21.6754C17.3141 20.8004 18.0086 19.7777 18.4926 18.6429C18.9949 17.4676 19.2527 16.2023 19.25 14.9242C19.25 13.5898 18.9766 12.2937 18.4324 11.0715Z" fill="#F53B00"/>
</svg>
