<svg width="18" height="18" viewBox="0 0 18 18" fill="none" xmlns="http://www.w3.org/2000/svg">
<path d="M16.5995 10.1462C16.5995 9.49093 16.5464 9.01278 16.4313 8.51694H8.94922V11.4743H13.341C13.2525 12.2093 12.7744 13.3161 11.7118 14.0598L11.6969 14.1588L14.0626 15.9915L14.2265 16.0079C15.7318 14.6177 16.5995 12.5723 16.5995 10.1462Z" fill="#4285F4"/>
<path d="M8.94915 17.9382C11.1008 17.9382 12.9071 17.2298 14.2264 16.0079L11.7117 14.0598C11.0388 14.5291 10.1356 14.8567 8.94915 14.8567C6.84178 14.8567 5.05318 13.4666 4.41559 11.5452L4.32213 11.5531L1.86225 13.4569L1.83008 13.5463C3.14054 16.1495 5.83232 17.9382 8.94915 17.9382Z" fill="#34A853"/>
<path d="M4.416 11.5452C4.24776 11.0494 4.1504 10.518 4.1504 9.96909C4.1504 9.42007 4.24776 8.88882 4.40714 8.39297L4.40269 8.28737L1.91198 6.35306L1.83048 6.39182C1.29038 7.47209 0.980469 8.68518 0.980469 9.96909C0.980469 11.253 1.29038 12.466 1.83048 13.5463L4.416 11.5452Z" fill="#FBBC05"/>
<path d="M8.94915 5.08136C10.4455 5.08136 11.4549 5.72774 12.0305 6.2679L14.2796 4.07196C12.8983 2.78806 11.1008 2 8.94915 2C5.83232 2 3.14054 3.7886 1.83008 6.39182L4.40674 8.39297C5.05318 6.47154 6.84178 5.08136 8.94915 5.08136Z" fill="#EB4335"/>
</svg>
