<svg
              width="786"
              height="528"
              viewBox="0 0 786 528"
              fill="none"
              xmlns="http://www.w3.org/2000/svg"
            >
              <path
                d="M29 33L529 502.5"
                stroke="#00D254"
                stroke-dasharray="2 2"
              />
              <path
                d="M262 33L762 502.5"
                stroke="#00D254"
                stroke-dasharray="2 2"
              />
              <path
                d="M762 33L262 502.5"
                stroke="#00D254"
                stroke-dasharray="2 2"
              />
              <path
                d="M523 33L23 502.5"
                stroke="#00D254"
                stroke-dasharray="2 2"
              />
              <path
                d="M269 294C285.569 294 299 280.569 299 264C299 247.431 285.569 234 269 234C252.431 234 239 247.431 239 264C239 280.569 252.431 294 269 294Z"
                fill="#DDF3E6"
              />
              <!-- linkedin -->
              <g class="linkedin">
                <path
                  d="M261.504 250.4C261.504 251.249 261.166 252.063 260.566 252.662C259.965 253.262 259.151 253.599 258.302 253.598C257.454 253.598 256.64 253.261 256.04 252.66C255.44 252.06 255.104 251.246 255.104 250.397C255.104 249.548 255.442 248.734 256.042 248.135C256.643 247.535 257.457 247.198 258.306 247.198C259.154 247.199 259.968 247.536 260.568 248.137C261.168 248.737 261.504 249.551 261.504 250.4ZM261.6 255.968H255.2V276H261.6V255.968ZM271.712 255.968H265.344V276H271.648V265.488C271.648 259.632 279.28 259.088 279.28 265.488V276H285.6V263.312C285.6 253.44 274.304 253.808 271.648 258.656L271.712 255.968Z"
                  fill="#00D254"
                />
              </g>
              <path
                d="M517 294C533.569 294 547 280.569 547 264C547 247.431 533.569 234 517 234C500.431 234 487 247.431 487 264C487 280.569 500.431 294 517 294Z"
                fill="#DDF3E6"
              />

              <!-- google-tag -->

              <g class="google-tag">
                <path
                  d="M520.339 281.627L513.674 275.127L527.988 260.509L534.889 267.273L520.339 281.627Z"
                  fill="#85E6AC"
                />
                <path
                  d="M520.367 252.89L513.726 246.11L499.204 260.494C497.332 262.366 497.332 265.401 499.204 267.275L513.508 281.673L520.271 275.345L509.373 263.885L520.367 252.89H520.367Z"
                  fill="#00D254"
                />
                <path
                  d="M534.793 260.605L520.393 246.205C518.519 244.331 515.48 244.331 513.606 246.205C511.732 248.08 511.732 251.119 513.606 252.993L528.006 267.393C529.88 269.267 532.919 269.267 534.793 267.393C536.667 265.519 536.667 262.479 534.793 260.605V260.605Z"
                  fill="#85E6AC"
                />
                <path
                  d="M516.889 283.2C519.48 283.2 521.58 281.1 521.58 278.509C521.58 275.918 519.48 273.818 516.889 273.818C514.299 273.818 512.198 275.918 512.198 278.509C512.198 281.1 514.299 283.2 516.889 283.2Z"
                  fill="#00A642"
                />
              </g>

              <path
                d="M259 60C275.569 60 289 46.5685 289 30C289 13.4315 275.569 0 259 0C242.431 0 229 13.4315 229 30C229 46.5685 242.431 60 259 60Z"
                fill="#DDF3E6"
              />

              <!-- SLACK -->
              <g class="slack">
                <path
                  d="M247.555 35.2336C247.555 37.5352 245.695 39.3955 243.393 39.3955C241.092 39.3955 239.231 37.5352 239.231 35.2336C239.231 32.9321 241.092 31.072 243.393 31.072H247.555V35.2337L247.555 35.2336ZM249.636 35.2336C249.636 32.9321 251.496 31.072 253.798 31.072C256.099 31.072 257.959 32.9321 257.959 35.2337V45.6381C257.959 47.9397 256.099 49.8 253.798 49.8C251.496 49.8 249.636 47.9397 249.636 45.6381V35.2337V35.2336Z"
                  fill="#00D254"
                />
                <path
                  d="M253.798 18.5235C251.496 18.5235 249.636 16.6634 249.636 14.3618C249.636 12.0601 251.496 10.2 253.798 10.2C256.099 10.2 257.959 12.0601 257.959 14.3618V18.5237H253.798L253.798 18.5235ZM253.798 20.636C256.099 20.636 257.959 22.4961 257.959 24.7978C257.959 27.0994 256.099 28.9595 253.798 28.9595H243.362C241.06 28.9595 239.2 27.0994 239.2 24.7976C239.2 22.4963 241.06 20.636 243.362 20.636H253.798H253.798Z"
                  fill="#00D254"
                />
                <path
                  d="M270.477 24.7978C270.477 22.4961 272.337 20.6358 274.638 20.6358C276.94 20.6358 278.8 22.4961 278.8 24.7978C278.8 27.0994 276.94 28.9595 274.638 28.9595H270.477V24.7976V24.7978ZM268.396 24.7978C268.396 27.0994 266.535 28.9595 264.234 28.9595C261.932 28.9595 260.072 27.0994 260.072 24.7976V14.3619C260.072 12.0601 261.932 10.2 264.234 10.2C266.535 10.2 268.395 12.0601 268.395 14.3618V24.7976L268.396 24.7978Z"
                  fill="#00D254"
                />
                <path
                  d="M264.234 41.4765C266.535 41.4765 268.396 43.3366 268.396 45.6381C268.396 47.9397 266.535 49.8 264.234 49.8C261.932 49.8 260.072 47.9397 260.072 45.6381V41.4765H264.234H264.234ZM264.234 39.3955C261.932 39.3955 260.072 37.5352 260.072 35.2336C260.072 32.9321 261.932 31.072 264.234 31.072H274.67C276.971 31.072 278.832 32.9321 278.832 35.2337C278.832 37.5352 276.971 39.3955 274.67 39.3955H264.234H264.234Z"
                  fill="#00D254"
                />
              </g>
              <path
                d="M756 60C772.569 60 786 46.5685 786 30C786 13.4315 772.569 0 756 0C739.431 0 726 13.4315 726 30C726 46.5685 739.431 60 756 60Z"
                fill="#DDF3E6"
              />

              <!-- google-analytic -->
              <g class="google-analytic">
                <path
                  opacity="0.4"
                  d="M772.204 43.345C772.208 44.0003 772.072 44.6487 771.806 45.2474C771.54 45.8461 771.149 46.3814 770.66 46.8179C770.172 47.2543 769.596 47.5818 768.971 47.7788C768.346 47.9758 767.686 48.0377 767.036 47.9605C764.667 47.61 762.932 45.549 762.989 43.1554V15.6364C762.932 13.2402 764.672 11.178 767.044 10.8314C767.694 10.7553 768.352 10.818 768.976 11.0155C769.6 11.2131 770.175 11.5408 770.663 11.9771C771.151 12.4134 771.541 12.9482 771.806 13.5464C772.072 14.1445 772.208 14.7922 772.204 15.4467V43.345Z"
                  fill="#00D254"
                />
                <path
                  d="M743.208 38.785C745.752 38.785 747.815 40.8479 747.815 43.3925C747.815 45.9372 745.752 48.0001 743.208 48.0001C740.663 48.0001 738.6 45.9372 738.6 43.3927C738.6 40.8479 740.663 38.785 743.208 38.785ZM755.331 24.82C752.774 24.9601 750.791 27.1048 750.85 29.6647V42.0411C750.85 45.4 752.328 47.4391 754.493 47.8737C755.165 48.0098 755.858 47.9947 756.523 47.8296C757.187 47.6645 757.807 47.3535 758.337 46.9192C758.866 46.4849 759.293 45.9381 759.585 45.3185C759.877 44.6989 760.028 44.0221 760.026 43.3371V29.4514C760.027 28.8376 759.906 28.2296 759.669 27.6631C759.433 27.0965 759.086 26.5827 758.649 26.1516C758.212 25.7205 757.694 25.3807 757.124 25.1521C756.554 24.9235 755.945 24.8106 755.331 24.8201V24.82Z"
                  fill="#00D254"
                />
              </g>

              <path
                d="M30 60C46.5685 60 60 46.5685 60 30C60 13.4315 46.5685 0 30 0C13.4315 0 0 13.4315 0 30C0 46.5685 13.4315 60 30 60Z"
                fill="#DDF3E6"
              />

              <!-- adroll -->
              <g class="adroll">
                <path
                  d="M46.2 29.968C46.2 21.7041 39.7001 15 31.232 15C25.6053 15 20.7209 18.0827 18.1583 22.6696L25.4567 29.968C25.4567 26.7737 28.1493 24.1924 31.232 24.1924C34.5005 24.1924 37.0075 26.7737 37.0075 29.968C37.0075 33.1623 34.4819 35.7436 31.232 35.7436H18.7896C15.7069 35.7436 13.2 38.2505 13.2 41.3332V44.936H31.232C39.6445 44.936 46.2 38.2319 46.2 29.968Z"
                  fill="#00D254"
                />
              </g>
              <path
                d="M527 60C543.569 60 557 46.5685 557 30C557 13.4315 543.569 0 527 0C510.431 0 497 13.4315 497 30C497 46.5685 510.431 60 527 60Z"
                fill="#DDF3E6"
              />

              <!-- twiter -->
              <g class="twiter">
                <path
                  d="M545.6 19.6417C544.275 20.244 542.847 20.6398 541.367 20.8291C542.881 19.917 544.051 18.4715 544.602 16.7335C543.174 17.5939 541.591 18.1962 539.921 18.5403C538.562 17.0604 536.652 16.2 534.483 16.2C530.439 16.2 527.135 19.504 527.135 23.5824C527.135 24.1675 527.204 24.7354 527.325 25.2688C521.199 24.9591 515.744 22.0164 512.113 17.5595C511.476 18.6436 511.114 19.917 511.114 21.2593C511.114 23.8233 512.405 26.0948 514.401 27.3855C513.179 27.3855 512.044 27.0413 511.046 26.525V26.5767C511.046 30.156 513.592 33.1503 516.965 33.8214C515.882 34.1178 514.746 34.159 513.644 33.9419C514.111 35.4089 515.027 36.6925 516.262 37.6123C517.496 38.5321 518.988 39.0419 520.527 39.07C517.918 41.1357 514.683 42.2524 511.355 42.2363C510.77 42.2363 510.185 42.2019 509.6 42.1331C512.87 44.2325 516.759 45.4543 520.923 45.4543C534.483 45.4543 541.935 34.2 541.935 24.4428C541.935 24.1159 541.935 23.8061 541.917 23.4792C543.363 22.4467 544.602 21.1388 545.6 19.6417Z"
                  fill="#00D254"
                />
              </g>
              <path
                d="M144 410C160.569 410 174 396.569 174 380C174 363.431 160.569 350 144 350C127.431 350 114 363.431 114 380C114 396.569 127.431 410 144 410Z"
                fill="#DDF3E6"
              />
              <!-- tiktok -->
              <g class="tiktok">
                <path
                  opacity="0.4"
                  d="M151.185 374.662C153.664 376.433 156.702 377.475 159.982 377.475V371.166C159.361 371.166 158.742 371.101 158.135 370.973V375.939C154.854 375.939 151.817 374.897 149.337 373.126V386.001C149.337 392.443 144.113 397.664 137.669 397.664C135.264 397.664 133.03 396.937 131.173 395.691C133.292 397.857 136.247 399.2 139.516 399.2C145.961 399.2 151.185 393.979 151.185 387.537V374.662H151.185ZM153.464 368.296C152.197 366.912 151.365 365.124 151.185 363.147V362.336H149.434C149.875 364.849 151.378 366.995 153.464 368.296H153.464ZM135.249 390.749C134.541 389.821 134.158 388.686 134.16 387.519C134.16 384.573 136.55 382.184 139.498 382.184C140.047 382.184 140.593 382.268 141.117 382.434V375.984C140.505 375.9 139.887 375.864 139.27 375.877V380.898C138.746 380.732 138.2 380.648 137.65 380.648C134.702 380.648 132.313 383.037 132.313 385.983C132.313 388.066 133.507 389.87 135.249 390.749Z"
                  fill="#00D254"
                />
                <path
                  d="M149.337 373.125C151.817 374.897 154.854 375.939 158.135 375.939V370.973C156.303 370.583 154.683 369.626 153.464 368.296C151.378 366.995 149.875 364.848 149.434 362.336H144.835V387.537C144.825 390.475 142.439 392.854 139.497 392.854C137.764 392.854 136.224 392.028 135.249 390.748C133.507 389.87 132.312 388.066 132.312 385.983C132.312 383.037 134.702 380.648 137.65 380.648C138.215 380.648 138.759 380.736 139.27 380.898V375.877C132.939 376.008 127.847 381.178 127.847 387.537C127.847 390.711 129.115 393.589 131.173 395.692C133.03 396.937 135.264 397.664 137.669 397.664C144.113 397.664 149.337 392.443 149.337 386.001V373.126H149.337V373.125Z"
                  fill="#00D254"
                />
                <path
                  opacity="0.4"
                  d="M158.135 370.972V369.63C156.483 369.632 154.865 369.17 153.464 368.296C154.704 369.653 156.337 370.589 158.135 370.973V370.972ZM149.434 362.336C149.392 362.096 149.36 361.854 149.337 361.611V360.8H142.987V386.001C142.977 388.939 140.592 391.318 137.65 391.318C136.816 391.319 135.993 391.124 135.248 390.749C136.224 392.028 137.764 392.854 139.497 392.854C142.439 392.854 144.825 390.475 144.835 387.537V362.336H149.434V362.336ZM139.27 375.877V374.448C138.74 374.375 138.205 374.339 137.669 374.339C131.224 374.339 126 379.561 126 386.001C126 390.039 128.053 393.598 131.173 395.691C129.115 393.589 127.848 390.711 127.848 387.537C127.848 381.178 132.939 376.008 139.27 375.877V375.877Z"
                  fill="#00D254"
                />
              </g>

              <!-- facebook -->

              <g class="facebook">
                <path
                  d="M642 410C658.569 410 672 396.569 672 380C672 363.431 658.569 350 642 350C625.431 350 612 363.431 612 380C612 396.569 625.431 410 642 410Z"
                  fill="#00D254"
                />
                <path
                  d="M672 380.075C672 363.474 658.56 350 642 350C625.44 350 612 363.474 612 380.075C612 394.632 622.32 406.752 636 409.549V389.098H630V380.075H636V372.556C636 366.752 640.71 362.03 646.5 362.03H654V371.053H648C646.35 371.053 645 372.406 645 374.06V380.075H654V389.098H645V410C660.15 408.496 672 395.684 672 380.075Z"
                  fill="#DDF3E6"
                />
              </g>

              <path
                d="M393 410C409.569 410 423 396.569 423 380C423 363.431 409.569 350 393 350C376.431 350 363 363.431 363 380C363 396.569 376.431 410 393 410Z"
                fill="#DDF3E6"
              />

              <!-- shortcuts -->

              <g class="shortcuts">
                <path
                  d="M409.905 390.08L398.035 399.69C396.611 400.844 394.833 401.473 393 401.473C391.167 401.473 389.39 400.844 387.965 399.69L376.095 390.08C375.631 389.705 375.258 389.231 375.001 388.693C374.744 388.155 374.611 387.566 374.611 386.97C374.611 386.374 374.744 385.785 375.001 385.247C375.258 384.709 375.631 384.235 376.095 383.86L387.965 374.245C389.39 373.091 391.167 372.462 393 372.462C394.833 372.462 396.611 373.091 398.035 374.245L409.905 383.86C410.369 384.235 410.743 384.709 410.999 385.247C411.256 385.785 411.39 386.374 411.39 386.97C411.39 387.566 411.256 388.155 410.999 388.693C410.743 389.231 410.369 389.705 409.905 390.08Z"
                  fill="url(#paint0_radial_121_453)"
                />
                <path
                  d="M376.095 383.86L387.965 374.245C389.39 373.091 391.167 372.462 393 372.462C394.833 372.462 396.611 373.091 398.035 374.245L409.905 383.86C410.369 384.235 410.743 384.709 410.999 385.247C411.256 385.785 411.39 386.374 411.39 386.97C411.39 387.566 411.256 388.155 410.999 388.693C410.743 389.231 410.369 389.705 409.905 390.08L398.035 399.69C396.611 400.844 394.833 401.473 393 401.473C391.167 401.473 389.39 400.844 387.965 399.69L376.095 390.08C375.631 389.705 375.258 389.231 375.001 388.693C374.744 388.155 374.611 387.566 374.611 386.97C374.611 386.374 374.744 385.785 375.001 385.247C375.258 384.709 375.631 384.235 376.095 383.86Z"
                  fill="url(#paint1_radial_121_453)"
                />
                <path
                  d="M376.095 369.36L387.965 359.745C389.39 358.591 391.167 357.962 393 357.962C394.833 357.962 396.611 358.591 398.035 359.745L409.905 369.36C410.369 369.735 410.743 370.209 410.999 370.747C411.256 371.285 411.39 371.874 411.39 372.47C411.39 373.066 411.256 373.655 410.999 374.193C410.743 374.731 410.369 375.205 409.905 375.58L398.035 385.19C396.611 386.344 394.833 386.973 393 386.973C391.167 386.973 389.39 386.344 387.965 385.19L376.095 375.58C375.631 375.205 375.258 374.731 375.001 374.193C374.744 373.655 374.611 373.066 374.611 372.47C374.611 371.874 374.744 371.285 375.001 370.747C375.258 370.209 375.631 369.735 376.095 369.36Z"
                  fill="url(#paint2_radial_121_453)"
                />
                <path
                  d="M409.905 375.58L398.035 385.19C396.611 386.344 394.833 386.973 393 386.973C391.167 386.973 389.39 386.344 387.965 385.19L376.095 375.58C375.631 375.205 375.258 374.731 375.001 374.193C374.744 373.655 374.611 373.066 374.611 372.47C374.611 371.874 374.744 371.285 375.001 370.747C375.258 370.209 375.631 369.735 376.095 369.36L387.965 359.745C389.39 358.591 391.167 357.962 393 357.962C394.833 357.962 396.611 358.591 398.035 359.745L409.905 369.36C410.369 369.735 410.743 370.209 410.999 370.747C411.256 371.285 411.39 371.874 411.39 372.47C411.39 373.066 411.256 373.655 410.999 374.193C410.743 374.731 410.369 375.205 409.905 375.58Z"
                  fill="url(#paint3_radial_121_453)"
                />
              </g>

              <path
                d="M642 178C658.569 178 672 164.569 672 148C672 131.431 658.569 118 642 118C625.431 118 612 131.431 612 148C612 164.569 625.431 178 642 178Z"
                fill="#00D254"
              />

              <!-- pinterest -->
              <g class="pinterest">
                <path
                  d="M612 148C612 160.284 619.387 170.837 629.957 175.477C629.873 173.382 629.942 170.867 630.479 168.588C631.056 166.153 634.339 152.241 634.339 152.241C634.339 152.241 633.381 150.326 633.381 147.495C633.381 143.049 635.958 139.729 639.167 139.729C641.895 139.729 643.214 141.778 643.214 144.233C643.214 146.976 641.464 151.079 640.564 154.879C639.813 158.061 642.16 160.657 645.299 160.657C650.983 160.657 654.811 153.357 654.811 144.707C654.811 138.132 650.383 133.211 642.328 133.211C633.228 133.211 627.559 139.997 627.559 147.578C627.559 150.191 628.33 152.034 629.537 153.462C630.092 154.117 630.169 154.381 629.968 155.134C629.824 155.686 629.494 157.014 629.357 157.541C629.157 158.301 628.542 158.572 627.855 158.292C623.663 156.581 621.711 151.991 621.711 146.831C621.711 138.309 628.898 128.091 643.152 128.091C654.605 128.091 662.144 136.379 662.144 145.276C662.144 157.044 655.601 165.836 645.957 165.836C642.718 165.836 639.672 164.085 638.628 162.096C638.628 162.096 636.886 169.008 636.518 170.343C635.881 172.656 634.636 174.968 633.498 176.77C636.258 177.586 639.122 178 642 178C658.566 178 671.999 164.569 671.999 148C671.999 131.431 658.566 118 642 118C625.433 118 612 131.431 612 148Z"
                  fill="#DDF3E6"
                />
              </g>

              <path
                d="M393 178C409.569 178 423 164.569 423 148C423 131.431 409.569 118 393 118C376.431 118 363 131.431 363 148C363 164.569 376.431 178 393 178Z"
                fill="#DDF3E6"
              />
              <!-- bing -->

              <g class="bing">
                <path
                  d="M390.607 137.549L394.517 146.027L400.294 148.641L379.455 159.605L387.994 151.993V130.294L379.2 127.6V159.873L387.94 166L409.921 152.907V143.468L390.607 137.549Z"
                  fill="#00D254"
                />
              </g>

              <!-- quora -->

              <path
                d="M144 178C160.569 178 174 164.569 174 148C174 131.431 160.569 118 144 118C127.431 118 114 131.431 114 148C114 164.569 127.431 178 144 178Z"
                fill="#DDF3E6"
              />

              <g class="quora">
                <path
                  d="M163.732 161.003H161.22C161.092 162.16 160.32 163.643 158.392 163.643C156.634 163.643 155.366 162.426 154.149 160.574C157.937 157.643 160.552 153.074 160.552 147.46C160.56 137.389 152.272 130.6 143.546 130.6C135 130.6 126.6 137.431 126.6 147.46C126.6 158.954 137.854 166.454 147.943 163.66C149.632 166.54 151.86 169 156.103 169C163.114 169 163.886 162.546 163.732 161.003ZM151.432 156.074C149.76 153.571 147.686 151.6 143.589 151.6C140.974 151.6 138.934 152.457 137.674 153.554L138.72 155.637C139.252 155.38 139.834 155.294 140.417 155.294C143.46 155.294 145.02 157.934 146.349 160.549C145.492 160.806 144.574 160.909 143.546 160.909C137.117 160.909 134.332 156.366 134.332 147.477C134.332 138.529 137.117 133.943 143.546 133.943C150.077 133.943 152.863 138.529 152.863 147.46C152.872 151.043 152.4 153.94 151.432 156.074Z"
                  fill="#00D254"
                />
              </g>

              <path
                d="M756 528C772.569 528 786 514.569 786 498C786 481.431 772.569 468 756 468C739.431 468 726 481.431 726 498C726 514.569 739.431 528 756 528Z"
                fill="#00D254"
              />

              <!-- wordpress -->
              <g class="wordpress">
                <path
                  d="M732.496 487.524L744.774 521.153C736.185 516.992 730.27 508.185 730.27 498C730.27 494.262 731.069 490.73 732.496 487.524ZM773.371 496.706C773.371 493.524 772.234 491.323 771.254 489.605C769.948 487.488 768.726 485.685 768.726 483.569C768.726 481.198 770.516 478.996 773.044 478.996C773.153 478.996 773.262 479.008 773.383 479.02C768.798 474.823 762.702 472.258 756 472.258C747.012 472.258 739.101 476.867 734.492 483.859C735.097 483.883 735.665 483.895 736.149 483.895C738.835 483.895 743.008 483.569 743.008 483.569C744.399 483.484 744.556 485.528 743.177 485.685C743.177 485.685 741.786 485.843 740.238 485.927L749.613 513.798L755.25 496.911L751.246 485.927C749.855 485.843 748.548 485.685 748.548 485.685C747.157 485.601 747.327 483.484 748.706 483.569C748.706 483.569 752.952 483.895 755.48 483.895C758.165 483.895 762.339 483.569 762.339 483.569C763.73 483.484 763.887 485.528 762.508 485.685C762.508 485.685 761.117 485.843 759.569 485.927L768.871 513.593L771.435 505.016C772.524 501.46 773.371 498.907 773.371 496.706ZM756.448 500.25L748.73 522.69C751.04 523.367 753.472 523.742 756 523.742C759 523.742 761.867 523.222 764.54 522.278C764.468 522.169 764.407 522.048 764.359 521.927L756.448 500.25ZM778.585 485.649C778.694 486.472 778.754 487.343 778.754 488.298C778.754 490.911 778.27 493.839 776.794 497.516L768.931 520.246C776.589 515.782 781.73 507.496 781.73 498C781.73 493.524 780.593 489.315 778.585 485.649ZM786 498C786 514.548 772.536 528 756 528C739.452 528 726 514.536 726 498C726 481.452 739.452 468 756 468C772.536 468 786 481.452 786 498ZM784.621 498C784.621 482.214 771.774 469.379 756 469.379C740.214 469.379 727.379 482.214 727.379 498C727.379 513.786 740.226 526.621 756 526.621C771.786 526.621 784.621 513.786 784.621 498Z"
                  fill="#DDF3E6"
                />
              </g>

              <path
                d="M259 528C275.569 528 289 514.569 289 498C289 481.431 275.569 468 259 468C242.431 468 229 481.431 229 498C229 514.569 242.431 528 259 528Z"
                fill="#DDF3E6"
              />

              <!-- snapchat -->

              <g class="snapchat">
                <path
                  d="M259.009 480C260.519 480 265.638 480.423 268.055 485.831C268.863 487.651 268.669 490.743 268.51 493.227L268.506 493.316C268.485 493.593 268.472 493.844 268.46 494.094C268.648 494.194 268.859 494.242 269.071 494.231C269.528 494.206 270.076 494.049 270.647 493.774C270.867 493.665 271.11 493.61 271.355 493.614C271.632 493.614 271.903 493.658 272.131 493.751C272.815 493.979 273.25 494.481 273.25 495.03C273.274 495.715 272.656 496.311 271.4 496.812C271.266 496.855 271.08 496.927 270.877 496.994C270.188 497.201 269.138 497.542 268.842 498.229C268.705 498.572 268.749 499.028 269.028 499.552L269.05 499.576C269.141 499.783 271.38 504.88 276.36 505.703C276.543 505.733 276.709 505.828 276.826 505.97C276.944 506.113 277.006 506.294 276.999 506.479C276.999 506.593 276.975 506.705 276.931 506.823C276.565 507.69 274.991 508.331 272.133 508.76C272.043 508.898 271.95 509.333 271.882 509.631C271.84 509.904 271.768 510.179 271.679 510.473C271.564 510.887 271.268 511.09 270.833 511.09H270.788C270.511 511.077 270.236 511.04 269.966 510.978C269.328 510.84 268.677 510.772 268.024 510.773C267.569 510.773 267.114 510.796 266.636 510.887C265.72 511.046 264.921 511.595 264.007 512.234C262.704 513.147 261.221 514.2 258.983 514.2C258.892 514.2 258.801 514.177 258.706 514.177H258.48C256.24 514.177 254.779 513.147 253.478 512.211C252.566 511.57 251.79 511.024 250.874 510.862C250.406 510.792 249.934 510.754 249.461 510.749C248.636 510.749 247.999 510.885 247.521 510.976C247.198 511.043 246.925 511.088 246.696 511.088C246.496 511.103 246.297 511.048 246.134 510.931C245.971 510.814 245.854 510.643 245.804 510.449C245.713 510.156 245.67 509.855 245.601 509.583C245.529 509.306 245.44 508.832 245.349 508.714C242.422 508.375 240.848 507.733 240.484 506.844C240.434 506.736 240.405 506.619 240.4 506.5C240.393 506.315 240.454 506.133 240.572 505.99C240.69 505.847 240.856 505.752 241.04 505.724C246.019 504.9 248.257 499.806 248.35 499.591L248.374 499.548C248.649 499.022 248.716 498.561 248.556 498.221C248.26 497.559 247.208 497.218 246.527 496.988C246.346 496.942 246.169 496.881 245.998 496.806C244.31 496.142 244.08 495.387 244.173 494.863C244.31 494.134 245.199 493.654 245.954 493.654C246.176 493.654 246.366 493.698 246.538 493.768C247.177 494.062 247.743 494.225 248.223 494.225C248.468 494.234 248.712 494.179 248.93 494.064L248.852 493.195C248.701 490.715 248.507 487.626 249.321 485.816C251.665 480.435 256.773 480.021 258.281 480.021L258.916 480H259.009Z"
                  fill="#00D254"
                />
              </g>

              <path
                d="M30 528C46.5685 528 60 514.569 60 498C60 481.431 46.5685 468 30 468C13.4315 468 0 481.431 0 498C0 514.569 13.4315 528 30 528Z"
                fill="#DDF3E6"
              />

              <!-- zapier -->
              <g class="zapier">
                <path
                  d="M30.0123 478.2C31.1309 478.202 32.231 478.297 33.3004 478.475V490.003L41.4727 481.851C42.373 482.491 43.2185 483.204 44.0003 483.984C44.7828 484.764 45.4989 485.608 46.1411 486.508L37.9684 494.659H49.5258C49.7082 495.742 49.7999 496.838 49.7999 497.936V497.963C49.7999 499.081 49.7051 500.176 49.5258 501.242H37.9664L46.1411 509.392C45.499 510.29 44.7838 511.134 44.0027 511.915H44.0004C43.2194 512.695 42.3747 513.408 41.475 514.048L33.3004 505.896V517.424C32.2144 517.605 31.1154 517.697 30.0143 517.699H29.9856C28.8852 517.697 27.7869 517.605 26.7015 517.424V505.897L18.5293 514.048C16.7246 512.767 15.1467 511.193 13.8608 509.392L22.0335 501.242H10.4761C10.2921 500.157 10.1997 499.058 10.2 497.957V497.899C10.2018 497.609 10.2208 497.255 10.2481 496.888L10.2566 496.778C10.3373 495.746 10.4761 494.659 10.4761 494.659H22.0335L13.8608 486.508C14.5005 485.609 15.2151 484.766 15.997 483.988L16.001 483.984C16.7827 483.204 17.6284 482.49 18.5293 481.851L26.7015 490.003V478.475C27.7882 478.294 28.8879 478.202 29.9896 478.2H30.0123ZM30.0103 493.013H29.9914C28.5632 493.012 27.1466 493.269 25.8096 493.771C25.3079 495.104 25.0504 496.516 25.0493 497.94V497.959C25.05 499.383 25.3082 500.795 25.8115 502.128C27.1477 502.63 28.5638 502.887 29.9914 502.886H30.0103C31.4814 502.886 32.8901 502.617 34.1903 502.128C34.6937 500.796 34.9513 499.383 34.9506 497.959V497.94C34.9506 496.473 34.6803 495.068 34.1903 493.771C32.854 493.269 31.4379 493.012 30.0103 493.013Z"
                  fill="#00D254"
                />
              </g>

              <path
                d="M527 528C543.569 528 557 514.569 557 498C557 481.431 543.569 468 527 468C510.431 468 497 481.431 497 498C497 514.569 510.431 528 527 528Z"
                fill="#DDF3E6"
              />

              <!-- reddit -->

              <g class="reddit">
                <path
                  d="M546.957 498.286C546.957 495.854 544.99 493.923 542.594 493.923C541.462 493.921 540.372 494.357 539.554 495.139C536.55 492.993 532.436 491.598 527.859 491.419L529.861 482.049L536.37 483.443C536.442 485.088 537.801 486.412 539.482 486.412C541.199 486.412 542.594 485.017 542.594 483.3C542.594 481.583 541.199 480.189 539.482 480.189C538.266 480.189 537.193 480.904 536.692 481.941L529.432 480.403C529.218 480.367 529.003 480.403 528.86 480.511C528.681 480.618 528.574 480.797 528.538 481.011L526.32 491.455C521.671 491.598 517.486 492.993 514.446 495.175C513.628 494.393 512.539 493.957 511.406 493.959C508.974 493.959 507.043 495.925 507.043 498.322C507.043 500.11 508.116 501.612 509.618 502.292C509.545 502.729 509.509 503.172 509.511 503.615C509.511 510.339 517.344 515.811 527 515.811C536.657 515.811 544.49 510.375 544.49 503.615C544.49 503.172 544.454 502.73 544.382 502.292C545.884 501.612 546.957 500.074 546.957 498.286ZM516.986 501.397C516.986 499.681 518.38 498.286 520.098 498.286C521.814 498.286 523.209 499.68 523.209 501.397C523.209 503.114 521.814 504.509 520.098 504.509C518.38 504.544 516.986 503.114 516.986 501.397ZM534.404 509.659C532.258 511.805 528.18 511.949 527 511.949C525.784 511.949 521.707 511.769 519.596 509.659C519.275 509.337 519.275 508.837 519.596 508.515C519.918 508.193 520.419 508.193 520.741 508.515C522.1 509.874 524.962 510.339 527 510.339C529.039 510.339 531.936 509.874 533.259 508.515C533.581 508.193 534.082 508.193 534.404 508.515C534.69 508.837 534.69 509.337 534.404 509.659ZM533.831 504.545C532.114 504.545 530.72 503.15 530.72 501.433C530.72 499.717 532.114 498.322 533.831 498.322C535.548 498.322 536.943 499.717 536.943 501.433C536.943 503.114 535.548 504.545 533.831 504.545Z"
                  fill="#00D254"
                />
              </g>
              <defs>
                <radialGradient
                  id="paint0_radial_121_453"
                  cx="0"
                  cy="0"
                  r="1"
                  gradientUnits="userSpaceOnUse"
                  gradientTransform="translate(409.525 387.2) rotate(180) scale(37.28 37.28)"
                >
                  <stop stop-color="#00D254" />
                  <stop offset="0.73" stop-color="#00D254" stop-opacity="0" />
                </radialGradient>
                <radialGradient
                  id="paint1_radial_121_453"
                  cx="0"
                  cy="0"
                  r="1"
                  gradientUnits="userSpaceOnUse"
                  gradientTransform="translate(379.859 402.988) rotate(-122.735) scale(29.189 39.3227)"
                >
                  <stop stop-color="#00D254" />
                  <stop
                    offset="0.27"
                    stop-color="#00D254"
                    stop-opacity="0.67"
                  />
                  <stop
                    offset="0.58"
                    stop-color="#00D254"
                    stop-opacity="0.31"
                  />
                  <stop
                    offset="0.81"
                    stop-color="#00D254"
                    stop-opacity="0.09"
                  />
                  <stop offset="0.93" stop-color="#00D254" stop-opacity="0" />
                </radialGradient>
                <radialGradient
                  id="paint2_radial_121_453"
                  cx="0"
                  cy="0"
                  r="1"
                  gradientUnits="userSpaceOnUse"
                  gradientTransform="translate(376.475 372.24) scale(37.28 37.28)"
                >
                  <stop offset="0.17" stop-color="#00D254" />
                  <stop
                    offset="0.22"
                    stop-color="#00D254"
                    stop-opacity="0.96"
                  />
                  <stop
                    offset="0.31"
                    stop-color="#00D254"
                    stop-opacity="0.84"
                  />
                  <stop
                    offset="0.42"
                    stop-color="#00D254"
                    stop-opacity="0.65"
                  />
                  <stop
                    offset="0.56"
                    stop-color="#00D254"
                    stop-opacity="0.38"
                  />
                  <stop
                    offset="0.72"
                    stop-color="#00D254"
                    stop-opacity="0.04"
                  />
                  <stop offset="0.74" stop-color="#00D254" stop-opacity="0" />
                </radialGradient>
                <radialGradient
                  id="paint3_radial_121_453"
                  cx="0"
                  cy="0"
                  r="1"
                  gradientUnits="userSpaceOnUse"
                  gradientTransform="translate(395.787 359.721) rotate(57.2648) scale(29.189 39.3227)"
                >
                  <stop
                    offset="0.02"
                    stop-color="#00D254"
                    stop-opacity="0.96"
                  />
                  <stop offset="0.0201" stop-color="#00D254" />
                  <stop
                    offset="0.16"
                    stop-color="#00D254"
                    stop-opacity="0.71"
                  />
                  <stop
                    offset="0.29"
                    stop-color="#00D254"
                    stop-opacity="0.49"
                  />
                  <stop
                    offset="0.43"
                    stop-color="#00D254"
                    stop-opacity="0.32"
                  />
                  <stop
                    offset="0.56"
                    stop-color="#00D254"
                    stop-opacity="0.18"
                  />
                  <stop
                    offset="0.68"
                    stop-color="#00D254"
                    stop-opacity="0.08"
                  />
                  <stop offset="0.8" stop-color="#00D254" stop-opacity="0.02" />
                  <stop offset="0.9" stop-color="#00D254" stop-opacity="0" />
                </radialGradient>
              </defs>
            </svg>