<svg width="168" height="23" viewBox="0 0 168 23" fill="none" xmlns="http://www.w3.org/2000/svg">
<path d="M71.0035 16.1546C73.4 18.3635 75.6319 20.515 78.2888 22.9613C78.2888 22.9613 70.5173 22.9613 69.0281 22.9613C66.9148 21.0587 64.8323 19.1866 62.7075 17.2725H53.711V22.8427H51.3115L45.2168 11.2352C45.8485 11.2352 48.7495 11.2352 49.431 11.2352C54.6604 11.2276 59.8899 11.2429 65.1194 11.1893C66.0535 11.1816 67.022 10.9979 67.9064 10.6878C68.8788 10.3471 69.4071 9.54311 69.3343 8.44056C69.2616 7.36098 68.7027 6.56852 67.6767 6.35414C66.5052 6.10912 65.284 5.99428 64.0857 5.98662C59.2391 5.95217 54.3925 5.97896 49.5458 5.97896C48.918 5.97896 43.9114 5.97896 42.9198 5.97896L39.4744 0.0221197C43.4711 0.0221197 59.4343 -0.0276491 63.3813 0.0221189C65.0313 0.0412604 66.7081 0.0986833 68.3237 0.397291C69.6138 0.638475 70.9154 1.12467 72.0639 1.764C77.1632 4.61992 77.4733 11.5913 72.7033 14.9985C72.1979 15.3583 71.6773 15.6952 71.0111 16.1431L71.0035 16.1546Z" fill="black"/>
<path d="M96.0599 22.8542C92.8518 20.427 89.6169 17.9769 86.1255 15.3315L86.1255 22.8542L79.7935 22.8235L79.7935 0.136998H86.1944V7.76298L96.1059 0.102539H105.791L91.0142 11.6564C95.9336 15.366 105.363 22.8542 105.363 22.8542H96.0638H96.0599Z" fill="black"/>
<path fill-rule="evenodd" clip-rule="evenodd" d="M0.0770381 11.1052V22.8505C0.0910214 22.8519 0.103767 22.8531 0.115351 22.8543C0.102572 22.8543 0.0898007 22.8543 0.0770381 22.8543C-0.219238 22.8543 0.458973 22.8901 0.115351 22.8543C1.94425 22.8562 3.94586 22.8778 5.97776 22.8997C8.8975 22.9311 11.8798 22.9633 14.5021 22.9385C15.5128 22.927 19.8643 22.9385 19.8643 22.9385L21.8741 19.7017L23.6926 16.4649C23.6926 16.4649 27.5 9.50018 25.0031 5.33215C23.1732 2.49155 20.4743 0.730526 17.1743 0.385979C13.5756 0.0108049 4.00105 0.385992 4.00105 0.385992L0.0770381 5.98296C0.0770381 5.98296 9.5521 5.97531 13.1852 5.99062C14.0121 5.99445 14.8543 6.0021 15.6621 6.14758C18.3113 6.62229 20.2216 8.90779 20.2292 11.5187C20.2369 14.1487 18.5563 16.2313 15.8765 16.8209C15.1376 16.9855 14.3643 17.0468 13.6024 17.0621C11.7534 17.0965 6.40523 17.0621 6.40523 17.0621V11.1052H0.0770381Z" fill="black"/>
<path fill-rule="evenodd" clip-rule="evenodd" d="M43.8771 22.9726L41.0099 17.7652H30.3815L27.5637 22.9726H43.8771ZM39.9224 13.9036H31.4691L35.671 5.53125L39.9224 13.9036Z" fill="black"/>
<rect x="108" width="60" height="23" rx="11.5" fill="#00D254"/>
<path d="M122.831 14.5631C122.249 14.5631 121.717 14.475 121.235 14.2989C120.76 14.1228 120.362 13.8472 120.04 13.472L120.844 12.76C121.105 13.0356 121.399 13.2423 121.729 13.3801C122.065 13.518 122.437 13.5869 122.843 13.5869C123.003 13.5869 123.164 13.5716 123.325 13.5409C123.486 13.5103 123.631 13.4644 123.761 13.4031C123.892 13.3419 123.995 13.2615 124.072 13.1619C124.148 13.0624 124.186 12.9475 124.186 12.8174C124.186 12.5953 124.056 12.4231 123.796 12.3006C123.658 12.247 123.49 12.1895 123.291 12.1283C123.091 12.067 122.858 12.0096 122.59 11.956C122.138 11.8565 121.748 11.7455 121.419 11.623C121.089 11.4928 120.825 11.3358 120.626 11.1521C120.481 11.0066 120.37 10.842 120.293 10.6582C120.224 10.4745 120.19 10.2639 120.19 10.0265C120.19 9.77388 120.251 9.54035 120.373 9.32597C120.504 9.11158 120.683 8.92782 120.913 8.77469C121.143 8.62156 121.411 8.50288 121.717 8.41866C122.023 8.33444 122.353 8.29233 122.705 8.29233C123.019 8.29233 123.336 8.33061 123.658 8.40717C123.987 8.47608 124.294 8.58328 124.577 8.72875C124.868 8.86657 125.109 9.04267 125.3 9.25706L124.646 10.0265C124.47 9.88107 124.271 9.75091 124.049 9.63606C123.834 9.52121 123.612 9.43316 123.382 9.37191C123.153 9.303 122.938 9.26854 122.739 9.26854C122.571 9.26854 122.402 9.28386 122.234 9.31448C122.065 9.33745 121.916 9.37956 121.786 9.44082C121.664 9.49441 121.564 9.56715 121.487 9.65903C121.411 9.75091 121.373 9.86193 121.373 9.99209C121.373 10.0916 121.396 10.1835 121.441 10.2677C121.495 10.3443 121.564 10.4132 121.648 10.4745C121.778 10.5587 121.954 10.6352 122.177 10.7042C122.399 10.7731 122.663 10.8381 122.969 10.8994C123.367 10.9836 123.719 11.0832 124.026 11.198C124.34 11.3052 124.6 11.4392 124.807 11.6C124.983 11.7301 125.113 11.8871 125.197 12.0709C125.289 12.2546 125.335 12.4652 125.335 12.7025C125.335 13.0777 125.22 13.4069 124.99 13.6902C124.768 13.9659 124.47 14.1803 124.095 14.3334C123.719 14.4865 123.298 14.5631 122.831 14.5631ZM127.109 16.9749V8.41866H128.303V9.79685L128.119 9.69349C128.173 9.47144 128.318 9.25706 128.556 9.05033C128.801 8.83594 129.099 8.65984 129.452 8.52202C129.811 8.3842 130.187 8.31529 130.577 8.31529C131.197 8.31529 131.741 8.44929 132.208 8.71727C132.675 8.98525 133.043 9.35277 133.311 9.81982C133.579 10.2869 133.712 10.8228 133.712 11.4277C133.712 12.0249 133.579 12.5609 133.311 13.0356C133.05 13.5027 132.683 13.874 132.208 14.1496C131.741 14.4176 131.209 14.5516 130.612 14.5516C130.19 14.5516 129.792 14.4789 129.417 14.3334C129.042 14.1803 128.728 13.9927 128.475 13.7706C128.223 13.5486 128.066 13.3265 128.004 13.1045L128.303 12.9437V16.9749H127.109ZM130.416 13.4605C130.837 13.4605 131.209 13.3725 131.53 13.1964C131.852 13.0203 132.105 12.7791 132.288 12.4728C132.48 12.1666 132.575 11.8182 132.575 11.4277C132.575 11.0372 132.484 10.6927 132.3 10.3941C132.116 10.0878 131.863 9.84662 131.542 9.67052C131.22 9.49441 130.845 9.40636 130.416 9.40636C129.995 9.40636 129.62 9.49441 129.291 9.67052C128.969 9.83896 128.713 10.0763 128.521 10.3826C128.338 10.6888 128.246 11.0372 128.246 11.4277C128.246 11.8182 128.338 12.1666 128.521 12.4728C128.713 12.7791 128.969 13.0203 129.291 13.1964C129.62 13.3725 129.995 13.4605 130.416 13.4605ZM137.884 14.5631C137.295 14.5631 136.77 14.4291 136.311 14.1611C135.851 13.8855 135.488 13.5103 135.22 13.0356C134.959 12.5609 134.829 12.0211 134.829 11.4162C134.829 10.8114 134.963 10.2754 135.231 9.80833C135.507 9.33362 135.882 8.96228 136.357 8.6943C136.831 8.42632 137.371 8.29233 137.976 8.29233C138.344 8.29233 138.68 8.34209 138.987 8.44163C139.301 8.53351 139.572 8.66367 139.802 8.83212C140.032 9.00056 140.216 9.18815 140.353 9.39488C140.491 9.59395 140.568 9.80451 140.583 10.0265L140.296 9.98061V8.41866H141.479V14.4482H140.296V12.9207L140.549 12.9093C140.518 13.1007 140.426 13.2959 140.273 13.495C140.128 13.6864 139.928 13.8625 139.676 14.0233C139.431 14.1841 139.155 14.3143 138.849 14.4138C138.543 14.5133 138.221 14.5631 137.884 14.5631ZM138.183 13.472C138.604 13.472 138.975 13.384 139.297 13.2079C139.626 13.0318 139.882 12.7906 140.066 12.4843C140.25 12.1704 140.342 11.8144 140.342 11.4162C140.342 11.0334 140.25 10.6888 140.066 10.3826C139.882 10.0763 139.626 9.83513 139.297 9.65903C138.975 9.47527 138.604 9.38339 138.183 9.38339C137.762 9.38339 137.39 9.47527 137.069 9.65903C136.747 9.83513 136.494 10.0763 136.311 10.3826C136.127 10.6888 136.035 11.0334 136.035 11.4162C136.035 11.8144 136.127 12.1704 136.311 12.4843C136.494 12.7906 136.747 13.0318 137.069 13.2079C137.39 13.384 137.762 13.472 138.183 13.472ZM146.445 14.5631C145.825 14.5631 145.27 14.4253 144.78 14.1496C144.298 13.874 143.911 13.4988 143.62 13.0241C143.337 12.5494 143.195 12.0173 143.195 11.4277C143.195 10.8381 143.337 10.306 143.62 9.8313C143.911 9.35659 144.298 8.98142 144.78 8.70578C145.27 8.43014 145.825 8.29233 146.445 8.29233C147.05 8.29233 147.605 8.39952 148.111 8.6139C148.616 8.82829 149.007 9.11924 149.282 9.48676L148.628 10.3596C148.467 10.1759 148.268 10.0074 148.03 9.85427C147.801 9.70114 147.552 9.58246 147.284 9.49824C147.023 9.40636 146.767 9.36042 146.514 9.36042C146.101 9.36042 145.73 9.4523 145.4 9.63606C145.079 9.81216 144.826 10.0572 144.642 10.3711C144.459 10.685 144.367 11.0372 144.367 11.4277C144.367 11.8182 144.462 12.1704 144.654 12.4843C144.853 12.7906 145.113 13.0356 145.435 13.2194C145.764 13.4031 146.128 13.495 146.526 13.495C146.817 13.495 147.085 13.4567 147.33 13.3801C147.582 13.3036 147.816 13.2002 148.03 13.0701C148.252 12.9322 148.451 12.7791 148.628 12.6107L149.282 13.4605C148.961 13.7668 148.551 14.0271 148.053 14.2415C147.563 14.4559 147.027 14.5631 146.445 14.5631ZM153.851 14.5631C153.162 14.5631 152.55 14.4329 152.014 14.1726C151.478 13.9046 151.057 13.5409 150.751 13.0815C150.452 12.6221 150.303 12.0938 150.303 11.4966C150.303 11.0066 150.391 10.5663 150.567 10.1759C150.743 9.78536 150.984 9.44847 151.29 9.16518C151.604 8.88188 151.972 8.66367 152.393 8.51054C152.814 8.35741 153.266 8.28084 153.748 8.28084C154.185 8.28084 154.59 8.35358 154.966 8.49905C155.348 8.64453 155.681 8.84743 155.965 9.10775C156.248 9.36808 156.466 9.67817 156.619 10.038C156.78 10.3902 156.857 10.7807 156.849 11.2095L156.838 11.7608H151.267L151.003 10.819H155.815L155.643 10.9683V10.6927C155.613 10.44 155.505 10.2141 155.322 10.0151C155.138 9.81599 154.908 9.65903 154.632 9.54418C154.357 9.42933 154.062 9.37191 153.748 9.37191C153.289 9.37191 152.887 9.44465 152.542 9.59012C152.205 9.7356 151.941 9.96147 151.75 10.2677C151.566 10.5663 151.474 10.9492 151.474 11.4162C151.474 11.8373 151.581 12.201 151.796 12.5073C152.01 12.8136 152.309 13.0509 152.692 13.2194C153.074 13.3878 153.515 13.472 154.012 13.472C154.441 13.472 154.812 13.4108 155.126 13.2883C155.44 13.1658 155.739 12.9973 156.022 12.7829L156.585 13.6443C156.386 13.8127 156.137 13.9697 155.838 14.1152C155.54 14.253 155.218 14.364 154.874 14.4482C154.537 14.5248 154.196 14.5631 153.851 14.5631Z" fill="white"/>
</svg>
