<svg width="38" height="26" viewBox="0 0 38 26" fill="none" xmlns="http://www.w3.org/2000/svg">
<path d="M35.15 25C35.7167 25 36.1913 24.808 36.574 24.424C36.958 24.0413 37.15 23.5667 37.15 23C37.15 22.4333 36.958 21.9587 36.574 21.576C36.1913 21.192 35.7167 21 35.15 21H13.15C12.5833 21 12.108 21.192 11.724 21.576C11.3413 21.9587 11.15 22.4333 11.15 23C11.15 23.5667 11.3413 24.0413 11.724 24.424C12.108 24.808 12.5833 25 13.15 25H35.15ZM35.15 15C35.7167 15 36.1913 14.808 36.574 14.424C36.958 14.0413 37.15 13.5667 37.15 13C37.15 12.4333 36.958 11.958 36.574 11.574C36.1913 11.1913 35.7167 11 35.15 11H19.15C18.5833 11 18.108 11.1913 17.724 11.574C17.3413 11.958 17.15 12.4333 17.15 13C17.15 13.5667 17.3413 14.0413 17.724 14.424C18.108 14.808 18.5833 15 19.15 15H35.15ZM35.15 5C35.7167 5 36.1913 4.80867 36.574 4.426C36.958 4.042 37.15 3.56667 37.15 3C37.15 2.43333 36.958 1.958 36.574 1.574C36.1913 1.19133 35.7167 1 35.15 1H13.15C12.5833 1 12.108 1.19133 11.724 1.574C11.3413 1.958 11.15 2.43333 11.15 3C11.15 3.56667 11.3413 4.042 11.724 4.426C12.108 4.80867 12.5833 5 13.15 5H35.15ZM8.35001 13L2.55001 18.8C2.18335 19.1667 2.00001 19.6333 2.00001 20.2C2.00001 20.7667 2.18335 21.2333 2.55001 21.6C2.91668 21.9667 3.38334 22.15 3.95001 22.15C4.51667 22.15 4.98335 21.9667 5.35001 21.6L12.55 14.4C12.95 14 13.15 13.5333 13.15 13C13.15 12.4667 12.95 12 12.55 11.6L5.35001 4.4C4.98335 4.03333 4.51667 3.85 3.95001 3.85C3.38334 3.85 2.91668 4.03333 2.55001 4.4C2.18335 4.76667 2.00001 5.23333 2.00001 5.8C2.00001 6.36667 2.18335 6.83333 2.55001 7.2L8.35001 13Z" fill="#202020" stroke="white"/>
<path d="M7.34999 13L1.55 18.8C1.18333 19.1666 0.999992 19.6333 0.999992 20.2C0.999992 20.7666 1.18333 21.2333 1.55 21.6C1.91666 21.9666 2.38333 22.15 2.94999 22.15C3.51666 22.15 3.98333 21.9666 4.34999 21.6L11.55 14.4C11.95 14 12.15 13.5333 12.15 13C12.15 12.4666 11.95 12 11.55 11.6L4.34999 4.39997C3.98333 4.03331 3.51666 3.84998 2.94999 3.84998C2.38333 3.84998 1.91666 4.03331 1.55 4.39997C1.18333 4.76664 0.999992 5.23331 0.999992 5.79997C0.999992 6.36664 1.18333 6.83331 1.55 7.19998L7.34999 13Z" fill="#00D254" stroke="white"/>
</svg>
