<svg width="37" height="26" viewBox="0 0 37 26" fill="none" xmlns="http://www.w3.org/2000/svg">
<path d="M34.15 25C34.7167 25 35.1913 24.808 35.574 24.424C35.958 24.0413 36.15 23.5667 36.15 23C36.15 22.4333 35.958 21.9587 35.574 21.576C35.1913 21.192 34.7167 21 34.15 21H24.15C23.5833 21 23.108 21.192 22.724 21.576C22.3413 21.9587 22.15 22.4333 22.15 23C22.15 23.5667 22.3413 24.0413 22.724 24.424C23.108 24.808 23.5833 25 24.15 25H34.15ZM34.15 15C34.7167 15 35.1913 14.808 35.574 14.424C35.958 14.0413 36.15 13.5667 36.15 13C36.15 12.4333 35.958 11.958 35.574 11.574C35.1913 11.1913 34.7167 11 34.15 11H19.15C18.5833 11 18.108 11.1913 17.724 11.574C17.3413 11.958 17.15 12.4333 17.15 13C17.15 13.5667 17.3413 14.0413 17.724 14.424C18.108 14.808 18.5833 15 19.15 15H34.15ZM34.15 5C34.7167 5 35.1913 4.80867 35.574 4.426C35.958 4.042 36.15 3.56667 36.15 3C36.15 2.43333 35.958 1.958 35.574 1.574C35.1913 1.19133 34.7167 1 34.15 1H24.15C23.5833 1 23.108 1.19133 22.724 1.574C22.3413 1.958 22.15 2.43333 22.15 3C22.15 3.56667 22.3413 4.042 22.724 4.426C23.108 4.80867 23.5833 5 24.15 5H34.15Z" fill="#202020" stroke="white"/>
<path fill-rule="evenodd" clip-rule="evenodd" d="M0.903556 4.75353C1.16729 4.48979 1.5024 4.34998 1.95 4.34998C2.39761 4.34998 2.73271 4.48979 2.99645 4.75353L9.075 10.8321L15.1536 4.75353C15.4173 4.48979 15.7524 4.34998 16.2 4.34998C16.6476 4.34998 16.9827 4.48979 17.2465 4.75353C17.5102 5.01727 17.65 5.35237 17.65 5.79997C17.65 6.24758 17.5102 6.58269 17.2465 6.84642L11.0929 13L17.2465 19.1535C17.5102 19.4173 17.65 19.7524 17.65 20.2C17.65 20.6476 17.5102 20.9827 17.2465 21.2464C16.9827 21.5102 16.6476 21.65 16.2 21.65C15.7524 21.65 15.4173 21.5102 15.1536 21.2464L9.075 15.1679L2.99645 21.2464C2.73271 21.5102 2.3976 21.65 1.95 21.65C1.5024 21.65 1.16729 21.5102 0.903556 21.2464C0.639819 20.9827 0.5 20.6476 0.5 20.2C0.5 19.7524 0.639819 19.4173 0.903556 19.1535L7.05711 13L0.903556 6.84642C0.639819 6.58269 0.5 6.24758 0.5 5.79997C0.5 5.35237 0.639819 5.01727 0.903556 4.75353Z" fill="#EE001D"/>
</svg>
