<svg width="100" height="100" viewBox="0 0 100 100" fill="none" xmlns="http://www.w3.org/2000/svg">
<path d="M99 50C99 77.062 77.062 99 50 99C22.938 99 1 77.062 1 50C1 22.938 22.938 1 50 1C77.062 1 99 22.938 99 50Z" fill="white" stroke="#36C5F0" stroke-width="2"/>
<path d="M30.925 58.7226C30.925 62.5587 27.8248 65.6592 23.9888 65.6592C20.1527 65.6592 17.0525 62.5587 17.0525 58.7226C17.0525 54.8869 20.1527 51.7866 23.989 51.7866H30.9248V58.7229L30.925 58.7226ZM34.3933 58.7226C34.3933 54.8869 37.4935 51.7866 41.3296 51.7866C45.1656 51.7866 48.2659 54.8869 48.2659 58.7229V76.0634C48.2659 79.8995 45.1656 83 41.3293 83C37.4938 83 34.3933 79.8995 34.3933 76.0634V58.7229V58.7226Z" fill="#E01E5A"/>
<path d="M41.3296 30.8726C37.4936 30.8726 34.3931 27.7723 34.3931 23.9363C34.3931 20.1002 37.4938 17 41.3296 17C45.1654 17 48.2659 20.1002 48.2659 23.9363V30.8728H41.3293L41.3296 30.8726ZM41.3296 34.3933C45.1656 34.3933 48.2659 37.4936 48.2659 41.3296C48.2659 45.1656 45.1656 48.2659 41.3293 48.2659H23.9365C20.1002 48.2659 17 45.1656 17 41.3293C17 37.4938 20.1002 34.3933 23.9363 34.3933H41.3293H41.3296Z" fill="#36C5F0"/>
<path d="M69.1274 41.3296C69.1274 37.4936 72.2277 34.3931 76.0634 34.3931C79.8995 34.3931 83 37.4936 83 41.3296C83 45.1656 79.8995 48.2659 76.0634 48.2659H69.1274V41.3293V41.3296ZM65.6592 41.3296C65.6592 45.1656 62.5587 48.2659 58.7226 48.2659C54.8869 48.2659 51.7866 45.1656 51.7866 41.3293V23.9365C51.7866 20.1002 54.8869 17 58.7226 17C62.5584 17 65.6589 20.1002 65.6589 23.9363V41.3293L65.6592 41.3296Z" fill="#2EB67D"/>
<path d="M58.7226 69.1274C62.5587 69.1274 65.6592 72.2277 65.6592 76.0634C65.6592 79.8995 62.5587 83 58.7226 83C54.8869 83 51.7866 79.8995 51.7866 76.0634V69.1274H58.7229H58.7226ZM58.7226 65.6592C54.8869 65.6592 51.7866 62.5587 51.7866 58.7226C51.7866 54.8869 54.8869 51.7866 58.7229 51.7866H76.116C79.952 51.7866 83.0525 54.8869 83.0525 58.7229C83.0525 62.5587 79.952 65.6592 76.116 65.6592H58.7229H58.7226Z" fill="#ECB22E"/>
</svg>
