<svg width="18" height="18" viewBox="0 0 18 18" fill="none" xmlns="http://www.w3.org/2000/svg">
<path opacity="0.75" d="M5.65425 16.875C12.447 16.875 16.1629 11.2466 16.1629 6.37424C16.1629 6.21674 16.1629 6.05699 16.1561 5.89949C16.8796 5.37578 17.5039 4.72741 18 3.98474C17.3242 4.28269 16.6081 4.47907 15.8749 4.56749C16.6472 4.10583 17.2257 3.37945 17.5028 2.52336C16.7771 2.95325 15.9829 3.25503 15.1549 3.41549C14.5982 2.82264 13.8616 2.42989 13.0591 2.29809C12.2566 2.16628 11.4331 2.30277 10.716 2.68642C9.99895 3.07006 9.42841 3.67944 9.09276 4.42018C8.7571 5.16091 8.67508 5.99166 8.85938 6.78374C7.39096 6.71011 5.95442 6.32864 4.64292 5.66407C3.33143 4.99951 2.17427 4.06669 1.2465 2.92611C0.775508 3.73958 0.63177 4.70181 0.844477 5.61741C1.05718 6.53301 1.61039 7.33333 2.39175 7.85586C1.80623 7.83597 1.23359 7.67874 0.72 7.39686V7.44749C0.72101 8.29965 1.01622 9.12533 1.55573 9.78497C2.09525 10.4446 2.84597 10.8977 3.681 11.0677C3.36405 11.1551 3.03663 11.1986 2.70788 11.1971C2.47611 11.1978 2.2448 11.1763 2.01712 11.133C2.25313 11.8666 2.71268 12.5079 3.3314 12.9673C3.95012 13.4266 4.69703 13.6809 5.4675 13.6946C4.15862 14.7226 2.54183 15.2802 0.8775 15.2775C0.584236 15.2787 0.291176 15.2618 0 15.2269C1.6892 16.3038 3.65096 16.8756 5.65425 16.875Z" fill="#55ACEE"/>
</svg>
