<svg width="24" height="24" viewBox="0 0 24 24" fill="none" xmlns="http://www.w3.org/2000/svg">
<path opacity="0.4" d="M22.0694 19.6875C20.7545 17.4203 18.7132 15.6631 16.2756 14.7C17.472 13.8028 18.3557 12.5518 18.8015 11.1244C19.2474 9.69705 19.2329 8.16555 18.76 6.74688C18.2871 5.3282 17.3798 4.09428 16.1667 3.2199C14.9535 2.34552 13.496 1.875 12.0006 1.875C10.5052 1.875 9.04771 2.34552 7.83457 3.2199C6.62143 4.09428 5.71415 5.3282 5.24126 6.74688C4.76837 8.16555 4.75383 9.69705 5.19972 11.1244C5.6456 12.5518 6.5293 13.8028 7.72563 14.7C5.2881 15.6631 3.24677 17.4203 1.93188 19.6875C1.78269 19.9461 1.74234 20.2533 1.8197 20.5417C1.89706 20.83 2.08579 21.0758 2.34438 21.225C2.60296 21.3742 2.91022 21.4145 3.19856 21.3372C3.4869 21.2598 3.73269 21.0711 3.88188 20.8125C4.70474 19.3874 5.8882 18.2041 7.31333 17.3813C8.73846 16.5586 10.3551 16.1254 12.0006 16.1254C13.6462 16.1254 15.2628 16.5586 16.6879 17.3813C18.1131 18.2041 19.2965 19.3874 20.1194 20.8125C20.2189 20.983 20.3612 21.1246 20.5322 21.2232C20.7032 21.3219 20.897 21.3742 21.0944 21.375C21.292 21.3766 21.4863 21.3248 21.6569 21.225C21.785 21.1512 21.8973 21.0529 21.9873 20.9356C22.0774 20.8184 22.1435 20.6845 22.1818 20.5417C22.2201 20.399 22.2299 20.25 22.2106 20.1034C22.1913 19.9569 22.1433 19.8155 22.0694 19.6875ZM7.12563 9C7.12563 8.03582 7.41154 7.09329 7.94721 6.2916C8.48289 5.48991 9.24426 4.86506 10.135 4.49609C11.0258 4.12711 12.006 4.03057 12.9517 4.21867C13.8974 4.40677 14.766 4.87107 15.4478 5.55285C16.1296 6.23464 16.5939 7.10328 16.782 8.04893C16.9701 8.99459 16.8735 9.97479 16.5045 10.8656C16.1356 11.7564 15.5107 12.5177 14.709 13.0534C13.9073 13.5891 12.9648 13.875 12.0006 13.875C10.7077 13.875 9.46772 13.3614 8.55348 12.4471C7.63924 11.5329 7.12563 10.2929 7.12563 9Z" fill="black"/>
</svg>
