<svg width="21" height="21" viewBox="0 0 21 21" fill="none" xmlns="http://www.w3.org/2000/svg">
<path d="M13.4162 4.1315V4.5925V5.6548V6.1548H12.9162H12.467C12.2833 6.1548 12.1918 6.19086 12.149 6.21632C12.1108 6.23903 12.081 6.27086 12.0542 6.32972C11.9838 6.48474 11.975 6.71649 11.975 7.05708V8.50318H13.157H13.7232L13.6531 9.06508L13.4677 10.5514L13.4131 10.9895H12.9716H11.975L11.975 16.4309L11.975 16.9309H11.475H9.31329H8.81329L8.81329 16.4309L8.81328 10.9856L7.87214 10.9856L7.37213 10.9856V10.4856V8.99924V8.49925L7.87212 8.49924L8.80912 8.49922V6.964C8.80912 6.03394 9.10921 5.29996 9.64417 4.7979L9.98633 5.16249L9.64417 4.7979C10.1908 4.28492 11.0656 4.04024 11.9226 4.04015L11.9225 4.04015L13.4162 4.1315ZM13.4162 4.1315L12.9567 4.09415C12.8741 4.08743 12.803 4.08128 12.7387 4.07573C12.4595 4.05159 12.3107 4.03872 11.9228 4.04015M13.4162 4.1315L11.9228 4.04015M11.9228 4.04015C11.9229 4.04015 11.923 4.04015 11.9231 4.04015H11.9228Z" stroke="white"/>
</svg>
