<svg width="21" height="21" viewBox="0 0 21 21" fill="none" xmlns="http://www.w3.org/2000/svg">
<path fill-rule="evenodd" clip-rule="evenodd" d="M15.0306 4.93963C15.3095 4.81735 15.633 4.85847 15.8724 5.04661C16.1118 5.23476 16.2283 5.5394 16.1754 5.83927L14.4738 15.49C14.4722 15.4988 14.4705 15.5075 14.4687 15.5162C14.3881 15.9004 14.1893 16.4017 13.6833 16.6424C13.1601 16.8912 12.6474 16.7047 12.3189 16.5091C12.29 16.4919 12.2621 16.4729 12.2355 16.4523L10.2419 14.9077C10.0635 15.0641 9.87394 15.2259 9.70304 15.3703C9.50901 15.5343 9.3285 15.6846 9.1966 15.7939C9.13059 15.8486 9.07662 15.8931 9.03906 15.924L8.99552 15.9598L8.9799 15.9726C8.97988 15.9726 8.97979 15.9726 8.45672 15.3337C8.45672 15.3337 8.88613 14.9822 9.33287 14.6014C9.67003 14.3141 10.0171 14.0102 10.1968 13.8282L12.7413 15.7996C13.205 16.0757 13.5374 15.9333 13.6606 15.3466L15.3622 5.69588L15.0306 4.93963ZM14.4537 6.09305C15.0219 5.84508 15.3622 5.69588 15.3622 5.69588C15.0306 4.93963 15.0306 4.93961 15.0306 4.93963L15.0303 4.93976L14.9511 4.97448C14.8988 4.99736 14.8216 5.03114 14.7222 5.07465C14.5232 5.16168 14.235 5.28762 13.8781 5.44323C13.1643 5.75446 12.1759 6.1843 11.078 6.6587C8.87962 7.60852 6.24975 8.7335 4.5015 9.44396L4.49901 9.44498C4.27398 9.53729 4.05368 9.65972 3.87354 9.82607C3.69577 9.99021 3.50397 10.2495 3.4749 10.6015C3.44399 10.9758 3.61067 11.2787 3.81012 11.4758C3.99774 11.6611 4.22812 11.773 4.43734 11.8425L4.44009 11.8434L6.95172 12.6673C7.15011 12.7324 7.36578 12.7199 7.55533 12.6324L7.81767 12.5112C7.81581 12.5264 7.81437 12.5417 7.81335 12.5571L7.63277 15.279C7.61099 15.6073 7.78618 15.9172 8.07869 16.0678C8.3712 16.2185 8.72532 16.181 8.9799 15.9726L8.45672 15.3337L8.63729 12.6117C8.71372 12.5391 8.80108 12.4563 8.89653 12.3657C9.10812 12.165 9.35945 11.9266 9.61956 11.6791C10.0302 11.2882 10.4628 10.8747 10.7954 10.5509C11.0717 10.282 11.2789 10.075 11.3472 9.99455C11.3481 9.99356 11.3489 9.99258 11.3497 9.99163C11.3809 9.95445 11.3798 9.94672 11.3385 9.97564L7.20911 11.8827L4.69748 11.0588C4.15165 10.8776 4.13934 10.485 4.81239 10.209C7.55446 9.09461 12.4381 6.97257 14.4537 6.09305Z" fill="white"/>
</svg>
