<svg width="21" height="21" viewBox="0 0 21 21" fill="none" xmlns="http://www.w3.org/2000/svg">
<path fill-rule="evenodd" clip-rule="evenodd" d="M17.4409 7.1974C17.3556 7.28134 17.2631 7.36569 17.1631 7.4521C17.1475 7.46553 17.1318 7.47901 17.1159 7.49254V8.16915C17.1159 12.6873 12.851 16.5961 7.76816 16.5961C6.52344 16.5961 5.37239 16.477 4.22788 16.0731C3.72736 15.8965 3.22808 15.6653 2.72278 15.3659C3.28007 15.3659 3.81013 15.3125 4.30668 15.2221C5.55733 14.9943 6.59541 14.5315 7.3205 14.0947C7.68018 13.8781 7.96286 13.6679 8.15626 13.496C7.82904 13.399 7.51659 13.2931 7.219 13.1788C3.34198 11.6895 1.98855 8.76748 3.37729 5.46084C3.50494 5.15689 3.65577 4.84968 3.82994 4.54004C3.93507 4.78923 4.09652 5.08042 4.31642 5.38868C5.17175 6.58768 6.91125 8.0448 9.65914 8.29249C9.92492 8.31644 10.2001 8.32909 10.4849 8.32909V7.64017C10.4849 5.98721 11.9804 4.54004 13.8399 4.54004C14.8032 4.54004 15.6694 4.90964 16.2688 5.49801C16.6637 5.44493 17.0575 5.3182 17.4212 5.12573C17.7128 4.97141 17.9851 4.77482 18.2231 4.54004C18.2541 4.95596 18.2555 5.30356 18.224 5.60418C18.1514 6.29815 17.9035 6.74173 17.4409 7.1974ZM17.2493 6.1025C17.1386 6.32832 16.9493 6.5502 16.5809 6.86351C16.3964 7.02041 16.2901 7.25037 16.2901 7.49254V8.16915C16.2901 12.1566 12.4734 15.7703 7.76816 15.7703C7.12224 15.7703 6.51499 15.7369 5.92864 15.6471C7.22746 15.1974 8.19958 14.5623 8.70488 14.1131C8.92895 13.914 9.02746 13.609 8.96224 13.3163C8.89702 13.0237 8.67831 12.7894 8.39085 12.7042C6.03543 12.0063 4.64273 10.8659 4.04149 9.58892C3.5991 8.64931 3.53511 7.52811 3.9542 6.2689C5.1248 7.67675 7.26849 9.15484 10.4849 9.15484C10.941 9.15484 11.3107 8.78514 11.3107 8.32909V7.64017C11.3107 6.49266 12.3854 5.3658 13.8399 5.3658C14.5929 5.3658 15.2496 5.65468 15.6904 6.08731C15.8723 6.26581 16.1263 6.35035 16.3789 6.31641C16.6725 6.27693 16.9651 6.20501 17.2493 6.1025Z" fill="white"/>
</svg>
