<svg width="20" height="21" viewBox="0 0 20 21" fill="none" xmlns="http://www.w3.org/2000/svg">
<path fill-rule="evenodd" clip-rule="evenodd" d="M10.0001 5.53027C10.0001 5.53027 5.42388 5.53029 4.37342 5.83189C4.08818 5.91334 3.8281 6.07284 3.61923 6.29442C3.41035 6.51601 3.26 6.79191 3.18322 7.09451C2.98708 8.23101 2.89189 9.38452 2.89892 10.5399C2.89189 11.6952 2.98708 12.8488 3.18322 13.9853C3.26 14.2879 3.41035 14.5638 3.61923 14.7853C3.8281 15.0069 4.08818 15.1664 4.37342 15.2479C5.42388 15.5495 10.0001 15.5495 10.0001 15.5495C10.0001 15.5495 14.5766 15.5495 15.6271 15.2479C15.9123 15.1664 16.1724 15.0069 16.3813 14.7853C16.5902 14.5638 16.7405 14.2879 16.8173 13.9853C17.0134 12.8488 17.1086 11.6952 17.1016 10.5399C17.1086 9.38452 17.0134 8.23101 16.8173 7.09451C16.7405 6.79191 16.5902 6.51601 16.3813 6.29442C16.1724 6.07284 15.9123 5.91334 15.6271 5.83189C14.5766 5.53029 10.0001 5.53027 10.0001 5.53027ZM16.0097 7.27075C15.9648 7.11173 15.8846 6.97141 15.7804 6.86084C15.6706 6.7444 15.5387 6.66542 15.4004 6.62591L15.3992 6.62558C15.2311 6.57732 14.8316 6.52426 14.2441 6.48106C13.6846 6.43991 13.0276 6.41207 12.3953 6.39338C11.7643 6.37473 11.165 6.36538 10.7228 6.3607C10.502 6.35836 10.3207 6.35719 10.1949 6.35661C10.1321 6.35632 10.0831 6.35618 10.0499 6.3561H9.95023C9.91709 6.35618 9.86809 6.35632 9.80522 6.35661C9.67945 6.35719 9.49824 6.35836 9.27737 6.3607C8.83529 6.36538 8.23595 6.37473 7.60507 6.39338C6.97277 6.41207 6.3158 6.43991 5.75631 6.48106C5.16889 6.52426 4.76939 6.57732 4.6013 6.62558L4.60015 6.62591C4.46176 6.66542 4.32986 6.7444 4.2201 6.86084C4.11587 6.97141 4.03566 7.11174 3.9908 7.27076C3.80712 8.34755 3.71801 9.44029 3.72466 10.5349L3.72469 10.5399L3.72466 10.5449C3.71801 11.6395 3.80712 12.7322 3.9908 13.809C4.03566 13.968 4.11587 14.1084 4.2201 14.2189C4.32986 14.3354 4.46176 14.4143 4.60015 14.4539L4.6013 14.4542C4.76939 14.5025 5.16888 14.5555 5.75631 14.5987C6.3158 14.6398 6.97277 14.6677 7.60507 14.6864C8.23594 14.705 8.83528 14.7144 9.27736 14.719C9.49823 14.7214 9.67944 14.7225 9.80521 14.7231C9.86809 14.7234 9.91708 14.7236 9.95022 14.7236H10.0499C10.0831 14.7236 10.1321 14.7234 10.195 14.7231C10.3207 14.7225 10.502 14.7214 10.7228 14.719C11.165 14.7144 11.7643 14.705 12.3953 14.6864C13.0276 14.6677 13.6846 14.6398 14.2442 14.5987C14.8316 14.5555 15.2311 14.5024 15.3992 14.4542L15.4004 14.4539C15.5387 14.4143 15.6706 14.3354 15.7804 14.2189C15.8846 14.1084 15.9648 13.968 16.0097 13.809C16.1934 12.7322 16.2825 11.6395 16.2758 10.5449L16.2758 10.5399L16.2758 10.5349C16.2825 9.44029 16.1934 8.34754 16.0097 7.27075Z" fill="white"/>
<path fill-rule="evenodd" clip-rule="evenodd" d="M9.00916 8.11133L12.5334 10.4021L9.00916 12.6929V8.11133ZM9.66976 11.4756L11.3213 10.4021L9.66976 9.32862V11.4756Z" fill="white"/>
</svg>
