<svg width="30" height="30" viewBox="0 0 30 30" fill="none" xmlns="http://www.w3.org/2000/svg">
<path d="M15.1691 2.8125C8.3148 2.71993 2.7191 8.31563 2.81168 15.1699C2.90309 21.7436 8.25562 27.0961 14.8293 27.1875C21.6847 27.2813 27.2793 21.6856 27.1855 14.8313C27.0953 8.25645 21.7427 2.90391 15.1691 2.8125ZM14.1853 14.09L17.2058 10.633C17.3695 10.4458 17.6008 10.3312 17.8489 10.3145C18.097 10.2978 18.3416 10.3803 18.5289 10.5439C18.7161 10.7076 18.8307 10.9389 18.8474 11.187C18.8641 11.4351 18.7816 11.6797 18.6179 11.867L15.5974 15.324C15.5164 15.4167 15.4179 15.4926 15.3076 15.5473C15.1972 15.6019 15.0772 15.6343 14.9543 15.6426C14.8315 15.6508 14.7082 15.6348 14.5915 15.5955C14.4749 15.5561 14.3671 15.4941 14.2744 15.4131C14.1817 15.3321 14.1058 15.2336 14.0511 15.1232C13.9965 15.0129 13.9641 14.8929 13.9558 14.77C13.9476 14.6472 13.9636 14.5239 14.0029 14.4072C14.0423 14.2905 14.1043 14.1828 14.1853 14.09ZM11.9084 19.4133C11.7326 19.589 11.4942 19.6877 11.2457 19.6877C10.9971 19.6877 10.7588 19.589 10.583 19.4133L7.7734 16.6008C7.68637 16.5137 7.61735 16.4103 7.57028 16.2965C7.52322 16.1827 7.49902 16.0608 7.49907 15.9377C7.49913 15.8145 7.52343 15.6926 7.5706 15.5789C7.61777 15.4652 7.68688 15.3618 7.77398 15.2748C7.86109 15.1878 7.96448 15.1188 8.07826 15.0717C8.19203 15.0246 8.31396 15.0004 8.43709 15.0005C8.56022 15.0005 8.68213 15.0248 8.79587 15.072C8.9096 15.1192 9.01293 15.1883 9.09996 15.2754L11.9125 18.0879C12.0876 18.2642 12.1856 18.5029 12.1848 18.7514C12.184 19 12.0846 19.238 11.9084 19.4133ZM22.2677 11.867L15.7123 19.367C15.6278 19.4638 15.5244 19.5422 15.4083 19.5973C15.2923 19.6524 15.1662 19.6831 15.0379 19.6875H15.0062C14.883 19.6875 14.761 19.6633 14.6472 19.6161C14.5334 19.569 14.43 19.4998 14.3429 19.4127L11.5339 16.6002C11.3582 16.4243 11.2595 16.1858 11.2596 15.9371C11.2597 15.6884 11.3586 15.45 11.5345 15.2742C11.7104 15.0985 11.949 14.9998 12.1976 14.9999C12.4463 15 12.6847 15.0989 12.8605 15.2748L14.6066 17.0227C14.652 17.0681 14.7062 17.1037 14.7659 17.1272C14.8257 17.1508 14.8896 17.1619 14.9537 17.1597C15.0179 17.1576 15.081 17.1423 15.139 17.1148C15.197 17.0873 15.2487 17.0481 15.291 16.9998L20.8574 10.633C21.021 10.4458 21.2523 10.3312 21.5005 10.3145C21.7486 10.2978 21.9932 10.3803 22.1804 10.5439C22.3677 10.7076 22.4823 10.9389 22.499 11.187C22.5157 11.4351 22.4331 11.6797 22.2695 11.867H22.2677Z" fill="#00D254"/>
</svg>
