<svg width="30" height="24" viewBox="0 0 30 24" fill="none" xmlns="http://www.w3.org/2000/svg">
<path d="M0.0887661 5.77352C0.295183 6.43008 1.0392 6.88634 1.75814 6.79277C2.10217 6.74292 2.20217 6.69888 3.17737 6.17994C4.40915 5.51726 6.25344 4.75428 7.6479 4.32922C11.6869 3.09133 15.7823 2.87849 19.965 3.69773C22.416 4.17907 24.8545 5.06712 26.9676 6.25486C27.4052 6.49858 27.8991 6.72365 28.0743 6.76127C28.6244 6.88022 29.1559 6.71754 29.5373 6.30501C29.8749 5.95486 29.9687 5.71114 29.9687 5.19219C29.9687 4.7919 29.9437 4.67936 29.7999 4.42921C29.5498 4.01026 29.3122 3.84146 28.0743 3.20386C21.0216 -0.409807 13.1187 -0.985022 5.7033 1.5721C3.6214 2.29104 0.713825 3.69804 0.319952 4.17937C0.00130453 4.56683 -0.0861531 5.19831 0.0887661 5.77352Z" fill="#1E2A52"/>
<path d="M3.07822 11.5321C3.35956 12.2887 4.15373 12.7388 4.90386 12.57C5.07266 12.5324 5.53534 12.3198 5.93564 12.0948C8.61783 10.6003 11.7254 9.81899 14.9954 9.81899C18.1714 9.81899 21.0912 10.5691 24.1801 12.17C24.9367 12.5639 25.018 12.5951 25.3868 12.589C25.8431 12.589 26.1309 12.4825 26.4623 12.1951C26.8311 11.8636 26.9687 11.5575 26.9687 11.007C26.9687 10.0691 26.6437 9.76272 24.6242 8.74991C21.4793 7.17441 17.9843 6.41785 14.3703 6.53039C11.0939 6.62427 8.17412 7.34933 5.34819 8.76244C3.37882 9.75019 3.05987 10.0379 3.01614 10.8633C2.99687 11.1382 3.02195 11.3758 3.07822 11.5321Z" fill="#1E2A52"/>
<path d="M5.98503 17.2592C6.21653 17.9656 6.85412 18.4408 7.56695 18.4472C7.86694 18.4472 7.99844 18.4096 8.37977 18.1971C10.843 16.8402 12.6815 16.3213 14.9946 16.3213C17.308 16.3213 19.1462 16.8402 21.6094 18.1971C21.9596 18.3909 22.1345 18.4472 22.366 18.4472C23.1039 18.4472 23.7727 17.9659 23.9665 17.3029C24.0977 16.8402 24.054 16.5213 23.8103 16.0837C23.5601 15.6522 23.2412 15.4271 21.9972 14.802C19.7966 13.6892 17.9022 13.214 15.4888 13.1513C13.2567 13.095 11.625 13.3577 9.52409 14.1204C8.73634 14.4017 7.06054 15.2396 6.64801 15.5522C6.1413 15.9399 5.82265 16.7653 5.98503 17.2592Z" fill="#1E2A52"/>
<path d="M8.96712 23.1927C9.25488 23.7679 9.78606 24.0492 10.4741 23.9929C10.7805 23.9679 10.9429 23.918 11.168 23.774C12.6936 22.7737 13.4065 22.5486 14.9945 22.5486C16.5825 22.5486 17.2889 22.7737 18.8332 23.7804C19.1146 23.9618 19.1834 23.9804 19.6525 23.9804C20.1087 23.9804 20.1901 23.9618 20.4653 23.7929C20.9093 23.5177 21.1405 23.1177 21.1717 22.5737C21.2029 22.0673 21.1154 21.7673 20.8528 21.467C20.565 21.1419 19.8274 20.6667 18.9082 20.2227C17.5201 19.5539 16.87 19.3912 15.4321 19.3414C14.3067 19.3038 13.4688 19.4038 12.3933 19.7041C11.3429 19.9918 9.87994 20.7606 9.24846 21.3484C8.77324 21.786 8.65459 22.5673 8.96712 23.1927Z" fill="#1E2A52"/>
</svg>
