<svg width="55" height="49" viewBox="0 0 55 49" fill="none" xmlns="http://www.w3.org/2000/svg">
<path d="M19.6914 3.56746H34.2859V29.7913H19.6914V3.56746Z" fill="#FF5F00"/>
<path d="M20.6178 16.6795C20.6178 11.3514 23.1196 6.62545 26.9651 3.56747C24.139 1.34358 20.5716 0 16.6797 0C7.45933 0 0 7.45933 0 16.6795C0 25.8994 7.45933 33.359 16.6795 33.359C20.5713 33.359 24.1388 32.0154 26.9651 29.7913C23.1196 26.7798 20.6178 22.0076 20.6178 16.6795Z" fill="#EB001B"/>
<path d="M53.9748 16.6795C53.9748 25.8994 46.5155 33.359 37.2953 33.359C33.4035 33.359 29.836 32.0154 27.0098 29.7913C30.9016 26.7335 33.3573 22.0076 33.3573 16.6795C33.3573 11.3514 30.8552 6.62545 27.0098 3.56747C29.8358 1.34358 33.4035 0 37.2953 0C46.5155 0 53.975 7.50576 53.975 16.6795H53.9748Z" fill="#F79E1B"/>
<path d="M10.0889 48.2084V45.4286C10.0889 44.3628 9.44014 43.668 8.32809 43.668C7.77217 43.668 7.16982 43.8533 6.75277 44.4556C6.42859 43.9459 5.96533 43.668 5.27032 43.668C4.80684 43.668 4.34379 43.8068 3.97297 44.3165V43.7606H3V48.2084H3.97297V45.7528C3.97297 44.9653 4.39001 44.5945 5.03879 44.5945C5.68716 44.5945 6.01176 45.0115 6.01176 45.7528V48.2084H6.98472V45.7528C6.98472 44.9653 7.44778 44.5945 8.05013 44.5945C8.69892 44.5945 9.0231 45.0115 9.0231 45.7528V48.2084H10.0889ZM24.4979 43.7606H22.9228V42.417H21.9498V43.7606H21.0695V44.6407H21.9496V46.6795C21.9496 47.6989 22.3666 48.3011 23.4787 48.3011C23.8957 48.3011 24.3588 48.1622 24.6834 47.9769L24.4052 47.1428C24.1273 47.3281 23.8031 47.3745 23.5713 47.3745C23.1081 47.3745 22.9228 47.0966 22.9228 46.6331V44.6407H24.4979V43.7606ZM32.7451 43.6678C32.1892 43.6678 31.8185 43.9459 31.5868 44.3165V43.7606H30.6138V48.2084H31.5868V45.7066C31.5868 44.9653 31.911 44.5483 32.5133 44.5483C32.6986 44.5483 32.9304 44.5947 33.1157 44.6409L33.3937 43.7144C33.2083 43.668 32.9304 43.668 32.7451 43.668V43.6678ZM20.2818 44.1312C19.8184 43.8068 19.1698 43.668 18.4748 43.668C17.3629 43.668 16.6217 44.2239 16.6217 45.1042C16.6217 45.8456 17.1776 46.2625 18.1506 46.4016L18.6139 46.448C19.1236 46.5404 19.4015 46.6795 19.4015 46.9113C19.4015 47.2354 19.0309 47.4672 18.3821 47.4672C17.7336 47.4672 17.2239 47.2354 16.8995 47.0039L16.4362 47.7451C16.9459 48.1157 17.6409 48.3011 18.3357 48.3011C19.6331 48.3011 20.3745 47.6989 20.3745 46.8648C20.3745 46.0772 19.7721 45.6601 18.8454 45.5212L18.3821 45.4748C17.9651 45.4284 17.6409 45.3359 17.6409 45.058C17.6409 44.7336 17.9651 44.5483 18.4748 44.5483C19.0309 44.5483 19.5868 44.7798 19.8648 44.9189L20.2818 44.1312ZM46.1351 43.668C45.5789 43.668 45.2083 43.9459 44.9766 44.3165V43.7606H44.0036V48.2084H44.9766V45.7066C44.9766 44.9653 45.301 44.5483 45.9031 44.5483C46.0886 44.5483 46.3204 44.5947 46.5057 44.6409L46.7836 43.7144C46.5983 43.668 46.3204 43.668 46.1351 43.668ZM33.718 45.9845C33.718 47.3281 34.6446 48.3011 36.081 48.3011C36.7296 48.3011 37.1929 48.1622 37.6561 47.7916L37.1929 47.0039C36.8222 47.2819 36.4516 47.4207 36.0346 47.4207C35.2469 47.4207 34.691 46.8648 34.691 45.9845C34.691 45.1506 35.2469 44.5945 36.0346 44.5483C36.4516 44.5483 36.8222 44.6872 37.1929 44.9653L37.6561 44.1777C37.1929 43.8068 36.7296 43.668 36.081 43.668C34.6446 43.668 33.718 44.6409 33.718 45.9845ZM42.7065 45.9845V43.7606H41.7335V44.3165C41.4091 43.8997 40.9458 43.668 40.3435 43.668C39.0926 43.668 38.1196 44.6409 38.1196 45.9845C38.1196 47.3281 39.0926 48.3011 40.3435 48.3011C40.9921 48.3011 41.4555 48.0695 41.7335 47.6525V48.2084H42.7065V45.9845ZM39.1388 45.9845C39.1388 45.1969 39.6485 44.5483 40.4824 44.5483C41.27 44.5483 41.8262 45.1506 41.8262 45.9845C41.8262 46.7722 41.27 47.4207 40.4824 47.4207C39.6485 47.3743 39.1388 46.7722 39.1388 45.9845ZM27.5096 43.668C26.2123 43.668 25.2855 44.5945 25.2855 45.9845C25.2855 47.3745 26.2121 48.3011 27.5559 48.3011C28.2044 48.3011 28.8532 48.1157 29.3629 47.6989L28.8994 47.0039C28.5288 47.2819 28.0656 47.4672 27.6023 47.4672C26.9999 47.4672 26.3976 47.1892 26.2585 46.4013H29.5482V46.0309C29.5947 44.5945 28.7606 43.668 27.5094 43.668H27.5096ZM27.5096 44.5019C28.1118 44.5019 28.529 44.8727 28.6215 45.5677H26.3049C26.3976 44.9653 26.8146 44.5019 27.5096 44.5019ZM51.6485 45.9845V42H50.6755V44.3165C50.3511 43.8997 49.8878 43.668 49.2855 43.668C48.0346 43.668 47.0616 44.6409 47.0616 45.9845C47.0616 47.3281 48.0346 48.3011 49.2855 48.3011C49.9343 48.3011 50.3975 48.0695 50.6755 47.6525V48.2084H51.6485V45.9845ZM48.081 45.9845C48.081 45.1969 48.5905 44.5483 49.4246 44.5483C50.2122 44.5483 50.7681 45.1506 50.7681 45.9845C50.7681 46.7722 50.2122 47.4207 49.4246 47.4207C48.5905 47.3743 48.081 46.7722 48.081 45.9845ZM15.5559 45.9845V43.7606H14.5829V44.3165C14.2585 43.8997 13.7953 43.668 13.1929 43.668C11.942 43.668 10.969 44.6409 10.969 45.9845C10.969 47.3281 11.942 48.3011 13.1929 48.3011C13.8417 48.3011 14.305 48.0695 14.5829 47.6525V48.2084H15.5559V45.9845ZM11.942 45.9845C11.942 45.1969 12.4517 44.5483 13.2856 44.5483C14.0732 44.5483 14.6294 45.1506 14.6294 45.9845C14.6294 46.7722 14.0732 47.4207 13.2856 47.4207C12.4517 47.3743 11.942 46.7722 11.942 45.9845Z" fill="black"/>
</svg>
