<svg width="39" height="31" viewBox="0 0 39 31" fill="none" xmlns="http://www.w3.org/2000/svg">
<path d="M14.2129 5.62195H24.7475V24.5508H14.2129V5.62195Z" fill="#FF5F00"/>
<path d="M14.8823 15.0864C14.8823 11.2405 16.6882 7.82925 19.4639 5.62194C17.424 4.0167 14.8489 3.04688 12.0397 3.04688C5.38428 3.04688 0 8.43116 0 15.0864C0 21.7416 5.38428 27.126 12.0396 27.126C14.8488 27.126 17.4239 26.1562 19.4639 24.5508C16.6882 22.377 14.8823 18.9324 14.8823 15.0864Z" fill="#EB001B"/>
<path d="M38.96 15.0864C38.96 21.7416 33.5757 27.126 26.9204 27.126C24.1112 27.126 21.5361 26.1562 19.4961 24.5508C22.3053 22.3436 24.0778 18.9324 24.0778 15.0864C24.0778 11.2405 22.2718 7.82925 19.4961 5.62194C21.536 4.0167 24.1112 3.04688 26.9204 3.04688C33.5757 3.04688 38.9601 8.46468 38.9601 15.0864H38.96Z" fill="#F79E1B"/>
</svg>
