<svg width="60" height="60" viewBox="0 0 60 60" fill="none" xmlns="http://www.w3.org/2000/svg">
<path d="M30 60C46.5685 60 60 46.5685 60 30C60 13.4315 46.5685 0 30 0C13.4315 0 0 13.4315 0 30C0 46.5685 13.4315 60 30 60Z" fill="#DDF3E6"/>
<path d="M46.2 29.968C46.2 21.7041 39.7001 15 31.232 15C25.6054 15 20.721 18.0827 18.1583 22.6696L25.4568 29.968C25.4568 26.7737 28.1493 24.1924 31.232 24.1924C34.5006 24.1924 37.0076 26.7737 37.0076 29.968C37.0076 33.1623 34.4819 35.7436 31.232 35.7436H18.7897C15.707 35.7436 13.2 38.2505 13.2 41.3332V44.936H31.232C39.6445 44.936 46.2 38.2319 46.2 29.968Z" fill="#00D254"/>
</svg>
