<svg width="100" height="100" viewBox="0 0 100 100" fill="none" xmlns="http://www.w3.org/2000/svg">
<path d="M50 100C77.6142 100 100 77.6142 100 50C100 22.3858 77.6142 0 50 0C22.3858 0 0 22.3858 0 50C0 77.6142 22.3858 100 50 100Z" fill="#0DBDFF"/>
<path d="M77 49.9466C77 36.1735 66.1669 25 52.0534 25C42.6756 25 34.535 30.1378 30.2639 37.7826L42.4279 49.9466C42.4279 44.6228 46.9156 40.3207 52.0534 40.3207C57.501 40.3207 61.6793 44.6228 61.6793 49.9466C61.6793 55.2705 57.4699 59.5726 52.0534 59.5726H31.3161C26.1783 59.5726 22 63.7509 22 68.8887V74.8933H52.0534C66.0742 74.8933 77 63.7198 77 49.9466Z" fill="white"/>
</svg>
