<svg width="100" height="100" viewBox="0 0 100 100" fill="none" xmlns="http://www.w3.org/2000/svg">
<path d="M50 100C77.6142 100 100 77.6142 100 50C100 22.3858 77.6142 0 50 0C22.3858 0 0 22.3858 0 50C0 77.6142 22.3858 100 50 100Z" fill="white"/>
<path d="M100 50.1253C100 22.4561 77.6 0 50 0C22.4 0 0 22.4561 0 50.1253C0 74.386 17.2 94.5865 40 99.2481V65.1629H30V50.1253H40V37.594C40 27.9198 47.85 20.0501 57.5 20.0501H70V35.0877H60C57.25 35.0877 55 37.3434 55 40.1003V50.1253H70V65.1629H55V100C80.25 97.4937 100 76.1404 100 50.1253Z" fill="#3C5A9A"/>
</svg>
