<svg width="60" height="60" viewBox="0 0 60 60" fill="none" xmlns="http://www.w3.org/2000/svg">
<path d="M30 60C46.5685 60 60 46.5685 60 30C60 13.4315 46.5685 0 30 0C13.4315 0 0 13.4315 0 30C0 46.5685 13.4315 60 30 60Z" fill="#00D254"/>
<path d="M60 30.0752C60 13.4737 46.56 0 30 0C13.44 0 0 13.4737 0 30.0752C0 44.6316 10.32 56.7519 24 59.5489V39.0977H18V30.0752H24V22.5564C24 16.7519 28.71 12.0301 34.5 12.0301H42V21.0526H36C34.35 21.0526 33 22.406 33 24.0602V30.0752H42V39.0977H33V60C48.15 58.4962 60 45.6842 60 30.0752Z" fill="#DDF3E6"/>
</svg>
