<svg width="60" height="60" viewBox="0 0 60 60" fill="none" xmlns="http://www.w3.org/2000/svg">
<path d="M30 60C46.5685 60 60 46.5685 60 30C60 13.4315 46.5685 0 30 0C13.4315 0 0 13.4315 0 30C0 46.5685 13.4315 60 30 60Z" fill="#DDF3E6"/>
<path opacity="0.4" d="M46.2045 43.3451C46.2079 44.0003 46.072 44.6488 45.8058 45.2475C45.5396 45.8462 45.1492 46.3815 44.6605 46.8179C44.1717 47.2543 43.5958 47.5819 42.9709 47.7789C42.346 47.9759 41.6864 48.0378 41.0357 47.9605C38.6672 47.6101 36.9316 45.5491 36.9893 43.1554V15.6364C36.9321 13.2403 38.672 11.1781 41.0436 10.8314C41.6936 10.7553 42.3524 10.8181 42.9764 11.0156C43.6004 11.2131 44.1753 11.5408 44.6631 11.9771C45.151 12.4134 45.5407 12.9483 45.8064 13.5464C46.0721 14.1445 46.2078 14.7923 46.2045 15.4467V43.3451Z" fill="#00D254"/>
<path d="M17.2075 38.785C19.7523 38.785 21.8151 40.848 21.8151 43.3926C21.8151 45.9373 19.7523 48.0001 17.2075 48.0001C14.6628 48.0001 12.6 45.9373 12.6 43.3927C12.6 40.848 14.6628 38.785 17.2075 38.785ZM29.331 24.82C26.7743 24.9602 24.7905 27.1048 24.85 29.6648V42.0412C24.85 45.4 26.3279 47.4391 28.4933 47.8737C29.1646 48.0098 29.8578 47.9948 30.5226 47.8297C31.1874 47.6646 31.8071 47.3536 32.3368 46.9192C32.8664 46.4849 33.2928 45.9381 33.5849 45.3185C33.877 44.699 34.0276 44.0222 34.0256 43.3372V29.4515C34.0267 28.8376 33.9056 28.2297 33.6693 27.6631C33.433 27.0966 33.0862 26.5828 32.6492 26.1517C32.2122 25.7205 31.6937 25.3808 31.124 25.1522C30.5543 24.9236 29.9448 24.8107 29.331 24.8201V24.82Z" fill="#00D254"/>
</svg>
