<svg width="100" height="100" viewBox="0 0 100 100" fill="none" xmlns="http://www.w3.org/2000/svg">
<path d="M99 50C99 77.062 77.062 99 50 99C22.938 99 1 77.062 1 50C1 22.938 22.938 1 50 1C77.062 1 99 22.938 99 50Z" fill="white" stroke="#F9AB00" stroke-width="2"/>
<path d="M77.0075 72.2417C77.0132 73.3338 76.7867 74.4145 76.343 75.4124C75.8994 76.4102 75.2487 77.3024 74.4342 78.0298C73.6196 78.7571 72.6598 79.303 71.6183 79.6314C70.5768 79.9597 69.4774 80.0629 68.393 79.9342C64.4453 79.35 61.5527 75.915 61.6489 71.9256V26.0606C61.5536 22.067 64.4534 18.6301 68.4061 18.0523C69.4895 17.9254 70.5875 18.0301 71.6274 18.3592C72.6674 18.6884 73.6256 19.2346 74.4387 19.9618C75.2518 20.6889 75.9012 21.5804 76.344 22.5773C76.7869 23.5741 77.013 24.6537 77.0075 25.7445V72.2417Z" fill="#F9AB00"/>
<path d="M28.6793 64.6415C32.9205 64.6415 36.3586 68.0798 36.3586 72.3208C36.3586 76.562 32.9205 80.0001 28.6793 80.0001C24.4381 80.0001 21 76.562 21 72.321C21 68.0798 24.4381 64.6415 28.6793 64.6415ZM48.8851 41.3665C44.624 41.6002 41.3176 45.1746 41.4167 49.4412V70.0685C41.4167 75.6666 43.8799 79.0651 47.4888 79.7894C48.6077 80.0162 49.763 79.9911 50.871 79.716C51.979 79.4408 53.0119 78.9225 53.8946 78.1986C54.7774 77.4747 55.488 76.5634 55.9749 75.5308C56.4617 74.4982 56.7126 73.3701 56.7094 72.2285V49.0856C56.7113 48.0625 56.5094 47.0493 56.1155 46.1051C55.7216 45.1608 55.1437 44.3045 54.4154 43.586C53.687 42.8675 52.8229 42.3012 51.8734 41.9202C50.9239 41.5391 49.908 41.351 48.8851 41.3668V41.3665Z" fill="#E37400"/>
</svg>
