<svg width="100" height="100" viewBox="0 0 100 100" fill="none" xmlns="http://www.w3.org/2000/svg">
<path d="M99 50C99 77.062 77.062 99 50 99C22.938 99 1 77.062 1 50C1 22.938 22.938 1 50 1C77.062 1 99 22.938 99 50Z" fill="white" stroke="#246FDB" stroke-width="2"/>
<path d="M55.5649 79.3778L44.4558 68.5452L68.3136 44.1821L79.8152 55.4547L55.5649 79.3778Z" fill="#8AB4F8"/>
<path d="M55.6118 31.4842L44.5435 20.1826L20.34 44.1567C17.22 47.2766 17.22 52.3348 20.34 55.4583L44.1795 79.4543L55.4518 68.909L37.2887 49.8076L55.6121 31.4842H55.6118Z" fill="#4285F4"/>
<path d="M79.6551 44.3419L55.6556 20.3423C52.5321 17.2189 47.4667 17.2189 44.3433 20.3423C41.2196 23.466 41.2196 28.5314 44.3433 31.6551L68.3428 55.6547C71.4663 58.7782 76.5317 58.7782 79.6551 55.6547C82.7788 52.531 82.7788 47.4656 79.6551 44.3422V44.3419Z" fill="#8AB4F8"/>
<path d="M49.8157 81.9998C54.1335 81.9998 57.6338 78.4995 57.6338 74.1816C57.6338 69.8638 54.1335 66.3635 49.8157 66.3635C45.4978 66.3635 41.9976 69.8638 41.9976 74.1816C41.9976 78.4995 45.4978 81.9998 49.8157 81.9998Z" fill="#246FDB"/>
</svg>
