<svg width="60" height="60" viewBox="0 0 60 60" fill="none" xmlns="http://www.w3.org/2000/svg">
<path d="M30 60C46.5685 60 60 46.5685 60 30C60 13.4315 46.5685 0 30 0C13.4315 0 0 13.4315 0 30C0 46.5685 13.4315 60 30 60Z" fill="#DDF3E6"/>
<path d="M33.3389 47.6267L26.6735 41.1271L40.9882 26.5093L47.8891 33.2728L33.3389 47.6267Z" fill="#85E6AC"/>
<path d="M33.3671 18.8904L26.7261 12.1095L12.204 26.4939C10.332 28.3659 10.332 31.4008 12.204 33.2749L26.5077 47.6725L33.2711 41.3453L22.3732 29.8845L33.3672 18.8904H33.3671Z" fill="#00D254"/>
<path d="M47.7931 26.6051L33.3934 12.2054C31.5193 10.3313 28.48 10.3313 26.606 12.2054C24.7318 14.0796 24.7318 17.1188 26.606 18.993L41.0057 33.3928C42.8798 35.2668 45.919 35.2668 47.7931 33.3928C49.6673 31.5186 49.6673 28.4793 47.7931 26.6053V26.6051Z" fill="#85E6AC"/>
<path d="M29.8894 49.1999C32.4801 49.1999 34.5803 47.0997 34.5803 44.509C34.5803 41.9183 32.4801 39.8181 29.8894 39.8181C27.2987 39.8181 25.1985 41.9183 25.1985 44.509C25.1985 47.0997 27.2987 49.1999 29.8894 49.1999Z" fill="#00A642"/>
</svg>
