<svg width="60" height="60" viewBox="0 0 60 60" fill="none" xmlns="http://www.w3.org/2000/svg">
<path d="M30 60C46.5685 60 60 46.5685 60 30C60 13.4315 46.5685 0 30 0C13.4315 0 0 13.4315 0 30C0 46.5685 13.4315 60 30 60Z" fill="#DDF3E6"/>
<path d="M22.5042 16.4001C22.5037 17.2488 22.1662 18.0625 21.5658 18.6624C20.9654 19.2622 20.1512 19.5989 19.3026 19.5985C18.4539 19.5981 17.6401 19.2605 17.0403 18.6601C16.4405 18.0597 16.1037 17.2456 16.1042 16.3969C16.1046 15.5482 16.4421 14.7344 17.0425 14.1346C17.643 13.5348 18.4571 13.1981 19.3058 13.1985C20.1544 13.1989 20.9682 13.5365 21.568 14.1369C22.1678 14.7373 22.5046 15.5514 22.5042 16.4001ZM22.6002 21.9681H16.2002V42.0001H22.6002V21.9681ZM32.7122 21.9681H26.3442V42.0001H32.6482V31.4881C32.6482 25.6321 40.2802 25.0881 40.2802 31.4881V42.0001H46.6002V29.3121C46.6002 19.4401 35.3042 19.8081 32.6482 24.6561L32.7122 21.9681Z" fill="#00D254"/>
</svg>
