<svg width="100" height="100" viewBox="0 0 100 100" fill="none" xmlns="http://www.w3.org/2000/svg">
<path d="M50 100C77.6142 100 100 77.6142 100 50C100 22.3858 77.6142 0 50 0C22.3858 0 0 22.3858 0 50C0 77.6142 22.3858 100 50 100Z" fill="#0177B5"/>
<path d="M37.5068 27.3329C37.506 28.7474 36.9435 30.1037 35.9428 31.1034C34.9421 32.1031 33.5852 32.6643 32.1708 32.6636C30.7563 32.6629 29.4 32.1003 28.4003 31.0996C27.4006 30.0989 26.8394 28.7421 26.8401 27.3276C26.8408 25.9131 27.4034 24.5569 28.4041 23.5572C29.4048 22.5575 30.7616 21.9962 32.1761 21.9969C33.5906 21.9977 34.9468 22.5602 35.9465 23.5609C36.9462 24.5616 37.5075 25.9185 37.5068 27.3329ZM37.6668 36.6129H27.0001V69.9996H37.6668V36.6129ZM54.5201 36.6129H43.9068V69.9996H54.4134V52.4796C54.4134 42.7196 67.1334 41.813 67.1334 52.4796V69.9996H77.6668V48.8529C77.6668 32.3996 58.8401 33.0129 54.4134 41.0929L54.5201 36.6129Z" fill="white"/>
</svg>
