<svg width="100" height="100" viewBox="0 0 100 100" fill="none" xmlns="http://www.w3.org/2000/svg">
<path d="M50 100C77.6142 100 100 77.6142 100 50C100 22.3858 77.6142 0 50 0C22.3858 0 0 22.3858 0 50C0 77.6142 22.3858 100 50 100Z" fill="white"/>
<path d="M0 49.9994C0 70.4731 12.3114 88.0617 29.9285 95.7946C29.7879 92.3033 29.9035 88.1121 30.7988 84.3133C31.7601 80.2544 37.2322 57.0688 37.2322 57.0688C37.2322 57.0688 35.635 53.8763 35.635 49.158C35.635 41.7485 39.9294 36.2146 45.2777 36.2146C49.8256 36.2146 52.0228 39.6306 52.0228 43.7211C52.0228 48.2928 49.1069 55.1313 47.6073 61.4651C46.3546 66.7689 50.2666 71.0949 55.4989 71.0949C64.9721 71.0949 71.3523 58.9277 71.3523 44.5117C71.3523 33.5534 63.9717 25.3513 50.5474 25.3513C35.3807 25.3513 25.9321 36.6619 25.9321 49.2959C25.9321 53.6521 27.2164 56.7238 29.2281 59.1027C30.1531 60.1952 30.2816 60.6347 29.9468 61.8893C29.707 62.8092 29.1562 65.024 28.9281 65.9017C28.5953 67.1681 27.5692 67.6208 26.4247 67.1532C19.4389 64.3014 16.1855 56.6512 16.1855 48.0514C16.1855 33.8483 28.1641 16.8175 51.9197 16.8175C71.009 16.8175 83.5731 30.6312 83.5731 45.4593C83.5731 65.0732 72.6687 79.7263 56.5949 79.7263C51.197 79.7263 46.1194 76.8084 44.38 73.4941C44.38 73.4941 41.4774 85.0141 40.8626 87.2386C39.8024 91.0936 37.7275 94.9466 35.8303 97.9497C40.4308 99.3099 45.2032 100 50.0006 100C77.6108 100 99.9977 77.6143 99.9977 49.9994C99.9977 22.3857 77.6108 0 50.0006 0C22.3877 0 0 22.3857 0 49.9994Z" fill="#CB1F27"/>
</svg>
