<svg width="60" height="60" viewBox="0 0 60 60" fill="none" xmlns="http://www.w3.org/2000/svg">
<path d="M30 60C46.5685 60 60 46.5685 60 30C60 13.4315 46.5685 0 30 0C13.4315 0 0 13.4315 0 30C0 46.5685 13.4315 60 30 60Z" fill="#00D254"/>
<path d="M0 29.9997C0 42.2838 7.38683 52.837 17.9571 57.4768C17.8727 55.382 17.9421 52.8672 18.4793 50.588C19.056 48.1527 22.3393 34.2413 22.3393 34.2413C22.3393 34.2413 21.381 32.3258 21.381 29.4948C21.381 25.0491 23.9576 21.7288 27.1666 21.7288C29.8954 21.7288 31.2137 23.7783 31.2137 26.2326C31.2137 28.9757 29.4641 33.0788 28.5644 36.8791C27.8128 40.0613 30.16 42.657 33.2993 42.657C38.9832 42.657 42.8114 35.3566 42.8114 26.707C42.8114 20.132 38.383 15.2108 30.3285 15.2108C21.2284 15.2108 15.5593 21.9971 15.5593 29.5776C15.5593 32.1912 16.3299 34.0343 17.5369 35.4616C18.0919 36.1171 18.169 36.3808 17.9681 37.1336C17.8242 37.6855 17.4937 39.0144 17.3569 39.541C17.1572 40.3009 16.5415 40.5725 15.8548 40.292C11.6634 38.5808 9.7113 33.9907 9.7113 28.8309C9.7113 20.309 16.8984 10.0905 31.1518 10.0905C42.6054 10.0905 50.1439 18.3787 50.1439 27.2756C50.1439 39.0439 43.6012 47.8358 33.957 47.8358C30.7182 47.8358 27.6717 46.0851 26.628 44.0965C26.628 44.0965 24.8864 51.0085 24.5175 52.3432C23.8815 54.6562 22.6365 56.968 21.4982 58.7698C24.2585 59.586 27.1219 60.0003 30.0004 60C46.5665 60 59.9986 46.5686 59.9986 29.9997C59.9986 13.4314 46.5665 0 30.0004 0C13.4326 0 0 13.4314 0 29.9997Z" fill="#DDF3E6"/>
</svg>
