<svg width="60" height="60" viewBox="0 0 60 60" fill="none" xmlns="http://www.w3.org/2000/svg">
<path d="M30 60C46.5685 60 60 46.5685 60 30C60 13.4315 46.5685 0 30 0C13.4315 0 0 13.4315 0 30C0 46.5685 13.4315 60 30 60Z" fill="#DDF3E6"/>
<path d="M49.7314 43.0028H47.22C47.0914 44.16 46.32 45.6428 44.3914 45.6428C42.6343 45.6428 41.3657 44.4257 40.1486 42.5743C43.9372 39.6428 46.5514 35.0743 46.5514 29.46C46.56 19.3885 38.2714 12.6 29.5457 12.6C21 12.6 12.6 19.4314 12.6 29.46C12.6 40.9543 23.8543 48.4543 33.9429 45.66C35.6314 48.54 37.86 51 42.1029 51C49.1143 51 49.8857 44.5457 49.7314 43.0028ZM37.4314 38.0743C35.76 35.5714 33.6857 33.6 29.5886 33.6C26.9743 33.6 24.9343 34.4571 23.6743 35.5543L24.72 37.6371C25.2514 37.38 25.8343 37.2943 26.4171 37.2943C29.46 37.2943 31.02 39.9343 32.3486 42.5485C31.4914 42.8057 30.5743 42.9085 29.5457 42.9085C23.1171 42.9085 20.3314 38.3657 20.3314 29.4771C20.3314 20.5285 23.1171 15.9428 29.5457 15.9428C36.0771 15.9428 38.8629 20.5285 38.8629 29.46C38.8714 33.0428 38.4 35.94 37.4314 38.0743Z" fill="#00D254"/>
</svg>
