<svg width="100" height="100" viewBox="0 0 100 100" fill="none" xmlns="http://www.w3.org/2000/svg">
<path d="M50 100C77.6142 100 100 77.6142 100 50C100 22.3858 77.6142 0 50 0C22.3858 0 0 22.3858 0 50C0 77.6142 22.3858 100 50 100Z" fill="#B92B27"/>
<path d="M82.8857 71.6714H78.7C78.4857 73.6 77.2 76.0714 73.9857 76.0714C71.0571 76.0714 68.9429 74.0429 66.9143 70.9571C73.2286 66.0714 77.5857 58.4571 77.5857 49.1C77.6 32.3143 63.7857 21 49.2429 21C35 21 21 32.3857 21 49.1C21 68.2571 39.7571 80.7571 56.5714 76.1C59.3857 80.9 63.1 85 70.1714 85C81.8571 85 83.1429 74.2429 82.8857 71.6714ZM62.3857 63.4571C59.6 59.2857 56.1429 56 49.3143 56C44.9571 56 41.5571 57.4286 39.4571 59.2571L41.2 62.7286C42.0857 62.3 43.0571 62.1571 44.0286 62.1571C49.1 62.1571 51.7 66.5571 53.9143 70.9143C52.4857 71.3429 50.9571 71.5143 49.2429 71.5143C38.5286 71.5143 33.8857 63.9429 33.8857 49.1286C33.8857 34.2143 38.5286 26.5714 49.2429 26.5714C60.1286 26.5714 64.7714 34.2143 64.7714 49.1C64.7857 55.0714 64 59.9 62.3857 63.4571Z" fill="white"/>
</svg>
