<svg width="60" height="60" viewBox="0 0 60 60" fill="none" xmlns="http://www.w3.org/2000/svg">
<path d="M30 60C46.5685 60 60 46.5685 60 30C60 13.4315 46.5685 0 30 0C13.4315 0 0 13.4315 0 30C0 46.5685 13.4315 60 30 60Z" fill="#DDF3E6"/>
<path d="M49.957 30.2859C49.957 27.854 47.9904 25.9225 45.5937 25.9225C44.4615 25.921 43.3725 26.3567 42.5538 27.1387C39.5496 24.9925 35.4363 23.598 30.8585 23.4192L32.861 14.0486L39.3703 15.4432C39.4423 17.0885 40.8009 18.412 42.4823 18.412C44.1989 18.412 45.5937 17.0175 45.5937 15.3C45.5937 13.5834 44.1991 12.1886 42.4823 12.1886C41.2664 12.1886 40.193 12.9039 39.6923 13.9413L32.4323 12.4033C32.2177 12.3672 32.003 12.4033 31.8598 12.5107C31.6809 12.618 31.5738 12.7966 31.5384 13.0113L29.3203 23.4546C24.671 23.598 20.4863 24.9925 17.4464 27.1746C16.6276 26.3926 15.5385 25.957 14.4063 25.9586C11.9742 25.9586 10.043 27.9253 10.043 30.322C10.043 32.11 11.1157 33.6119 12.6183 34.2921C12.5453 34.7294 12.5094 35.172 12.5109 35.6153C12.5109 42.3386 20.3438 47.8113 30.0002 47.8113C39.657 47.8113 47.4898 42.3747 47.4898 35.6153C47.4895 35.1721 47.4536 34.7296 47.3824 34.2921C48.8843 33.6119 49.957 32.0739 49.957 30.2859ZM19.9856 33.3972C19.9856 31.6807 21.3802 30.2859 23.0977 30.2859C24.8142 30.2859 26.209 31.6804 26.209 33.3972C26.209 35.114 24.8145 36.5093 23.0977 36.5093C21.3804 36.5444 19.9856 35.114 19.9856 33.3972ZM37.4037 41.6592C35.2577 43.8053 31.1803 43.9486 30.0002 43.9486C28.7843 43.9486 24.7071 43.7693 22.5963 41.6592C22.275 41.3374 22.275 40.8365 22.5963 40.5147C22.9184 40.1934 23.419 40.1934 23.741 40.5147C25.1004 41.8741 27.9616 42.3386 30.0002 42.3386C32.0391 42.3386 34.9357 41.8739 36.259 40.5147C36.581 40.1934 37.0816 40.1934 37.4037 40.5147C37.6896 40.8365 37.6896 41.3374 37.4037 41.6592ZM36.8311 36.5446C35.1143 36.5446 33.7198 35.1501 33.7198 33.4333C33.7198 31.7165 35.1143 30.322 36.8311 30.322C38.5484 30.322 39.9429 31.7165 39.9429 33.4333C39.9429 35.1138 38.5484 36.5446 36.8311 36.5446Z" fill="#00D254"/>
</svg>
