<svg width="100" height="100" viewBox="0 0 100 100" fill="none" xmlns="http://www.w3.org/2000/svg">
<path d="M50 100C77.6142 100 100 77.6142 100 50C100 22.3858 77.6142 0 50 0C22.3858 0 0 22.3858 0 50C0 77.6142 22.3858 100 50 100Z" fill="#FF4500"/>
<path d="M83.2617 50.4764C83.2617 46.4233 79.984 43.2042 75.9895 43.2042C74.1025 43.2016 72.2875 43.9278 70.923 45.2311C65.916 41.6542 59.0605 39.33 51.4309 39.0319L54.7684 23.4143L65.6172 25.7385C65.7371 28.4807 68.0016 30.6866 70.8039 30.6866C73.6648 30.6866 75.9895 28.3624 75.9895 25.4999C75.9895 22.6389 73.6652 20.3143 70.8039 20.3143C68.7773 20.3143 66.9883 21.5065 66.1539 23.2354L54.0539 20.6721C53.6961 20.612 53.3383 20.6721 53.0996 20.8511C52.8016 21.03 52.623 21.3276 52.5641 21.6854L48.8672 39.0909C41.1184 39.33 34.1438 41.6542 29.0773 45.2909C27.7127 43.9876 25.8976 43.2616 24.0105 43.2643C19.957 43.2643 16.7383 46.5421 16.7383 50.5366C16.7383 53.5167 18.5262 56.0198 21.0305 57.1534C20.9089 57.8822 20.849 58.62 20.8516 59.3589C20.8516 70.5643 33.9063 79.6854 50.0004 79.6854C66.0949 79.6854 79.1496 70.6245 79.1496 59.3589C79.1492 58.6201 79.0893 57.8826 78.9707 57.1534C81.4738 56.0198 83.2617 53.4565 83.2617 50.4764ZM33.3094 55.662C33.3094 52.801 35.6336 50.4764 38.4961 50.4764C41.357 50.4764 43.6816 52.8007 43.6816 55.662C43.6816 58.5233 41.3574 60.8487 38.4961 60.8487C35.634 60.9073 33.3094 58.5233 33.3094 55.662ZM62.3395 69.4319C58.7629 73.0089 51.9672 73.2475 50.0004 73.2475C47.9738 73.2475 41.1785 72.9487 37.6605 69.4319C37.125 68.8956 37.125 68.0608 37.6605 67.5245C38.1973 66.9889 39.0316 66.9889 39.5684 67.5245C41.834 69.7901 46.6027 70.5643 50.0004 70.5643C53.3984 70.5643 58.2262 69.7897 60.4316 67.5245C60.9684 66.9889 61.8027 66.9889 62.3395 67.5245C62.816 68.0608 62.816 68.8956 62.3395 69.4319ZM61.3852 60.9077C58.5238 60.9077 56.1996 58.5835 56.1996 55.7221C56.1996 52.8608 58.5238 50.5366 61.3852 50.5366C64.2473 50.5366 66.5715 52.8608 66.5715 55.7221C66.5715 58.5229 64.2473 60.9077 61.3852 60.9077Z" fill="white"/>
</svg>
