<svg width="60" height="60" viewBox="0 0 60 60" fill="none" xmlns="http://www.w3.org/2000/svg">
<path d="M30 60C46.5685 60 60 46.5685 60 30C60 13.4315 46.5685 0 30 0C13.4315 0 0 13.4315 0 30C0 46.5685 13.4315 60 30 60Z" fill="#DDF3E6"/>
<path d="M46.9051 40.0799L35.0351 49.6899C33.6106 50.8436 31.8331 51.4731 30.0001 51.4731C28.167 51.4731 26.3895 50.8436 24.9651 49.6899L13.0951 40.0799C12.6315 39.705 12.2576 39.2311 12.0007 38.693C11.7439 38.1549 11.6106 37.5662 11.6106 36.9699C11.6106 36.3737 11.7439 35.785 12.0007 35.2469C12.2576 34.7088 12.6315 34.2349 13.0951 33.8599L24.9651 24.2449C26.3895 23.0913 28.167 22.4618 30.0001 22.4618C31.8331 22.4618 33.6106 23.0913 35.0351 24.2449L46.9051 33.8599C47.3686 34.2349 47.7425 34.7088 47.9994 35.2469C48.2562 35.785 48.3895 36.3737 48.3895 36.9699C48.3895 37.5662 48.2562 38.1549 47.9994 38.693C47.7425 39.2311 47.3686 39.705 46.9051 40.0799Z" fill="url(#paint0_radial_121_507)"/>
<path d="M13.0951 33.8599L24.9651 24.2449C26.3895 23.0913 28.167 22.4618 30.0001 22.4618C31.8331 22.4618 33.6106 23.0913 35.0351 24.2449L46.9051 33.8599C47.3686 34.2349 47.7425 34.7088 47.9994 35.2469C48.2562 35.785 48.3895 36.3737 48.3895 36.9699C48.3895 37.5662 48.2562 38.1549 47.9994 38.693C47.7425 39.2311 47.3686 39.705 46.9051 40.0799L35.0351 49.6899C33.6106 50.8436 31.8331 51.4731 30.0001 51.4731C28.167 51.4731 26.3895 50.8436 24.9651 49.6899L13.0951 40.0799C12.6315 39.705 12.2576 39.2311 12.0007 38.693C11.7439 38.1549 11.6106 37.5662 11.6106 36.9699C11.6106 36.3737 11.7439 35.785 12.0007 35.2469C12.2576 34.7088 12.6315 34.2349 13.0951 33.8599Z" fill="url(#paint1_radial_121_507)"/>
<path d="M13.0951 19.3601L24.9651 9.74505C26.3895 8.59137 28.167 7.96187 30.0001 7.96187C31.8331 7.96187 33.6106 8.59137 35.0351 9.74505L46.9051 19.3601C47.3686 19.735 47.7425 20.2089 47.9994 20.747C48.2562 21.2851 48.3895 21.8738 48.3895 22.4701C48.3895 23.0663 48.2562 23.655 47.9994 24.1931C47.7425 24.7312 47.3686 25.2051 46.9051 25.5801L35.0351 35.1901C33.6106 36.3437 31.8331 36.9732 30.0001 36.9732C28.167 36.9732 26.3895 36.3437 24.9651 35.1901L13.0951 25.5801C12.6315 25.2051 12.2576 24.7312 12.0007 24.1931C11.7439 23.655 11.6106 23.0663 11.6106 22.4701C11.6106 21.8738 11.7439 21.2851 12.0007 20.747C12.2576 20.2089 12.6315 19.735 13.0951 19.3601Z" fill="url(#paint2_radial_121_507)"/>
<path d="M46.9051 25.5801L35.0351 35.1901C33.6106 36.3437 31.8331 36.9732 30.0001 36.9732C28.167 36.9732 26.3895 36.3437 24.9651 35.1901L13.0951 25.5801C12.6315 25.2051 12.2576 24.7312 12.0007 24.1931C11.7439 23.655 11.6106 23.0663 11.6106 22.4701C11.6106 21.8738 11.7439 21.2851 12.0007 20.747C12.2576 20.2089 12.6315 19.735 13.0951 19.3601L24.9651 9.74505C26.3895 8.59137 28.167 7.96187 30.0001 7.96187C31.8331 7.96187 33.6106 8.59137 35.0351 9.74505L46.9051 19.3601C47.3686 19.735 47.7425 20.2089 47.9994 20.747C48.2562 21.2851 48.3895 21.8738 48.3895 22.4701C48.3895 23.0663 48.2562 23.655 47.9994 24.1931C47.7425 24.7312 47.3686 25.2051 46.9051 25.5801Z" fill="url(#paint3_radial_121_507)"/>
<defs>
<radialGradient id="paint0_radial_121_507" cx="0" cy="0" r="1" gradientUnits="userSpaceOnUse" gradientTransform="translate(46.5251 37.1999) rotate(180) scale(37.28 37.28)">
<stop stop-color="#00D254"/>
<stop offset="0.73" stop-color="#00D254" stop-opacity="0"/>
</radialGradient>
<radialGradient id="paint1_radial_121_507" cx="0" cy="0" r="1" gradientUnits="userSpaceOnUse" gradientTransform="translate(16.8592 52.9878) rotate(-122.735) scale(29.189 39.3227)">
<stop stop-color="#00D254"/>
<stop offset="0.27" stop-color="#00D254" stop-opacity="0.67"/>
<stop offset="0.58" stop-color="#00D254" stop-opacity="0.31"/>
<stop offset="0.81" stop-color="#00D254" stop-opacity="0.09"/>
<stop offset="0.93" stop-color="#00D254" stop-opacity="0"/>
</radialGradient>
<radialGradient id="paint2_radial_121_507" cx="0" cy="0" r="1" gradientUnits="userSpaceOnUse" gradientTransform="translate(13.4751 22.2401) scale(37.28 37.28)">
<stop offset="0.17" stop-color="#00D254"/>
<stop offset="0.22" stop-color="#00D254" stop-opacity="0.96"/>
<stop offset="0.31" stop-color="#00D254" stop-opacity="0.84"/>
<stop offset="0.42" stop-color="#00D254" stop-opacity="0.65"/>
<stop offset="0.56" stop-color="#00D254" stop-opacity="0.38"/>
<stop offset="0.72" stop-color="#00D254" stop-opacity="0.04"/>
<stop offset="0.74" stop-color="#00D254" stop-opacity="0"/>
</radialGradient>
<radialGradient id="paint3_radial_121_507" cx="0" cy="0" r="1" gradientUnits="userSpaceOnUse" gradientTransform="translate(32.7868 9.7205) rotate(57.2648) scale(29.189 39.3227)">
<stop offset="0.02" stop-color="#00D254" stop-opacity="0.96"/>
<stop offset="0.0201" stop-color="#00D254"/>
<stop offset="0.16" stop-color="#00D254" stop-opacity="0.71"/>
<stop offset="0.29" stop-color="#00D254" stop-opacity="0.49"/>
<stop offset="0.43" stop-color="#00D254" stop-opacity="0.32"/>
<stop offset="0.56" stop-color="#00D254" stop-opacity="0.18"/>
<stop offset="0.68" stop-color="#00D254" stop-opacity="0.08"/>
<stop offset="0.8" stop-color="#00D254" stop-opacity="0.02"/>
<stop offset="0.9" stop-color="#00D254" stop-opacity="0"/>
</radialGradient>
</defs>
</svg>
