<svg width="100" height="100" viewBox="0 0 100 100" fill="none" xmlns="http://www.w3.org/2000/svg">
<path d="M50 100C77.6142 100 100 77.6142 100 50C100 22.3858 77.6142 0 50 0C22.3858 0 0 22.3858 0 50C0 77.6142 22.3858 100 50 100Z" fill="#1E265A"/>
<path d="M78.1747 66.7999L58.3914 82.8166C56.0172 84.7394 53.0548 85.7886 49.9997 85.7886C46.9446 85.7886 43.9822 84.7394 41.608 82.8166L21.8247 66.7999C21.0521 66.175 20.4289 65.3852 20.0008 64.4884C19.5728 63.5915 19.3506 62.6103 19.3506 61.6166C19.3506 60.6228 19.5728 59.6417 20.0008 58.7448C20.4289 57.848 21.0521 57.0582 21.8247 56.4333L41.608 40.4083C43.9822 38.4855 46.9446 37.4363 49.9997 37.4363C53.0548 37.4363 56.0172 38.4855 58.3914 40.4083L78.1747 56.4333C78.9473 57.0582 79.5705 57.848 79.9986 58.7448C80.4267 59.6417 80.6488 60.6228 80.6488 61.6166C80.6488 62.6103 80.4267 63.5915 79.9986 64.4884C79.5705 65.3852 78.9473 66.175 78.1747 66.7999Z" fill="url(#paint0_radial_86_198)"/>
<path d="M21.8247 56.4333L41.608 40.4083C43.9822 38.4855 46.9446 37.4363 49.9997 37.4363C53.0548 37.4363 56.0172 38.4855 58.3914 40.4083L78.1747 56.4333C78.9473 57.0582 79.5705 57.848 79.9986 58.7448C80.4267 59.6417 80.6488 60.6228 80.6488 61.6166C80.6488 62.6103 80.4267 63.5915 79.9986 64.4884C79.5705 65.3852 78.9473 66.175 78.1747 66.7999L58.3914 82.8166C56.0172 84.7394 53.0548 85.7886 49.9997 85.7886C46.9446 85.7886 43.9822 84.7394 41.608 82.8166L21.8247 66.7999C21.0521 66.175 20.4289 65.3852 20.0008 64.4884C19.5728 63.5915 19.3506 62.6103 19.3506 61.6166C19.3506 60.6228 19.5728 59.6417 20.0008 58.7448C20.4289 57.848 21.0521 57.0582 21.8247 56.4333Z" fill="url(#paint1_radial_86_198)"/>
<path d="M21.8247 32.2668L41.608 16.2418C43.9822 14.3189 46.9446 13.2698 49.9997 13.2698C53.0548 13.2698 56.0172 14.3189 58.3914 16.2418L78.1747 32.2668C78.9473 32.8917 79.5705 33.6815 79.9986 34.5783C80.4267 35.4751 80.6488 36.4563 80.6488 37.4501C80.6488 38.4438 80.4267 39.425 79.9986 40.3219C79.5705 41.2187 78.9473 42.0085 78.1747 42.6334L58.3914 58.6501C56.0172 60.5729 53.0548 61.6221 49.9997 61.6221C46.9446 61.6221 43.9822 60.5729 41.608 58.6501L21.8247 42.6334C21.0521 42.0085 20.4289 41.2187 20.0008 40.3219C19.5728 39.425 19.3506 38.4438 19.3506 37.4501C19.3506 36.4563 19.5728 35.4751 20.0008 34.5783C20.4289 33.6815 21.0521 32.8917 21.8247 32.2668Z" fill="url(#paint2_radial_86_198)"/>
<path d="M78.1747 42.6334L58.3914 58.6501C56.0172 60.5729 53.0548 61.6221 49.9997 61.6221C46.9446 61.6221 43.9822 60.5729 41.608 58.6501L21.8247 42.6334C21.0521 42.0085 20.4289 41.2187 20.0008 40.3219C19.5728 39.425 19.3506 38.4438 19.3506 37.4501C19.3506 36.4563 19.5728 35.4751 20.0008 34.5783C20.4289 33.6815 21.0521 32.8917 21.8247 32.2668L41.608 16.2418C43.9822 14.3189 46.9446 13.2698 49.9997 13.2698C53.0548 13.2698 56.0172 14.3189 58.3914 16.2418L78.1747 32.2668C78.9473 32.8917 79.5705 33.6815 79.9986 34.5783C80.4267 35.4751 80.6488 36.4563 80.6488 37.4501C80.6488 38.4438 80.4267 39.425 79.9986 40.3219C79.5705 41.2187 78.9473 42.0085 78.1747 42.6334Z" fill="url(#paint3_radial_86_198)"/>
<defs>
<radialGradient id="paint0_radial_86_198" cx="0" cy="0" r="1" gradientUnits="userSpaceOnUse" gradientTransform="translate(77.5414 61.9999) rotate(180) scale(62.1333 62.1333)">
<stop stop-color="#1F7DF1"/>
<stop offset="0.73" stop-color="#1F7DF1" stop-opacity="0"/>
</radialGradient>
<radialGradient id="paint1_radial_86_198" cx="0" cy="0" r="1" gradientUnits="userSpaceOnUse" gradientTransform="translate(28.0983 88.313) rotate(-122.735) scale(48.6484 65.5378)">
<stop stop-color="#4DC2A1"/>
<stop offset="0.27" stop-color="#4DC2A1" stop-opacity="0.67"/>
<stop offset="0.58" stop-color="#4DC2A1" stop-opacity="0.31"/>
<stop offset="0.81" stop-color="#4DC2A1" stop-opacity="0.09"/>
<stop offset="0.93" stop-color="#4DC2A1" stop-opacity="0"/>
</radialGradient>
<radialGradient id="paint2_radial_86_198" cx="0" cy="0" r="1" gradientUnits="userSpaceOnUse" gradientTransform="translate(22.458 37.0668) scale(62.1333 62.1333)">
<stop offset="0.17" stop-color="#F05E56"/>
<stop offset="0.22" stop-color="#F05E56" stop-opacity="0.96"/>
<stop offset="0.31" stop-color="#F05E56" stop-opacity="0.84"/>
<stop offset="0.42" stop-color="#F05E56" stop-opacity="0.65"/>
<stop offset="0.56" stop-color="#F05E56" stop-opacity="0.38"/>
<stop offset="0.72" stop-color="#F05E56" stop-opacity="0.04"/>
<stop offset="0.74" stop-color="#F05E56" stop-opacity="0"/>
</radialGradient>
<radialGradient id="paint3_radial_86_198" cx="0" cy="0" r="1" gradientUnits="userSpaceOnUse" gradientTransform="translate(54.6443 16.2008) rotate(57.2648) scale(48.6484 65.5378)">
<stop stop-color="#EA66CB"/>
<stop offset="0.02" stop-color="#EA66CB" stop-opacity="0.96"/>
<stop offset="0.16" stop-color="#EA66CB" stop-opacity="0.71"/>
<stop offset="0.29" stop-color="#EA66CB" stop-opacity="0.49"/>
<stop offset="0.43" stop-color="#EA66CB" stop-opacity="0.32"/>
<stop offset="0.56" stop-color="#EA66CB" stop-opacity="0.18"/>
<stop offset="0.68" stop-color="#EA66CB" stop-opacity="0.08"/>
<stop offset="0.8" stop-color="#EA66CB" stop-opacity="0.02"/>
<stop offset="0.9" stop-color="#EA66CB" stop-opacity="0"/>
</radialGradient>
</defs>
</svg>
