<svg width="60" height="60" viewBox="0 0 60 60" fill="none" xmlns="http://www.w3.org/2000/svg">
<path d="M30 60C46.5685 60 60 46.5685 60 30C60 13.4315 46.5685 0 30 0C13.4315 0 0 13.4315 0 30C0 46.5685 13.4315 60 30 60Z" fill="#DDF3E6"/>
<path d="M18.555 35.2335C18.555 37.5351 16.6949 39.3954 14.3933 39.3954C12.0916 39.3954 10.2315 37.5351 10.2315 35.2335C10.2315 32.932 12.0916 31.0719 14.3934 31.0719H18.5549V35.2337L18.555 35.2335ZM20.636 35.2335C20.636 32.932 22.4961 31.0719 24.7978 31.0719C27.0994 31.0719 28.9595 32.932 28.9595 35.2337V45.638C28.9595 47.9396 27.0994 49.7999 24.7976 49.7999C22.4963 49.7999 20.636 47.9396 20.636 45.638V35.2337V35.2335Z" fill="#00D254"/>
<path d="M24.7978 18.5235C22.4961 18.5235 20.6358 16.6633 20.6358 14.3617C20.6358 12.0601 22.4963 10.2 24.7978 10.2C27.0992 10.2 28.9595 12.0601 28.9595 14.3617V18.5236H24.7976L24.7978 18.5235ZM24.7978 20.6359C27.0994 20.6359 28.9595 22.4961 28.9595 24.7977C28.9595 27.0993 27.0994 28.9595 24.7976 28.9595H14.3619C12.0602 28.9595 10.2 27.0993 10.2 24.7976C10.2 22.4962 12.0602 20.6359 14.3618 20.6359H24.7976H24.7978Z" fill="#00D254"/>
<path d="M41.4765 24.7977C41.4765 22.4961 43.3366 20.6358 45.6381 20.6358C47.9397 20.6358 49.8 22.4961 49.8 24.7977C49.8 27.0993 47.9397 28.9595 45.6381 28.9595H41.4765V24.7976V24.7977ZM39.3955 24.7977C39.3955 27.0993 37.5352 28.9595 35.2336 28.9595C32.9321 28.9595 31.072 27.0993 31.072 24.7976V14.3619C31.072 12.0601 32.9321 10.2 35.2336 10.2C37.5351 10.2 39.3954 12.0601 39.3954 14.3617V24.7976L39.3955 24.7977Z" fill="#00D254"/>
<path d="M35.2336 41.4764C37.5352 41.4764 39.3955 43.3365 39.3955 45.638C39.3955 47.9396 37.5352 49.7999 35.2336 49.7999C32.9321 49.7999 31.072 47.9396 31.072 45.638V41.4764H35.2338H35.2336ZM35.2336 39.3954C32.9321 39.3954 31.072 37.5351 31.072 35.2335C31.072 32.932 32.9321 31.0719 35.2338 31.0719H45.6696C47.9712 31.0719 49.8315 32.932 49.8315 35.2337C49.8315 37.5351 47.9712 39.3954 45.6696 39.3954H35.2338H35.2336Z" fill="#00D254"/>
</svg>
