<svg width="60" height="60" viewBox="0 0 60 60" fill="none" xmlns="http://www.w3.org/2000/svg">
<path d="M30 60C46.5685 60 60 46.5685 60 30C60 13.4315 46.5685 0 30 0C13.4315 0 0 13.4315 0 30C0 46.5685 13.4315 60 30 60Z" fill="#DDF3E6"/>
<path d="M30.0092 12C31.5189 12 36.6382 12.4231 39.0546 17.8309C39.8626 19.6506 39.6691 22.7435 39.5098 25.2273L39.506 25.3164C39.4851 25.5935 39.4719 25.8439 39.4605 26.0944C39.648 26.1943 39.8591 26.2415 40.0712 26.231C40.5283 26.2064 41.0765 26.0489 41.6474 25.7737C41.8671 25.6649 42.1097 25.6102 42.3549 25.6143C42.6318 25.6143 42.903 25.658 43.1306 25.751C43.8153 25.9787 44.2497 26.4815 44.2497 27.0299C44.2743 27.7148 43.656 28.3107 42.4004 28.8116C42.2657 28.8552 42.0798 28.9273 41.8769 28.9937C41.1884 29.2006 40.1376 29.5421 39.8417 30.229C39.7052 30.5724 39.7488 31.0278 40.0276 31.5515L40.0504 31.5762C40.1414 31.783 42.3795 36.8796 47.3603 37.7031C47.543 37.7326 47.7086 37.8276 47.8263 37.9705C47.944 38.1133 48.0055 38.2942 47.9995 38.4792C47.9995 38.593 47.9748 38.705 47.9312 38.8226C47.5651 39.6898 45.9909 40.3311 43.1325 40.76C43.0434 40.8985 42.9504 41.333 42.8822 41.6309C42.8404 41.9041 42.7684 42.1793 42.6792 42.4734C42.5635 42.887 42.2676 43.09 41.8333 43.09H41.7878C41.5112 43.0773 41.2364 43.0398 40.9665 42.9781C40.3283 42.8403 39.6771 42.7716 39.0242 42.7732C38.569 42.7732 38.1138 42.7959 37.6358 42.887C36.7197 43.0464 35.9212 43.5948 35.007 44.2342C33.704 45.1469 32.2207 46.2 29.9826 46.2C29.8916 46.2 29.8005 46.1772 29.7057 46.1772H29.48C27.24 46.1772 25.7795 45.1469 24.4783 44.2115C23.566 43.5701 22.7903 43.0236 21.8741 42.8624C21.4062 42.7924 20.9341 42.7544 20.4611 42.7485C19.636 42.7485 18.9987 42.8851 18.5208 42.9762C18.1983 43.0426 17.9252 43.0882 17.6957 43.0882C17.4957 43.1034 17.2967 43.0476 17.1337 42.9307C16.9707 42.8137 16.854 42.6431 16.8042 42.4487C16.7132 42.1565 16.6696 41.8548 16.6013 41.5835C16.5292 41.3064 16.4401 40.8321 16.349 40.7144C13.4224 40.3748 11.8481 39.7334 11.4839 38.8435C11.4336 38.7357 11.4053 38.6189 11.4005 38.5001C11.3932 38.3148 11.4543 38.1333 11.5722 37.9901C11.6901 37.847 11.8565 37.7523 12.0397 37.724C17.0186 36.9005 19.2567 31.8058 19.3496 31.5914L19.3743 31.5477C19.6493 31.0221 19.7157 30.5611 19.5564 30.2214C19.2605 29.5592 18.2078 29.2176 17.5269 28.9881C17.3457 28.9423 17.1687 28.8813 16.9977 28.8059C15.3096 28.1418 15.0801 27.3866 15.1731 26.8629C15.3096 26.1343 16.1992 25.6542 16.9541 25.6542C17.176 25.6542 17.3657 25.6978 17.5383 25.768C18.1774 26.0622 18.7427 26.2253 19.2225 26.2253C19.4684 26.2344 19.7123 26.1787 19.93 26.064L19.8522 25.195C19.7005 22.715 19.507 19.6259 20.3207 17.8157C22.6651 12.4345 27.7729 12.0209 29.2808 12.0209L29.9162 12H30.0092Z" fill="#00D254"/>
</svg>
