<svg width="100" height="100" viewBox="0 0 100 100" fill="none" xmlns="http://www.w3.org/2000/svg">
<path d="M50 100C77.6142 100 100 77.6142 100 50C100 22.3858 77.6142 0 50 0C22.3858 0 0 22.3858 0 50C0 77.6142 22.3858 100 50 100Z" fill="#FCEF37"/>
<path d="M50.0154 20C52.5317 20 61.0638 20.7052 65.0911 29.7182C66.4378 32.751 66.1154 37.9058 65.8498 42.0454L65.8435 42.1941C65.8087 42.6558 65.7866 43.0732 65.7676 43.4907C66.0802 43.6572 66.4319 43.7358 66.7855 43.7184C67.5474 43.6773 68.461 43.4148 69.4125 42.9562C69.7787 42.7748 70.183 42.6837 70.5916 42.6906C71.0531 42.6906 71.5052 42.7633 71.8845 42.9183C73.0257 43.2978 73.7496 44.1358 73.7496 45.0498C73.7907 46.1914 72.7602 47.1844 70.6675 48.0193C70.443 48.092 70.1332 48.2122 69.795 48.3229C68.6475 48.6676 66.8962 49.2369 66.403 50.3817C66.1754 50.9541 66.2481 51.713 66.7128 52.5859L66.7508 52.627C66.9025 52.9717 70.6327 61.466 78.934 62.8385C79.2384 62.8876 79.5146 63.046 79.7107 63.2841C79.9068 63.5222 80.0094 63.8237 79.9993 64.132C79.9993 64.3217 79.9582 64.5083 79.8855 64.7044C79.2754 66.1496 76.6516 67.2185 71.8877 67.9333C71.7391 68.1641 71.5842 68.8883 71.4704 69.3848C71.4009 69.8402 71.2808 70.2988 71.1322 70.7889C70.9393 71.4784 70.4462 71.8167 69.7223 71.8167H69.6464C69.1855 71.7955 68.7274 71.733 68.2776 71.6302C67.214 71.4005 66.1287 71.286 65.0406 71.2886C64.2819 71.2886 63.5232 71.3266 62.7266 71.4784C61.1997 71.744 59.8689 72.658 58.3452 73.7237C56.1734 75.2448 53.7014 77 49.9712 77C49.8194 77 49.6677 76.962 49.5096 76.962H49.1334C45.4001 76.962 42.966 75.2448 40.7974 73.6858C39.2769 72.6168 37.9839 71.7061 36.4571 71.4372C35.6772 71.3207 34.8904 71.2573 34.102 71.2475C32.7269 71.2475 31.6647 71.4752 30.8681 71.627C30.3307 71.7377 29.8755 71.8136 29.493 71.8136C29.1596 71.8389 28.828 71.746 28.5563 71.5511C28.2846 71.3562 28.0902 71.0718 28.0072 70.7478C27.8555 70.2608 27.7828 69.758 27.669 69.3058C27.5488 68.844 27.4003 68.0534 27.2485 67.8574C22.3708 67.2913 19.747 66.2224 19.1401 64.7392C19.0562 64.5595 19.009 64.3649 19.001 64.1668C18.9888 63.8579 19.0907 63.5554 19.2872 63.3169C19.4836 63.0783 19.761 62.9205 20.0663 62.8733C28.3644 61.5008 32.0946 53.0097 32.2495 52.6523L32.2906 52.5796C32.749 51.7036 32.8596 50.9351 32.5941 50.369C32.101 49.2653 30.3465 48.6961 29.2116 48.3134C28.9097 48.2371 28.6146 48.1356 28.3297 48.0098C25.5162 46.903 25.1337 45.6443 25.2886 44.7715C25.5162 43.5571 26.9988 42.757 28.2569 42.757C28.6268 42.757 28.9429 42.8297 29.2306 42.9467C30.2959 43.4369 31.2379 43.7089 32.0377 43.7089C32.4475 43.7239 32.8541 43.6312 33.2169 43.4401L33.0872 41.9917C32.8343 37.8584 32.5119 32.7099 33.8681 29.6929C37.7753 20.7242 46.2884 20.0348 48.8015 20.0348L49.8605 20H50.0154Z" fill="#202020"/>
</svg>
