<svg width="60" height="60" viewBox="0 0 60 60" fill="none" xmlns="http://www.w3.org/2000/svg">
<path d="M30 60C46.5685 60 60 46.5685 60 30C60 13.4315 46.5685 0 30 0C13.4315 0 0 13.4315 0 30C0 46.5685 13.4315 60 30 60Z" fill="#DDF3E6"/>
<path opacity="0.4" d="M37.1847 24.6616C39.6642 26.4331 42.7017 27.4754 45.9822 27.4754V21.166C45.3613 21.1661 44.7421 21.1013 44.1347 20.9727V25.9391C40.8544 25.9391 37.8172 24.8969 35.3373 23.1256V36.0014C35.3373 42.4427 30.1129 47.6639 23.6689 47.6639C21.2644 47.6639 19.0295 46.9374 17.173 45.6913C19.2919 47.8568 22.2469 49.2 25.5159 49.2C31.9605 49.2 37.185 43.9789 37.185 37.5373V24.6616H37.1847ZM39.464 18.2961C38.1968 16.9125 37.3647 15.1244 37.1847 13.1475V12.3361H35.4339C35.8746 14.8486 37.3779 16.9951 39.4638 18.2961H39.464ZM21.2489 40.7486C20.5409 39.8209 20.1582 38.6858 20.16 37.5189C20.16 34.573 22.5495 32.1843 25.4977 32.1843C26.047 32.184 26.5931 32.2684 27.1168 32.4343V25.9837C26.5049 25.9 25.8873 25.8643 25.27 25.8774V30.8981C24.7461 30.7321 24.1997 30.6478 23.6501 30.6483C20.7021 30.6483 18.3127 33.0367 18.3127 35.983C18.3127 38.0663 19.507 39.8699 21.2489 40.7486Z" fill="#00D254"/>
<path d="M35.3372 23.1254C37.8173 24.8968 40.8542 25.939 44.1346 25.939V20.9726C42.3035 20.5827 40.6825 19.6264 39.4638 18.2961C37.3777 16.9949 35.8746 14.8484 35.4339 12.3361H30.8351V37.5371C30.8247 40.475 28.4392 42.8538 25.4974 42.8538C23.764 42.8538 22.2239 42.028 21.2486 40.7485C19.5069 39.87 18.3125 38.0662 18.3125 35.9831C18.3125 33.0371 20.7019 30.6484 23.65 30.6484C24.2148 30.6484 24.7592 30.7363 25.2699 30.8983V25.8775C18.9389 26.0083 13.8474 31.1785 13.8474 37.5372C13.8474 40.7114 15.1153 43.589 17.1731 45.6916C19.0296 46.9374 21.2644 47.6642 23.6689 47.6642C30.1131 47.6642 35.3374 42.4426 35.3374 36.0015V23.1256H35.3372V23.1254Z" fill="#00D254"/>
<path opacity="0.4" d="M44.1346 20.9724V19.6298C42.4834 19.6323 40.8648 19.1701 39.4638 18.2961C40.7039 19.6531 42.3369 20.5888 44.1346 20.9727V20.9724ZM35.4338 12.3359C35.3917 12.0959 35.3595 11.8542 35.3371 11.6115V10.8H28.9873V36.0013C28.9772 38.939 26.5918 41.3178 23.6498 41.3178C22.8158 41.3191 21.9932 41.1241 21.2485 40.7487C22.2237 42.028 23.7639 42.8537 25.4973 42.8537C28.4389 42.8537 30.8247 40.4751 30.835 37.5372V12.3361H35.4338V12.3359ZM25.2701 25.8774V24.4479C24.7395 24.3753 24.2046 24.339 23.6691 24.3393C17.2242 24.3393 12 29.5607 12 36.0013C12 40.0393 14.0532 43.598 17.1733 45.6913C15.1154 43.5888 13.8476 40.7112 13.8476 37.5371C13.8476 31.1785 18.9389 26.0083 25.2701 25.8775V25.8774Z" fill="#00D254"/>
</svg>
