<svg width="100" height="100" viewBox="0 0 100 100" fill="none" xmlns="http://www.w3.org/2000/svg">
<path d="M99 50C99 77.062 77.062 99 50 99C22.938 99 1 77.062 1 50C1 22.938 22.938 1 50 1C77.062 1 99 22.938 99 50Z" fill="white" stroke="#00F2EA" stroke-width="2"/>
<path d="M61.9746 41.1026C66.107 44.0551 71.1695 45.7923 76.6371 45.7923V35.2766C75.6023 35.2768 74.5703 35.1688 73.5579 34.9544V43.2318C68.0907 43.2318 63.0288 41.4949 58.8956 38.5426V60.0024C58.8956 70.7378 50.1883 79.4398 39.4482 79.4398C35.4408 79.4398 31.7159 78.2289 28.6218 76.1521C32.1533 79.7613 37.0782 82 42.5266 82C53.2676 82 61.9751 73.2981 61.9751 62.5622V41.1026H61.9746ZM65.7734 30.4935C63.6614 28.1875 62.2746 25.2073 61.9746 21.9125V20.5601H59.0566C59.7912 24.7475 62.2965 28.3251 65.7732 30.4935H65.7734ZM35.4149 67.9143C34.235 66.3681 33.5972 64.4764 33.6 62.5314C33.6 57.6216 37.5827 53.6405 42.4963 53.6405C43.4118 53.64 44.322 53.7806 45.1948 54.0571V43.3062C44.1749 43.1666 43.1456 43.1071 42.1168 43.129V51.4969C41.2436 51.2201 40.333 51.0797 39.417 51.0805C34.5036 51.0805 30.5212 55.0611 30.5212 59.9716C30.5212 63.4438 32.5117 66.4499 35.4149 67.9143Z" fill="#FF004F"/>
<path d="M58.8954 38.5423C63.029 41.4946 68.0904 43.2316 73.5577 43.2316V34.9542C70.5059 34.3044 67.8043 32.7106 65.7731 30.4935C62.2962 28.3248 59.791 24.7473 59.0565 20.5601H51.392V62.5617C51.3745 67.4583 47.3987 71.423 42.4957 71.423C39.6067 71.423 37.0398 70.0466 35.4144 67.9141C32.5116 66.4499 30.5209 63.4436 30.5209 59.9718C30.5209 55.0618 34.5033 51.0807 39.4167 51.0807C40.3581 51.0807 41.2654 51.2272 42.1165 51.4971V43.1292C31.5649 43.3471 23.0791 51.9641 23.0791 62.562C23.0791 67.8523 25.1922 72.6483 28.6219 76.1525C31.716 78.2289 35.4407 79.4402 39.4483 79.4402C50.1886 79.4402 58.8957 70.7376 58.8957 60.0024V38.5426H58.8954V38.5423Z" fill="black"/>
<path d="M73.5577 34.9539V32.7163C70.8056 32.7205 68.1079 31.9502 65.773 30.4934C67.8399 32.755 70.5615 34.3146 73.5577 34.9544V34.9539ZM59.0563 20.5598C58.9862 20.1597 58.9325 19.7569 58.8952 19.3525V18H48.3122V60.0021C48.2954 64.8983 44.3196 68.8629 39.4164 68.8629C38.0264 68.865 36.6554 68.5401 35.4141 67.9145C37.0396 70.0466 39.6064 71.4227 42.4955 71.4227C47.3982 71.4227 51.3744 67.4585 51.3917 62.5619V20.56H59.0563V20.5598ZM42.1169 43.1289V40.7463C41.2326 40.6255 40.341 40.565 39.4485 40.5654C28.7071 40.5654 20 49.2678 20 60.0021C20 66.7321 23.422 72.6633 28.6221 76.1521C25.1924 72.648 23.0793 67.8519 23.0793 62.5617C23.0793 51.9641 31.5649 43.3471 42.1169 43.1291V43.1289Z" fill="#00F2EA"/>
</svg>
