<svg width="100" height="100" viewBox="0 0 100 100" fill="none" xmlns="http://www.w3.org/2000/svg">
<path d="M50 100C77.6142 100 100 77.6142 100 50C100 22.3858 77.6142 0 50 0C22.3858 0 0 22.3858 0 50C0 77.6142 22.3858 100 50 100Z" fill="#1D9BF0"/>
<path d="M81 32.7361C78.7916 33.74 76.4111 34.3996 73.9446 34.7151C76.4685 33.195 78.4187 30.7859 79.3365 27.8891C76.956 29.3231 74.3174 30.327 71.5354 30.9006C69.2696 28.434 66.086 27 62.4723 27C55.7323 27 50.2256 32.5067 50.2256 39.304C50.2256 40.2792 50.3403 41.2256 50.5411 42.1147C40.3308 41.5985 31.239 36.6941 25.1874 29.2658C24.1262 31.0727 23.5239 33.195 23.5239 35.4321C23.5239 39.7055 25.675 43.4914 29.0019 45.6425C26.9656 45.6425 25.0727 45.0688 23.4092 44.2084V44.2945C23.4092 50.26 27.6539 55.2505 33.2753 56.369C31.4705 56.8629 29.5758 56.9317 27.74 56.5698C28.5189 59.0148 30.0446 61.1541 32.1023 62.6872C34.1601 64.2202 36.6466 65.0699 39.2122 65.1166C34.8632 68.5596 29.4723 70.4206 23.9254 70.3939C22.9503 70.3939 21.9751 70.3365 21 70.2218C26.4493 73.7208 32.9312 75.7572 39.8719 75.7572C62.4723 75.7572 74.891 57 74.891 40.7381C74.891 40.1931 74.891 39.6769 74.8623 39.1319C77.2715 37.4111 79.3365 35.2314 81 32.7361Z" fill="white"/>
</svg>
