<svg width="60" height="60" viewBox="0 0 60 60" fill="none" xmlns="http://www.w3.org/2000/svg">
<path d="M30 60C46.5685 60 60 46.5685 60 30C60 13.4315 46.5685 0 30 0C13.4315 0 0 13.4315 0 30C0 46.5685 13.4315 60 30 60Z" fill="#DDF3E6"/>
<path d="M48.6 19.6416C47.2749 20.2439 45.8466 20.6397 44.3667 20.829C45.881 19.917 47.0512 18.4715 47.6019 16.7334C46.1736 17.5938 44.5904 18.1961 42.9212 18.5403C41.5617 17.0604 39.6516 16.2 37.4833 16.2C33.4394 16.2 30.1353 19.504 30.1353 23.5824C30.1353 24.1674 30.2042 24.7353 30.3246 25.2688C24.1984 24.959 18.7434 22.0164 15.1124 17.5594C14.4757 18.6435 14.1143 19.917 14.1143 21.2592C14.1143 23.8233 15.4049 26.0948 17.4011 27.3854C16.1793 27.3854 15.0436 27.0413 14.0455 26.525V26.5766C14.0455 30.156 16.5923 33.1502 19.9652 33.8214C18.8823 34.1177 17.7455 34.1589 16.644 33.9418C17.1113 35.4088 18.0267 36.6924 19.2614 37.6123C20.496 38.5321 21.9879 39.0419 23.5273 39.0699C20.9179 41.1357 17.6833 42.2523 14.3552 42.2363C13.7701 42.2363 13.1851 42.2019 12.6 42.133C15.8696 44.2325 19.7587 45.4543 23.9231 45.4543C37.4833 45.4543 44.9346 34.2 44.9346 24.4428C44.9346 24.1158 44.9346 23.8061 44.9174 23.4791C46.3629 22.4466 47.6019 21.1388 48.6 19.6416Z" fill="#00D254"/>
</svg>
