<svg width="100" height="100" viewBox="0 0 100 100" fill="none" xmlns="http://www.w3.org/2000/svg">
<path d="M50 100C77.6142 100 100 77.6142 100 50C100 22.3858 77.6142 0 50 0C22.3858 0 0 22.3858 0 50C0 77.6142 22.3858 100 50 100Z" fill="white"/>
<path d="M10.8266 32.5403L31.2903 88.5887C16.9758 81.6532 7.11694 66.9758 7.11694 50C7.11694 43.7702 8.44758 37.8831 10.8266 32.5403ZM78.9516 47.8427C78.9516 42.5403 77.0564 38.871 75.4234 36.0081C73.246 32.4798 71.2097 29.4758 71.2097 25.9476C71.2097 21.996 74.1936 18.3266 78.4073 18.3266C78.5887 18.3266 78.7702 18.3468 78.9718 18.3669C71.3307 11.371 61.1694 7.09677 50 7.09677C35.0202 7.09677 21.8347 14.7782 14.1532 26.4315C15.1613 26.4718 16.1089 26.4919 16.9153 26.4919C21.3911 26.4919 28.3468 25.9476 28.3468 25.9476C30.6653 25.8065 30.9274 29.2137 28.629 29.4758C28.629 29.4758 26.3105 29.7379 23.7298 29.879L39.3548 76.3307L48.75 48.1855L42.0766 29.879C39.7581 29.7379 37.5806 29.4758 37.5806 29.4758C35.2621 29.3347 35.5444 25.8065 37.8427 25.9476C37.8427 25.9476 44.9194 26.4919 49.1331 26.4919C53.6089 26.4919 60.5645 25.9476 60.5645 25.9476C62.8831 25.8065 63.1452 29.2137 60.8468 29.4758C60.8468 29.4758 58.5282 29.7379 55.9476 29.879L71.4516 75.9879L75.7258 61.6936C77.5403 55.7661 78.9516 51.5121 78.9516 47.8427ZM50.746 53.75L37.8831 91.1492C41.7339 92.2782 45.7863 92.9032 50 92.9032C55 92.9032 59.7782 92.0363 64.2339 90.4637C64.1129 90.2823 64.0121 90.0806 63.9315 89.879L50.746 53.75ZM87.6411 29.4153C87.8226 30.7863 87.9234 32.2379 87.9234 33.8306C87.9234 38.1855 87.1169 43.0645 84.6573 49.1936L71.5524 87.0766C84.3145 79.6371 92.8831 65.8266 92.8831 50C92.8831 42.5403 90.9879 35.5242 87.6411 29.4153ZM100 50C100 77.5806 77.5605 100 50 100C22.4194 100 0 77.5605 0 50C0 22.4194 22.4194 0 50 0C77.5605 0 100 22.4194 100 50ZM97.7016 50C97.7016 23.6895 76.2903 2.29839 50 2.29839C23.6895 2.29839 2.29839 23.6895 2.29839 50C2.29839 76.3105 23.7097 97.7016 50 97.7016C76.3105 97.7016 97.7016 76.3105 97.7016 50Z" fill="black"/>
</svg>
