<svg width="60" height="60" viewBox="0 0 60 60" fill="none" xmlns="http://www.w3.org/2000/svg">
<path d="M30 60C46.5685 60 60 46.5685 60 30C60 13.4315 46.5685 0 30 0C13.4315 0 0 13.4315 0 30C0 46.5685 13.4315 60 30 60Z" fill="#00D254"/>
<path d="M6.49597 19.5242L18.7742 53.1532C10.1855 48.9919 4.27016 40.1855 4.27016 30C4.27016 26.2621 5.06855 22.7298 6.49597 19.5242ZM47.371 28.7056C47.371 25.5242 46.2339 23.3226 45.254 21.6048C43.9476 19.4879 42.7258 17.6855 42.7258 15.5685C42.7258 13.1976 44.5161 10.996 47.0444 10.996C47.1532 10.996 47.2621 11.0081 47.3831 11.0202C42.7984 6.82258 36.7016 4.25806 30 4.25806C21.0121 4.25806 13.1008 8.86694 8.49193 15.8589C9.09677 15.8831 9.66532 15.8952 10.1492 15.8952C12.8347 15.8952 17.0081 15.5685 17.0081 15.5685C18.3992 15.4839 18.5565 17.5282 17.1774 17.6855C17.1774 17.6855 15.7863 17.8427 14.2379 17.9274L23.6129 45.7984L29.25 28.9113L25.246 17.9274C23.8548 17.8427 22.5484 17.6855 22.5484 17.6855C21.1573 17.6008 21.3266 15.4839 22.7056 15.5685C22.7056 15.5685 26.9516 15.8952 29.4798 15.8952C32.1653 15.8952 36.3387 15.5685 36.3387 15.5685C37.7298 15.4839 37.8871 17.5282 36.5081 17.6855C36.5081 17.6855 35.1169 17.8427 33.5685 17.9274L42.871 45.5927L45.4355 37.0161C46.5242 33.4597 47.371 30.9073 47.371 28.7056ZM30.4476 32.25L22.7298 54.6895C25.0403 55.3669 27.4718 55.7419 30 55.7419C33 55.7419 35.8669 55.2218 38.5403 54.2782C38.4677 54.1694 38.4073 54.0484 38.3589 53.9274L30.4476 32.25ZM52.5847 17.6492C52.6936 18.4718 52.754 19.3427 52.754 20.2984C52.754 22.9113 52.2702 25.8387 50.7944 29.5161L42.9314 52.246C50.5887 47.7823 55.7298 39.496 55.7298 30C55.7298 25.5242 54.5927 21.3145 52.5847 17.6492ZM60 30C60 46.5484 46.5363 60 30 60C13.4516 60 0 46.5363 0 30C0 13.4516 13.4516 0 30 0C46.5363 0 60 13.4516 60 30ZM58.621 30C58.621 14.2137 45.7742 1.37903 30 1.37903C14.2137 1.37903 1.37903 14.2137 1.37903 30C1.37903 45.7863 14.2258 58.621 30 58.621C45.7863 58.621 58.621 45.7863 58.621 30Z" fill="#DDF3E6"/>
</svg>
