<svg width="100" height="100" viewBox="0 0 100 100" fill="none" xmlns="http://www.w3.org/2000/svg">
<path d="M50 100C77.6142 100 100 77.6142 100 50C100 22.3858 77.6142 0 50 0C22.3858 0 0 22.3858 0 50C0 77.6142 22.3858 100 50 100Z" fill="#FF4A00"/>
<path d="M50.0206 17C51.8849 17.0034 53.7184 17.1609 55.5007 17.4589V36.6711L69.1212 23.0854C70.6218 24.1512 72.0309 25.3404 73.3338 26.6404C74.6381 27.9406 75.8316 29.3472 76.902 30.8458L63.2807 44.4312H82.5432C82.8471 46.2361 83 48.0632 83 49.8935V49.9381C83 51.8011 82.842 53.6264 82.5432 55.4038H63.2773L76.902 68.9858C75.8318 70.4834 74.6398 71.89 73.338 73.1913H73.3341C72.0324 74.4913 70.6245 75.6804 69.125 76.7462L55.5007 63.1606V82.3727C53.6907 82.6751 51.859 82.8287 50.024 82.8319H49.976C48.1421 82.8286 46.3115 82.6752 44.5027 82.373V63.1608L30.8822 76.7462C27.8743 74.6111 25.2445 71.9882 23.1014 68.9861L36.7227 55.4038H17.4602C17.1536 53.5946 16.9997 51.7628 17 49.9278V49.8322C17.0031 49.3488 17.0348 48.7581 17.0802 48.1471L17.0944 47.9633C17.2289 46.2434 17.4602 44.4312 17.4602 44.4312H36.7227L23.1014 30.8458C24.1675 29.3482 25.3586 27.9436 26.6618 26.6471L26.6685 26.6404C27.9712 25.3397 29.3807 24.1506 30.8822 23.0854L44.5027 36.6711V17.4589C46.3137 17.1564 48.1466 17.0029 49.9827 17L50.0206 17ZM50.0173 41.6881H49.9858C47.6055 41.6866 45.2444 42.1147 43.0161 42.9519C42.1799 45.1732 41.7507 47.527 41.749 49.9005V49.9314C41.7501 52.3052 42.1805 54.6591 43.0192 56.8797C45.2463 57.7172 47.6064 58.1453 49.9858 58.1435H50.0173C52.4691 58.1435 54.817 57.6949 56.9839 56.8797C57.8229 54.6592 58.2522 52.3049 58.251 49.9312V49.9002C58.251 47.4551 57.8006 45.1126 56.9839 42.9519C54.7568 42.1145 52.3966 41.6863 50.0173 41.6881Z" fill="white"/>
</svg>
