<svg width="60" height="60" viewBox="0 0 60 60" fill="none" xmlns="http://www.w3.org/2000/svg">
<path d="M30 60C46.5685 60 60 46.5685 60 30C60 13.4315 46.5685 0 30 0C13.4315 0 0 13.4315 0 30C0 46.5685 13.4315 60 30 60Z" fill="#DDF3E6"/>
<path d="M30.0123 10.2C31.1309 10.202 32.231 10.2965 33.3004 10.4754V22.0027L41.4727 13.8513C42.373 14.4908 43.2185 15.2042 44.0003 15.9842C44.7828 16.7643 45.4989 17.6084 46.1411 18.5075L37.9684 26.6588H49.5258C49.7082 27.7417 49.7999 28.8379 49.7999 29.9361V29.9629C49.7999 31.0807 49.7051 32.1758 49.5258 33.2423H37.9664L46.1411 41.3915C45.499 42.2901 44.7838 43.134 44.0027 43.9148H44.0004C43.2194 44.6948 42.3747 45.4083 41.475 46.0478L33.3004 37.8963V49.4237C32.2144 49.6051 31.1154 49.6972 30.0143 49.6992H29.9856C28.8852 49.6972 27.7869 49.6051 26.7015 49.4238V37.8965L18.5293 46.0478C16.7246 44.7667 15.1467 43.193 13.8608 41.3917L22.0335 33.2423H10.4761C10.2921 32.1567 10.1997 31.0577 10.2 29.9567V29.8993C10.2018 29.6093 10.2208 29.2549 10.2481 28.8883L10.2566 28.778C10.3373 27.7461 10.4761 26.6588 10.4761 26.6588H22.0335L13.8608 18.5075C14.5005 17.6089 15.2151 16.7662 15.997 15.9883L16.001 15.9842C16.7827 15.2038 17.6284 14.4903 18.5293 13.8513L26.7015 22.0027V10.4754C27.7882 10.2939 28.8879 10.2018 29.9896 10.2L30.0123 10.2ZM30.0103 25.0129H29.9914C28.5632 25.012 27.1466 25.2688 25.8096 25.7712C25.3079 27.104 25.0504 28.5162 25.0493 29.9403V29.9589C25.05 31.3831 25.3082 32.7955 25.8115 34.1278C27.1477 34.6303 28.5638 34.8872 29.9914 34.8861H30.0103C31.4814 34.8861 32.8901 34.617 34.1903 34.1278C34.6937 32.7955 34.9513 31.383 34.9506 29.9587V29.9401C34.9506 28.4731 34.6803 27.0676 34.1903 25.7712C32.854 25.2687 31.4379 25.0118 30.0103 25.0129Z" fill="#00D254"/>
</svg>
